<?xml version="1.0" encoding="utf-8" ?>
<svg xmlns="http://www.w3.org/2000/svg" xmlns:xlink="http://www.w3.org/1999/xlink" width="1024" height="1024">
	<path fill="#FEFEFE" d="M0 0L1024 0L1024 1024L0 1024L0 0Z"/>
	<path fill="#010130" d="M503.3 50.2007C505.522 49.8441 508.028 49.8903 510.28 49.8625C522.327 49.7136 534.742 51.5591 545.968 56.0348C554.509 59.4401 562.662 63.9763 570.867 68.1176Q587.332 76.223 603.651 84.6202L684.834 125.703L834.356 200.905C851.007 209.484 868.476 217.062 884.692 226.393Q889.476 229.178 893.863 232.553Q898.25 235.929 902.167 239.839C918.323 255.745 928.658 276.193 930.38 298.953C931.174 309.45 930.576 320.356 930.558 330.89L930.563 386.751Q956.416 413.266 982.552 439.506C982.188 455.882 982.503 472.336 982.495 488.72L982.501 583.731C964.952 600.888 948.038 618.678 930.496 635.843L930.456 689.349C930.451 707.499 931.828 726.205 926.767 743.826C923.22 756.175 916.702 766.954 908.744 776.951C903.003 784.163 896.542 790.54 888.569 795.242C881.378 799.483 873.52 802.797 866.029 806.486L821.614 828.394Q767.25 855.572 713.209 883.391L600.962 941.001C584.294 949.588 566.196 960.313 549.193 967.669C540.357 971.492 531.142 973.26 521.62 974.323C521.165 974.376 520.708 974.422 520.25 974.448C506.067 975.258 491.897 973.45 478.647 968.184C468.516 964.158 456.784 957.062 446.711 951.982L365.954 910.762L211.426 832.935L164.586 809.463C150.863 802.531 135.422 796.092 123.822 785.862C107.543 771.505 96.2641 751.156 93.8918 729.444C92.8728 720.118 93.4128 710.385 93.4164 701.011L93.4494 658.976C93.4539 651.251 93.8235 643.262 93.2784 635.562L93.2453 635.138L42.3201 583.519C41.8345 565.097 42.3012 546.577 42.371 528.148Q42.5771 483.592 42.305 439.037C46.3003 434.522 50.8168 430.332 55.0472 426.027C67.5801 413.273 80.7512 400.599 92.5139 387.15L92.4412 332.158C92.4262 318.165 91.382 303.417 94.2276 289.676C97.29 274.888 104.017 260.394 113.679 248.759C119.443 241.818 126.564 235.089 134.246 230.311C142.887 224.935 152.298 220.629 161.361 216.011Q181.563 205.468 201.942 195.274Q257.929 166.311 314.231 137.968L421.068 83.8363L450.152 69.196C458.13 65.1052 466.088 60.6993 474.337 57.1863C483.543 53.2659 493.369 51.1556 503.3 50.2007Z"/>
	<path fill="#FEFEFE" d="M553.115 466.923L572.097 466.94L572.033 555.502L553.387 555.507L553.115 466.923Z"/>
	<path fill="#FEFEFE" d="M252.501 466.499L270.739 466.521L270.949 506.605C270.954 514.652 270.435 523.072 271.096 531.086C271.267 533.154 271.487 536.383 272.931 537.95C273.929 539.034 307.833 538.556 311.657 538.555L311.617 555.491C301.911 555.414 275.669 556.842 267.782 554.646C264.343 553.688 261.193 551.654 258.69 549.132C255.9 546.32 254.165 543.173 253.318 539.313C251.502 531.036 252.495 521.388 252.491 512.908L252.501 466.499Z"/>
	<path fill="#FEFEFE" d="M469.459 466.684C494.727 466.686 520.028 466.426 545.291 466.796Q545.34 475.156 545.275 483.516L516.241 483.604C515.865 498.027 516.266 512.555 516.306 526.989L516.402 555.505L497.477 555.504L497.453 483.578L469.396 483.545Q469.278 475.114 469.459 466.684Z"/>
	<path fill="#FEFEFE" d="M415.667 467.137C421.219 466.476 427.29 466.899 432.9 466.909L463.918 466.874L463.937 483.607L436.791 483.79C431.055 483.779 424.903 483.301 419.236 484.071C418.124 484.669 417.631 485.626 417.203 486.772C415.27 491.954 415.482 524.93 416.165 531.83C416.359 533.789 416.723 535.482 417.55 537.279C421.179 539.812 445.926 538.605 451.569 538.583L466.124 538.655L466.097 555.486L432.337 555.575C426.39 555.59 419.947 556.092 414.068 555.273C411.166 554.869 408.342 554.148 405.887 552.496C401.795 549.744 399.016 545.595 398.119 540.752C396.424 531.6 397.39 520.848 397.355 511.516C397.32 502.503 396.537 492.676 397.727 483.769C398.146 480.628 398.896 477.546 400.822 474.97C404.419 470.157 409.943 468.061 415.667 467.137Z"/>
	<path fill="#FEFEFE" d="M598.938 466.624C605.576 466.301 612.34 466.572 618.99 466.589L655.436 466.752L655.331 483.803Q638.683 483.917 622.035 483.85C616.617 483.831 610.473 483.135 605.163 484.096C603.982 484.817 603.463 485.905 602.997 487.169C600.896 492.876 601.129 524.429 601.894 531.802C602.1 533.79 602.518 535.516 603.355 537.329C605.967 539.709 628.43 538.577 633.25 538.551L655.543 538.604L655.564 555.452L621.219 555.495C614.72 555.517 607.871 555.95 601.411 555.334C598.861 555.091 596.348 554.619 594.061 553.419C589.566 551.059 585.313 547.057 583.894 542.05C582.162 535.941 582.451 492.244 583.399 484.278C583.804 480.884 584.394 477.433 586.24 474.495C589.139 469.884 593.788 467.732 598.938 466.624Z"/>
	<path fill="#FEFEFE" d="M782.395 466.593L800.609 466.641C800.659 477.727 799.347 529.133 801.996 535.679C803.969 537.736 806.18 538.237 808.979 538.386C813.297 538.615 824.62 538.981 828.329 538.092C830.141 537.657 831.233 536.983 832.61 535.754C835.46 529.243 834.113 477.344 834.108 466.598L852.505 466.666L852.501 483.75L852.509 516.295C852.544 523.375 853.242 531.141 851.975 538.096C851.269 541.972 849.724 545.639 847.041 548.567C842.263 553.781 835.299 555.149 828.539 555.349C823.978 555.483 819.399 555.403 814.836 555.432C805.695 555.489 794.625 556.475 787.539 549.452C784.931 546.867 783.327 543.51 782.682 539.913C781.323 532.336 782.145 523.328 782.159 515.605L782.395 466.593Z"/>
	<path fill="#FEFEFE" d="M114.93 467.238C130.104 466.961 145.317 467.147 160.496 467.109C160.19 470.799 159.985 475.238 158.039 478.461C156.713 480.657 154.9 482.437 152.445 483.285C143.983 486.207 123.349 482.138 113.435 484.396C111.918 485.98 111.643 488.977 111.456 491.108C110.833 498.236 111.255 505.687 111.254 512.851C111.254 519.268 110.748 526.108 111.556 532.462C111.762 534.079 111.959 535.669 113.029 536.957C118.942 539.317 135.479 537.949 142.719 537.825C142.813 534.439 143.44 516.963 142.253 514.768C141.951 514.21 140.492 513.905 139.945 513.026C138.265 510.321 137.309 506.362 136.224 503.327L144.375 503.155L161.468 503.187L161.132 555.385L129.874 555.519C123.327 555.543 116.176 556.145 109.745 554.868C106.107 554.146 102.856 552.829 100.022 550.4C95.4356 546.468 93.3742 541.696 92.8793 535.759C92.3168 529.012 92.8437 522.012 92.8446 515.225C92.8458 505.644 91.6691 492.833 93.4471 483.677C94.1729 479.939 95.6576 476.408 98.2284 473.558C102.745 468.549 108.543 467.519 114.93 467.238Z"/>
	<path fill="#FEFEFE" d="M701.04 466.659L735.038 466.634C742.539 466.624 750.723 465.949 758.055 467.638C761.21 468.364 763.822 469.606 766.169 471.87C771.11 476.639 771.876 482.987 771.979 489.484C772.123 498.553 773.165 509.66 766.12 516.559C759.19 523.346 747.32 522.016 738.422 521.923Q728.973 522.041 719.53 521.708L719.526 555.407L701.003 555.41L701.04 466.659Z"/>
	<path fill="#010130" d="M719.441 483.546C726.993 483.611 744.087 482.13 750.412 484.451C751.854 484.981 752.717 485.696 753.336 487.13C754.936 490.84 753.95 499.246 752.249 502.849C747.166 506.651 726.619 505.058 719.397 505.003L719.441 483.546Z"/>
	<path fill="#FEFEFE" d="M335.437 467.119C336.104 467.063 336.755 467.043 337.425 467.034C346.645 466.912 363.995 465.581 372.348 467.879C375.708 468.804 378.884 470.539 381.331 473.036C383.947 475.705 385.56 479.109 386.204 482.775C387.537 490.363 386.616 499.205 386.598 506.951L386.504 555.382L367.376 555.405L367.333 526.375C367.335 525.92 367.164 525.505 367.037 525.071C363.099 523.485 343.01 524.72 337.523 524.783L337.38 555.352L318.486 555.421L318.498 508.889C318.504 500.793 317.802 491.945 318.868 483.945C319.316 480.584 320.064 477.736 322.054 474.93C325.293 470.363 330.061 468.107 335.437 467.119Z"/>
	<path fill="#010130" d="M340.108 484.126C346.479 483.726 357.339 483.009 363.495 484.274C364.766 484.535 366.406 485.031 366.979 486.313C367.819 488.191 367.814 506.042 366.903 507.797L365.625 508.014L337.483 507.993C337.51 502.482 337.1 496.931 337.324 491.427C337.455 488.215 337.677 486.355 340.108 484.126Z"/>
	<path fill="#FEFEFE" d="M187.943 467.561Q188.72 467.509 189.499 467.488C198.87 467.233 219.256 466.079 227.684 468.215C231.041 469.066 234.211 470.683 236.705 473.107Q237.19 473.583 237.638 474.095Q238.085 474.607 238.492 475.151Q238.899 475.696 239.264 476.269Q239.629 476.843 239.949 477.443Q240.269 478.042 240.543 478.665Q240.816 479.287 241.042 479.928Q241.267 480.57 241.443 481.226Q241.619 481.883 241.745 482.551C243.178 490.165 242.164 498.999 242.144 506.786L242.028 555.412L223.193 555.411L223.102 527.875C223.155 526.863 223.092 526.24 222.748 525.286C218.436 523.963 196.494 524.978 190.517 525.001L190.531 555.393L172.047 555.384L171.978 509.588C171.959 501.78 171.401 493.546 172.221 485.802C172.549 482.693 173.16 479.571 174.702 476.817C177.613 471.62 182.391 469.049 187.943 467.561Z"/>
	<path fill="#010130" d="M193.305 484.533C197.946 484.228 217.513 483.519 220.754 485.261C222.091 485.98 222.622 487.329 222.929 488.753C223.499 491.387 223.782 505.841 222.615 507.714L221.125 507.911Q205.946 507.897 190.768 508.076C190.673 503.488 190.53 498.89 190.537 494.301C190.542 490.543 190.5 487.329 193.305 484.533Z"/>
	<path fill="#FEFEFE" d="M863.27 466.802L895.618 466.76C902.308 466.754 909.472 466.231 916.055 467.461C919.659 468.135 923.113 469.452 926.038 471.7C930.255 474.941 932.369 479.741 932.902 484.949C933.544 491.229 933.797 500.804 931.034 506.491C930.149 508.313 928.718 509.931 927.444 511.496C931.031 513.651 932.668 516.179 933.821 520.219C936.088 528.163 935.511 539.922 931.587 547.185C930.871 548.156 930.137 549.101 929.261 549.935C927.039 552.05 924.472 553.468 921.483 554.162C913.462 556.025 904.39 555.221 896.167 555.228L863.468 555.214L863.27 466.802Z"/>
	<path fill="#010130" d="M882.351 520.898C889.036 521.044 906.71 519.564 911.926 521.536C913.849 522.264 915.313 523.586 916.113 525.495C917.48 528.753 916.33 533.868 914.989 536.994C910.109 539.543 888.678 538.159 882.331 538.16L882.351 520.898Z"/>
	<path fill="#010130" d="M883.334 483.745C890.786 483.799 905.872 482.417 912.283 484.357C913.338 485.36 913.91 486.225 914.137 487.673C914.754 491.608 914.948 499.408 912.622 502.714C906.281 505.154 889.651 503.852 882.301 503.79C882.296 497.513 881.685 490.465 882.596 484.288L883.334 483.745Z"/>
	<path fill="#2A0F51" d="M676.14 438.665C702.697 428.871 730.38 421.532 757.419 413.167L906.407 367.535C906.488 391.383 906.156 415.305 906.691 439.144Q831.659 439.725 756.625 439.414L703.621 439.512C695.82 439.535 687.759 440.098 679.984 439.728C678.551 439.66 677.395 439.375 676.14 438.665Z"/>
	<path fill="#FEFEFE" d="M809.933 414.268C810.946 414.37 812.132 414.539 813.008 415.098C814.036 415.756 814.732 416.724 814.841 417.959C814.983 419.555 814.035 420.838 813.155 422.055C811.797 422.08 810.285 422.193 809.157 421.276C808.196 420.496 807.743 419.564 807.767 418.315C807.8 416.636 808.89 415.452 809.933 414.268Z"/>
	<path fill="#44B1BF" d="M788.816 374.503C797.865 374.398 807.446 372.784 816.505 371.955C836.297 370.145 856.013 368.494 875.864 367.419C886.653 366.834 897.633 366.043 908.432 366.624L906.407 367.535L757.419 413.167C730.38 421.532 702.697 428.871 676.14 438.665C667.171 441.545 648.06 440.313 638.068 440.353Q608.431 440.52 578.794 440.37L480.673 440.572C485.402 438.112 491.562 437.06 496.735 435.659Q516.291 430.444 535.943 425.604C557.368 420.21 578.629 414.203 600.035 408.752C617.171 405.959 634.27 400.625 651.235 396.807Q682.056 390.085 713.117 384.582C738.011 380.085 763.51 375.744 788.816 374.503Z"/>
	<path fill="#2A0F51" d="M118.25 584.466L443.21 584.684L510.11 584.501C519.03 584.471 528.007 584.144 536.922 584.36C538.008 584.386 538.626 584.684 539.559 585.192Q460.532 607.514 379.814 622.62Q299.619 638.519 218.675 650.007Q186.936 654.548 155.033 657.74C142.711 659.005 130.153 660.506 117.765 660.597C118.417 651.325 118.121 641.855 118.175 632.553Q118.384 608.51 118.25 584.466Z"/>
	<path fill="#FEFEFE" d="M153.622 635.471C153.782 635.521 153.945 635.561 154.1 635.622C155.653 636.226 156.396 637.015 157.052 638.513C156.743 640.306 156.398 640.573 155.246 641.908C154.845 641.917 154.364 641.947 153.975 641.858C152.692 641.562 152.394 641.205 151.682 640.206C151.642 638.261 152.607 637.065 153.622 635.471Z"/>
	<path fill="#FEFEFE" d="M236.685 605.425C237.415 605.487 238.432 605.518 239.087 605.913C240.05 606.494 240.595 607.344 240.619 608.468C240.653 610.081 239.539 611.267 238.578 612.42C237.954 612.222 237.219 612.033 236.64 611.707C235.377 610.998 234.992 610.341 234.523 609.024C234.718 607.285 235.522 606.605 236.685 605.425Z"/>
	<path fill="#FEFEFE" d="M331.037 594.794C332.247 594.812 333.438 594.886 334.467 595.623C335.447 596.324 335.86 597.275 335.881 598.467C335.906 599.932 334.871 601.038 333.984 602.074C332.834 602.096 331.517 602.116 330.493 601.489C329.5 600.88 328.915 599.984 328.886 598.81C328.844 597.134 330.001 595.956 331.037 594.794Z"/>
	<path fill="#44B1BF" d="M539.559 585.192C546.026 583.191 613.982 584.387 624.977 584.506C619.802 587.606 613.381 589.545 607.748 591.758Q590.653 598.463 573.468 604.934Q527.93 621.916 481.749 637.063Q435.568 652.209 388.819 665.497Q342.069 678.785 294.825 690.192Q247.581 701.599 199.919 711.107Q171.245 716.886 142.356 721.466C134.248 722.777 125.769 724.667 117.577 725.204C117.183 714.433 117.506 703.517 117.504 692.73C117.502 682.067 117.147 671.241 117.765 660.597C130.153 660.506 142.711 659.005 155.033 657.74Q186.936 654.548 218.675 650.007Q299.619 638.519 379.814 622.62Q460.532 607.514 539.559 585.192Z"/>
	<path fill="#4A1176" d="M327.433 158.906Q383.742 129.532 440.811 101.662Q454.668 94.7355 468.454 87.6704C475.846 83.9137 483.253 79.8652 491.191 77.3727C502.43 73.8438 515.04 73.3319 526.479 76.2144C540.628 79.78 564.621 93.7455 578.649 100.68Q629.076 125.368 679.184 150.699C659.297 160.55 640.41 171.899 618.359 176.42C608.311 178.479 598.281 178.989 588.124 177.487C574.278 175.44 561.819 171.33 547.552 172.305C490.304 176.22 461.081 213.891 398.201 192.597C380.839 186.717 365.181 177.946 348.854 169.811C341.952 166.371 333.706 163.291 327.433 158.906Z"/>
	<path fill="#FEFEFE" d="M481.67 109.49C482.763 110.801 484.065 111.564 484.572 113.248C483.826 114.487 482.973 115.601 482.091 116.742L477.944 113.138C479.278 112.04 480.462 110.726 481.67 109.49Z"/>
	<path fill="#FEFEFE" d="M417.224 164.735C418.925 165.868 420.445 167.321 421.996 168.652C420.807 169.838 419.532 170.945 418.286 172.072C416.71 171.312 415.411 169.97 414.108 168.813C415.288 167.595 416.236 166.114 417.224 164.735Z"/>
	<path fill="#FEFEFE" d="M558.264 120.928C561.282 124.66 558.466 131.684 561.641 135.705C565.347 140.397 573.442 140.695 578.964 141.41C573.716 142.528 568.15 143.235 563.144 145.185C560.424 150.298 559.574 155.558 558.6 161.216C556.617 156.712 556.623 151.147 554.596 146.53C551.38 143.444 542.733 142.741 538.278 141.426C544.229 140.827 549.233 139.979 554.548 137.032C556.607 131.696 557.535 126.59 558.264 120.928Z"/>
	<path fill="#4A1176" d="M740.851 715.244C741.789 716.234 742.94 717.329 744.116 718.036C745.128 718.646 745.716 718.657 746.82 718.382C747.791 717.066 748.769 715.804 749.999 714.715C751.911 713.022 756.638 714.042 759.017 714.305C776.614 716.251 794.213 719.445 811.726 722.09C820.711 723.448 829.959 725.324 839.066 725.293C862.743 725.213 885.375 716.236 906.529 706.371C906.512 726.668 904.381 747.405 889.115 762.569Q886.483 765.165 883.541 767.402Q880.599 769.64 877.395 771.483C865.756 778.061 853.229 783.419 841.364 789.625L702.647 860.738L597.056 914.835C577.226 925.069 557.51 936.646 536.979 945.38C528.919 948.808 520.874 950.628 512.09 950.57C504.597 950.521 497.635 948.503 490.794 945.567C483.657 942.505 476.751 938.762 469.811 935.27L435.213 917.852L320.579 859.724Q260.37 829.676 200.571 798.814C183.926 790.334 165.517 782.416 149.466 773.13C144.063 770.004 139.452 765.917 135.128 761.449L134.479 760.771C143.878 760.282 166.743 757.805 174.417 761.368L175.636 762.129C177.318 762.136 178.188 761.74 179.368 760.515C179.9 759.963 180.4 759.373 180.899 758.791C192.185 758.942 224.326 765.49 233.902 770.595C235.963 768.228 237.873 766.561 241.132 766.292C243.44 766.102 245.82 766.825 247.576 768.347C250.051 770.493 250.862 773.221 250.976 776.408C257.097 777.672 263.483 780.949 269.293 783.272C285.761 789.855 302.239 795.488 320.155 796.291C337.756 797.08 354.886 791.756 371.399 786.323C411.049 773.277 436.431 769.85 477.804 779.81C487.402 782.121 496.823 785.074 506.373 787.559C534.729 794.936 565.485 794.708 593.361 785.264C604.387 781.528 614.857 776.366 625.384 771.439C641.012 764.123 656.44 756.452 671.974 748.944L717.459 727.206C725.31 723.372 733.326 719.686 740.851 715.244Z"/>
	<path fill="#FEFEFE" d="M348.029 809.737C348.631 810.054 349.354 810.383 349.893 810.815C350.965 811.675 351.189 812.382 351.424 813.681C350.997 815.229 350.21 815.959 349.116 817.052C348.408 816.802 347.507 816.542 346.877 816.108C345.767 815.345 345.639 814.534 345.459 813.293C345.963 811.601 346.735 810.901 348.029 809.737Z"/>
	<path fill="#FEFEFE" d="M600.447 798.735C601.096 798.923 601.895 799.101 602.504 799.423C603.672 800.042 603.997 800.787 604.453 801.958C604.289 803.704 603.76 804.453 602.686 805.814C601.934 805.626 600.86 805.456 600.199 805.067C598.999 804.363 598.876 803.776 598.47 802.553C598.718 800.785 599.284 800.061 600.447 798.735Z"/>
	<path fill="#FEFEFE" d="M508.6 791.822C509.506 791.814 510.654 791.782 511.505 792.159C512.61 792.647 513.207 793.539 513.34 794.717C513.511 796.221 512.465 797.522 511.657 798.677C510.718 798.601 509.71 798.57 508.811 798.254C507.548 797.808 507.174 796.825 506.762 795.688C506.971 793.921 507.48 793.182 508.6 791.822Z"/>
	<path fill="#FEFEFE" d="M432.392 880.274C433.507 880.249 434.662 880.292 435.723 880.679C436.971 881.135 437.368 882.067 437.825 883.192C437.713 884.881 437.25 885.672 436.299 887.053C435.072 887.095 433.619 887.211 432.502 886.592C431.25 885.899 431.062 885.314 430.635 884.064C430.809 882.33 431.305 881.612 432.392 880.274Z"/>
	<path fill="#FEFEFE" d="M416.474 841.498C417.817 841.38 419.414 841.213 420.639 841.925C421.28 842.298 421.809 842.873 421.975 843.595C422.4 845.442 421.356 846.779 420.348 848.191C419.269 848.306 418.017 848.436 416.997 847.954C415.758 847.368 415.528 846.728 415.037 845.565C415.087 843.771 415.483 842.977 416.474 841.498Z"/>
	<path fill="#FEFEFE" d="M801.502 763.409C802.875 763.463 804.299 763.456 805.463 764.326C806.548 765.137 806.587 765.701 806.786 766.932C806.296 768.617 805.577 769.267 804.271 770.403C803.191 770.438 801.738 770.33 800.81 769.667C799.617 768.815 799.574 768.364 799.261 767.021C799.553 765.276 800.309 764.597 801.502 763.409Z"/>
	<path fill="#FEFEFE" d="M482.671 821.606C483.797 821.751 485 821.867 486.073 822.249C488.286 823.036 490.13 825.074 490.942 827.244C491.765 829.443 491.588 831.86 490.594 833.973C489.321 836.679 487.23 837.788 484.538 838.783C482.894 838.67 481.123 838.578 479.643 837.796C477.546 836.688 475.892 834.703 475.232 832.42Q475.112 832.008 475.035 831.585Q474.959 831.162 474.927 830.734Q474.895 830.305 474.909 829.876Q474.922 829.446 474.98 829.021Q475.039 828.595 475.142 828.178Q475.245 827.761 475.391 827.357Q475.537 826.953 475.724 826.566Q475.912 826.18 476.139 825.815C477.74 823.287 479.845 822.263 482.671 821.606Z"/>
	<path fill="#FEFEFE" d="M233.902 770.595C235.963 768.228 237.873 766.561 241.132 766.292C243.44 766.102 245.82 766.825 247.576 768.347C250.051 770.493 250.862 773.221 250.976 776.408C250.379 779.155 249.196 781.655 246.774 783.236C244.655 784.618 242.012 784.944 239.59 784.266Q239.116 784.135 238.658 783.956Q238.201 783.776 237.765 783.549Q237.329 783.322 236.919 783.051Q236.509 782.779 236.13 782.466Q235.751 782.153 235.407 781.802Q235.062 781.451 234.757 781.066Q234.452 780.68 234.189 780.265Q233.926 779.85 233.708 779.409C232.146 776.255 232.758 773.754 233.902 770.595Z"/>
	<path fill="#FEFEFE" d="M559.866 854.544C561.608 860.882 560.829 864.238 564.792 870.265C569.367 872.402 573.58 873.077 578.552 873.853C574.86 874.615 570.623 875.146 567.256 876.864C560.669 880.225 561.611 888.325 559.552 894.324C559.461 894.588 559.365 894.851 559.271 895.115C558.247 890.38 558.183 884.177 555.818 879.944C553.145 875.159 543.819 873.709 538.921 872.269C543.505 872.123 549.352 872.698 553.438 870.379C558.573 867.465 558.527 859.646 559.866 854.544Z"/>
	<path fill="#FEFEFE" d="M675.981 782.943C676.244 783.002 676.509 783.056 676.772 783.12C686.576 785.494 695.503 797.243 700.383 805.58C695.087 813.748 686.629 824.1 677.443 827.973C676.651 827.767 675.861 827.562 675.086 827.297C668.503 825.051 656.42 813.261 653.672 807.131C653.087 805.826 653.103 804.767 653.675 803.451C655.989 798.124 665.056 789.118 669.968 785.79C671.818 784.537 673.907 783.74 675.981 782.943Z"/>
	<path fill="#2A0F51" d="M624.977 584.506L907.007 584.482L906.529 706.371C885.375 716.236 862.743 725.213 839.066 725.293C829.959 725.324 820.711 723.448 811.726 722.09C794.213 719.445 776.614 716.251 759.017 714.305C756.638 714.042 751.911 713.022 749.999 714.715C748.769 715.804 747.791 717.066 746.82 718.382C745.716 718.657 745.128 718.646 744.116 718.036C742.94 717.329 741.789 716.234 740.851 715.244C733.326 719.686 725.31 723.372 717.459 727.206L671.974 748.944C656.44 756.452 641.012 764.123 625.384 771.439C614.857 776.366 604.387 781.528 593.361 785.264C565.485 794.708 534.729 794.936 506.373 787.559C496.823 785.074 487.402 782.121 477.804 779.81C436.431 769.85 411.049 773.277 371.399 786.323C354.886 791.756 337.756 797.08 320.155 796.291C302.239 795.488 285.761 789.855 269.293 783.272C263.483 780.949 257.097 777.672 250.976 776.408C250.862 773.221 250.051 770.493 247.576 768.347C245.82 766.825 243.44 766.102 241.132 766.292C237.873 766.561 235.963 768.228 233.902 770.595C224.326 765.49 192.185 758.942 180.899 758.791C180.4 759.373 179.9 759.963 179.368 760.515C178.188 761.74 177.318 762.136 175.636 762.129L174.417 761.368C166.743 757.805 143.878 760.282 134.479 760.771C125.597 752.246 119.242 737.246 117.577 725.204C125.769 724.667 134.248 722.777 142.356 721.466Q171.245 716.886 199.919 711.107Q247.581 701.599 294.825 690.192Q342.069 678.784 388.819 665.497Q435.568 652.209 481.749 637.063Q527.93 621.916 573.468 604.934Q590.653 598.463 607.748 591.758C613.381 589.545 619.802 587.606 624.977 584.506Z"/>
	<path fill="#FEFEFE" d="M344.634 745.778C344.934 745.865 345.243 745.926 345.533 746.041C346.673 746.496 347.279 747.268 347.774 748.325C347.68 750.074 346.915 750.962 345.917 752.308C345.737 752.237 345.553 752.176 345.377 752.096C343.922 751.441 343.062 750.722 342.445 749.253C342.875 747.455 343.391 747.092 344.634 745.778Z"/>
	<path fill="#FEFEFE" d="M174.417 761.368L172.458 759.045C172.767 757.594 173.872 756.661 174.825 755.554L175.701 755.266C176.926 756.41 177.89 757.767 179.118 758.893C177.992 759.859 176.461 760.918 175.636 762.129L174.417 761.368Z"/>
	<path fill="#FEFEFE" d="M296.647 731.287C296.88 731.356 297.12 731.402 297.344 731.494C298.587 732.008 299.662 732.95 300.116 734.209C299.844 736.224 299.238 736.738 298.017 738.319C297.451 738.237 297.087 738.213 296.53 737.987C295.324 737.498 294.957 736.593 294.575 735.466C294.776 733.544 295.421 732.745 296.647 731.287Z"/>
	<path fill="#FEFEFE" d="M743.995 710.868C744.746 710.875 745.788 710.797 746.501 711.014C747.857 711.426 748.091 711.893 748.759 713.021C748.806 714.794 748.239 715.602 747.31 717.014C746.528 717.004 745.33 717.069 744.592 716.75C743.281 716.183 743.074 715.746 742.491 714.545C742.501 712.82 742.995 712.166 743.995 710.868Z"/>
	<path fill="#FEFEFE" d="M790.423 653.739C791.206 653.856 792.234 653.95 792.938 654.312C794.222 654.971 794.381 655.715 794.763 656.966C794.454 658.785 793.847 659.499 792.592 660.823C791.812 660.658 790.67 660.464 789.997 660.05C788.775 659.298 788.662 658.814 788.268 657.535C788.583 655.778 789.231 655.036 790.423 653.739Z"/>
	<path fill="#FEFEFE" d="M788.099 601.818C789.083 601.998 790.257 602.326 791.046 602.966C791.876 603.638 792.339 604.604 792.261 605.67C792.149 607.209 791.061 608.211 790.044 609.225C789.166 609.003 788.086 608.752 787.313 608.268C786.165 607.55 785.936 606.786 785.65 605.542C786.003 603.76 786.815 603.051 788.099 601.818Z"/>
	<path fill="#FEFEFE" d="M687.951 626.789C688.995 626.992 690.183 627.317 691.029 627.994C691.886 628.68 692.342 629.6 692.297 630.696C692.236 632.176 691.019 633.207 690.043 634.168C689.01 634.056 687.797 633.832 686.934 633.214C685.718 632.344 685.698 631.646 685.504 630.299C685.97 628.618 686.676 627.947 687.951 626.789Z"/>
	<path fill="#FEFEFE" d="M739.623 609.839C740.713 609.954 741.923 610.216 742.794 610.938C743.727 611.71 744.142 612.765 744.001 613.961C743.827 615.45 742.655 616.376 741.593 617.268C740.486 617.143 739.306 616.981 738.41 616.24C737.548 615.528 737.114 614.672 737.206 613.551C737.333 611.978 738.582 610.883 739.623 609.839Z"/>
	<path fill="#FEFEFE" d="M585.423 719.75C586.753 719.807 588.099 719.827 589.183 720.75C590.011 721.455 590.381 722.372 590.297 723.448C590.183 724.907 589.159 725.957 588.234 726.979C587.278 726.809 586.069 726.683 585.193 726.219C583.957 725.565 583.654 724.817 583.264 723.555C583.586 721.787 584.216 721.052 585.423 719.75Z"/>
	<path fill="#FEFEFE" d="M386.1 713.826C387.486 713.844 388.225 713.927 389.514 714.536C390.017 715.16 390.512 715.527 390.616 716.353C390.877 718.43 389.784 719.687 388.545 721.182C387.553 721.164 386.33 721.08 385.458 720.556C384.417 719.93 383.901 719.005 383.894 717.799C383.884 716.174 385.102 714.961 386.1 713.826Z"/>
	<path fill="#FEFEFE" d="M503.474 689.886C504.727 690.197 506.096 690.473 506.948 691.559C507.612 692.407 507.829 693.421 507.523 694.455C507.083 695.948 505.851 696.636 504.611 697.363C503.094 697.063 502.368 696.726 501.11 695.827C500.563 694.816 500.123 694.274 500.461 693.068C500.887 691.552 502.257 690.712 503.474 689.886Z"/>
	<path fill="#FEFEFE" d="M456.501 654.361C457.611 654.643 458.877 655.011 459.731 655.822C460.633 656.679 461.01 657.715 460.855 658.945C460.665 660.448 459.377 661.509 458.338 662.474C457.084 662.258 455.804 662.029 454.83 661.115C453.933 660.273 453.578 659.279 453.748 658.061C453.973 656.451 455.367 655.368 456.501 654.361Z"/>
	<path fill="#FEFEFE" d="M473.987 743.988C475.073 743.874 476.185 743.721 477.275 743.901C478.978 744.182 480.588 745.277 481.432 746.787C482.242 748.239 482.33 749.938 481.88 751.521C481.182 753.973 479.678 755.11 477.558 756.344C476.768 756.426 476.94 756.43 475.986 756.401C474.042 756.34 472.355 755.414 471.16 753.903C470.045 752.492 469.853 750.325 470.218 748.621C470.716 746.299 472.11 745.271 473.987 743.988Z"/>
	<path fill="#FEFEFE" d="M721.106 691.488C722.243 691.575 723.404 691.688 724.495 692.048C726.247 692.628 727.821 694.066 728.585 695.738C729.381 697.479 729.348 699.5 728.633 701.263C727.514 704.022 725.621 705.051 723.001 706.166C721.844 706.143 720.577 706.016 719.479 705.624C717.717 704.996 716.154 703.49 715.425 701.774C714.679 700.017 714.75 698.023 715.476 696.272C716.58 693.608 718.535 692.495 721.106 691.488Z"/>
	<path fill="#FEFEFE" d="M864.596 642.562C866.141 642.501 867.606 642.482 869.089 642.985C871.567 643.825 873.688 645.787 874.771 648.159Q874.968 648.591 875.122 649.041Q875.275 649.49 875.384 649.952Q875.492 650.415 875.555 650.885Q875.617 651.356 875.633 651.831Q875.649 652.306 875.617 652.779Q875.586 653.253 875.509 653.722Q875.431 654.19 875.308 654.649Q875.185 655.108 875.017 655.552C873.798 658.738 871.455 660.153 868.456 661.444C866.995 661.463 865.675 661.396 864.26 660.991C861.715 660.263 859.42 658.434 858.246 656.049Q858.039 655.623 857.876 655.178Q857.714 654.733 857.598 654.274Q857.483 653.814 857.415 653.346Q857.347 652.877 857.328 652.403Q857.309 651.93 857.339 651.457Q857.369 650.985 857.447 650.517Q857.526 650.05 857.652 649.594Q857.778 649.137 857.95 648.696C859.218 645.409 861.545 644.006 864.596 642.562Z"/>
	<path fill="#FEFEFE" d="M609.424 630.221C612.253 634.233 609.961 641.56 613.192 646.647C617.222 652.993 627.365 653.421 634.044 655.034C627.984 656.256 621.509 657.141 615.774 659.455C611.553 665.046 611.399 670.814 610.735 677.52C608.135 675.145 608.631 666.708 607.016 663.109C603.755 655.845 593.629 656.946 587.141 654.661C586.96 654.598 586.78 654.53 586.6 654.464C591.708 653.925 599.268 653.274 603.511 650.237C608.502 646.665 608.466 635.899 609.424 630.221Z"/>
	<path fill="#2A0F51" d="M679.184 150.699L818.13 220.863C831.535 227.645 845.071 234.144 858.427 241.032C866.189 245.036 874.492 248.769 881.373 254.217C890.798 261.678 898.9 273.727 902.695 285.094Q903.978 288.912 904.784 292.859Q905.591 296.805 905.908 300.821C906.593 309.925 905.047 363.103 906.807 365.837L908.236 366.074L908.432 366.624C897.633 366.043 886.653 366.834 875.864 367.419C856.013 368.494 836.297 370.145 816.505 371.955C807.446 372.784 797.865 374.398 788.816 374.503C763.51 375.744 738.011 380.085 713.117 384.582Q682.056 390.085 651.235 396.807C634.27 400.625 617.171 405.959 600.035 408.752C578.629 414.203 557.368 420.21 535.943 425.604Q516.291 430.444 496.735 435.659C491.562 437.06 485.402 438.112 480.673 440.572C473.419 438.915 458.471 439.892 450.513 439.897L385.654 439.955L117.954 439.906C117.52 410.027 117.707 380.12 117.69 350.238C117.681 333.451 116.66 315.606 118.128 298.914C118.559 294.015 119.437 289.622 121.109 284.997C125.53 272.768 133.567 261.13 143.903 253.16C151.335 247.43 160.683 243.423 169.06 239.257Q185.777 231.013 202.396 222.575L297.81 174.181C307.727 169.186 317.397 163.656 327.433 158.906C333.706 163.291 341.952 166.371 348.854 169.811C365.181 177.946 380.839 186.717 398.201 192.597C461.081 213.891 490.304 176.22 547.552 172.305C561.819 171.33 574.278 175.44 588.124 177.487C598.281 178.989 608.311 178.479 618.359 176.42C640.41 171.899 659.297 160.55 679.184 150.699Z"/>
	<path fill="#FEFEFE" d="M313.628 296.105C314.621 296.676 315.311 297.179 316.09 298.021C315.997 299.689 315.205 300.395 314.26 301.745C313.056 300.921 312.102 300.311 311.336 299.022C311.653 297.443 312.431 297.136 313.628 296.105Z"/>
	<path fill="#FEFEFE" d="M669.741 236.77C670.726 237.552 671.46 238.287 672.236 239.277C672.135 241.082 671.502 241.318 670.282 242.595C668.979 242.212 668.348 241.711 667.62 240.64C667.695 238.989 668.751 237.995 669.741 236.77Z"/>
	<path fill="#FEFEFE" d="M622.386 213.205C623.554 213.714 624.852 214.528 625.445 215.674C625.177 217.331 624.481 217.703 623.329 218.883C623.214 218.885 623.096 218.92 622.985 218.889C621.713 218.537 621.27 218.18 620.491 217.202C620.645 215.229 621.229 214.765 622.386 213.205Z"/>
	<path fill="#FEFEFE" d="M292.223 251.65C293.489 252.549 295.032 253.281 295.038 255.047C295.043 256.125 294.676 256.519 293.985 257.214L291.921 257.279C290.844 256.451 290.525 256.3 290.042 255.055C290.328 253.082 290.805 252.97 292.223 251.65Z"/>
	<path fill="#FEFEFE" d="M561.332 356.818C561.726 357.081 561.84 357.144 562.246 357.494C563.316 358.417 563.94 358.849 564.003 360.256C563.267 361.199 562.498 362.064 561.686 362.94C560.559 362.196 559.708 361.613 558.906 360.489C559.194 358.709 560.125 358.121 561.332 356.818Z"/>
	<path fill="#FEFEFE" d="M383.768 371.668C385.195 372.488 385.968 373.075 386.603 374.617C386.524 376.193 386.46 376.215 385.429 377.424L383.843 377.379C383.27 377.777 383.669 377.583 382.528 377.585C382.454 377.461 382.013 376.71 381.934 376.607C381.564 376.122 381.645 376.796 381.653 375.709C381.665 374.027 382.6 372.791 383.768 371.668Z"/>
	<path fill="#FEFEFE" d="M397.891 401.829C399.155 402.835 400.233 403.62 401.003 405.086C400.756 406.941 400.113 407.278 398.862 408.618C397.676 408.282 396.506 407.348 395.9 406.303C395.887 404.533 396.969 403.258 397.891 401.829Z"/>
	<path fill="#FEFEFE" d="M455.526 240.426C456.44 240.887 457.334 241.712 458.163 242.327C458.548 244.035 457.777 244.92 457.063 246.485C456.422 246.392 455.638 246.329 455.022 246.09C453.819 245.625 453.344 245.023 452.812 243.908C453.323 242.055 454.109 241.677 455.526 240.426Z"/>
	<path fill="#FEFEFE" d="M284.525 363.999C285.345 364.875 286.092 365.846 286.864 366.765C286.972 368.689 286.092 369.454 285.072 371.052C283.353 369.975 282.19 369.402 281.694 367.334C282.251 365.647 283.178 365.029 284.525 363.999Z"/>
	<path fill="#FEFEFE" d="M530.841 404.432C530.993 404.513 531.155 404.579 531.299 404.676C532.539 405.516 533.715 406.662 533.686 408.278C533.663 409.489 533.281 409.841 532.509 410.643L530.606 410.243L529.296 410.568C528.43 409.621 528.096 409.331 528.199 407.943C528.342 406.037 529.493 405.557 530.841 404.432Z"/>
	<path fill="#FEFEFE" d="M752.294 275.361C752.46 275.426 752.63 275.48 752.79 275.556C754.242 276.246 755.187 277.126 755.692 278.615C755.171 280.337 754.47 280.797 753.199 282.034C752.452 281.706 751.406 281.353 750.776 280.846C749.683 279.968 749.712 279.528 749.627 278.25C750.369 276.901 751.096 276.257 752.294 275.361Z"/>
	<path fill="#FEFEFE" d="M823.428 346.306C824.229 346.559 825.508 346.867 826.162 347.381C827.308 348.282 827.317 348.845 827.516 350.179C827.007 351.853 826.285 352.617 825.047 353.827C824.302 353.637 823.115 353.391 822.499 352.892C821.528 352.105 820.99 351.314 821.03 350.035C821.079 348.454 822.392 347.337 823.428 346.306Z"/>
	<path fill="#FEFEFE" d="M533.075 216.369C534.024 216.385 535.21 216.458 536.061 216.908C537.313 217.57 537.514 218.233 537.938 219.461C537.756 221.184 537.274 221.864 536.164 223.17C535.3 223.112 534.124 223.114 533.316 222.782C532.02 222.25 531.76 221.545 531.249 220.376C531.356 218.538 531.944 217.785 533.075 216.369Z"/>
	<path fill="#FEFEFE" d="M850.544 286.251C851.711 286.255 853.015 286.295 854.018 286.994C854.957 287.648 855.407 288.579 855.422 289.706C855.443 291.244 854.439 292.422 853.56 293.571C852.639 293.528 851.287 293.373 850.491 292.872C849.529 292.267 848.908 291.559 848.77 290.396C848.58 288.787 849.667 287.469 850.544 286.251Z"/>
	<path fill="#FEFEFE" d="M144.452 345.344C145.46 345.319 146.777 345.303 147.712 345.704C148.764 346.155 149.515 347.012 149.71 348.146C149.961 349.608 149.076 351.042 148.405 352.268C147.185 352.377 145.9 352.516 144.778 351.872C143.746 351.281 143.15 350.478 142.986 349.298C142.778 347.801 143.695 346.536 144.452 345.344Z"/>
	<path fill="#FEFEFE" d="M281.114 401.375C282.185 401.44 283.451 401.61 284.361 402.228C285.375 402.918 285.934 403.968 285.878 405.198C285.807 406.751 284.732 407.933 283.749 409.016C282.49 408.834 281.021 408.663 279.983 407.852C279.073 407.142 278.537 406.251 278.626 405.08C278.743 403.527 280.078 402.393 281.114 401.375Z"/>
	<path fill="#FEFEFE" d="M347.06 208.347C348.497 208.293 350.003 208.177 351.186 209.181C352.108 209.963 352.529 211 352.457 212.208C352.364 213.786 351.38 214.795 350.36 215.872C349.115 215.832 347.772 215.778 346.705 215.031C345.646 214.29 345.169 213.322 345.146 212.044C345.12 210.562 346.177 209.413 347.06 208.347Z"/>
	<path fill="#FEFEFE" d="M361.065 332.841C362.479 332.904 363.934 333.217 365.032 334.167C365.997 335.003 366.486 336.124 366.425 337.402C366.325 339.525 365.091 340.877 363.617 342.244C361.972 342.166 360.548 341.995 359.251 340.827C358.271 339.945 357.826 338.85 357.913 337.535C358.063 335.266 359.474 334.203 361.065 332.841Z"/>
	<path fill="#FEFEFE" d="M209.608 229.464C211.482 229.294 213.049 229.205 214.579 230.554C215.579 231.435 216.086 232.583 216 233.92C215.869 235.956 214.748 237.012 213.31 238.23C211.59 238.43 210.026 238.281 208.633 237.189C207.694 236.454 207.223 235.498 207.14 234.312C206.983 232.083 208.175 230.919 209.608 229.464Z"/>
	<path fill="#FEFEFE" d="M791.942 227.019C793.813 227.42 795.209 227.745 796.422 229.355C797.391 230.64 797.672 231.882 797.335 233.478C796.885 235.61 795.296 236.509 793.539 237.462Q792.458 237.268 791.392 237.005C789.951 236.643 788.81 235.701 788.094 234.406C787.46 233.26 787.299 231.934 787.772 230.691C788.523 228.718 790.128 227.842 791.942 227.019Z"/>
	<path fill="#FEFEFE" d="M570.997 278.915C571.591 278.88 571.885 278.849 572.516 278.878C574.216 278.954 576.169 279.586 577.216 281.03C578.077 282.216 578.301 283.206 578.134 284.657C577.887 286.796 576.226 288.085 574.64 289.299C574.314 289.336 573.989 289.396 573.661 289.412C572.008 289.497 570.015 288.888 568.948 287.547C567.992 286.345 567.664 285.15 567.78 283.647C567.962 281.3 569.294 280.291 570.997 278.915Z"/>
	<path fill="#FEFEFE" d="M790.587 292.559C791.958 292.422 793.362 292.283 794.728 292.538Q795.029 292.596 795.323 292.685Q795.616 292.773 795.899 292.891Q796.182 293.01 796.451 293.156Q796.72 293.303 796.972 293.476Q797.225 293.65 797.459 293.848Q797.692 294.047 797.904 294.268Q798.116 294.49 798.304 294.732Q798.492 294.974 798.654 295.234C799.537 296.664 799.642 298.335 799.179 299.926C798.375 302.689 796.754 303.959 794.361 305.375C793.276 305.472 792.2 305.567 791.111 305.459C789.332 305.283 787.599 304.429 786.599 302.897C785.795 301.667 785.618 300.226 785.862 298.806C786.377 295.808 788.231 294.248 790.587 292.559Z"/>
	<path fill="#FEFEFE" d="M509.181 347.047C510.058 347.189 510.859 347.363 511.702 347.66C513.368 348.247 514.903 349.657 515.58 351.292C516.342 353.13 516.069 355.027 515.331 356.822C513.9 360.301 511.466 361.875 508.072 363.206C506.914 363.176 505.549 363.209 504.488 362.685C502.877 361.89 501.6 360.695 501.063 358.933C500.37 356.662 501.001 354.172 502.129 352.152C503.76 349.234 506.061 347.951 509.181 347.047Z"/>
	<path fill="#FEFEFE" d="M186.11 371.962C187.286 371.97 188.464 371.985 189.597 372.336C191.722 372.995 193.635 374.624 194.59 376.636C195.517 378.591 195.55 380.832 194.78 382.845C193.69 385.694 191.601 386.914 188.944 388.112C187.724 388.178 186.547 388.23 185.363 387.87C183.282 387.238 181.425 385.772 180.448 383.81C179.452 381.811 179.48 379.311 180.296 377.257C181.413 374.444 183.488 373.197 186.11 371.962Z"/>
	<path fill="#FEFEFE" d="M727.218 198.583C728.435 198.608 729.559 198.651 730.737 198.987C732.651 199.533 734.366 200.678 735.259 202.502C736.385 204.8 735.926 207.705 735.026 209.997C733.243 214.538 730.118 216.649 725.823 218.441C724.163 218.557 722.519 218.498 720.987 217.788C719.207 216.963 717.844 215.617 717.226 213.731C716.336 211.014 717.005 207.755 718.342 205.3C720.41 201.504 723.208 199.873 727.218 198.583Z"/>
	<path fill="#FEFEFE" d="M245.864 263.582C249.711 263.285 253.13 263.532 256.516 265.523C260.258 267.723 262.754 271.458 263.747 275.647C264.726 279.776 264.207 284.318 261.886 287.92C259.29 291.948 255.507 293.712 250.982 294.74C247.695 294.861 244.756 294.751 241.7 293.364Q240.973 293.038 240.283 292.638Q239.593 292.238 238.949 291.768Q238.305 291.298 237.714 290.764Q237.122 290.229 236.589 289.636Q236.057 289.043 235.589 288.398Q235.121 287.752 234.723 287.062Q234.324 286.371 234 285.643Q233.676 284.914 233.43 284.156Q233.18 283.39 233.01 282.604Q232.839 281.817 232.749 281.016Q232.66 280.216 232.651 279.411Q232.643 278.606 232.716 277.804Q232.79 277.002 232.944 276.212Q233.098 275.422 233.332 274.651Q233.566 273.88 233.876 273.138Q234.187 272.395 234.571 271.687C237.128 267.066 241.01 265.024 245.864 263.582Z"/>
	<path fill="#735AB4" d="M442.25 259.203C452.301 258.573 463.551 261.968 471.815 267.648C482.127 274.736 488.611 285.781 490.791 298.019Q490.994 299.117 491.142 300.224Q491.29 301.331 491.383 302.444Q491.476 303.557 491.514 304.673Q491.551 305.79 491.534 306.906Q491.516 308.023 491.444 309.138Q491.371 310.252 491.243 311.361Q491.115 312.471 490.932 313.573Q490.749 314.675 490.512 315.766Q490.275 316.857 489.984 317.936Q489.693 319.014 489.35 320.077Q489.006 321.139 488.61 322.183Q488.213 323.228 487.766 324.251Q487.319 325.274 486.821 326.274Q486.324 327.274 485.777 328.248Q485.231 329.222 484.637 330.168Q484.043 331.114 483.403 332.029C475.129 343.614 463.371 349.669 449.566 351.965C437.056 352.672 425.486 349.529 415.636 341.586Q414.758 340.878 413.915 340.129Q413.072 339.379 412.267 338.589Q411.462 337.799 410.697 336.971Q409.931 336.143 409.206 335.279Q408.482 334.414 407.801 333.515Q407.119 332.617 406.482 331.686Q405.846 330.755 405.255 329.794Q404.664 328.833 404.121 327.845Q403.578 326.856 403.084 325.842Q402.59 324.829 402.145 323.792Q401.701 322.755 401.308 321.698Q400.915 320.641 400.573 319.566Q400.232 318.491 399.944 317.401Q399.655 316.31 399.42 315.207Q399.185 314.104 399.004 312.991Q398.823 311.878 398.697 310.757C397.349 297.694 401.547 285.428 409.891 275.346C418.086 265.443 429.624 260.382 442.25 259.203Z"/>
	<path fill="#FEFEFE" d="M423.685 275.104C424.839 275.093 425.943 275.193 427.063 275.479C428.544 275.858 429.975 276.748 430.658 278.166C431.662 280.25 430.827 282.833 429.996 284.826C427.341 291.195 421.872 296.58 415.564 299.234C414.516 299.318 413.426 299.422 412.394 299.169C410.985 298.823 409.516 298.037 408.874 296.669C407.55 293.85 409.37 289.607 410.664 287.106C413.444 281.73 417.817 276.943 423.685 275.104Z"/>
	<path fill="#F4B768" d="M600.035 408.752C600.57 393.273 603.258 377.923 609.697 363.755Q610.182 362.684 610.693 361.626Q611.204 360.567 611.741 359.521Q612.279 358.476 612.841 357.444Q613.404 356.412 613.992 355.394Q614.581 354.376 615.194 353.373Q615.807 352.37 616.444 351.383Q617.082 350.395 617.744 349.424Q618.406 348.452 619.092 347.498Q619.777 346.543 620.487 345.605Q621.196 344.668 621.928 343.748Q622.66 342.828 623.414 341.927Q624.169 341.025 624.945 340.143Q625.722 339.26 626.52 338.397Q627.318 337.534 628.137 336.691Q628.957 335.848 629.796 335.026Q630.636 334.203 631.496 333.402Q632.356 332.6 633.235 331.82Q634.115 331.04 635.013 330.282Q635.912 329.524 636.828 328.788Q637.745 328.052 638.68 327.34Q639.615 326.627 640.567 325.937Q641.519 325.248 642.488 324.582Q643.457 323.916 644.441 323.275Q645.426 322.633 646.427 322.016Q647.427 321.399 648.443 320.807Q649.458 320.214 650.488 319.648Q651.518 319.081 652.561 318.539Q653.605 317.998 654.661 317.483Q655.718 316.967 656.787 316.478Q657.856 315.989 658.936 315.527Q660.017 315.064 661.109 314.628Q662.201 314.193 663.303 313.784Q664.43 313.361 665.568 312.967Q666.706 312.572 667.853 312.206Q669 311.84 670.156 311.502Q671.312 311.165 672.476 310.856Q673.639 310.548 674.811 310.268Q675.982 309.988 677.16 309.738Q678.337 309.487 679.521 309.266Q680.705 309.045 681.893 308.854Q683.082 308.662 684.275 308.5Q685.469 308.338 686.665 308.206Q687.862 308.074 689.062 307.971Q690.262 307.869 691.464 307.796Q692.666 307.723 693.869 307.681Q695.072 307.638 696.276 307.625Q697.48 307.612 698.684 307.629Q699.888 307.647 701.092 307.694Q702.295 307.741 703.496 307.818Q704.698 307.895 705.898 308.001Q707.097 308.108 708.293 308.245Q709.49 308.381 710.682 308.548Q711.875 308.714 713.063 308.91Q714.251 309.106 715.434 309.331Q716.617 309.556 717.793 309.811Q718.97 310.066 720.141 310.35Q721.311 310.633 722.473 310.946Q723.636 311.259 724.791 311.601Q725.945 311.943 727.091 312.313Q728.237 312.683 729.373 313.082Q730.509 313.48 731.635 313.907Q732.761 314.334 733.876 314.789Q734.991 315.243 736.095 315.725Q737.198 316.208 738.289 316.717C763.68 328.532 779.499 348.603 788.816 374.503C763.51 375.744 738.011 380.085 713.117 384.582Q682.056 390.085 651.235 396.807C634.27 400.625 617.171 405.959 600.035 408.752Z"/>
</svg>
