<?xml version="1.0" encoding="UTF-8" standalone="no"?>
<svg
   width="1024"
   height="1536"
   version="1.1"
   id="svg2747"
   sodipodi:docname="galactic-ballot.svg"
   inkscape:version="1.1.2 (0a00cf5339, 2022-02-04)"
   xmlns:inkscape="http://www.inkscape.org/namespaces/inkscape"
   xmlns:sodipodi="http://sodipodi.sourceforge.net/DTD/sodipodi-0.dtd"
   xmlns="http://www.w3.org/2000/svg"
   xmlns:svg="http://www.w3.org/2000/svg">
  <sodipodi:namedview
     id="namedview2749"
     pagecolor="#ffffff"
     bordercolor="#666666"
     borderopacity="1.0"
     inkscape:pageshadow="2"
     inkscape:pageopacity="0.0"
     inkscape:pagecheckerboard="0"
     showgrid="false"
     inkscape:zoom="0.50976562"
     inkscape:cx="511.01916"
     inkscape:cy="768"
     inkscape:window-width="1920"
     inkscape:window-height="1009"
     inkscape:window-x="1920"
     inkscape:window-y="34"
     inkscape:window-maximized="1"
     inkscape:current-layer="svg2747" />
  <path
     fill="#221267"
     d="M774.219 291.689Q774.968 291.692 775.716 291.729C778.207 291.865 780.47 292.573 782.121 294.549C783.227 295.873 783.648 297.472 783.46 299.176C783.095 302.485 781.054 304.102 778.622 305.997C775.909 305.909 773.338 305.334 771.435 303.242Q771.224 303.009 771.038 302.757Q770.851 302.504 770.691 302.234Q770.531 301.964 770.399 301.679Q770.267 301.395 770.164 301.098Q770.061 300.801 769.989 300.496Q769.916 300.19 769.875 299.879Q769.834 299.568 769.824 299.254Q769.814 298.94 769.836 298.627C770.047 295.415 771.911 293.605 774.219 291.689Z"
     id="path2613" />
  <path
     fill="#8034B5"
     d="M255.901 245.945C256.416 245.894 256.933 245.866 257.45 245.854C260.226 245.79 262.638 246.242 264.641 248.32C266.021 249.752 266.571 251.448 266.381 253.419C266.079 256.568 264.271 258.25 262.055 260.227C258.821 260.221 255.915 259.979 253.462 257.626C252.225 256.439 251.508 254.912 251.531 253.184C251.574 249.923 253.658 247.947 255.901 245.945Z"
     id="path2615" />
  <path
     fill="#8034B5"
     d="M808.07 377.34C809.909 377.302 811.673 377.299 813.449 377.836C816.802 378.85 819.77 381.271 821.36 384.401Q821.649 384.972 821.876 385.57Q822.104 386.168 822.267 386.786Q822.43 387.405 822.528 388.037Q822.626 388.67 822.656 389.309Q822.687 389.948 822.651 390.586Q822.615 391.225 822.511 391.856Q822.408 392.488 822.239 393.105Q822.071 393.722 821.838 394.318C820.169 398.578 817.057 400.222 813.155 401.993C811.504 401.979 809.763 401.995 808.153 401.592C804.561 400.692 801.27 398.091 799.604 394.788Q799.312 394.222 799.082 393.629Q798.853 393.035 798.689 392.419Q798.526 391.804 798.43 391.175Q798.334 390.545 798.307 389.909Q798.279 389.273 798.321 388.638Q798.363 388.003 798.474 387.376Q798.584 386.749 798.762 386.138Q798.94 385.526 799.183 384.938C800.954 380.614 804.021 379.002 808.07 377.34Z"
     id="path2617" />
  <path
     fill="#8034B5"
     d="M207.249 361.059C213.484 362.484 212.831 369.203 217.032 372.718C220.123 375.304 225.385 376.022 227.875 379.317C228.808 380.551 228.645 380.94 228.452 382.369C225.433 385.383 220.738 387.248 216.972 389.217C214.56 393.351 212.079 397.38 209.419 401.362C209.124 401.293 208.827 401.235 208.535 401.155C204.574 400.063 201.356 391.961 199.547 388.609C196.603 387.289 191.245 385.49 189.651 382.511C189.03 381.349 189.39 381.065 189.688 379.859C192.418 376.77 196.464 375.222 200.061 373.297C202.528 369.189 204.371 364.95 207.249 361.059Z"
     id="path2619" />
  <path
     fill="#572375"
     d="M97.0693 703.679C101.258 706.564 114.195 705.003 119.485 704.933L119.854 705.048C114.692 726.161 112.345 747.995 111.032 769.664Q110.743 773.833 110.533 778.007Q110.323 782.181 110.192 786.358Q110.061 790.535 110.01 794.714Q109.958 798.893 109.985 803.072Q110.013 807.251 110.12 811.429Q110.226 815.607 110.412 819.782Q110.598 823.957 110.863 828.128Q111.127 832.299 111.471 836.464Q111.815 840.629 112.238 844.787Q112.66 848.944 113.162 853.093Q113.663 857.242 114.243 861.381Q114.823 865.52 115.481 869.647Q116.139 873.774 116.875 877.888Q117.611 882.002 118.425 886.101Q119.239 890.2 120.131 894.283Q121.022 898.366 121.991 902.432Q122.96 906.497 124.005 910.544Q125.051 914.59 126.173 918.616Q127.295 922.642 128.493 926.646Q129.691 930.65 130.964 934.63Q132.238 938.61 133.587 942.566Q134.936 946.522 136.359 950.451Q137.783 954.38 139.281 958.282Q140.779 962.184 142.35 966.057Q143.921 969.929 145.566 973.772Q147.21 977.614 148.927 981.424Q150.644 985.234 152.433 989.012Q154.222 992.789 156.082 996.532Q157.942 1000.27 159.873 1003.98Q161.803 1007.69 163.804 1011.36Q165.805 1015.03 167.874 1018.66Q169.944 1022.29 172.082 1025.88C176.985 1033.97 195.449 1064.72 201.805 1067.49C201.766 1059.99 201.198 1052.06 201.939 1044.61C202.539 1051.36 202.986 1115.18 201.99 1116.57C201.723 1112.36 201.987 1107.98 202.004 1103.75C194.603 1101.02 163.925 1055.88 158.279 1046.97Q155.283 1042.25 152.402 1037.46Q149.521 1032.67 146.758 1027.81Q143.995 1022.96 141.35 1018.03Q138.706 1013.11 136.183 1008.12Q133.659 1003.13 131.257 998.087Q128.856 993.04 126.578 987.936Q124.3 982.833 122.147 977.675Q119.994 972.517 117.967 967.309Q115.94 962.1 114.04 956.844Q112.14 951.588 110.369 946.287Q108.598 940.986 106.956 935.643Q105.315 930.301 103.803 924.92Q102.292 919.54 100.912 914.124Q99.5327 908.708 98.2851 903.26Q97.0375 897.812 95.9229 892.335Q94.8083 886.859 93.8272 881.357Q92.8462 875.854 91.9993 870.33Q91.1525 864.806 90.4403 859.262Q89.7281 853.719 89.151 848.16Q88.574 842.601 88.1323 837.03Q87.6907 831.458 87.3848 825.878Q87.0788 820.297 86.9088 814.711Q86.7388 809.125 86.7047 803.536Q86.6707 797.948 86.7726 792.36Q86.8746 786.772 87.1125 781.188Q87.3504 775.604 87.7242 770.028Q88.0979 764.451 88.6072 758.886Q89.1165 753.32 89.7611 747.769Q90.4057 742.217 91.1852 736.683Q91.9646 731.149 92.8786 725.635Q93.7925 720.121 94.8403 714.631Q95.8882 709.142 97.0693 703.679Z"
     id="path2621" />
  <path
     fill="#572375"
     d="M926.209 702.912C951.336 816.356 931.947 942.748 869.237 1041.13C862.599 1051.54 831.389 1097.97 823.22 1101.53C823.113 1101.58 822.992 1101.58 822.878 1101.6C821.4 1091.1 822.568 1075.6 822.984 1064.74L824.218 1064.66C830.397 1059.95 835.861 1049.56 840.211 1043.01Q843.238 1038.39 846.15 1033.69Q849.062 1029 851.857 1024.23Q854.652 1019.46 857.33 1014.63Q860.007 1009.8 862.564 1004.9Q865.121 1000 867.557 995.042Q869.993 990.083 872.306 985.065Q874.619 980.048 876.808 974.975Q878.997 969.901 881.06 964.776Q883.123 959.65 885.059 954.476Q886.995 949.301 888.803 944.08Q890.611 938.859 892.29 933.595Q893.969 928.332 895.518 923.028Q897.067 917.725 898.485 912.385Q899.903 907.045 901.188 901.671Q902.474 896.298 903.627 890.895Q904.78 885.491 905.8 880.061Q906.819 874.631 907.705 869.177Q908.59 863.724 909.341 858.25Q910.092 852.776 910.708 847.286Q911.324 841.795 911.804 836.291Q912.285 830.787 912.629 825.273Q912.974 819.759 913.183 814.238Q913.392 808.717 913.464 803.193Q913.537 797.668 913.474 792.144Q913.41 786.619 913.211 781.098Q913.011 775.576 912.676 770.062Q912.341 764.547 911.87 759.042Q911.398 753.537 910.792 748.045Q910.185 742.554 909.444 737.079Q908.702 731.604 907.826 726.149Q906.95 720.694 905.939 715.262Q904.929 709.83 903.785 704.425C909.555 704.681 915.482 705.093 921.253 704.803C923.624 704.683 924.594 704.67 926.209 702.912Z"
     id="path2623" />
  <path
     fill="#221267"
     d="M392.49 184.9C395.938 162.651 401.835 143.823 415.364 125.516Q416.227 124.339 417.119 123.184Q418.011 122.029 418.931 120.896Q419.852 119.763 420.8 118.654Q421.749 117.545 422.725 116.46Q423.701 115.375 424.703 114.314Q425.706 113.254 426.735 112.219Q427.764 111.184 428.819 110.175Q429.873 109.166 430.953 108.183Q432.032 107.201 433.136 106.246Q434.239 105.291 435.366 104.363Q436.493 103.436 437.643 102.537Q438.793 101.639 439.965 100.769Q441.137 99.899 442.331 99.0587Q443.524 98.2185 444.738 97.4083Q445.952 96.5981 447.186 95.8185Q448.42 95.0389 449.673 94.2904Q450.926 93.5419 452.198 92.8249Q453.469 92.1079 454.758 91.4229Q456.047 90.7379 457.352 90.0853Q458.658 89.4327 459.979 88.8129Q461.301 88.1931 462.637 87.6065Q463.974 87.0199 465.325 86.4669Q466.676 85.9139 468.04 85.3948Q469.404 84.8757 470.781 84.3908Q472.157 83.9059 473.546 83.4556Q474.934 83.0053 476.333 82.5898Q477.733 82.1743 479.142 81.7939Q480.551 81.4135 481.969 81.0684Q483.388 80.7233 484.814 80.4137Q486.241 80.1041 487.674 79.8303Q489.108 79.5565 490.548 79.3185Q491.988 79.0806 493.434 78.8787C524.841 74.2124 558.231 81.6647 583.826 100.703C612.557 122.074 627.527 150.899 632.664 185.858Q644.85 195.251 655.745 206.114Q657.324 207.691 658.868 209.302Q660.412 210.913 661.92 212.558Q663.428 214.203 664.9 215.88Q666.371 217.557 667.806 219.267Q669.24 220.976 670.637 222.716Q672.033 224.457 673.391 226.227Q674.749 227.998 676.068 229.798Q677.387 231.598 678.665 233.427Q679.944 235.255 681.183 237.112Q682.421 238.968 683.618 240.851Q684.816 242.734 685.971 244.642Q687.127 246.551 688.24 248.485Q689.354 250.419 690.424 252.376Q691.495 254.334 692.523 256.315Q693.55 258.295 694.534 260.298Q695.517 262.301 696.457 264.325Q697.396 266.349 698.291 268.393Q699.185 270.437 700.035 272.5Q700.885 274.564 701.689 276.645Q702.493 278.726 703.251 280.825Q704.009 282.923 704.721 285.038Q705.433 287.153 706.098 289.283Q706.763 291.412 707.381 293.556Q708 295.7 708.571 297.857Q709.142 300.014 709.665 302.183Q710.189 304.352 710.664 306.532Q711.14 308.712 711.568 310.902Q711.995 313.092 712.375 315.29Q712.754 317.489 713.085 319.696Q713.416 321.902 713.699 324.115Q713.981 326.329 714.215 328.548Q714.449 330.766 714.634 332.99C715.473 343.353 715.084 353.917 715.07 364.308L715.188 410.849C722.945 414.985 730.544 419.811 737.92 424.603Q742.416 427.573 746.838 430.652Q751.259 433.731 755.604 436.917Q759.949 440.104 764.215 443.395Q768.48 446.687 772.664 450.083Q776.847 453.478 780.946 456.975Q785.045 460.472 789.057 464.069Q793.069 467.665 796.992 471.359Q800.914 475.052 804.745 478.841Q808.576 482.63 812.313 486.511Q816.05 490.393 819.69 494.364Q823.331 498.336 826.873 502.396Q830.415 506.456 833.857 510.601Q837.298 514.747 840.637 518.975Q843.975 523.204 847.21 527.513Q850.444 531.822 853.571 536.209Q856.699 540.596 859.718 545.058Q862.737 549.52 865.645 554.055Q868.554 558.59 871.351 563.195Q874.147 567.8 876.83 572.472Q879.513 577.144 882.081 581.881Q884.648 586.617 887.099 591.415Q889.549 596.213 891.881 601.069Q894.214 605.926 896.426 610.838Q898.638 615.75 900.73 620.715Q902.821 625.68 904.79 630.695Q906.759 635.71 908.605 640.771Q910.45 645.833 912.171 650.938Q913.891 656.043 915.487 661.189Q917.082 666.334 918.55 671.518Q920.019 676.701 921.36 681.919Q922.7 687.137 923.913 692.386Q925.125 697.635 926.209 702.912C924.594 704.67 923.624 704.683 921.253 704.803C915.482 705.093 909.555 704.681 903.785 704.425Q904.929 709.83 905.939 715.262Q906.95 720.694 907.826 726.149Q908.702 731.604 909.444 737.079Q910.185 742.554 910.792 748.045Q911.398 753.537 911.87 759.042Q912.341 764.547 912.676 770.061Q913.011 775.576 913.211 781.098Q913.41 786.619 913.474 792.144Q913.537 797.668 913.464 803.193Q913.392 808.717 913.183 814.238Q912.974 819.759 912.629 825.273Q912.285 830.787 911.804 836.291Q911.324 841.795 910.708 847.286Q910.092 852.776 909.341 858.25Q908.59 863.724 907.705 869.177Q906.819 874.631 905.8 880.061Q904.78 885.491 903.627 890.895Q902.474 896.298 901.188 901.671Q899.903 907.044 898.485 912.384Q897.067 917.724 895.518 923.028Q893.969 928.332 892.29 933.595Q890.611 938.859 888.803 944.08Q886.995 949.301 885.059 954.476Q883.123 959.65 881.06 964.776Q878.997 969.901 876.808 974.974Q874.619 980.048 872.306 985.065Q869.993 990.083 867.557 995.042Q865.121 1000 862.564 1004.9Q860.007 1009.8 857.33 1014.63Q854.652 1019.46 851.857 1024.23Q849.062 1029 846.15 1033.69Q843.238 1038.39 840.211 1043.01C835.861 1049.56 830.397 1059.95 824.218 1064.66L822.984 1064.74C822.568 1075.6 821.4 1091.1 822.878 1101.6L822.777 1102.29C820.967 1115.32 822.365 1133.32 822.354 1146.83L822.403 1245.97C822.417 1258.38 823.95 1273.75 821.781 1285.7C821.739 1285.94 821.711 1286.17 821.66 1286.4C820.933 1289.64 814.138 1293.35 811.423 1294.86C790.469 1306.52 768.796 1317.21 747.549 1328.36L631.003 1389.7L561.19 1426.48C547.078 1434.05 533.019 1442.46 518.537 1449.27C515.59 1450.65 513.455 1451.93 510.135 1451.02C499.505 1448.1 488.406 1440.49 478.619 1435.26L419.871 1403.92L283.247 1331.06C259.912 1318.67 236.005 1306.94 213.001 1294C209.507 1292.03 206.241 1289.87 203.4 1287.02C202.269 1284.22 202.067 1281.24 201.928 1278.25C200.956 1257.37 201.864 1236.02 201.894 1215.08C201.941 1182.26 201.533 1149.39 201.99 1116.57C202.986 1115.18 202.539 1051.36 201.939 1044.61C201.198 1052.06 201.766 1059.99 201.805 1067.49C195.449 1064.72 176.985 1033.97 172.082 1025.88Q169.944 1022.29 167.874 1018.66Q165.805 1015.03 163.804 1011.36Q161.803 1007.69 159.873 1003.98Q157.942 1000.27 156.082 996.532Q154.222 992.789 152.433 989.012Q150.644 985.234 148.927 981.424Q147.21 977.614 145.566 973.771Q143.921 969.929 142.35 966.057Q140.779 962.184 139.281 958.282Q137.783 954.38 136.359 950.451Q134.936 946.522 133.587 942.566Q132.238 938.61 130.964 934.63Q129.691 930.649 128.493 926.646Q127.295 922.642 126.173 918.616Q125.051 914.59 124.005 910.544Q122.96 906.497 121.991 902.432Q121.022 898.366 120.131 894.283Q119.239 890.2 118.425 886.101Q117.611 882.002 116.875 877.888Q116.139 873.774 115.481 869.647Q114.822 865.52 114.243 861.381Q113.663 857.242 113.162 853.093Q112.66 848.944 112.238 844.787Q111.815 840.629 111.471 836.464Q111.127 832.299 110.863 828.128Q110.598 823.957 110.412 819.782Q110.226 815.607 110.12 811.429Q110.013 807.251 109.985 803.072Q109.958 798.893 110.01 794.714Q110.061 790.535 110.192 786.358Q110.323 782.181 110.533 778.007Q110.743 773.833 111.032 769.664C112.345 747.995 114.692 726.161 119.854 705.048L119.485 704.933C114.195 705.003 101.258 706.564 97.0693 703.679C98.6123 696.29 100.548 688.912 102.517 681.623Q103.903 676.36 105.419 671.132Q106.935 665.905 108.581 660.717Q110.226 655.529 111.999 650.383Q113.772 645.237 115.673 640.137Q117.573 635.037 119.599 629.985Q121.626 624.934 123.776 619.934Q125.927 614.934 128.201 609.989Q130.475 605.044 132.871 600.157Q135.267 595.27 137.784 590.443Q140.3 585.617 142.935 580.854Q145.57 576.092 148.323 571.396Q151.075 566.701 153.944 562.074Q156.812 557.448 159.793 552.895Q162.775 548.341 165.869 543.863Q168.963 539.385 172.167 534.984Q175.371 530.584 178.683 526.265Q181.995 521.945 185.413 517.709Q188.831 513.473 192.353 509.323Q195.875 505.172 199.498 501.111Q203.122 497.049 206.846 493.079Q210.569 489.108 214.389 485.231Q218.21 481.354 222.126 477.573Q226.041 473.791 230.049 470.108Q234.058 466.425 238.156 462.843Q242.254 459.26 246.44 455.78Q250.625 452.3 254.896 448.925Q259.167 445.549 263.52 442.281Q267.873 439.013 272.306 435.853Q276.738 432.694 281.248 429.645Q285.758 426.596 290.342 423.66Q294.926 420.724 299.581 417.903Q304.236 415.081 308.96 412.376C309.145 381.125 306.312 347.474 311.474 316.649C319.988 265.809 350.345 214.982 392.49 184.9Z"
     id="path2625" />
  <path
     fill="#EB9C3D"
     d="M500.168 847.376C514.79 835.489 531.811 828.146 547.03 817.278C553.211 812.864 557.577 805.111 564.168 801.48C559.794 815.892 553.358 830.263 550.085 844.911C541.075 849.723 531.861 854.286 522.372 858.085Q511.058 853.17 500.168 847.376Z"
     id="path2627" />
  <path
     fill="#1FD9F1"
     d="M420.69 743.269L421.222 743.832C420.216 749.771 416.832 756.237 414.591 761.91L399.572 799.535C390.153 794.242 380.452 789.421 370.847 784.474L354.543 775.965Q387.731 759.848 420.69 743.269Z"
     id="path2629" />
  <path
     fill="#1FD9F1"
     d="M599.005 766.698C604.569 769.34 610.008 772.876 615.436 775.843Q633.606 785.641 651.628 795.71C638.413 803.517 624.005 809.936 610.268 816.82L573.913 834.243Q585.648 800.169 599.005 766.698Z"
     id="path2631" />
  <path
     fill="#8034B5"
     d="M649.247 635.311C664.053 635.508 678.989 635.622 693.785 635.154L693.903 717.241C672.781 706.111 651.272 695.603 630.285 684.242C636.82 668.032 643.464 651.809 649.247 635.311Z"
     id="path2633" />
  <path
     fill="#7FBFAC"
     d="M471.849 833.54C481.815 823.643 492.897 814.404 505.338 807.778C512.564 803.93 520.2 800.745 527.271 796.627C545.226 786.17 545.001 764.473 549.891 746.616C554.718 728.994 565.068 713.988 581.206 704.973C588.043 701.154 593.81 699.573 601.456 701.708C591.174 727.074 582.627 753.173 572.221 778.449Q568.412 790.04 564.168 801.48C557.577 805.111 553.211 812.864 547.03 817.278C531.811 828.146 514.79 835.489 500.168 847.376L491.937 843.375C485.1 840.378 478.49 836.944 471.849 833.54Z"
     id="path2635" />
  <defs
     id="defs2642">
    <linearGradient
       id="gradient_0"
       gradientUnits="userSpaceOnUse"
       x1="527.39685"
       y1="806.30066"
       x2="537.41821"
       y2="824.28613">
      <stop
         offset="0"
         stop-color="#FFAB4A"
         id="stop2637" />
      <stop
         offset="1"
         stop-color="#F2BD5A"
         id="stop2639" />
    </linearGradient>
  </defs>
  <path
     fill="url(#gradient_0)"
     d="M491.937 843.375C504.458 829.176 522.79 821.696 537.604 810.304C550.147 800.659 560.52 788.966 572.221 778.449Q568.412 790.04 564.168 801.48C557.577 805.111 553.211 812.864 547.03 817.278C531.811 828.146 514.79 835.489 500.168 847.376L491.937 843.375Z"
     id="path2644" />
  <path
     fill="#1B787D"
     d="M396.833 1365.83C397.214 1365.9 397.845 1366.06 398.27 1366.05C401.408 1366.01 406.592 1363.33 409.61 1362.19C428.267 1355.17 490.158 1329.14 501.78 1317.49C502.762 1352.31 502.259 1387.27 502.372 1422.12C501.114 1422.17 500.412 1422.12 499.244 1421.59C489.407 1417.06 399.587 1368.9 397.825 1367.14C397.476 1366.79 397.098 1366.2 396.833 1365.83Z"
     id="path2646" />
  <path
     fill="#E37A37"
     d="M535.446 101.013C561.781 107.929 583.77 122.684 597.703 146.471C611.569 170.145 614.93 197.514 607.966 224.007C601.302 249.362 584.522 270.072 561.933 283.134Q560.88 283.732 559.814 284.304Q558.747 284.876 557.667 285.422Q556.586 285.968 555.493 286.487Q554.4 287.007 553.294 287.5Q552.189 287.993 551.072 288.459Q549.954 288.924 548.826 289.363Q547.698 289.802 546.559 290.213Q545.421 290.624 544.273 291.007Q543.125 291.39 541.967 291.745Q540.81 292.101 539.645 292.428Q538.479 292.755 537.306 293.053Q536.133 293.352 534.953 293.622Q533.773 293.892 532.587 294.133Q531.401 294.375 530.209 294.587Q529.018 294.799 527.821 294.983Q526.625 295.166 525.424 295.32Q524.223 295.475 523.019 295.6Q521.815 295.725 520.609 295.821Q519.402 295.916 518.193 295.983Q516.985 296.049 515.775 296.086Q514.565 296.123 513.354 296.131Q512.144 296.139 510.933 296.117Q509.723 296.095 508.514 296.044Q507.304 295.993 506.097 295.912Q504.889 295.832 503.683 295.722Q502.478 295.612 501.275 295.473Q500.073 295.334 498.874 295.166Q497.675 294.997 496.481 294.8Q495.287 294.603 494.098 294.376Q492.909 294.15 491.725 293.895Q490.542 293.64 489.365 293.356Q488.189 293.072 487.019 292.76Q483.59 291.833 480.238 290.658Q476.885 289.482 473.628 288.065Q470.371 286.648 467.226 284.997Q464.081 283.346 461.065 281.469C490.371 281.221 518.778 273.686 540.352 252.981C560.06 234.067 573.266 207.251 573.813 179.752Q573.849 177.625 573.79 175.499Q573.73 173.373 573.575 171.251Q573.42 169.13 573.17 167.018Q572.919 164.905 572.574 162.807Q572.228 160.708 571.789 158.626Q571.349 156.545 570.817 154.486Q570.284 152.427 569.659 150.393Q569.034 148.36 568.318 146.357Q567.602 144.354 566.797 142.385Q565.991 140.417 565.098 138.486Q564.205 136.556 563.226 134.667Q562.246 132.779 561.183 130.936Q560.12 129.094 558.975 127.301Q557.829 125.509 556.605 123.769Q555.38 122.03 554.078 120.348Q552.776 118.665 551.4 117.043C546.431 111.273 540.69 106.484 535.446 101.013Z"
     id="path2648" />
  <path
     fill="#F7CD7E"
     d="M509.587 587.294C535.076 575.202 560.764 562.074 586.75 551.176C589.34 555.59 591.809 559.967 594 564.599C589.843 570.713 586.126 576.742 583.984 583.874C580.079 596.876 581.388 610.433 573.392 622.24C560.793 640.841 535.719 641.311 520.245 656.699C498.351 678.471 505.326 711.706 478.434 734.497C472.515 739.514 465.332 743.625 457.666 745.157C453.722 745.946 447.369 746.924 443.504 745.573C449.017 730.533 455.377 715.787 461.398 700.946Q484.455 643.68 509.587 587.294Z"
     id="path2650" />
  <path
     fill="#8034B5"
     d="M329.451 592.16L429.019 592.28C446.548 592.202 466.69 590.792 483.946 592.135C478.525 605.752 472.974 619.273 466.483 632.424Q398.513 667.404 329.971 701.251L329.451 592.16Z"
     id="path2652" />
  <path
     fill="#FEFEFE"
     d="M421.813 618.563C424.133 618.887 426.596 619.648 428.206 621.461Q428.43 621.709 428.626 621.981Q428.821 622.253 428.985 622.545Q429.149 622.837 429.279 623.145Q429.41 623.454 429.505 623.775Q429.6 624.095 429.659 624.425Q429.719 624.755 429.741 625.089Q429.763 625.423 429.747 625.757Q429.732 626.091 429.68 626.422C429.177 629.475 427.068 630.897 424.695 632.499C424.298 632.491 423.9 632.484 423.503 632.456C421.249 632.301 419.038 631.472 417.585 629.668C416.496 628.318 416.199 626.784 416.479 625.091C417.033 621.74 419.192 620.281 421.813 618.563Z"
     id="path2654" />
  <path
     fill="#224D54"
     d="M826.373 814.46C828.885 818.538 827.517 854.892 827.504 862.381C771.215 889.513 715.88 918.988 660.03 947.052C615.057 969.652 567.861 991.337 523.922 1015.59L523.275 1015C521.541 1006.84 522.935 975.774 522.966 965.231C534.655 960.698 546.146 954.002 557.379 948.373L621.762 916.169L826.373 814.46Z"
     id="path2656" />
  <path
     fill="#2DA283"
     d="M196.324 803.939C227.015 819.101 257.091 835.961 287.473 851.788L501.983 964.002L502.069 1016.5L196.016 852.807C196.72 836.556 196.39 820.2 196.324 803.939Z"
     id="path2658" />
  <path
     fill="#F7CD7E"
     d="M443.504 745.573C447.369 746.924 453.722 745.946 457.666 745.157C465.332 743.625 472.515 739.514 478.434 734.497C505.326 711.706 498.351 678.471 520.245 656.699C535.719 641.311 560.793 640.841 573.392 622.24C581.388 610.433 580.079 596.876 583.984 583.874C586.126 576.742 589.843 570.713 594 564.599C596.875 569.802 599.706 575 602.33 580.336C608.482 591.612 614.865 602.821 620.732 614.245C623.619 619.455 626.503 624.648 629.625 629.723C620.3 653.671 611.529 678.089 601.456 701.708C593.81 699.573 588.043 701.154 581.206 704.973C565.068 713.988 554.718 728.994 549.891 746.616C545.001 764.473 545.226 786.17 527.271 796.627C520.2 800.745 512.564 803.93 505.338 807.778C492.897 814.404 481.815 823.643 471.849 833.54C454.059 825.734 436.934 815.617 419.323 807.266Q425.477 790.913 431.892 774.662L437.486 760.562C439.238 755.487 441.454 750.536 443.504 745.573Z"
     id="path2660" />
  <path
     fill="#EB9C3D"
     d="M443.504 745.573C447.369 746.924 453.722 745.946 457.666 745.157C465.332 743.625 472.515 739.514 478.434 734.497C505.326 711.706 498.351 678.471 520.245 656.699C535.719 641.311 560.793 640.841 573.392 622.24C581.388 610.433 580.079 596.876 583.984 583.874C586.126 576.742 589.843 570.713 594 564.599C596.875 569.802 599.706 575 602.33 580.336C608.482 591.612 614.865 602.821 620.732 614.245C607.75 637.814 596.953 652.538 573.374 666.429C562.025 673.115 551.318 679.614 542.619 689.751C526.949 708.009 522.253 733.471 504.767 750.002C494.476 759.731 481.122 766.044 467.606 769.948C456.107 773.268 443.842 774.651 431.892 774.662L437.486 760.562C439.238 755.487 441.454 750.536 443.504 745.573Z"
     id="path2662" />
  <path
     fill="#F6B043"
     d="M443.504 745.573C447.369 746.924 453.722 745.946 457.666 745.157C465.332 743.625 472.515 739.514 478.434 734.497C505.326 711.706 498.351 678.471 520.245 656.699C535.719 641.311 560.793 640.841 573.392 622.24C581.388 610.433 580.079 596.876 583.984 583.874C586.126 576.742 589.843 570.713 594 564.599C596.875 569.802 599.706 575 602.33 580.336C596.615 595.467 596.253 613.763 586.956 626.905C570.834 649.696 541.09 652.638 524.856 675.008C504.968 702.412 510.157 733.708 473.424 752.613Q471.795 753.449 470.123 754.195C464.222 756.831 443.675 762.961 437.486 760.562C439.238 755.487 441.454 750.536 443.504 745.573Z"
     id="path2664" />
  <path
     fill="#F6B043"
     d="M461.065 281.469C447.997 273.609 435.883 261.611 427.663 248.777C413.613 226.84 409.441 199.31 415.118 173.981Q415.382 172.819 415.675 171.663Q415.968 170.508 416.289 169.36Q416.61 168.212 416.959 167.072Q417.307 165.933 417.684 164.802Q418.061 163.671 418.465 162.55Q418.869 161.428 419.301 160.317Q419.732 159.206 420.191 158.106Q420.65 157.006 421.135 155.917Q421.62 154.828 422.132 153.752Q422.644 152.675 423.182 151.612Q423.72 150.548 424.284 149.498Q424.848 148.448 425.438 147.412Q426.027 146.376 426.642 145.355Q427.256 144.333 427.896 143.327Q428.535 142.321 429.199 141.331Q429.863 140.341 430.551 139.368Q431.238 138.394 431.95 137.438Q432.661 136.481 433.396 135.543Q434.131 134.604 434.888 133.683Q435.646 132.763 436.425 131.861Q437.205 130.96 438.007 130.077Q438.808 129.195 439.631 128.333Q440.454 127.47 441.298 126.628Q442.141 125.786 443.005 124.965Q443.87 124.143 444.753 123.344Q445.637 122.544 446.541 121.766Q447.444 120.988 448.366 120.232Q449.288 119.477 450.228 118.744Q451.168 118.011 452.126 117.301Q453.084 116.592 454.059 115.906Q455.034 115.219 456.025 114.558Q457.017 113.896 458.024 113.258C481.088 98.7693 509.077 94.9995 535.446 101.013C540.69 106.484 546.431 111.273 551.4 117.043Q552.776 118.665 554.078 120.348Q555.38 122.03 556.605 123.769Q557.829 125.509 558.975 127.301Q560.12 129.094 561.183 130.936Q562.246 132.779 563.226 134.667Q564.205 136.556 565.098 138.486Q565.991 140.417 566.797 142.385Q567.602 144.354 568.318 146.357Q569.034 148.36 569.659 150.393Q570.284 152.427 570.817 154.486Q571.349 156.545 571.789 158.626Q572.228 160.708 572.574 162.807Q572.919 164.905 573.17 167.018Q573.42 169.13 573.575 171.251Q573.73 173.373 573.79 175.499Q573.849 177.625 573.813 179.752C573.266 207.251 560.06 234.067 540.352 252.981C518.778 273.686 490.371 281.221 461.065 281.469Z"
     id="path2666" />
  <path
     fill="#A42A68"
     d="M450.509 166.034C452.993 166.26 454.028 166.467 455.858 168.083C456.448 170.282 455.788 171.633 454.999 173.705C452.412 173.542 451.182 173.26 449.435 171.436C449.145 169.244 449.645 168.038 450.509 166.034Z"
     id="path2668" />
  <path
     fill="#A42A68"
     d="M474.658 235.054C476.804 235.646 478.058 235.999 479.582 237.663C479.926 240.127 479.466 241.069 478.608 243.336C478.391 243.327 478.173 243.329 477.956 243.309C475.529 243.094 474.667 242.631 473.217 240.821C472.932 238.491 473.687 237.106 474.658 235.054Z"
     id="path2670" />
  <path
     fill="#E37A37"
     d="M524.49 205.611C526.633 205.444 528.873 205.222 530.979 205.762C533.834 206.494 536.48 208.427 537.954 210.989C539.378 213.464 539.614 216.479 538.867 219.208C537.615 223.784 534.456 226.235 530.596 228.504C529.129 228.734 527.666 228.713 526.192 228.515C523.163 228.107 520.173 226.457 518.4 223.939C516.395 221.091 516.113 217.496 516.933 214.182C518.019 209.792 520.852 207.775 524.49 205.611Z"
     id="path2672" />
  <path
     fill="#E37A37"
     d="M500.358 121.684C504.125 121.982 507.473 122.714 510.72 124.735Q511.481 125.202 512.193 125.742Q512.904 126.282 513.557 126.89Q514.211 127.499 514.801 128.169Q515.391 128.84 515.911 129.566Q516.431 130.292 516.876 131.066Q517.321 131.84 517.687 132.654Q518.053 133.469 518.335 134.316Q518.618 135.163 518.815 136.034Q519.026 136.96 519.146 137.902Q519.266 138.844 519.294 139.793Q519.321 140.742 519.256 141.689Q519.191 142.636 519.033 143.573Q518.876 144.509 518.628 145.426Q518.38 146.343 518.044 147.231Q517.708 148.119 517.287 148.97Q516.866 149.821 516.364 150.627C512.757 156.369 508.096 158.437 501.713 159.965C497.429 159.451 493.571 158.855 489.906 156.434C485.679 153.64 482.734 149.395 481.808 144.396Q481.723 143.933 481.661 143.466Q481.599 142.999 481.56 142.53Q481.522 142.06 481.507 141.589Q481.492 141.119 481.501 140.648Q481.51 140.177 481.542 139.707Q481.574 139.237 481.63 138.77Q481.686 138.302 481.765 137.838Q481.844 137.373 481.947 136.914Q482.049 136.454 482.174 136Q482.3 135.546 482.448 135.099Q482.595 134.652 482.766 134.212Q482.936 133.773 483.128 133.343Q483.319 132.913 483.533 132.493Q483.746 132.073 483.98 131.664Q484.214 131.255 484.468 130.859Q484.722 130.462 484.996 130.079C488.752 124.772 494.159 122.649 500.358 121.684Z"
     id="path2674" />
  <path
     fill="#803C94"
     d="M119.854 705.048C161.695 703.649 203.89 704.653 245.758 704.833L288.218 704.939C294.985 704.946 302.316 704.401 309.023 705.087C308.974 707.283 309.334 709.546 308.194 711.444C297.433 717.767 285.791 722.903 274.625 728.499L213.175 759.273C202.826 764.425 191.357 769.093 181.622 775.231C179.506 776.566 176.114 778.764 175.483 781.297C173.773 788.16 174.905 854.04 175.561 864.769C182.365 871.872 193.378 875.723 201.917 880.529L201.939 1044.61C201.198 1052.06 201.766 1059.99 201.805 1067.49C195.449 1064.72 176.985 1033.97 172.082 1025.88Q169.944 1022.29 167.874 1018.66Q165.805 1015.03 163.804 1011.36Q161.803 1007.69 159.873 1003.98Q157.942 1000.27 156.082 996.532Q154.222 992.789 152.433 989.012Q150.644 985.234 148.927 981.424Q147.21 977.614 145.566 973.771Q143.921 969.929 142.35 966.057Q140.779 962.184 139.281 958.282Q137.783 954.38 136.359 950.451Q134.936 946.522 133.587 942.566Q132.238 938.61 130.964 934.63Q129.691 930.649 128.493 926.646Q127.295 922.642 126.173 918.616Q125.051 914.59 124.005 910.544Q122.96 906.497 121.991 902.432Q121.022 898.366 120.131 894.283Q119.239 890.2 118.425 886.101Q117.611 882.002 116.875 877.888Q116.139 873.774 115.481 869.647Q114.822 865.52 114.243 861.381Q113.663 857.242 113.162 853.093Q112.66 848.944 112.238 844.787Q111.815 840.629 111.471 836.464Q111.127 832.299 110.863 828.128Q110.598 823.957 110.412 819.782Q110.226 815.607 110.12 811.429Q110.013 807.251 109.985 803.072Q109.958 798.893 110.01 794.714Q110.061 790.535 110.192 786.358Q110.323 782.181 110.533 778.007Q110.743 773.833 111.032 769.664C112.345 747.995 114.692 726.161 119.854 705.048Z"
     id="path2676" />
  <path
     fill="#FEFEFE"
     d="M162.738 897.648C163.876 897.618 165.025 897.61 166.158 897.735C168.561 898 170.731 899.198 172.133 901.195C173.317 902.88 173.652 904.672 173.188 906.676C172.423 909.978 170.268 911.54 167.568 913.206C167.057 913.216 166.546 913.202 166.037 913.169C163.204 912.985 160.705 912.202 158.876 909.899C157.644 908.347 157.184 906.536 157.453 904.578C157.93 901.115 160.114 899.532 162.738 897.648Z"
     id="path2678" />
  <path
     fill="#803C94"
     d="M801.189 719.741C804.445 714.65 807.291 709.33 810.193 704.034C820.868 705.283 832.469 704.366 843.235 704.335Q873.51 704.2 903.785 704.425Q904.929 709.83 905.939 715.262Q906.95 720.694 907.826 726.149Q908.702 731.604 909.444 737.079Q910.185 742.554 910.792 748.045Q911.398 753.537 911.87 759.042Q912.341 764.547 912.676 770.061Q913.011 775.576 913.211 781.098Q913.41 786.619 913.474 792.144Q913.537 797.668 913.464 803.193Q913.392 808.717 913.183 814.238Q912.974 819.759 912.629 825.273Q912.285 830.787 911.804 836.291Q911.324 841.795 910.708 847.286Q910.092 852.776 909.341 858.25Q908.59 863.724 907.705 869.177Q906.819 874.631 905.8 880.061Q904.78 885.491 903.627 890.895Q902.474 896.298 901.188 901.671Q899.903 907.044 898.485 912.384Q897.067 917.724 895.518 923.028Q893.969 928.332 892.29 933.595Q890.611 938.859 888.803 944.08Q886.995 949.301 885.059 954.476Q883.123 959.65 881.06 964.776Q878.997 969.901 876.808 974.974Q874.619 980.048 872.306 985.065Q869.993 990.083 867.557 995.042Q865.121 1000 862.564 1004.9Q860.007 1009.8 857.33 1014.63Q854.652 1019.46 851.857 1024.23Q849.062 1029 846.15 1033.69Q843.238 1038.39 840.211 1043.01C835.861 1049.56 830.397 1059.95 824.218 1064.66L822.984 1064.74C822.348 1058.29 822.772 1051.27 822.758 1044.76L822.711 1006.75L822.536 889.028L849.139 875.435C849.075 863.391 850.504 807.025 848.371 799.589C847.436 796.329 842.89 793.442 840.108 791.75C828.944 784.961 816.041 779.942 804.302 774.049C774.339 759.004 743.992 744.223 714.534 728.215C715.283 720.273 714.878 712.084 714.841 704.106L792.934 704.42L801.189 719.741Z"
     id="path2680" />
  <path
     fill="#FEFEFE"
     d="M869.501 748.446C872.394 748.545 874.915 748.697 877.062 750.902C878.505 752.384 879.102 754.175 878.902 756.229C878.559 759.733 876.608 761.574 874.062 763.647C870.835 763.48 868.381 763.379 866.056 760.786C864.672 759.242 864.125 757.341 864.425 755.292C864.921 751.913 866.957 750.345 869.501 748.446Z"
     id="path2682" />
  <path
     fill="#FEFEFE"
     d="M857.52 919.51C858.34 919.608 859.121 919.761 859.92 919.975C862.43 920.646 864.452 921.872 865.65 924.265C866.559 926.078 866.603 928.07 865.963 929.977C864.849 933.298 862.497 934.713 859.583 936.208C858.575 936.109 857.662 935.979 856.696 935.656C854.28 934.849 852.254 933.381 851.161 931.022C850.298 929.161 850.286 927.091 850.995 925.178C852.182 921.973 854.635 920.827 857.52 919.51Z"
     id="path2684" />
  <path
     fill="#572375"
     d="M714.902 441.984Q719.583 444.79 724.17 447.746Q728.404 450.449 732.571 453.255Q736.738 456.061 740.835 458.968Q744.931 461.875 748.956 464.881Q752.98 467.888 756.929 470.992Q760.879 474.096 764.751 477.297Q768.623 480.497 772.416 483.791Q776.208 487.085 779.919 490.47Q783.629 493.856 787.256 497.332Q790.882 500.808 794.423 504.371Q797.963 507.935 801.415 511.584Q804.867 515.234 808.228 518.966Q811.589 522.699 814.858 526.513Q818.127 530.327 821.302 534.22Q824.476 538.112 827.554 542.082Q830.632 546.051 833.612 550.095Q836.592 554.139 839.472 558.254Q842.352 562.37 845.13 566.554Q847.908 570.739 850.583 574.991Q853.257 579.242 855.827 583.558Q858.397 587.874 860.86 592.251Q863.323 596.629 865.678 601.065Q868.033 605.502 870.279 609.995Q872.525 614.488 874.66 619.034Q876.795 623.581 878.817 628.178Q880.84 632.776 882.75 637.421Q884.659 642.067 886.454 646.758Q888.249 651.449 889.929 656.182Q891.609 660.916 893.172 665.689Q894.735 670.463 896.18 675.273Q897.626 680.083 898.953 684.927Q900.28 689.771 901.489 694.646Q902.697 699.522 903.785 704.425Q873.51 704.2 843.235 704.335C832.469 704.366 820.868 705.283 810.193 704.034C807.291 709.33 804.445 714.65 801.189 719.741L792.934 704.42L714.841 704.106C714.878 712.084 715.283 720.273 714.534 728.215C712.589 719.603 714.474 705.562 714.685 696.397Q714.937 679.292 714.896 662.186L714.902 441.984Z"
     id="path2686" />
  <path
     fill="#FEFEFE"
     d="M801.515 656.789C811.784 676.696 812.158 677.233 832.033 687.896C825.348 691.955 813.812 697.034 810.193 704.034C807.291 709.33 804.445 714.65 801.189 719.741L792.934 704.42C788.864 697.414 777.379 692.198 770.552 688.11C791.179 675.653 790.26 679.023 801.515 656.789Z"
     id="path2688" />
  <path
     fill="#221267"
     d="M766.235 543.136C775.689 542.366 784.583 543.39 792.831 548.441Q793.676 548.961 794.494 549.523Q795.312 550.085 796.101 550.688Q796.89 551.29 797.648 551.931Q798.405 552.572 799.13 553.251Q799.854 553.929 800.544 554.643Q801.234 555.356 801.887 556.104Q802.54 556.851 803.155 557.63Q803.769 558.41 804.344 559.219Q804.919 560.028 805.453 560.864Q805.986 561.701 806.477 562.564Q806.968 563.426 807.415 564.312Q807.862 565.198 808.265 566.105Q808.667 567.013 809.023 567.939Q809.379 568.865 809.688 569.808Q809.997 570.751 810.259 571.708Q810.521 572.666 810.734 573.635Q810.943 574.562 811.106 575.499Q811.269 576.436 811.385 577.38Q811.501 578.323 811.571 579.271Q811.641 580.22 811.663 581.17Q811.686 582.121 811.662 583.071Q811.637 584.022 811.566 584.97Q811.495 585.918 811.377 586.861Q811.259 587.805 811.095 588.741Q810.93 589.678 810.72 590.605Q810.51 591.532 810.254 592.448Q809.998 593.363 809.697 594.265Q809.396 595.167 809.051 596.053Q808.706 596.939 808.317 597.807Q807.929 598.675 807.498 599.523Q807.068 600.37 806.595 601.196Q806.123 602.021 805.611 602.822C799.198 612.842 789.636 618.459 778.206 620.956C768.318 621.878 759.347 620.288 750.892 614.867Q750.059 614.335 749.254 613.762Q748.448 613.189 747.672 612.576Q746.897 611.964 746.152 611.314Q745.408 610.663 744.697 609.977Q743.986 609.29 743.31 608.569Q742.634 607.848 741.994 607.094Q741.355 606.34 740.754 605.556Q740.153 604.771 739.592 603.957Q739.031 603.144 738.511 602.303Q737.991 601.463 737.514 600.597Q737.036 599.732 736.603 598.844Q736.169 597.956 735.78 597.047Q735.391 596.138 735.048 595.212Q734.704 594.285 734.408 593.342Q734.111 592.399 733.862 591.443Q733.612 590.487 733.411 589.519C731.298 579.331 733.119 568.662 738.967 560.003C745.476 550.366 755.079 545.406 766.235 543.136Z"
     id="path2690" />
  <path
     fill="#E37A37"
     d="M770.326 562.669C773.741 562.83 776.915 563.257 780.047 564.717C784.826 566.946 788.474 570.75 790.232 575.751Q790.39 576.188 790.525 576.633Q790.661 577.078 790.774 577.528Q790.886 577.979 790.976 578.435Q791.066 578.891 791.133 579.351Q791.2 579.811 791.243 580.274Q791.287 580.737 791.307 581.201Q791.327 581.666 791.324 582.13Q791.32 582.595 791.293 583.059Q791.266 583.523 791.216 583.985Q791.166 584.447 791.092 584.906Q791.019 585.365 790.922 585.82Q790.825 586.275 790.706 586.724Q790.586 587.173 790.444 587.615Q790.302 588.058 790.138 588.493Q789.974 588.928 789.788 589.354Q789.602 589.78 789.395 590.196C786.327 596.245 781.431 598.92 775.218 600.979C770.51 601.23 766.275 600.641 762.234 598.061Q761.814 597.795 761.408 597.508Q761.001 597.221 760.61 596.915Q760.219 596.608 759.843 596.282Q759.468 595.956 759.11 595.611Q758.751 595.267 758.41 594.905Q758.069 594.543 757.747 594.164Q757.425 593.786 757.122 593.391Q756.819 592.997 756.537 592.588Q756.254 592.179 755.992 591.756Q755.731 591.333 755.491 590.898Q755.25 590.463 755.032 590.016Q754.815 589.569 754.619 589.112Q754.424 588.654 754.252 588.188Q754.08 587.722 753.931 587.247Q753.783 586.773 753.658 586.291Q753.534 585.81 753.434 585.323C752.429 580.431 753.202 575.206 755.996 571.016C759.501 565.76 764.331 563.79 770.326 562.669Z"
     id="path2692" />
  <path
     fill="#F6B043"
     d="M766.65 570.014C768.728 569.774 771.034 569.617 773.091 570.055C775.97 570.669 778.752 572.748 780.344 575.196Q780.639 575.646 780.885 576.125Q781.13 576.604 781.323 577.106Q781.516 577.608 781.653 578.129Q781.791 578.649 781.872 579.181Q781.953 579.713 781.977 580.25Q782.001 580.788 781.967 581.325Q781.933 581.862 781.841 582.392Q781.75 582.923 781.602 583.44C780.443 587.51 777.769 589.477 774.295 591.417C773.299 591.544 772.309 591.594 771.305 591.599C768.084 591.614 764.899 590.472 762.688 588.058C760.552 585.727 759.771 582.517 760.164 579.42C760.733 574.931 763.219 572.52 766.65 570.014Z"
     id="path2694" />
  <path
     fill="#572375"
     d="M308.429 437.515L309.013 615.623C308.986 645.309 307.806 675.459 309.023 705.087C302.316 704.401 294.985 704.946 288.218 704.939L245.758 704.833C203.89 704.653 161.695 703.649 119.854 705.048L119.485 704.933C123.709 688.742 127.719 672.458 133.289 656.663Q134.467 653.325 135.7 650.007Q136.934 646.689 138.222 643.392Q139.51 640.095 140.853 636.82Q142.196 633.545 143.593 630.293Q144.99 627.04 146.441 623.811Q147.891 620.583 149.396 617.378Q150.9 614.174 152.457 610.995Q154.015 607.817 155.624 604.664Q157.234 601.511 158.896 598.386Q160.558 595.261 162.272 592.163Q163.985 589.066 165.75 585.997Q167.515 582.929 169.331 579.89Q171.146 576.851 173.012 573.843Q174.878 570.835 176.793 567.858Q178.709 564.881 180.674 561.937Q182.638 558.992 184.652 556.081Q186.665 553.169 188.726 550.291Q190.788 547.413 192.897 544.57Q195.005 541.727 197.161 538.919Q199.317 536.111 201.519 533.34Q203.721 530.568 205.969 527.834Q208.217 525.099 210.51 522.402Q212.803 519.705 215.141 517.047Q217.478 514.388 219.859 511.769Q222.241 509.149 224.665 506.57Q227.089 503.99 229.556 501.451Q232.023 498.913 234.532 496.415Q237.041 493.917 239.591 491.462Q242.141 489.006 244.731 486.593Q247.321 484.18 249.952 481.811Q252.582 479.441 255.251 477.116Q257.92 474.79 260.627 472.509C275.9 459.77 292.172 448.878 308.429 437.515Z"
     id="path2696" />
  <path
     fill="#A4C6CA"
     d="M171.075 661.793L173.296 662.435C175.641 664.496 176.674 667.539 177.946 670.332C179.525 671.07 181.281 671.775 182.746 672.712C184.407 673.775 184.792 674.205 185.21 676.08C183.56 678.713 180.473 680.01 177.833 681.514L173.546 690.054L171.605 689.576C169.367 687.784 168.506 685.024 167.385 682.458C165.587 681.195 163.603 680.191 161.828 678.884C160.217 677.699 159.694 677.102 159.461 675.137C160.911 672.688 163.728 671.714 166.194 670.481C167.961 667.655 169.517 664.738 171.075 661.793Z"
     id="path2698" />
  <path
     fill="#221267"
     d="M257.109 516.227C265.285 515.206 275.223 518.283 282.005 522.799C290.801 528.656 296.563 538.411 298.447 548.72C300.354 559.153 297.662 569.73 291.613 578.381C284.467 588.599 274.715 593.241 262.732 595.427C252.941 595.71 243.373 593.504 235.44 587.528C226.939 581.124 221.524 571.172 220.142 560.671Q220.012 559.715 219.93 558.754Q219.847 557.793 219.814 556.828Q219.78 555.864 219.794 554.9Q219.809 553.935 219.871 552.972Q219.934 552.01 220.045 551.051Q220.156 550.093 220.315 549.141Q220.473 548.19 220.68 547.247Q220.886 546.305 221.139 545.374Q221.392 544.443 221.692 543.526Q221.991 542.609 222.337 541.708Q222.682 540.807 223.072 539.925Q223.461 539.042 223.895 538.18Q224.328 537.318 224.805 536.479Q225.281 535.64 225.798 534.826Q226.316 534.012 226.874 533.225Q227.431 532.437 228.028 531.679C235.387 522.219 245.438 517.718 257.109 516.227Z"
     id="path2700" />
  <path
     fill="#F6B043"
     d="M240.852 553.545C241.802 549.849 243.186 546.317 245.756 543.43C249.175 539.591 253.859 537.166 259.031 537.009C265.317 536.819 269.829 539.639 274.286 543.76C270.704 550.412 265.015 556.817 257.527 559.04C253.479 560.242 249.683 559.768 246.02 557.709C244.159 556.662 242.212 555.191 240.852 553.545Z"
     id="path2702" />
  <path
     fill="#E37A37"
     d="M274.286 543.76C277.416 548.803 279.544 554.19 278.188 560.233C277.064 565.239 273.776 569.454 269.347 571.993Q268.917 572.241 268.475 572.466Q268.033 572.692 267.58 572.895Q267.127 573.098 266.665 573.279Q266.203 573.459 265.732 573.616Q265.261 573.772 264.783 573.905Q264.305 574.038 263.82 574.147Q263.336 574.256 262.847 574.341Q262.358 574.425 261.865 574.485Q261.373 574.545 260.878 574.58Q260.383 574.615 259.887 574.625Q259.39 574.635 258.894 574.62Q258.398 574.605 257.904 574.566Q257.409 574.526 256.917 574.462Q256.425 574.397 255.936 574.308Q255.448 574.219 254.965 574.106Q254.482 573.992 254.005 573.855C249.579 572.608 245.751 569.737 243.518 565.689C241.443 561.926 240.636 557.815 240.852 553.545C242.212 555.191 244.159 556.662 246.02 557.709C249.683 559.768 253.479 560.242 257.527 559.04C265.015 556.817 270.704 550.412 274.286 543.76Z"
     id="path2704" />
  <path
     fill="#39A2D9"
     d="M631.508 212.804Q633.148 214.198 634.753 215.632Q636.359 217.066 637.929 218.538Q639.499 220.01 641.032 221.52Q642.566 223.031 644.062 224.577Q645.559 226.124 647.017 227.707Q648.476 229.29 649.895 230.908Q651.315 232.526 652.694 234.178Q654.074 235.83 655.413 237.515Q656.752 239.2 658.049 240.918Q659.347 242.635 660.602 244.383Q661.858 246.131 663.07 247.91Q664.283 249.688 665.451 251.495Q666.62 253.302 667.745 255.137Q668.869 256.973 669.949 258.835Q671.028 260.697 672.062 262.584Q673.096 264.472 674.083 266.384Q675.071 268.296 676.011 270.232Q676.952 272.168 677.845 274.126Q678.739 276.084 679.584 278.063Q680.429 280.042 681.226 282.042Q682.023 284.041 682.771 286.059Q683.519 288.077 684.218 290.112Q684.917 292.148 685.566 294.2Q686.214 296.252 686.813 298.319Q687.412 300.386 687.96 302.467Q688.509 304.548 689.006 306.642Q689.503 308.736 689.95 310.841Q690.396 312.947 690.791 315.062Q691.186 317.178 691.529 319.302Q691.873 321.427 692.164 323.559Q692.456 325.692 692.695 327.83Q692.935 329.969 693.122 332.113C694.471 347.093 693.912 362.406 693.895 377.447L329.905 377.478C329.849 362.964 329.351 348.251 330.669 333.784Q330.839 331.837 331.051 329.894Q331.264 327.95 331.518 326.012Q331.773 324.074 332.069 322.142Q332.365 320.21 332.703 318.285Q333.041 316.359 333.421 314.442Q333.801 312.525 334.222 310.616Q334.644 308.707 335.106 306.808Q335.569 304.908 336.072 303.02Q336.576 301.131 337.12 299.254Q337.665 297.376 338.25 295.511Q338.835 293.646 339.46 291.794Q340.085 289.942 340.75 288.104Q341.416 286.266 342.121 284.442Q342.826 282.619 343.57 280.812Q344.314 279.004 345.098 277.213Q345.881 275.422 346.703 273.649Q347.525 271.875 348.385 270.12Q349.245 268.364 350.143 266.628Q351.041 264.892 351.977 263.175Q352.912 261.459 353.885 259.763Q354.857 258.067 355.866 256.393Q356.875 254.719 357.92 253.066Q358.965 251.414 360.046 249.785Q361.126 248.156 362.242 246.551Q363.358 244.946 364.508 243.365Q365.658 241.785 366.842 240.229Q368.026 238.674 369.244 237.144Q370.462 235.615 371.712 234.112Q372.963 232.61 374.245 231.135Q375.528 229.659 376.843 228.212Q378.157 226.765 379.503 225.347Q380.848 223.929 382.224 222.54C385.373 219.355 388.708 216.109 392.201 213.303C400.393 248.836 417.189 278.286 448.747 298.102Q450 298.891 451.271 299.649Q452.543 300.407 453.833 301.133Q455.123 301.859 456.431 302.554Q457.738 303.248 459.062 303.91Q460.387 304.572 461.727 305.201Q463.067 305.83 464.422 306.426Q465.777 307.021 467.147 307.584Q468.516 308.146 469.899 308.674Q471.282 309.203 472.678 309.697Q474.073 310.191 475.481 310.65Q476.888 311.11 478.306 311.535Q479.724 311.96 481.153 312.349Q482.581 312.739 484.018 313.093Q485.456 313.448 486.901 313.767Q488.347 314.086 489.8 314.369Q491.253 314.652 492.713 314.899Q494.173 315.147 495.638 315.358Q497.104 315.569 498.574 315.744Q500.044 315.919 501.518 316.058Q502.992 316.197 504.469 316.299Q505.946 316.402 507.425 316.468Q508.904 316.534 510.384 316.564Q511.864 316.593 513.344 316.586Q514.825 316.579 516.305 316.536Q517.785 316.493 519.263 316.413Q520.741 316.333 522.217 316.217Q523.693 316.101 525.166 315.948Q526.638 315.796 528.107 315.607Q529.575 315.418 531.039 315.193Q532.502 314.968 533.959 314.708Q535.416 314.447 536.867 314.15Q538.317 313.853 539.76 313.521Q541.204 313.184 542.639 312.812Q544.074 312.44 545.499 312.033Q546.925 311.625 548.34 311.183Q549.755 310.741 551.159 310.264Q552.562 309.787 553.954 309.276Q555.346 308.765 556.724 308.219Q558.103 307.674 559.468 307.095Q560.832 306.516 562.182 305.904Q563.533 305.292 564.867 304.647Q566.202 304.001 567.521 303.324Q568.839 302.646 570.14 301.936Q571.442 301.226 572.725 300.484Q574.009 299.742 575.274 298.969Q576.539 298.196 577.784 297.392Q579.03 296.588 580.255 295.754Q581.481 294.92 582.685 294.056Q583.89 293.191 585.073 292.298Q586.255 291.405 587.416 290.482Q588.577 289.56 589.714 288.61Q590.852 287.659 591.966 286.681Q593.08 285.703 594.169 284.698Q595.259 283.693 596.323 282.661Q597.388 281.629 598.427 280.572Q599.466 279.514 600.478 278.432Q601.491 277.349 602.476 276.242Q603.462 275.134 604.42 274.003Q605.378 272.872 606.308 271.718Q607.238 270.564 608.139 269.387Q609.041 268.21 609.913 267.011Q610.785 265.813 611.628 264.593Q612.47 263.373 613.282 262.134Q614.094 260.894 614.876 259.634C623.803 245.242 628.738 229.432 631.508 212.804Z"
     id="path2706" />
  <path
     fill="#FEFEFE"
     d="M634.669 270.735C635.543 270.67 636.419 270.623 637.296 270.665C639.701 270.783 641.907 271.636 643.516 273.489C644.922 275.11 645.401 277.175 645.092 279.274C644.582 282.729 642.538 284.51 639.979 286.544C636.735 286.607 633.975 286.386 631.589 283.866C630.143 282.338 629.475 280.388 629.649 278.294C629.948 274.697 632.059 272.834 634.669 270.735Z"
     id="path2708" />
  <path
     fill="#FEFEFE"
     d="M374.911 326.238C376.51 326.199 378.176 326.221 379.745 326.553C382.24 327.08 384.511 328.834 385.859 330.973C387.178 333.067 387.553 335.473 386.946 337.864C385.977 341.684 383.576 343.446 380.37 345.278C378.939 345.34 377.44 345.289 376.023 345.067C373.473 344.669 371.256 342.991 369.85 340.862C368.445 338.734 368.021 336.181 368.602 333.703C369.497 329.886 371.795 328.176 374.911 326.238Z"
     id="path2710" />
  <path
     fill="#7FBFAC"
     d="M453.089 663.837C453.255 664.254 453.565 664.639 453.587 665.087C453.696 667.251 436.012 708.466 433.921 713.487L370.448 744.492C358.487 750.327 345.824 755.674 334.319 762.305C331.327 764.03 327.361 766.511 325.347 769.385C323.836 771.541 323.852 775.844 324.456 778.261C325.35 781.841 327.662 784.732 330.831 786.578C341.07 792.544 352.308 797.437 362.918 802.742L420.37 831.684L481.979 862.684C493.065 868.263 504.128 874.323 515.483 879.312C518.305 880.552 520.898 881.946 523.942 881.119C531.436 879.084 538.937 874.71 545.93 871.306L579.111 855.151C612.021 839.125 645.781 824.04 678.088 806.879C680.268 805.721 683.117 804.503 684.348 802.254C686.027 799.188 686.904 796.326 685.788 792.865C685.032 790.521 683.738 788.518 681.795 787.001C674.632 781.408 665.076 777.341 657.008 773.065Q631.593 759.612 606.034 746.433C611.07 732.629 617.091 719.012 622.614 705.381C641.371 714.421 803.681 797.389 805.467 799.941L804.515 801.011C747.225 832.322 687.538 860.101 629.149 889.35L559.987 923.716C545.049 931.228 529.764 939.98 514.216 946.014C503.807 942.31 493.362 935.486 483.521 930.333L417.822 895.86L207.772 786.37C219.242 779.455 231.793 773.742 243.762 767.727L307.652 735.849C356.039 711.799 404.027 686.473 453.089 663.837Z"
     id="path2712" />
  <defs
     id="defs2719">
    <linearGradient
       id="gradient_1"
       gradientUnits="userSpaceOnUse"
       x1="461.18271"
       y1="1227.7913"
       x2="789.60657"
       y2="945.39172">
      <stop
         offset="0"
         stop-color="#1D7883"
         id="stop2714" />
      <stop
         offset="1"
         stop-color="#208580"
         id="stop2716" />
    </linearGradient>
  </defs>
  <path
     fill="url(#gradient_1)"
     d="M768.581 916.287C766.572 932.196 762.525 948.043 758.878 963.64Q757.495 969.501 755.989 975.332Q754.482 981.162 752.852 986.96Q751.223 992.757 749.47 998.518Q747.718 1004.28 745.844 1010Q743.969 1015.73 741.974 1021.41Q739.979 1027.09 737.863 1032.73Q735.748 1038.37 733.514 1043.96Q731.279 1049.55 728.927 1055.09Q726.574 1060.64 724.105 1066.13Q721.635 1071.62 719.05 1077.06Q716.464 1082.5 713.764 1087.88Q711.064 1093.27 708.25 1098.59Q705.436 1103.92 702.51 1109.18Q699.584 1114.44 696.547 1119.64Q693.51 1124.84 690.363 1129.98Q687.216 1135.11 683.962 1140.18Q680.707 1145.25 677.345 1150.24Q673.983 1155.24 670.517 1160.17Q667.05 1165.09 663.479 1169.94Q659.909 1174.79 656.236 1179.56Q652.563 1184.34 648.791 1189.03Q645.018 1193.72 641.146 1198.34Q637.274 1202.95 633.305 1207.48Q629.337 1212.01 625.273 1216.46Q621.209 1220.9 617.052 1225.26Q612.895 1229.62 608.646 1233.88Q604.397 1238.15 600.059 1242.33Q595.721 1246.51 591.295 1250.59Q586.869 1254.68 582.357 1258.67Q577.846 1262.66 573.251 1266.55Q568.656 1270.44 563.979 1274.24Q559.302 1278.03 554.546 1281.73Q539.836 1293.17 524.353 1303.54L522.999 1302.99C521.557 1215.06 523.447 1127.03 522.931 1039.08C524.133 1039.19 525.044 1038.98 526.151 1038.53C534.466 1035.16 542.797 1030.04 550.826 1025.93L597.558 1002.49L768.581 916.287Z"
     id="path2721" />
  <path
     fill="#175086"
     d="M768.581 916.287C779.083 910.796 789.795 905.123 800.69 900.456L800.534 1274.88C793.954 1280.94 729.681 1312.99 717.876 1319.2Q621.994 1370.55 525.541 1420.82C524.593 1421.3 523.822 1421.38 522.78 1421.46C522.812 1382.11 521.682 1342.3 522.999 1302.99L524.353 1303.54Q539.836 1293.17 554.546 1281.73Q559.302 1278.03 563.979 1274.24Q568.656 1270.44 573.251 1266.55Q577.846 1262.66 582.357 1258.67Q586.869 1254.68 591.295 1250.59Q595.721 1246.51 600.059 1242.33Q604.397 1238.15 608.646 1233.88Q612.895 1229.62 617.052 1225.26Q621.209 1220.9 625.273 1216.46Q629.337 1212.01 633.305 1207.48Q637.274 1202.95 641.146 1198.34Q645.018 1193.72 648.791 1189.03Q652.563 1184.34 656.236 1179.56Q659.909 1174.79 663.479 1169.94Q667.05 1165.09 670.517 1160.17Q673.983 1155.24 677.345 1150.24Q680.707 1145.25 683.962 1140.18Q687.216 1135.11 690.363 1129.98Q693.51 1124.84 696.547 1119.64Q699.584 1114.44 702.51 1109.18Q705.436 1103.92 708.25 1098.59Q711.064 1093.27 713.764 1087.88Q716.464 1082.5 719.05 1077.06Q721.635 1071.62 724.105 1066.13Q726.574 1060.64 728.927 1055.09Q731.279 1049.55 733.514 1043.96Q735.748 1038.37 737.863 1032.73Q739.979 1027.09 741.974 1021.41Q743.969 1015.73 745.843 1010Q747.718 1004.28 749.47 998.518Q751.223 992.757 752.852 986.96Q754.482 981.162 755.989 975.332Q757.495 969.501 758.878 963.64C762.525 948.043 766.572 932.196 768.581 916.287Z"
     id="path2723" />
  <path
     fill="#716FBD"
     d="M329.905 377.478L693.895 377.447L693.916 409.32C693.917 429.169 694.336 449.142 693.895 468.979L693.785 635.154C678.989 635.622 664.053 635.508 649.247 635.311Q649.526 634.294 649.777 633.271C650.414 630.658 650.912 627.915 650.095 625.274C646.675 614.216 638.553 602.696 633.025 592.482C623.414 574.724 614.377 556.244 603.813 539.047C599.546 532.1 595.925 530.869 588.179 529.037C575.67 532.179 562.59 539.789 550.822 545.145C531.645 553.874 511.82 562.075 493.168 571.834C489.449 578.119 486.84 585.42 483.946 592.135C466.69 590.792 446.548 592.202 429.019 592.28L329.451 592.16L329.448 469.01C329.371 441.73 328.351 413.85 329.943 386.649L329.905 377.478Z"
     id="path2725" />
  <path
     fill="#FEFEFE"
     d="M643.592 530.267Q644.812 530.304 646.028 530.407C648.953 530.668 651.363 531.87 653.182 534.236Q653.441 534.573 653.661 534.937Q653.882 535.3 654.061 535.686Q654.241 536.071 654.377 536.473Q654.514 536.876 654.606 537.291Q654.698 537.706 654.744 538.128Q654.791 538.551 654.791 538.976Q654.791 539.401 654.744 539.823Q654.698 540.246 654.606 540.661C653.828 544.286 651.255 545.903 648.313 547.656C646.968 547.729 645.564 547.727 644.224 547.585C641.799 547.329 639.53 545.856 638.142 543.861C636.839 541.989 636.592 539.638 637.157 537.463C638.098 533.847 640.624 532.117 643.592 530.267Z"
     id="path2727" />
  <path
     fill="#175086"
     d="M329.905 377.478L693.895 377.447L693.916 409.32C693.917 429.169 694.336 449.142 693.895 468.979C672.628 468.39 651.123 469.264 629.825 469.196L485.392 468.953C484.234 474.682 482.643 479.756 479.535 484.751Q479.02 485.587 478.463 486.396Q477.907 487.205 477.311 487.986Q476.715 488.766 476.08 489.516Q475.446 490.265 474.775 490.982Q474.104 491.7 473.399 492.382Q472.693 493.065 471.954 493.712Q471.215 494.359 470.444 494.968Q469.674 495.577 468.874 496.147Q468.074 496.716 467.247 497.246Q466.42 497.775 465.567 498.262Q464.715 498.75 463.839 499.194Q462.963 499.638 462.066 500.038Q461.169 500.438 460.253 500.793Q459.337 501.148 458.405 501.456Q457.473 501.765 456.526 502.027Q455.579 502.289 454.621 502.503Q453.638 502.727 452.645 502.902Q451.652 503.077 450.652 503.202Q449.651 503.327 448.646 503.402Q447.641 503.478 446.633 503.503Q445.625 503.528 444.617 503.503Q443.609 503.478 442.604 503.403Q441.598 503.328 440.598 503.203Q439.598 503.077 438.605 502.903Q437.612 502.728 436.629 502.504Q435.646 502.28 434.675 502.007Q433.705 501.735 432.749 501.414Q431.793 501.094 430.854 500.726Q429.916 500.358 428.996 499.944Q428.077 499.53 427.18 499.071Q426.282 498.612 425.409 498.108Q424.535 497.605 423.688 497.059C413.414 490.402 408.144 480.77 405.635 469.035C396.916 468.489 387.941 468.95 379.184 468.944L329.448 469.01C329.371 441.73 328.351 413.85 329.943 386.649L329.905 377.478Z"
     id="path2729" />
  <path
     fill="#FEFEFE"
     d="M566.143 415.518C566.864 418.44 567.467 422.106 569.096 424.657C572.32 429.706 578.056 430.774 583.439 432.083C580.501 432.759 577.32 433.352 574.637 434.775C569.539 437.478 568.328 442.391 566.764 447.487L566.038 448.195C565.105 445.38 564.218 442.449 562.74 439.863C559.778 434.68 555.432 433.501 550.065 432.08C554.726 430.581 558.728 428.959 562.83 426.247C564.206 422.79 565.113 419.095 566.143 415.518Z"
     id="path2731" />
  <path
     fill="#221267"
     d="M405.635 469.035C405.76 456.61 408.135 446.156 417.276 437.041Q417.994 436.337 418.745 435.668Q419.497 435 420.28 434.369Q421.063 433.738 421.876 433.146Q422.689 432.555 423.53 432.003Q424.371 431.452 425.238 430.942Q426.105 430.432 426.996 429.965Q427.886 429.498 428.799 429.076Q429.711 428.653 430.643 428.275Q431.575 427.897 432.525 427.565Q433.474 427.234 434.439 426.949Q435.403 426.664 436.38 426.426Q437.358 426.188 438.345 425.999Q439.333 425.809 440.329 425.668Q441.325 425.527 442.326 425.434Q443.328 425.342 444.332 425.299Q445.337 425.255 446.343 425.261Q447.321 425.27 448.298 425.328Q449.275 425.386 450.248 425.492Q451.221 425.599 452.187 425.753Q453.153 425.908 454.11 426.11Q455.068 426.313 456.014 426.562Q456.96 426.812 457.893 427.109Q458.825 427.405 459.742 427.747Q460.658 428.09 461.557 428.478Q462.455 428.865 463.333 429.297Q464.212 429.729 465.067 430.203Q465.923 430.678 466.754 431.195Q467.584 431.712 468.389 432.269Q469.193 432.827 469.968 433.423Q470.744 434.02 471.488 434.655Q472.233 435.289 472.946 435.96Q473.658 436.631 474.336 437.336C482.186 445.397 485.698 455.014 485.473 466.173Q485.443 467.563 485.392 468.953C484.234 474.682 482.643 479.756 479.535 484.751Q479.02 485.587 478.463 486.396Q477.907 487.205 477.311 487.986Q476.715 488.766 476.08 489.516Q475.446 490.265 474.775 490.982Q474.104 491.7 473.399 492.382Q472.693 493.065 471.954 493.712Q471.215 494.359 470.444 494.968Q469.674 495.577 468.874 496.147Q468.074 496.716 467.247 497.246Q466.42 497.775 465.567 498.262Q464.715 498.75 463.839 499.194Q462.963 499.638 462.066 500.038Q461.169 500.438 460.253 500.793Q459.337 501.148 458.405 501.456Q457.473 501.765 456.526 502.027Q455.579 502.289 454.621 502.503Q453.638 502.727 452.645 502.902Q451.652 503.077 450.652 503.202Q449.651 503.327 448.646 503.402Q447.641 503.478 446.633 503.503Q445.625 503.528 444.617 503.503Q443.609 503.478 442.604 503.403Q441.598 503.328 440.598 503.203Q439.598 503.077 438.605 502.903Q437.612 502.728 436.629 502.504Q435.646 502.28 434.675 502.007Q433.705 501.735 432.749 501.414Q431.793 501.094 430.854 500.726Q429.916 500.358 428.996 499.944Q428.077 499.53 427.18 499.071Q426.282 498.612 425.409 498.108Q424.535 497.605 423.688 497.059C413.414 490.402 408.144 480.77 405.635 469.035Z"
     id="path2733" />
  <path
     fill="#F6B043"
     d="M427.471 466.283C427.613 461.431 428.168 457.535 431.202 453.561C434.06 449.817 438.144 447.308 442.833 446.68C449.024 445.85 453.635 448.242 458.47 451.825C453.816 458.994 449.252 464.625 440.506 466.42C436.201 467.304 431.789 466.839 427.471 466.283Z"
     id="path2735" />
  <path
     fill="#E37A37"
     d="M458.47 451.825C462.085 456.951 464.38 461.286 463.222 467.811C462.421 472.322 459.663 476.228 455.878 478.744C451.806 481.45 446.587 482.391 441.808 481.406C436.911 480.396 432.777 477.348 430.115 473.153C428.796 471.074 428.042 468.662 427.471 466.283C431.789 466.839 436.201 467.304 440.506 466.42C449.252 464.625 453.816 458.994 458.47 451.825Z"
     id="path2737" />
  <path
     fill="#2769B5"
     d="M329.905 377.478L693.895 377.447L693.916 409.32L330.204 409.36C330.25 401.793 330.405 394.205 329.943 386.649L329.905 377.478Z"
     id="path2739" />
  <path
     fill="#2DA283"
     d="M223.536 891.776C232.855 896.233 241.912 901.531 251.043 906.373Q279.966 921.593 308.673 937.217Q368.458 969.708 428.571 1001.58L474.357 1025.97C482.474 1030.27 490.645 1035.13 499.08 1038.72C500.204 1039.2 500.838 1039.17 502.016 1039.01L501.768 1226.82C501.788 1256.97 502.795 1287.37 501.78 1317.49C490.158 1329.14 428.267 1355.17 409.61 1362.19C406.592 1363.33 401.408 1366.01 398.27 1366.05C397.845 1366.06 397.214 1365.9 396.833 1365.83C396.665 1365.84 396.499 1365.88 396.331 1365.88C394.45 1365.83 238.981 1283.45 226.695 1276.26C225.582 1275.61 224.716 1274.78 223.878 1273.8C223.25 1229.42 223.661 1184.99 223.639 1140.6L223.536 891.776Z"
     id="path2741" />
  <path
     fill="#221267"
     d="M273.774 998.848C276.584 998.783 278.734 999.276 281.273 1000.4C291.529 1004.94 301.425 1010.6 311.333 1015.85L355.496 1039.18L412.298 1069.5C418.615 1072.86 425.326 1075.74 431.522 1079.25C434.658 1081.03 436.86 1083.83 439.8 1085.59C440 1085.71 440.205 1085.82 440.408 1085.94C441.564 1101.68 440.443 1118.18 440.444 1134C440.446 1149.6 441.529 1165.86 440.435 1181.38C440.3 1183.31 440 1185.26 438.816 1186.85C437.681 1188.38 437.123 1188.7 435.294 1188.99C435.165 1189.08 435.042 1189.17 434.908 1189.25C432.936 1190.37 431.566 1190.31 429.441 1189.63C422.935 1187.56 416.234 1183.09 410.228 1179.84L372.146 1159.21L309.825 1126.2C298.125 1120.06 285.804 1114.34 274.587 1107.38C271.813 1105.66 270.188 1104.17 268.642 1101.24C267.634 1086.76 268.555 1071.6 268.508 1057.05C268.456 1040.75 267.446 1023.87 268.514 1007.64C268.822 1002.95 270.375 1001.82 273.774 998.848Z"
     id="path2743" />
  <path
     fill="#F6B043"
     d="M290.133 1028.44C300.738 1034.09 415.491 1095.87 419.47 1095.91C419.324 1109.87 419.452 1123.84 419.454 1137.79C419.456 1144.23 420.277 1152.11 418.98 1158.36L417.648 1158.64C411.393 1156.85 292.6 1093.68 289.701 1090.22C290.042 1069.84 288.3 1048.68 290.133 1028.44Z"
     id="path2745" />
</svg>
