<?xml version="1.0" encoding="UTF-8" standalone="no"?>
<svg
   width="1024"
   height="1536"
   viewBox="0 0 1024 1536"
   version="1.1"
   id="svg1291"
   sodipodi:docname="galactic-shopping-list.svg"
   inkscape:version="1.2.2 (b0a8486541, 2022-12-01)"
   xmlns:inkscape="http://www.inkscape.org/namespaces/inkscape"
   xmlns:sodipodi="http://sodipodi.sourceforge.net/DTD/sodipodi-0.dtd"
   xmlns="http://www.w3.org/2000/svg"
   xmlns:svg="http://www.w3.org/2000/svg">
  <sodipodi:namedview
     id="namedview1293"
     pagecolor="#ffffff"
     bordercolor="#666666"
     borderopacity="1.0"
     inkscape:showpageshadow="2"
     inkscape:pageopacity="0.0"
     inkscape:pagecheckerboard="0"
     inkscape:deskcolor="#d1d1d1"
     showgrid="false"
     inkscape:zoom="0.50976562"
     inkscape:cx="512"
     inkscape:cy="705.22605"
     inkscape:window-width="1920"
     inkscape:window-height="1003"
     inkscape:window-x="1920"
     inkscape:window-y="40"
     inkscape:window-maximized="1"
     inkscape:current-layer="svg1291" />
  <path
     fill="#2a1051"
     d="m 445.462,220.788 c 1.733,-22.056 6.811,-38.081 24.28,-53.297 40.271,-35.077 100.889,-10.222 110.465,40.728 0.753,4.002 0.96,8.555 1.257,12.65 27.431,-0.337 54.94,0.266 82.385,-0.185 13.609,-0.224 0.424,28.075 -1.479,35.197 l 124.498,-0.218 c 11.002,-0.006 63.168,-1.845 69.349,2.687 3.369,6.652 1.993,38.279 1.951,47.118 l -4.069,-2.393 -7.127,5.28 c -9.057,4.611 -16.827,8.038 -26.513,11.336 l -0.593,0.365 c 2.443,3.476 7.177,9.629 7.724,13.643 l 0.446,0.051 c 3.447,10.495 2.336,20.424 3.92,25.323 11.746,-4.452 24.854,-12.093 33.955,-20.733 l 0.707,-1.121 c 3.758,-4.857 4.608,-10.278 10.826,-12.463 0.717,0.93 3.819,5.107 4.428,5.7 5.124,0.636 13.991,1.54 18.857,2.584 17.575,2.05 46.461,7.711 58.807,21.778 9.735,11.092 -2.136,22.801 -11.183,29.454 -14.003,10.298 -30.898,17.331 -46.692,24.545 -2.589,1.181 -6.914,2.561 -8.352,4.577 -8.309,23.832 -14.971,34.875 -34.142,52.159 L 859.05,610.79 c 0.013,22.957 -0.848,52.562 0.249,74.855 l 0.4,2.387 c 8.508,4.556 15.408,11.085 21.959,18.074 l 1.954,2.238 c 41.301,51.361 33.623,124.71 -25.369,158.493 l 0.031,89.572 c 0.012,11.361 0.7,31.587 -0.04,42.362 0.535,24.109 0.078,49.739 0.032,73.949 l -0.1,128.91 0.064,109.36 c 0.014,18.97 0.123,37.94 -0.053,56.91 -0.101,10.84 -1.557,16.51 -13.838,16.56 -34.499,0.15 -69.002,0.01 -103.504,0.04 l -207.076,0.04 c -117.315,-0.19 -236.421,1.27 -353.5,-0.08 -2.583,-1.81 -6.353,-3.9 -6.325,-7.38 0.334,-41.55 -2.199,-85.66 -0.436,-127.03 -0.658,-0.55 -9.348,-4.33 -11.343,-5.35 -10.174,-5.24 -18.931,-9.8 -27.854,-17.02 -7.192,1.87 -14.446,3.49 -21.75,4.86 -14.0395,2.5 -45.7894,8 -49.1328,-11.32 -3.4408,-12.96 21.594,-42.42 32.0553,-49.27 -0.638,-4.44 -4.2699,-16.37 -5.4732,-22.31 -4.6858,-23.53 -2.8302,-47.91 5.3652,-70.47 9.5185,-26.88 29.4555,-49.81 53.7425,-64.65 5.324,-3.26 16.464,-7.85 22.737,-10.83 1.471,-2.01 1.16,-5.263 1.245,-7.964 0.256,-59.329 0.188,-118.659 -0.202,-177.987 l 0.263,-132.147 c -0.769,-6.333 -0.475,-22.851 -0.494,-29.825 l -0.059,-57.481 c -3.992,-0.919 -8.223,-2.324 -12.163,-3.541 -4.164,-1.772 -8.043,-3.603 -12.123,-5.541 -7.6,-4.091 -10.83,-6.824 -16.976,-12.562 -5.017,-5.257 -7.1,-7.759 -11.306,-13.609 -3.275,-5.789 -4.69,-8.951 -7.183,-15.135 -0.795,-4.78 -2.787,-11.407 -3.812,-17.057 -0.988,-3.792 -0.253,-16.221 0.025,-20.367 1.395,-8.791 2.945,-12.986 6.167,-21.024 4.534,-11.186 8.539,-16.63 16.814,-24.928 13.047,-13.458 25.711,-17.341 42.732,-21.906 -0.942,-30.343 -0.22,-63.591 -0.183,-94.202 0.41,-26.761 -0.359,-53.698 -0.252,-80.471 0.024,-6.237 0.812,-11.559 8.326,-12.06 6.987,-0.466 14.057,-0.281 21.059,-0.258 l 35.668,0.031 121.42,0.106 c -4.978,-18.911 -21.91,-37.719 12.256,-34.838 3.683,0.311 9.223,0.174 13.011,0.186 19.795,0.004 39.59,-0.103 59.384,-0.322 z"
     id="path1022"
     style="display:inline" />
  <path
     fill="#00012F"
     d="M445.462 220.788C447.195 198.732 452.273 182.707 469.742 167.491C510.013 132.414 570.631 157.269 580.207 208.219C580.96 212.221 581.167 216.774 581.464 220.869C608.895 220.532 636.404 221.135 663.849 220.684C677.458 220.46 664.273 248.759 662.37 255.881L786.868 255.663C797.87 255.657 850.036 253.818 856.217 258.35C859.586 265.002 858.21 296.629 858.168 305.468L854.099 303.075L846.972 308.355C837.915 312.966 830.145 316.393 820.459 319.691L819.866 320.056C822.309 323.532 827.043 329.685 827.59 333.699L828.036 333.75C831.483 344.245 830.372 354.174 831.956 359.073C843.702 354.621 856.81 346.98 865.911 338.34L866.618 337.219C870.376 332.362 871.226 326.941 877.444 324.756C878.161 325.686 881.263 329.863 881.872 330.456C886.996 331.092 895.863 331.996 900.729 333.04C918.304 335.09 947.19 340.751 959.536 354.818C969.271 365.91 957.4 377.619 948.353 384.272C934.35 394.57 917.455 401.603 901.661 408.817C899.072 409.998 894.747 411.378 893.309 413.394C885 437.226 878.338 448.269 859.167 465.553L859.05 610.79C859.063 633.747 858.202 663.352 859.299 685.645L858.351 686.573C855.133 685.199 852.856 683.815 849.848 682.053L846.396 680.503C846.234 680.397 846.072 680.29 845.911 680.184C823.622 669.641 803.523 669.271 780.856 675.244C774.33 660.13 769.586 643.643 763.943 628.146C761.966 622.717 753.617 604.47 754.625 600.149C751.826 598.637 745.327 595.999 742.154 594.588L749.025 592.244C731.019 534.929 607.378 490.047 553.119 484.582C546.248 483.89 534.353 481.301 528.057 483.341C527.127 483.12 526.154 483.157 525.244 483.447C519.62 481.912 506.315 482.777 500.346 483.249C459.511 486.451 419.882 498.601 384.271 518.835C369.687 527.179 353.824 538.009 341.125 549.147C335.979 546.401 321.16 547.425 314.852 547.548C305.24 566.878 293.764 601.904 285.174 623.446C278.782 623.704 275.185 624.608 269.978 620.878C258.553 639.861 248.134 658.446 240.54 679.423C203.696 781.192 228.941 910.299 304.274 989.154C288.97 997.137 281.986 1009.89 286.945 1026.94C285.164 1026.04 282.473 1024.31 280.676 1023.23C275.222 1017.06 263.73 1011.06 256.072 1008.07C227.179 994.335 204.185 995.602 174.093 1002.71C172.942 1000.58 173.159 998.227 173.09 995.726C173.346 936.397 173.278 877.067 172.888 817.739L173.151 685.592C172.382 679.259 172.676 662.741 172.657 655.767L172.598 598.286C168.606 597.367 164.375 595.962 160.435 594.745C156.271 592.973 152.392 591.142 148.312 589.204C140.712 585.113 137.482 582.38 131.336 576.642C126.319 571.385 124.236 568.883 120.03 563.033C116.755 557.244 115.34 554.082 112.847 547.898C112.052 543.118 110.06 536.491 109.035 530.841C108.047 527.049 108.782 514.62 109.06 510.474C110.455 501.683 112.005 497.488 115.227 489.45C119.761 478.264 123.766 472.82 132.041 464.522C145.088 451.064 157.752 447.181 174.773 442.616C173.831 412.273 174.553 379.025 174.59 348.414C175 321.653 174.231 294.716 174.338 267.943C174.362 261.706 175.15 256.384 182.664 255.883C189.651 255.417 196.721 255.602 203.723 255.625L239.391 255.656L360.811 255.762C355.833 236.851 338.901 218.043 373.067 220.924C376.75 221.235 382.29 221.098 386.078 221.11C405.873 221.114 425.668 221.007 445.462 220.788Z"
     id="path1024" />
  <path
     fill="#F4B767"
     d="M445.462 220.788C447.195 198.732 452.273 182.707 469.742 167.491C510.013 132.414 570.631 157.269 580.207 208.219C580.96 212.221 581.167 216.774 581.464 220.869C608.895 220.532 636.404 221.135 663.849 220.684C677.458 220.46 664.273 248.759 662.37 255.881C660.038 264.593 643.158 314.187 639.159 319.086C629.806 322.359 410.346 320.674 385.583 320.417C384.169 317.558 382.963 314.642 381.876 311.645C375.09 292.931 367.549 274.493 360.811 255.762C355.833 236.851 338.901 218.043 373.067 220.924C376.75 221.235 382.29 221.098 386.078 221.11C405.873 221.114 425.668 221.007 445.462 220.788Z"
     id="path1026" />
  <path
     fill="#FEFEFE"
     d="M496.558 241.602C485.424 235.102 479.663 222.238 482.23 209.606C484.796 196.974 495.121 187.376 507.91 185.736C520.698 184.095 533.113 190.774 538.787 202.349C549.543 208.058 550.946 226.53 545.414 236.606C541.513 243.681 534.953 248.913 527.185 251.143C517.847 253.832 500.566 251.925 496.558 241.602Z"
     id="path1028" />
  <path
     fill="#F28E2A"
     d="M538.787 202.349C549.543 208.058 550.946 226.53 545.414 236.606C541.513 243.681 534.953 248.913 527.185 251.143C517.847 253.832 500.566 251.925 496.558 241.602C508.026 248.295 522.525 246.69 532.25 237.651C541.975 228.611 544.631 214.27 538.787 202.349Z"
     id="path1030" />
  <path
     fill="#43B1BE"
     d="M877.444 324.756C878.161 325.686 881.263 329.863 881.872 330.456C886.996 331.092 895.863 331.996 900.729 333.04C918.304 335.09 947.19 340.751 959.536 354.818C969.271 365.91 957.4 377.619 948.353 384.272C934.35 394.57 917.455 401.603 901.661 408.817C899.072 409.998 894.747 411.378 893.309 413.394C885 437.226 878.338 448.269 859.167 465.553C821.316 491.312 782.07 494.138 744.416 465.768C736.89 461.285 731.4 454.478 726.003 447.691C708.904 447.87 688.346 447.965 671.733 443.862C603.969 427.124 682.69 386.084 704.842 374.396L705.559 378.316C741.324 391.381 788.358 388.072 824.805 379.45L825.16 379.154C826.963 374.602 831.722 363.88 830.369 359.433L831.956 359.073C843.702 354.621 856.81 346.98 865.911 338.34L866.618 337.219C870.376 332.362 871.226 326.941 877.444 324.756Z"
     id="path1032" />
  <path
     fill="#0A3DAF"
     d="M865.911 338.34C868.289 344.139 869.962 352.924 871.177 359.188L871.751 359.183C872.012 366.909 872.574 374.784 872.683 382.462L872.104 383.047C871.025 390.018 869.474 396.56 868.302 403.378C820.494 418.934 765.081 431.854 714.796 430.505C713.809 425.684 711.873 418.814 710.037 414.324C708.656 410.061 707.79 404.119 706.987 399.593C706.088 393.07 705.549 386.587 704.953 380.031L705.559 378.316C741.324 391.381 788.358 388.072 824.805 379.45L825.16 379.154C826.963 374.602 831.722 363.88 830.369 359.433L831.956 359.073C843.702 354.621 856.81 346.98 865.911 338.34Z"
     id="path1034" />
  <path
     fill="#05295F"
     d="M705.559 378.316C741.324 391.381 788.358 388.072 824.805 379.45C819.325 393.294 811.909 396.226 804.899 406.079L803.446 406.46C780.484 409.506 755.654 411.498 732.711 407.087C724.69 405.545 714.699 400.457 706.987 399.593C706.088 393.07 705.549 386.587 704.953 380.031L705.559 378.316Z"
     id="path1036" />
  <path
     fill="#2A1051"
     d="M865.911 338.34C868.289 344.139 869.962 352.924 871.177 359.188L871.751 359.183C872.012 366.909 872.574 374.784 872.683 382.462L872.104 383.047C848.682 396.839 832.388 402.609 804.899 406.079C811.909 396.226 819.325 393.294 824.805 379.45L825.16 379.154C826.963 374.602 831.722 363.88 830.369 359.433L831.956 359.073C843.702 354.621 856.81 346.98 865.911 338.34Z"
     id="path1038" />
  <path
     fill="#0A3DAF"
     d="M865.911 338.34C868.289 344.139 869.962 352.924 871.177 359.188C859.95 367.226 838.795 376.627 825.16 379.154C826.963 374.602 831.722 363.88 830.369 359.433L831.956 359.073C843.702 354.621 856.81 346.98 865.911 338.34Z"
     id="path1040" />
  <path
     fill="#1690E5"
     d="M706.987 399.593C714.699 400.457 724.69 405.545 732.711 407.087C755.654 411.498 780.484 409.506 803.446 406.46C792.023 415.406 779.925 420.034 766.004 423.428C746.558 428.17 727.888 421.564 710.037 414.324C708.656 410.061 707.79 404.119 706.987 399.593Z"
     id="path1042" />
  <path
     fill="#2A1051"
     d="M845.013 429C858.172 424.821 871.45 421.079 884.397 416.259C887.32 415.171 890.225 413.937 893.309 413.394C885 437.226 878.338 448.269 859.167 465.553C821.316 491.312 782.07 494.138 744.416 465.768C789.393 465.303 810.313 458.497 845.013 429Z"
     id="path1044" />
  <path
     fill="#0A3DAF"
     d="M845.013 429C810.313 458.497 789.393 465.303 744.416 465.768C736.89 461.285 731.4 454.478 726.003 447.691C774.287 444.784 797.804 440.331 845.013 429Z"
     id="path1046" />
  <path
     fill="#00012F"
     d="M704.953 380.031C705.549 386.587 706.088 393.07 706.987 399.593C707.79 404.119 708.656 410.061 710.037 414.324C711.873 418.814 713.809 425.684 714.796 430.505C703.405 430.207 680.472 429.58 672.653 420.922C659.637 406.508 696.21 386.662 704.953 380.031Z"
     id="path1048" />
  <defs
     id="defs1055">
    <linearGradient
       id="gradient_0"
       gradientUnits="userSpaceOnUse"
       x1="872.6416"
       y1="355.55106"
       x2="914.10333"
       y2="357.21469">
      <stop
         offset="0"
         stop-color="#000135"
         id="stop1050" />
      <stop
         offset="1"
         stop-color="#0B1B67"
         id="stop1052" />
    </linearGradient>
  </defs>
  <path
     fill="url(#gradient_0)"
     d="M877.444 324.756C878.161 325.686 881.263 329.863 881.872 330.456C886.996 331.092 895.863 331.996 900.729 333.04C906.16 336.206 917.414 341.8 916.035 349.103C915.033 350.46 914.544 351.279 913.193 352.337C905.02 349.87 898.281 348.339 889.715 347.421C890.85 351.646 892.358 356.688 893.307 360.88C887.654 369.149 880.688 376.439 872.683 382.462C872.574 374.784 872.012 366.909 871.751 359.183L871.177 359.188C869.962 352.924 868.289 344.139 865.911 338.34L866.618 337.219C870.376 332.362 871.226 326.941 877.444 324.756Z"
     id="path1057" />
  <path
     fill="#05295F"
     d="M877.444 324.756C878.161 325.686 881.263 329.863 881.872 330.456C884.071 334.681 886.487 339.125 888.513 343.41C882.872 349.371 877.939 353.737 871.751 359.183L871.177 359.188C869.962 352.924 868.289 344.139 865.911 338.34L866.618 337.219C870.376 332.362 871.226 326.941 877.444 324.756Z"
     id="path1059" />
  <path
     fill="#FEFEFE"
     d="M889.715 347.421C898.281 348.339 905.02 349.87 913.193 352.337C917.88 354.686 925.124 357.885 926.661 363.129C930.585 376.519 905.526 388.359 896.214 393.277C896.209 390.199 896.346 385.077 895.93 382.219C895.625 374.596 894.778 368.319 893.307 360.88C892.358 356.688 890.85 351.646 889.715 347.421Z"
     id="path1061" />
  <path
     fill="#05295F"
     d="M893.307 360.88C894.778 368.319 895.625 374.596 895.93 382.219L895.756 391.965C886.886 396.848 877.816 399.949 868.302 403.378C869.474 396.56 871.025 390.018 872.104 383.047L872.683 382.462C880.688 376.439 887.654 369.149 893.307 360.88Z"
     id="path1063" />
  <path
     fill="#05295F"
     d="M174.59 348.414L175.356 348.279C190.486 345.476 209.861 335.383 226.743 331.684C295.227 316.681 359.958 336.55 416.425 375.885C439.599 391.584 458.953 408.052 481.107 424.169C460.076 417.068 441.686 407.797 418.694 405.931C415.079 405.637 407.989 403.509 405.251 405.929L403.189 402.785L402.135 402.611L400.49 405.101C396.301 403.085 387.296 404.945 382.446 405.331C335.663 409.053 273.945 429.221 238.43 460.707L238.62 461.187C232.349 464.517 227.698 466.353 221.064 468.969C217.742 464.051 212.287 459.032 207.731 455.26L207.194 455.349C200.514 450.669 194.845 449.002 187.222 446.293C190.88 445.236 191.938 444.913 195.315 443.155C188.832 441.856 181.349 442.156 174.773 442.616C173.831 412.273 174.553 379.025 174.59 348.414Z"
     id="path1065" />
  <path
     fill="#941F82"
     d="M221.452 450.203C228.61 453.238 232.377 455.779 238.43 460.707L238.62 461.187C232.349 464.517 227.698 466.353 221.064 468.969C217.742 464.051 212.287 459.032 207.731 455.26C211.869 453.216 216.832 452.488 221.452 450.203Z"
     id="path1067" />
  <path
     fill="#AF4E73"
     d="M195.315 443.155C204.469 444.127 212.895 446.911 221.452 450.203C216.832 452.488 211.869 453.216 207.731 455.26L207.194 455.349C200.514 450.669 194.845 449.002 187.222 446.293C190.88 445.236 191.938 444.913 195.315 443.155Z"
     id="path1069" />
  <path
     fill="#FEFEFE"
     d="M280.52 374.504C282.294 373.779 284.323 374.089 285.8 375.311C287.276 376.533 287.959 378.469 287.577 380.347C287.195 382.224 285.81 383.739 283.974 384.288C281.319 385.081 278.509 383.652 277.587 381.04C276.665 378.428 277.956 375.553 280.52 374.504Z"
     id="path1071" />
  <path
     fill="#AE2E94"
     d="M174.773 442.616C181.349 442.156 188.832 441.856 195.315 443.155C191.938 444.913 190.88 445.236 187.222 446.293C194.845 449.002 200.514 450.669 207.194 455.349L207.731 455.26C212.287 459.032 217.742 464.051 221.064 468.969L221.161 469.314C225.027 474.429 225.204 479.611 227.447 484.894L227.898 485.006C229.577 491.149 230.457 496.496 231.543 502.761L231.298 503.119C232.166 509.709 231.369 516.364 230.574 522.924C229.538 528.258 227.708 538.065 226.063 543.037L224.806 543.583C218.415 555.107 214.561 561.144 204.878 570.429C197.517 575.524 169.437 582.211 159.778 585.557C156.637 586.644 151.255 587.728 148.312 589.204C140.712 585.113 137.482 582.38 131.336 576.642C126.319 571.385 124.236 568.883 120.03 563.033C116.755 557.244 115.34 554.082 112.847 547.898C112.052 543.118 110.06 536.491 109.035 530.841C108.047 527.049 108.782 514.62 109.06 510.474C110.455 501.683 112.005 497.488 115.227 489.45C119.761 478.264 123.766 472.82 132.041 464.522C145.088 451.064 157.752 447.181 174.773 442.616Z"
     id="path1073" />
  <path
     fill="#AE2E94"
     d="M174.773 442.616C181.349 442.156 188.832 441.856 195.315 443.155C191.938 444.913 190.88 445.236 187.222 446.293C194.845 449.002 200.514 450.669 207.194 455.349L207.731 455.26C212.287 459.032 217.742 464.051 221.064 468.969L221.161 469.314C213.749 471.48 204.848 474.797 197.633 477.709C168.72 489.38 137.601 498.21 109.06 510.474C110.455 501.683 112.005 497.488 115.227 489.45C119.761 478.264 123.766 472.82 132.041 464.522C145.088 451.064 157.752 447.181 174.773 442.616Z"
     id="path1075" />
  <path
     fill="#EE728B"
     d="M174.773 442.616C181.349 442.156 188.832 441.856 195.315 443.155C191.938 444.913 190.88 445.236 187.222 446.293C194.845 449.002 200.514 450.669 207.194 455.349C201.11 458.278 191.674 461.449 185.008 463.909C169.381 469.645 153.716 475.274 138.013 480.797C132.896 482.636 119.414 487.221 115.227 489.45C119.761 478.264 123.766 472.82 132.041 464.522C145.088 451.064 157.752 447.181 174.773 442.616Z"
     id="path1077" />
  <path
     fill="#AE2E94"
     d="M174.773 442.616C181.349 442.156 188.832 441.856 195.315 443.155C191.938 444.913 190.88 445.236 187.222 446.293C173.321 449.224 161.66 454.323 148.314 459.08C144.752 460.349 135.453 464.005 132.041 464.522C145.088 451.064 157.752 447.181 174.773 442.616Z"
     id="path1079" />
  <path
     fill="#AE2E94"
     d="M230.574 522.924C229.538 528.258 227.708 538.065 226.063 543.037L224.806 543.583C218.415 555.107 214.561 561.144 204.878 570.429C197.517 575.524 169.437 582.211 159.778 585.557C156.637 586.644 151.255 587.728 148.312 589.204C140.712 585.113 137.482 582.38 131.336 576.642C126.319 571.385 124.236 568.883 120.03 563.033C138.517 557.756 156.632 549.92 174.702 543.406C193.476 536.639 211.94 530.106 230.574 522.924Z"
     id="path1081" />
  <path
     fill="#EE728B"
     d="M131.336 576.642C137.176 574.989 143.419 571.823 149.335 570.058C174.541 562.538 199.644 550.803 224.806 543.583C218.415 555.107 214.561 561.144 204.878 570.429C197.517 575.524 169.437 582.211 159.778 585.557C156.637 586.644 151.255 587.728 148.312 589.204C140.712 585.113 137.482 582.38 131.336 576.642Z"
     id="path1083" />
  <path
     fill="#EE728B"
     d="M112.847 547.898C142.215 535.423 173.478 525.811 203.122 513.925C212.193 510.288 222.013 505.967 231.298 503.119C232.166 509.709 231.369 516.364 230.574 522.924C211.94 530.106 193.476 536.639 174.702 543.406C156.632 549.92 138.517 557.756 120.03 563.033C116.755 557.244 115.34 554.082 112.847 547.898Z"
     id="path1085" />
  <path
     fill="#EE728B"
     d="M109.06 510.474C137.601 498.21 168.72 489.38 197.633 477.709C204.848 474.797 213.749 471.48 221.161 469.314C225.027 474.429 225.204 479.611 227.447 484.894C214.299 490.22 110.827 526.431 109.262 530.099C109.161 530.337 109.111 530.593 109.035 530.841C108.047 527.049 108.782 514.62 109.06 510.474Z"
     id="path1087" />
  <path
     fill="#05295F"
     d="M819.866 320.056C822.309 323.532 827.043 329.685 827.59 333.699L828.036 333.75C831.483 344.245 830.372 354.174 831.956 359.073L830.369 359.433C831.722 363.88 826.963 374.602 825.16 379.154L824.805 379.45C788.358 388.072 741.324 391.381 705.559 378.316L704.842 374.396L707.05 361.579C709.451 354.712 712.451 345.51 716.094 339.352C718.901 333.753 721.456 330.185 724.994 325.064C758.431 334.059 787.691 330.064 819.866 320.056Z"
     id="path1089" />
  <path
     fill="#1690E5"
     d="M830.369 359.433C831.722 363.88 826.963 374.602 825.16 379.154L824.805 379.45C788.358 388.072 741.324 391.381 705.559 378.316L704.842 374.396L707.05 361.579C742.487 376.575 794.602 371.323 830.369 359.433Z"
     id="path1091" />
  <path
     fill="#1690E5"
     d="M819.866 320.056C822.309 323.532 827.043 329.685 827.59 333.699C799.366 344.137 744.829 350.822 716.094 339.352C718.901 333.753 721.456 330.185 724.994 325.064C758.431 334.059 787.691 330.064 819.866 320.056Z"
     id="path1093" />
  <path
     fill="#CE620E"
     d="M269.978 620.878C265.364 613.433 268.156 568.261 267.812 557.385C267.742 555.168 269.668 550.913 271.165 549.148C276.322 546.631 306.949 547.561 314.852 547.548C305.24 566.878 293.764 601.904 285.174 623.446C278.782 623.704 275.185 624.608 269.978 620.878Z"
     id="path1095" />
  <path
     fill="#941F82"
     d="M226.063 543.037C233.062 540.906 261.297 528.511 266.19 529.162L266.716 530.754C265.913 536.44 264.829 543.112 262.712 548.434C259.972 555.583 256.587 563.881 251.142 569.419C241.727 569.97 205.047 586.03 193.073 589.397C181.965 592.519 169.132 592.026 160.825 594.627L160.435 594.745C156.271 592.973 152.392 591.142 148.312 589.204C151.255 587.728 156.637 586.644 159.778 585.557C169.437 582.211 197.517 575.524 204.878 570.429C214.561 561.144 218.415 555.107 224.806 543.583L226.063 543.037Z"
     id="path1097" />
  <path
     fill="#AF4E73"
     d="M226.063 543.037C233.062 540.906 261.297 528.511 266.19 529.162L266.716 530.754C265.913 536.44 264.829 543.112 262.712 548.434C250.752 553.406 215.899 568.996 204.878 570.429C214.561 561.144 218.415 555.107 224.806 543.583L226.063 543.037Z"
     id="path1099" />
  <path
     fill="#0A3DAF"
     d="M765.709 294.012C780.952 296.512 796.102 300.92 809.202 309.75C812.077 311.688 818.176 318.535 820.459 319.691L819.866 320.056C787.691 330.064 758.431 334.059 724.994 325.064C736.692 310.627 748.38 301.327 765.709 294.012Z"
     id="path1101" />
  <path
     fill="#2A1051"
     d="M765.709 294.012C795.12 281.961 827.87 283.89 854.099 303.075L846.972 308.355C837.915 312.966 830.145 316.393 820.459 319.691C818.176 318.535 812.077 311.688 809.202 309.75C796.102 300.92 780.952 296.512 765.709 294.012Z"
     id="path1103" />
  <path
     fill="#941F82"
     d="M231.543 502.761C240.063 500.465 253.392 495.298 261.614 492.119C263.957 498.734 265.079 502.513 266.326 509.577C267.098 514.482 268.029 526.166 266.716 530.754L266.19 529.162C261.297 528.511 233.062 540.906 226.063 543.037C227.708 538.065 229.538 528.258 230.574 522.924C231.369 516.364 232.166 509.709 231.298 503.119L231.543 502.761Z"
     id="path1105" />
  <path
     fill="#AF4E73"
     d="M231.543 502.761C240.063 500.465 253.392 495.298 261.614 492.119C263.957 498.734 265.079 502.513 266.326 509.577C259.598 513.224 238.913 520.031 230.574 522.924C231.369 516.364 232.166 509.709 231.298 503.119L231.543 502.761Z"
     id="path1107" />
  <path
     fill="#941F82"
     d="M238.62 461.187C244.424 466.115 248.242 469.614 252.927 475.883C256.296 481.665 258.736 486.086 261.614 492.119C253.392 495.298 240.063 500.465 231.543 502.761C230.457 496.496 229.577 491.149 227.898 485.006L227.447 484.894C225.204 479.611 225.027 474.429 221.161 469.314L221.064 468.969C227.698 466.353 232.349 464.517 238.62 461.187Z"
     id="path1109" />
  <path
     fill="#AF4E73"
     d="M238.62 461.187C244.424 466.115 248.242 469.614 252.927 475.883L227.898 485.006L227.447 484.894C225.204 479.611 225.027 474.429 221.161 469.314L221.064 468.969C227.698 466.353 232.349 464.517 238.62 461.187Z"
     id="path1111" />
  <path
     fill="#AF4E73"
     d="M160.435 594.745L160.825 594.627C169.132 592.026 181.965 592.519 193.073 589.397C205.047 586.03 241.727 569.97 251.142 569.419C231.084 591.944 203.435 603.357 173.214 598.475L173.316 654.157C173.338 663.649 173.74 676.508 173.151 685.592C172.382 679.259 172.676 662.741 172.657 655.767L172.598 598.286C168.606 597.367 164.375 595.962 160.435 594.745Z"
     id="path1113" />
  <path
     fill="#FEFEFE"
     d="M759.39 587.224C762.918 581.02 765.584 576.162 768.584 569.703C770.735 573.999 775.01 583.173 777.325 586.949C782.916 589.846 788.157 592.135 793.915 594.661C788.558 596.831 782.114 599.638 776.754 601.543C774.042 607.103 771.258 612.626 768.4 618.112C763.937 609.881 762.622 602.576 754.625 600.149C751.826 598.637 745.327 595.999 742.154 594.588L749.025 592.244L759.39 587.224Z"
     id="path1115" />
  <path
     fill="#FEFEFE"
     d="M400.49 405.101L402.135 402.611L403.189 402.785L405.251 405.929C409.996 416.663 413.29 417.423 423.436 423.672C409.861 430.994 409.83 431.106 402.559 444.833C395.132 431.276 394.85 430.86 381.469 423.169C393.066 417.074 394.729 416.997 400.49 405.101Z"
     id="path1117" />
  <path
     fill="#FEFEFE"
     d="M830.804 528.337C834.45 526.951 838.534 528.746 839.977 532.369C841.421 535.991 839.69 540.102 836.089 541.601C833.71 542.593 830.98 542.225 828.948 540.639C826.916 539.053 825.896 536.494 826.281 533.946C826.666 531.397 828.395 529.254 830.804 528.337Z"
     id="path1119" />
  <path
     fill="#FEFEFE"
     d="M568.868 368.61C570.91 367.899 573.178 368.38 574.756 369.858C576.334 371.337 576.96 373.568 576.383 375.652C575.805 377.735 574.119 379.326 572.005 379.782C569.002 380.429 566.013 378.628 565.182 375.671C564.352 372.713 565.966 369.62 568.868 368.61Z"
     id="path1121" />
  <path
     fill="#FEFEFE"
     d="M208.127 817.756C209.872 816.926 211.935 817.138 213.475 818.305C215.016 819.471 215.778 821.399 215.453 823.303C215.127 825.208 213.767 826.772 211.926 827.361C209.331 828.19 206.537 826.867 205.535 824.334C204.533 821.801 205.666 818.925 208.127 817.756Z"
     id="path1123" />
  <path
     fill="#FEFEFE"
     d="M247.748 304.045C249.245 303.062 251.161 302.981 252.736 303.834C254.311 304.687 255.289 306.337 255.282 308.127C255.275 309.918 254.284 311.56 252.703 312.401C250.409 313.622 247.56 312.823 246.235 310.588C244.91 308.354 245.576 305.472 247.748 304.045Z"
     id="path1125" />
  <path
     fill="#05295F"
     d="M807.68 879.072C828.979 878.989 839.057 876.848 858.243 866.837L858.274 956.409C858.286 967.77 858.974 987.996 858.234 998.771C858.769 1022.88 858.312 1048.51 858.266 1072.72L858.166 1201.63L858.23 1310.99C858.244 1329.96 858.353 1348.93 858.177 1367.9C858.076 1378.74 856.62 1384.41 844.339 1384.46C809.84 1384.61 775.337 1384.47 740.835 1384.5L533.759 1384.54C416.444 1384.35 297.338 1385.81 180.259 1384.46C177.676 1382.65 173.906 1380.56 173.934 1377.08C174.268 1335.53 171.735 1291.42 173.498 1250.05C172.84 1249.5 164.15 1245.72 162.155 1244.7C151.981 1239.46 143.224 1234.9 134.301 1227.68C127.109 1229.55 119.855 1231.17 112.551 1232.54C98.5115 1235.04 66.7616 1240.54 63.4182 1221.22C59.9774 1208.26 85.0122 1178.8 95.4735 1171.95C94.8355 1167.51 91.2036 1155.58 90.0003 1149.64C85.3145 1126.11 87.1701 1101.73 95.3655 1079.17C104.884 1052.29 124.821 1029.36 149.108 1014.52C154.432 1011.26 165.572 1006.67 171.845 1003.69C173.316 1001.68 173.005 998.427 173.09 995.726C173.159 998.227 172.942 1000.58 174.093 1002.71C204.185 995.602 227.179 994.335 256.072 1008.07C263.73 1011.06 275.222 1017.06 280.676 1023.23C282.473 1024.31 285.164 1026.04 286.945 1026.94C291.593 1036.37 298.191 1046.19 308.9 1049.27C310.335 1049.48 314.608 1049.95 315.622 1050.51C324.542 1051.29 329.602 1048.72 337.017 1044.05C342.903 1050.74 347.841 1055.28 355.079 1060.41C357.409 1062.06 361.581 1064.35 363.339 1065.86C371.803 1067.13 383.57 1067.16 385.248 1077.68C403.752 1088.53 434.281 1098.6 455.149 1103.43C516.115 1117.56 576.94 1113.63 634.845 1089.21C644.613 1085.09 657.175 1079.87 666.122 1074.01C671.782 1072.26 680.455 1067.15 684.558 1062.77C707.718 1046.27 728.997 1024.67 748.056 1003.59C754.164 996.835 760.002 988.383 766.352 981.157C766.522 980.927 766.691 980.697 766.861 980.467C777.285 961.914 788.97 942.16 796.693 922.376C799.073 916.279 810.547 885.313 809.698 880.131L807.68 879.072Z"
     id="path1127" />
  <path
     fill="#4A1277"
     d="M174.207 1349.6C276.795 1361.62 380.768 1351.4 479.052 1319.64C637.676 1269.88 770.167 1167.8 848.405 1019.66C851.938 1012.97 854.594 1005.63 858.005 999.193L858.234 998.771C858.769 1022.88 858.312 1048.51 858.266 1072.72L858.166 1201.63L858.23 1310.99C858.244 1329.96 858.353 1348.93 858.177 1367.9C858.076 1378.74 856.62 1384.41 844.339 1384.46C809.84 1384.61 775.337 1384.47 740.835 1384.5L533.759 1384.54C416.444 1384.35 297.338 1385.81 180.259 1384.46C177.676 1382.65 173.906 1380.56 173.934 1377.08C174.268 1335.53 171.735 1291.42 173.498 1250.05L174.118 1250.05L174.207 1349.6Z"
     id="path1129" />
  <path
     fill="#FEFEFE"
     d="M788.855 1201.35C789.407 1201.94 789.511 1201.87 789.664 1202.59C791.733 1212.24 796.739 1220.65 804.3 1227.04C810.325 1232.13 816.299 1234.57 823.873 1236.63C803.177 1243.43 793.829 1252.98 789.462 1274.41C782.799 1251.84 777.335 1244.43 755.028 1236.34C773.999 1230.92 784.587 1220.8 788.855 1201.35Z"
     id="path1131" />
  <path
     fill="#FEFEFE"
     d="M685.686 1309.92C688.732 1309.53 691.542 1311.62 692.043 1314.65C692.543 1317.68 690.555 1320.56 687.545 1321.17C685.499 1321.58 683.391 1320.84 682.048 1319.25C680.705 1317.65 680.341 1315.45 681.099 1313.5C681.857 1311.56 683.616 1310.18 685.686 1309.92Z"
     id="path1133" />
  <path
     fill="#43B1BE"
     d="M95.4735 1171.95C94.8355 1167.51 91.2036 1155.58 90.0003 1149.64C85.3145 1126.11 87.1701 1101.73 95.3655 1079.17C104.884 1052.29 124.821 1029.36 149.108 1014.52C154.432 1011.26 165.572 1006.67 171.845 1003.69C173.316 1001.68 173.005 998.427 173.09 995.726C173.159 998.227 172.942 1000.58 174.093 1002.71C204.185 995.602 227.179 994.335 256.072 1008.07C263.73 1011.06 275.222 1017.06 280.676 1023.23C282.473 1024.31 285.164 1026.04 286.945 1026.94C291.593 1036.37 298.191 1046.19 308.9 1049.27C310.335 1049.48 314.608 1049.95 315.622 1050.51C324.542 1051.29 329.602 1048.72 337.017 1044.05C342.903 1050.74 347.841 1055.28 355.079 1060.41C357.409 1062.06 361.581 1064.35 363.339 1065.86C371.803 1067.13 383.57 1067.16 385.248 1077.68C379.354 1098.05 348.603 1119.18 332.015 1131.28C331.044 1151.03 327.824 1168.42 318.615 1186.26C315.735 1191.84 311.484 1197.61 308.879 1202.59C287.905 1229.91 253.909 1253.47 218.35 1254.11C199.824 1255.04 192.598 1254.66 174.118 1250.05L173.498 1250.05C172.84 1249.5 164.15 1245.72 162.155 1244.7C151.981 1239.46 143.224 1234.9 134.301 1227.68C127.109 1229.55 119.855 1231.17 112.551 1232.54C98.5115 1235.04 66.7616 1240.54 63.4182 1221.22C59.9774 1208.26 85.0122 1178.8 95.4735 1171.95Z"
     id="path1135" />
  <defs
     id="defs1142">
    <linearGradient
       id="gradient_1"
       gradientUnits="userSpaceOnUse"
       x1="238.50662"
       y1="1192.1833"
       x2="211.0248"
       y2="1110.0712">
      <stop
         offset="0"
         stop-color="#B26E29"
         id="stop1137" />
      <stop
         offset="1"
         stop-color="#A54D37"
         id="stop1139" />
    </linearGradient>
  </defs>
  <path
     fill="url(#gradient_1)"
     d="M315.622 1050.51C324.542 1051.29 329.602 1048.72 337.017 1044.05C342.903 1050.74 347.841 1055.28 355.079 1060.41C357.409 1062.06 361.581 1064.35 363.339 1065.86C371.803 1067.13 383.57 1067.16 385.248 1077.68C379.354 1098.05 348.603 1119.18 332.015 1131.28C331.044 1151.03 327.824 1168.42 318.615 1186.26C315.735 1191.84 311.484 1197.61 308.879 1202.59C287.905 1229.91 253.909 1253.47 218.35 1254.11C199.824 1255.04 192.598 1254.66 174.118 1250.05L173.498 1250.05C172.84 1249.5 164.15 1245.72 162.155 1244.7C151.981 1239.46 143.224 1234.9 134.301 1227.68C127.109 1229.55 119.855 1231.17 112.551 1232.54C98.5115 1235.04 66.7616 1240.54 63.4182 1221.22C59.9774 1208.26 85.0122 1178.8 95.4735 1171.95L97.5911 1176.3L99.4167 1181.77C107.24 1194.76 114.529 1205.66 124.73 1217.04L128.258 1216.16C139.723 1213.27 150.799 1210.56 161.937 1206.5C199.74 1196.21 264.016 1162.89 296.637 1141.23C308.232 1134.72 322.514 1123.46 333.039 1115.08C332.258 1102.97 330.831 1094.94 328.202 1083.07C327.527 1080.11 324.994 1074.09 323.805 1071.02C320.802 1063.86 316.943 1057.61 314.143 1050.97L315.622 1050.51Z"
     id="path1144" />
  <path
     fill="#077292"
     d="M332.015 1131.28C331.044 1151.03 327.824 1168.42 318.615 1186.26C315.735 1191.84 311.484 1197.61 308.879 1202.59C287.905 1229.91 253.909 1253.47 218.35 1254.11C223.303 1230.2 239.769 1219.69 256.279 1204.26C266.463 1194.74 282.873 1175.53 286.382 1161.9C303.29 1151.56 315.883 1142.8 332.015 1131.28Z"
     id="path1146" />
  <path
     fill="#43B1BE"
     d="M286.382 1161.9C282.873 1175.53 266.463 1194.74 256.279 1204.26C239.769 1219.69 223.303 1230.2 218.35 1254.11C199.824 1255.04 192.598 1254.66 174.118 1250.05L173.498 1250.05C172.84 1249.5 164.15 1245.72 162.155 1244.7C151.981 1239.46 143.224 1234.9 134.301 1227.68C183.151 1216.88 243.096 1186.59 286.382 1161.9Z"
     id="path1148" />
  <defs
     id="defs1155">
    <linearGradient
       id="gradient_2"
       gradientUnits="userSpaceOnUse"
       x1="192.48991"
       y1="1141.0231"
       x2="210.87914"
       y2="1195.2227">
      <stop
         offset="0"
         stop-color="#EB9737"
         id="stop1150" />
      <stop
         offset="1"
         stop-color="#F1B340"
         id="stop1152" />
    </linearGradient>
  </defs>
  <path
     fill="url(#gradient_2)"
     d="M340.368 1109.63C339.862 1115 332.427 1121.91 328.389 1125.11C274.387 1167.8 209.662 1200.23 143.441 1219.02C123.486 1224.68 100.588 1230.4 79.636 1228.85C75.0035 1228.51 71.5495 1226.84 67.7261 1224.28C66.0474 1223.16 64.5709 1220.31 63.4182 1221.22C59.9774 1208.26 85.0122 1178.8 95.4735 1171.95L97.5911 1176.3L99.4167 1181.77C107.24 1194.76 114.529 1205.66 124.73 1217.04L128.258 1216.16C139.723 1213.27 150.799 1210.56 161.937 1206.5C199.74 1196.21 264.016 1162.89 296.637 1141.23C308.232 1134.72 322.514 1123.46 333.039 1115.08L340.368 1109.63Z"
     id="path1157" />
  <path
     fill="#FEFEFE"
     d="M99.4167 1181.77C107.24 1194.76 114.529 1205.66 124.73 1217.04C107.826 1221.16 92.5232 1226.09 75.796 1219.34C74.8853 1207.84 91.8791 1190.53 99.4167 1181.77Z"
     id="path1159" />
  <path
     fill="#CE620E"
     d="M97.5911 1176.3L99.4167 1181.77C91.8791 1190.53 74.8853 1207.84 75.796 1219.34C74.4044 1218.72 74.2986 1218.34 73.2002 1217.2C69.4699 1207.19 89.4812 1181.83 97.5911 1176.3Z"
     id="path1161" />
  <path
     fill="#00012F"
     d="M328.202 1083.07C335.08 1081.61 359.872 1076.95 365.626 1080.12C366.376 1081.4 367.099 1082.07 366.399 1083.64C362.637 1092.13 347.296 1103.79 340.368 1109.63L333.039 1115.08C332.258 1102.97 330.831 1094.94 328.202 1083.07Z"
     id="path1163" />
  <path
     fill="#00012F"
     d="M315.622 1050.51C324.542 1051.29 329.602 1048.72 337.017 1044.05C342.903 1050.74 347.841 1055.28 355.079 1060.41C357.409 1062.06 361.581 1064.35 363.339 1065.86C348.024 1066.39 338.71 1067.34 323.805 1071.02C320.802 1063.86 316.943 1057.61 314.143 1050.97L315.622 1050.51Z"
     id="path1165" />
  <path
     fill="#077292"
     d="M128.258 1216.16C119.596 1181.65 138.96 1173.94 140.344 1143.66C140.767 1134.42 103.955 1140.08 112.474 1108.16C117.755 1088.37 120.908 1095.74 136.54 1082.91C140.213 1079.9 141.513 1067.41 151.572 1066.89C172.633 1060.85 171.409 1092.96 178.676 1097.32C192.988 1105.92 208.737 1100.72 213.289 1125.5C214.487 1131.97 213.93 1138.65 211.675 1144.83C200.921 1174.22 154.447 1170.08 161.782 1205.77L161.937 1206.5C150.799 1210.56 139.723 1213.27 128.258 1216.16Z"
     id="path1167" />
  <path
     fill="#43B1BE"
     d="M256.072 1008.07C263.73 1011.06 275.222 1017.06 280.676 1023.23C282.473 1024.31 285.164 1026.04 286.945 1026.94C291.593 1036.37 298.191 1046.19 308.9 1049.27C308.167 1053.3 303.523 1062.44 299.378 1063.83L299.295 1064.4C296.116 1064.94 288.724 1066.29 285.202 1064.62C270 1057.39 230.85 1042.16 236.438 1020.34C238.4 1012.68 249.433 1010.85 256.072 1008.07Z"
     id="path1169" />
  <path
     fill="#055379"
     d="M280.676 1023.23C282.473 1024.31 285.164 1026.04 286.945 1026.94C291.593 1036.37 298.191 1046.19 308.9 1049.27C308.167 1053.3 303.523 1062.44 299.378 1063.83C293.52 1043.92 291.912 1041.73 280.676 1023.23Z"
     id="path1171" />
  <path
     fill="#077292"
     d="M308.9 1049.27C310.335 1049.48 314.608 1049.95 315.622 1050.51L314.143 1050.97C316.943 1057.61 320.802 1063.86 323.805 1071.02C324.994 1074.09 327.527 1080.11 328.202 1083.07C330.831 1094.94 332.258 1102.97 333.039 1115.08C322.514 1123.46 308.232 1134.72 296.637 1141.23C300.902 1112.3 306.403 1095.08 299.295 1064.4L299.378 1063.83C303.523 1062.44 308.167 1053.3 308.9 1049.27Z"
     id="path1173" />
  <path
     fill="#077292"
     d="M132.306 1036.52C139.687 1036.08 145.654 1039.98 142.869 1048.03C139.639 1057.36 132.971 1062.68 124.49 1067.11C120.547 1067.69 117.211 1067.58 114.626 1064.29C111.05 1054.37 124.209 1040.96 132.306 1036.52Z"
     id="path1175" />
  <path
     fill="#00012F"
     d="M766.352 981.157C717.236 1086.52 597.256 1175.83 486.536 1205.26C478.296 1207.45 467.341 1209.14 459.699 1211.86C456.388 1207.07 454.955 1204.99 452.476 1199.58C448.614 1207.21 446.455 1211.92 439.045 1216.46C432.409 1214.04 408.313 1217.29 399.63 1217.32C368.302 1217.42 338.94 1211.07 308.879 1202.59C311.484 1197.61 315.735 1191.84 318.615 1186.26C327.824 1168.42 331.044 1151.03 332.015 1131.28C348.603 1119.18 379.354 1098.05 385.248 1077.68C403.752 1088.53 434.281 1098.6 455.149 1103.43C516.115 1117.56 576.94 1113.63 634.845 1089.21C644.613 1085.09 657.175 1079.87 666.122 1074.01C671.782 1072.26 680.455 1067.15 684.558 1062.77C707.718 1046.27 728.997 1024.67 748.056 1003.59C754.164 996.835 760.002 988.383 766.352 981.157Z"
     id="path1177" />
  <path
     fill="#FEFEFE"
     d="M452.476 1199.58C454.955 1204.99 456.388 1207.07 459.699 1211.86C463.614 1216.09 466.346 1217.56 471.622 1219.91C460.241 1225.85 458.141 1228.21 453.282 1240.52C446.379 1228.21 445.247 1225.19 432.397 1219.25L439.045 1216.46C446.455 1211.92 448.614 1207.21 452.476 1199.58Z"
     id="path1179" />
  <path
     fill="#FEFEFE"
     d="M306.56 1281.52C309.388 1280.56 312.459 1282.08 313.399 1284.92C314.339 1287.75 312.788 1290.81 309.944 1291.73C307.134 1292.63 304.12 1291.1 303.191 1288.3C302.262 1285.5 303.766 1282.47 306.56 1281.52Z"
     id="path1181" />
  <path
     fill="#FEFEFE"
     d="M762.862 1058.61C765.618 1058.08 768.282 1059.88 768.819 1062.64C769.356 1065.39 767.563 1068.06 764.81 1068.61C762.046 1069.15 759.363 1067.35 758.824 1064.59C758.284 1061.82 760.094 1059.14 762.862 1058.61Z"
     id="path1183" />
  <path
     fill="#0DB48C"
     d="M780.856 675.244C803.523 669.271 823.622 669.641 845.911 680.184C846.072 680.29 846.234 680.397 846.396 680.503L849.848 682.053C852.856 683.815 855.133 685.199 858.351 686.573L859.299 685.645L859.699 688.032C868.207 692.588 875.107 699.117 881.658 706.106L883.612 708.344C924.913 759.705 917.235 833.054 858.243 866.837C839.057 876.848 828.979 878.989 807.68 879.072C788.352 878.959 767.068 870.14 751.704 858.706C741.275 851.295 730.629 839.856 724.091 828.857L722.345 826.09C717.873 816.079 714.488 808.978 711.759 798.459L710.597 795.794C710.717 791.99 708.827 781.201 708.788 774.487L708.386 771.17C711.19 725.012 736.388 689.727 780.856 675.244Z"
     id="path1185" />
  <path
     fill="#0DB48C"
     d="M780.856 675.244C803.523 669.271 823.622 669.641 845.911 680.184C846.072 680.29 846.234 680.397 846.396 680.503L849.848 682.053C852.856 683.815 855.133 685.199 858.351 686.573L859.299 685.645L859.699 688.032C868.207 692.588 875.107 699.117 881.658 706.106L883.612 708.344C882.642 710.258 881.383 712.951 880.243 714.686L878.279 717.161C865.456 732.297 850.42 732.124 832.545 737.028C811.31 742.854 806.738 764.688 799.402 782.216C787.793 809.956 759.926 825.938 730.734 828.412C728.522 828.594 726.307 828.742 724.091 828.857L722.345 826.09C717.873 816.079 714.488 808.978 711.759 798.459L710.597 795.794C710.717 791.99 708.827 781.201 708.788 774.487L708.386 771.17C711.19 725.012 736.388 689.727 780.856 675.244Z"
     id="path1187" />
  <path
     fill="#0DB48C"
     d="M780.856 675.244C803.523 669.271 823.622 669.641 845.911 680.184C846.072 680.29 846.234 680.397 846.396 680.503C820.425 679.739 784.251 687.447 764.986 705.497C741.761 727.258 742.602 757.835 708.386 771.17C711.19 725.012 736.388 689.727 780.856 675.244Z"
     id="path1189" />
  <path
     fill="#40E1BB"
     d="M876.548 715.26L878.279 717.161C865.456 732.297 850.42 732.124 832.545 737.028C811.31 742.854 806.738 764.688 799.402 782.216C787.793 809.956 759.926 825.938 730.734 828.412C728.522 828.594 726.307 828.742 724.091 828.857L722.345 826.09C730.562 824.653 738.652 824.471 746.803 822.196C808.23 805.054 789.614 763.864 820.464 740.162C837.979 726.706 859.195 734.796 876.548 715.26Z"
     id="path1191" />
  <path
     fill="#40E1BB"
     d="M710.597 795.794C732.871 791.395 744.624 789.698 758.973 768.688C764.912 759.991 768.851 749.653 773.91 740.445C785.467 719.299 805.705 704.271 829.293 699.317C841.692 696.751 852.145 698.351 864.062 701.921C856.095 701.962 848.38 700.665 841.141 700.652C825.036 700.624 802.094 710.898 791.177 722.781C759.199 757.588 770.896 790.222 711.759 798.459L710.597 795.794Z"
     id="path1193" />
  <path
     fill="#40E1BB"
     d="M846.396 680.503L849.848 682.053C846.761 683.898 833.057 683.101 828.244 683.729C810.376 686.06 791.787 690.458 776.431 700.262C742.776 722.823 751.052 757.361 708.788 774.487L708.386 771.17C742.602 757.835 741.761 727.258 764.986 705.497C784.251 687.447 820.425 679.739 846.396 680.503Z"
     id="path1195" />
  <path
     fill="#0A755E"
     d="M859.699 688.032C868.207 692.588 875.107 699.117 881.658 706.106L883.612 708.344C882.642 710.258 881.383 712.951 880.243 714.686L878.279 717.161L876.548 715.26L876.542 714.616C872.653 710.254 868.08 698.299 862.971 693.682C861.443 692.302 859.984 690.12 859.699 688.032Z"
     id="path1197" />
  <path
     fill="#40E1BB"
     d="M881.658 706.106L883.612 708.344C882.642 710.258 881.383 712.951 880.243 714.686L878.279 717.161L876.548 715.26L876.542 714.616C878.208 711.616 879.826 709.006 881.658 706.106Z"
     id="path1199" />
  <path
     fill="#0A755E"
     d="M883.612 708.344C924.913 759.705 917.235 833.054 858.243 866.837C839.057 876.848 828.979 878.989 807.68 879.072C788.352 878.959 767.068 870.14 751.704 858.706C760.581 859.045 769.471 858.551 778.257 857.228C830.318 849.38 873.16 811.814 881.927 759.159C884.629 742.929 882.721 730.83 880.243 714.686C881.383 712.951 882.642 710.258 883.612 708.344Z"
     id="path1201" />
  <path
     fill="#A377AA"
     d="M384.553 1055.98C376.428 1053.46 372.857 1044.87 376.523 1037.49C377.907 1034.64 380.439 1032.52 383.484 1031.65C388.626 1030.23 430.411 1031.25 437.743 1031.25L606.265 1031.21C614.004 1031.21 661.775 1029.84 666.158 1032.5C670.353 1035.04 671.292 1039.62 672.281 1044.04C671.41 1047.6 669.639 1053.08 666.231 1054.13C655.967 1057.29 635.618 1055.87 625.147 1055.82L563.051 1055.71L384.553 1055.98Z"
     id="path1203" />
  <path
     fill="#00012F"
     d="M672.281 1044.04C684.761 1044.58 685.646 1052.33 684.558 1062.77C680.455 1067.15 671.782 1072.26 666.122 1074.01C597.351 1072.51 528.497 1075.12 459.763 1073.38C442.401 1072.95 415.857 1074.4 399.728 1072.34C394.176 1068.83 387.138 1062.09 384.553 1055.98L563.051 1055.71L625.147 1055.82C635.618 1055.87 655.967 1057.29 666.231 1054.13C669.639 1053.08 671.41 1047.6 672.281 1044.04Z"
     id="path1205" />
  <defs
     id="defs1212">
    <linearGradient
       id="gradient_3"
       gradientUnits="userSpaceOnUse"
       x1="346.65088"
       y1="1025.7493"
       x2="286.99176"
       y2="1009.9927">
      <stop
         offset="0"
         stop-color="#10ABB4"
         id="stop1207" />
      <stop
         offset="1"
         stop-color="#1FD3BD"
         id="stop1209" />
    </linearGradient>
  </defs>
  <path
     fill="url(#gradient_3)"
     d="M304.274 989.154C342.077 975.523 363.258 1020.58 337.017 1044.05C329.602 1048.72 324.542 1051.29 315.622 1050.51C314.608 1049.95 310.335 1049.48 308.9 1049.27C298.191 1046.19 291.593 1036.37 286.945 1026.94C281.986 1009.89 288.97 997.137 304.274 989.154Z"
     id="path1214" />
  <path
     fill="#077292"
     d="M317.553 990.052C351.767 988.381 357.305 1041.51 322.905 1047.9C316.702 1047.88 311.164 1047.82 306.408 1043.12C302.921 1034.41 317.778 1032.05 321.858 1027.7C335.818 1012.8 324.182 1005.27 316.22 994.735C315.944 991.907 315.813 993.042 317.553 990.052Z"
     id="path1216" />
  <path
     fill="#F28E2A"
     d="M314.852 547.548C321.16 547.425 335.979 546.401 341.125 549.147C344.841 556.733 343.622 566.11 343.448 574.817C341.814 583.947 324.593 611.655 320.499 623.301L285.174 623.446C293.764 601.904 305.24 566.878 314.852 547.548Z"
     id="path1218" />
  <path
     fill="#CE620E"
     d="M320.499 623.301C324.593 611.655 341.814 583.947 343.448 574.817C343.495 583.462 343.599 592.601 343.556 601.2C343.452 621.851 342.451 623.674 322.605 623.339L320.499 623.301Z"
     id="path1220" />
  <path
     fill="#FEFEFE"
     d="M525.244 483.447C526.154 483.157 527.127 483.12 528.057 483.341C530.623 483.948 532.345 486.358 532.089 488.982C531.832 491.605 529.676 493.636 527.041 493.736C524.406 493.835 522.103 491.973 521.649 489.376C521.195 486.779 522.731 484.246 525.244 483.447Z"
     id="path1222" />
  <path
     fill="#A377AA"
     d="M399.532 600.258C394.312 599.975 387.239 601.69 382.869 598.208C376.898 593.451 376.935 582.025 383.969 578.225C386.35 576.939 391.226 576.856 394.03 576.851C450.112 576.749 506.196 576.759 562.278 576.752L626.63 576.732C638.586 576.719 650.618 576.491 662.552 577.08C672.103 577.552 672.665 584.809 672.634 592.409C686.22 587.317 697.409 600.121 691.42 612.899C688.503 619.123 680.262 620.781 674.228 620.27C654.747 619.855 635.242 619.999 615.753 620.003L468.435 619.679C448.508 619.562 428.572 619.787 408.652 619.548C404.619 619.499 401.848 619.224 398.539 617.059C393.854 613.994 389.595 608.22 393.177 602.749C394.643 600.511 397.084 600.652 399.532 600.258Z"
     id="path1224" />
  <path
     fill="#00012F"
     d="M672.634 592.409C686.22 587.317 697.409 600.121 691.42 612.899C688.503 619.123 680.262 620.781 674.228 620.27C654.747 619.855 635.242 619.999 615.753 620.003L468.435 619.679C448.508 619.562 428.572 619.787 408.652 619.548C404.619 619.499 401.848 619.224 398.539 617.059C393.854 613.994 389.595 608.22 393.177 602.749C394.643 600.511 397.084 600.652 399.532 600.258C432.436 599.294 661.271 602.09 667.452 599.296C670.209 598.05 671.501 595.002 672.634 592.409Z"
     id="path1226" />
  <path
     fill="#A377AA"
     d="M485.049 903.996C455.141 902.765 423.981 904.742 393.97 904.076C391.595 904.023 389.286 904.154 386.908 903.876C373.859 902.348 373.284 880.906 387.24 880.486C399.436 880.041 411.636 880.213 423.834 880.213L491.353 880.207C548.356 880.195 605.362 880.245 662.363 880.457C672.495 880.495 676.678 885.306 676.428 895.304C682.939 896.176 688.507 896.659 692.691 902.37C696.65 907.853 695.876 913.535 690.339 917.485C686.087 920.518 682.864 920.857 677.705 920.925C653.634 921.24 629.385 921.135 605.326 921.094L480.531 921.136C463.617 921.142 446.703 921.251 429.79 921.464C423.023 921.545 415.788 921.496 409.063 921.613C395.453 921.851 390.566 917.748 387.422 904.788L449.101 904.735C455.39 904.744 480.941 905.174 485.049 903.996Z"
     id="path1228" />
  <path
     fill="#00012F"
     d="M676.428 895.304C682.939 896.176 688.507 896.659 692.691 902.37C696.65 907.853 695.876 913.535 690.339 917.485C686.087 920.518 682.864 920.857 677.705 920.925C653.634 921.24 629.385 921.135 605.326 921.094L480.531 921.136C463.617 921.142 446.703 921.251 429.79 921.464C423.023 921.545 415.788 921.496 409.063 921.613C395.453 921.851 390.566 917.748 387.422 904.788L449.101 904.735C455.39 904.744 480.941 905.174 485.049 903.996C505.699 903.989 663.357 905.976 670.226 903.333C673.537 902.059 675.076 898.301 676.428 895.304Z"
     id="path1230" />
  <path
     fill="#A377AA"
     d="M391.588 752.303C373.922 752.549 375.511 728.887 388.532 728.479C403.093 728.023 418.45 728.228 433.062 728.231L524.31 728.21L618.24 728.26C633.004 728.271 647.839 728.106 662.589 728.469C669.997 728.652 672.03 736.397 672.61 742.178C673.874 740.164 673.372 740.3 675.752 739.875C687.265 737.815 697.33 753.922 690.03 762.679C681.752 772.61 655.212 769.14 642.953 769.206L552.949 768.95L454.635 769.432C439.173 769.476 423.77 769.504 408.305 769.297C398.758 769.169 386.452 763.863 391.588 752.303Z"
     id="path1232" />
  <path
     fill="#00012F"
     d="M672.61 742.178C673.874 740.164 673.372 740.3 675.752 739.875C687.265 737.815 697.33 753.922 690.03 762.679C681.752 772.61 655.212 769.14 642.953 769.206L552.949 768.95L454.635 769.432C439.173 769.476 423.77 769.504 408.305 769.297C398.758 769.169 386.452 763.863 391.588 752.303L569.253 752.104C598.125 752.105 627.151 752.312 656.03 752.238C658.601 752.231 664.643 751.813 666.935 750.636C670.203 748.959 671.515 745.386 672.61 742.178Z"
     id="path1234" />
  <path
     fill="#118CA1"
     d="M269.615 694.668C290.442 693.961 312.125 695.064 332.994 694.745C338.172 694.666 342.521 698.144 342.625 703.262C343.051 724.248 342.973 745.579 342.59 766.578C342.538 769.389 339.761 771.134 337.729 772.601C331.651 772.837 325.108 772.59 318.952 772.587C304.009 772.58 288.999 772.798 274.067 772.379C272.38 772.332 268.313 772.028 267.285 770.547C265.679 768.236 265.209 764.765 264.889 761.981C264.537 752.983 264.793 743.804 264.758 734.766C264.717 723.947 264.609 713.006 264.857 702.203C264.947 698.293 266.785 697.022 269.615 694.668Z"
     id="path1236" />
  <path
     fill="#FEA221"
     d="M265.677 918.292C265.488 898.485 264.075 872.601 266.53 853.355C267.433 846.275 327.85 849.465 335.146 849.691C340.872 849.869 342.303 857.661 342.204 862.324C343.003 870.328 344.44 917.215 340.467 922.225C338.901 924.2 336.451 925.657 334.386 927.067C321.072 927.571 306.547 927.277 293.129 927.219C280.537 926.995 272.533 931.051 265.677 918.292Z"
     id="path1238" />
  <path
     fill="#F28E2A"
     d="M342.204 862.324C343.003 870.328 344.44 917.215 340.467 922.225C338.901 924.2 336.451 925.657 334.386 927.067C321.072 927.571 306.547 927.277 293.129 927.219C298.282 922.719 312.861 920.39 321.507 911.914C332.58 901.993 334.928 886.112 338.806 872.498C339.704 869.346 340.319 865.085 342.204 862.324Z"
     id="path1240" />
  <defs
     id="defs1247">
    <linearGradient
       id="gradient_4"
       gradientUnits="userSpaceOnUse"
       x1="930.3089"
       y1="1176.2357"
       x2="921.97504"
       y2="1135.0449">
      <stop
         offset="0"
         stop-color="#130C41"
         id="stop1242" />
      <stop
         offset="1"
         stop-color="#1D439F"
         id="stop1244" />
    </linearGradient>
  </defs>
  <path
     fill="url(#gradient_4)"
     d="M908.61 1182.13C886.183 1159.96 908.573 1125.04 937.143 1135.2C944.295 1137.77 950.123 1143.08 953.331 1149.97C956.985 1157.93 956.293 1165.19 953.403 1173.16C944.071 1188.65 927.806 1194.19 911.89 1184.35C910.771 1183.64 909.677 1182.9 908.61 1182.13Z"
     id="path1249" />
  <path
     fill="#00012F"
     d="M908.61 1182.13C916.515 1175.45 937.151 1172.26 947.552 1170.71C950.876 1170.22 951.797 1170.57 953.403 1173.16C944.071 1188.65 927.806 1194.19 911.89 1184.35C910.771 1183.64 909.677 1182.9 908.61 1182.13Z"
     id="path1251" />
  <defs
     id="defs1258">
    <linearGradient
       id="gradient_5"
       gradientUnits="userSpaceOnUse"
       x1="306.25897"
       y1="192.15826"
       x2="267.6998"
       y2="165.31715">
      <stop
         offset="0"
         stop-color="#00072E"
         id="stop1253" />
      <stop
         offset="1"
         stop-color="#2A2B80"
         id="stop1255" />
    </linearGradient>
  </defs>
  <path
     fill="url(#gradient_5)"
     d="M258.064 182.245C256.54 173.231 259.591 164.048 266.207 157.737C272.823 151.426 282.141 148.81 291.076 150.755C304.615 153.703 313.855 166.25 312.65 180.051C311.444 193.853 300.168 204.608 286.322 205.165C272.476 205.721 260.374 195.905 258.064 182.245Z"
     id="path1260" />
  <path
     fill="#05295F"
     d="M258.064 182.245C256.54 173.231 259.591 164.048 266.207 157.737C272.823 151.426 282.141 148.81 291.076 150.755L289.412 151.794L289.346 152.307C289.125 153.942 289.139 154.329 288.421 155.868C286.028 157.449 284.156 157.868 282.237 159.943C280.115 162.238 271.427 171.875 269.299 172.436L269.533 169.496L268.39 168.826L269.18 168.894C261.919 170.151 260.609 178.307 258.064 182.245Z"
     id="path1262" />
  <path
     fill="#2A1051"
     d="M854.099 303.075L858.168 305.468C860.265 307.193 862.463 308.937 864.464 310.762C869.237 315.183 873.575 319.476 877.444 324.756C871.226 326.941 870.376 332.362 866.618 337.219L865.911 338.34C856.81 346.98 843.702 354.621 831.956 359.073C830.372 354.174 831.483 344.245 828.036 333.75L827.59 333.699C827.043 329.685 822.309 323.532 819.866 320.056L820.459 319.691C830.145 316.393 837.915 312.966 846.972 308.355L854.099 303.075Z"
     id="path1264" />
  <path
     fill="#0A3DAF"
     d="M854.099 303.075L858.168 305.468C860.265 307.193 862.463 308.937 864.464 310.762C861.675 313.433 858.784 316.299 855.946 318.89L855.567 318.838C849.393 324.787 836.146 330.149 828.036 333.75L827.59 333.699C827.043 329.685 822.309 323.532 819.866 320.056L820.459 319.691C830.145 316.393 837.915 312.966 846.972 308.355L854.099 303.075Z"
     id="path1266" />
  <path
     fill="#05295F"
     d="M854.099 303.075L858.168 305.468C860.265 307.193 862.463 308.937 864.464 310.762C861.675 313.433 858.784 316.299 855.946 318.89L855.567 318.838C854.07 315.903 849.507 310.456 846.972 308.355L854.099 303.075Z"
     id="path1268" />
  <path
     fill="#00012F"
     d="M864.464 310.762C869.237 315.183 873.575 319.476 877.444 324.756C871.226 326.941 870.376 332.362 866.618 337.219C864.315 334.074 858.591 323.238 855.946 318.89C858.784 316.299 861.675 313.433 864.464 310.762Z"
     id="path1270" />
  <defs
     id="defs1277">
    <linearGradient
       id="gradient_6"
       gradientUnits="userSpaceOnUse"
       x1="94.658913"
       y1="974.98535"
       x2="90.335716"
       y2="934.93005">
      <stop
         offset="0"
         stop-color="#0D1044"
         id="stop1272" />
      <stop
         offset="1"
         stop-color="#183B90"
         id="stop1274" />
    </linearGradient>
  </defs>
  <path
     fill="url(#gradient_6)"
     d="M78.8362 935.227C85.5438 930.132 94.4939 929.093 102.191 932.514C111.702 936.742 117.209 946.808 115.639 957.094C114.07 967.381 105.812 975.348 95.4732 976.549C85.1344 977.749 75.2695 971.888 71.3829 962.235C67.4963 952.582 70.5484 941.522 78.8362 935.227Z"
     id="path1279" />
  <path
     fill="#0A3DAF"
     d="M78.8362 935.227C85.5438 930.132 94.4939 929.093 102.191 932.514C98.8083 940.277 83.4045 942.921 78.8362 935.227Z"
     id="path1281" />
  <path
     fill="#2A1051"
     d="M101.124 682.181C106.215 680.664 111.581 683.514 113.174 688.58C114.767 693.646 111.997 699.052 106.954 700.72C103.624 701.822 99.9592 701.044 97.3635 698.686C94.7678 696.328 93.6442 692.755 94.4232 689.336C95.2022 685.917 97.7631 683.183 101.124 682.181Z"
     id="path1283" />
  <path
     fill="#2A1051"
     d="M911.994 600.425C917.013 599.25 922.038 602.351 923.236 607.363C924.435 612.376 921.356 617.414 916.348 618.635C911.308 619.865 906.228 616.762 905.021 611.717C903.815 606.672 906.942 601.608 911.994 600.425Z"
     id="path1285" />
  <path
     fill="#4A1277"
     d="M743.833 155.01C748.726 153.776 753.714 156.651 755.097 161.503C756.48 166.355 753.757 171.427 748.948 172.957C745.705 173.988 742.157 173.174 739.689 170.831C737.22 168.488 736.223 164.988 737.085 161.696C737.947 158.404 740.533 155.843 743.833 155.01Z"
     id="path1287" />
  <path
     fill="#4A1277"
     d="M895.517 903.418C898.58 902.094 902.122 902.548 904.751 904.603C907.379 906.658 908.675 909.984 908.129 913.275C907.583 916.567 905.282 919.296 902.13 920.392C897.498 922.003 892.421 919.661 890.64 915.091C888.86 910.522 891.015 905.364 895.517 903.418Z"
     id="path1289" />
</svg>
