<?xml version="1.0" encoding="UTF-8" standalone="no"?>
<svg
   width="1024"
   height="1536"
   version="1.1"
   id="svg3388"
   sodipodi:docname="galactic-trading--scenery-where-a-buyer-buys-thing (1)-edited.svg"
   inkscape:version="1.1.2 (0a00cf5339, 2022-02-04)"
   xmlns:inkscape="http://www.inkscape.org/namespaces/inkscape"
   xmlns:sodipodi="http://sodipodi.sourceforge.net/DTD/sodipodi-0.dtd"
   xmlns="http://www.w3.org/2000/svg"
   xmlns:svg="http://www.w3.org/2000/svg">
  <sodipodi:namedview
     id="namedview3390"
     pagecolor="#ffffff"
     bordercolor="#666666"
     borderopacity="1.0"
     inkscape:pageshadow="2"
     inkscape:pageopacity="0.0"
     inkscape:pagecheckerboard="0"
     showgrid="false"
     inkscape:zoom="0.66574926"
     inkscape:cx="711.22873"
     inkscape:cy="476.90627"
     inkscape:window-width="1920"
     inkscape:window-height="1009"
     inkscape:window-x="1920"
     inkscape:window-y="34"
     inkscape:window-maximized="1"
     inkscape:current-layer="svg3388" />
  <path
     fill="#2A1051"
     d="M251.193 1345.58C254.554 1346.02 259.669 1347.47 262.474 1345.43C267.501 1353.43 299.55 1359.95 298.756 1371.17C297.91 1372.17 297.518 1372.97 296.244 1373.39C295.536 1373.41 295.546 1373.45 294.733 1373.26C289.638 1372.05 253.837 1350.23 251.193 1345.58Z"
     id="path3112" />
  <path
     fill="#4A1277"
     d="M317.585 291.365C347.816 273.291 392.502 254.029 428.54 263.276C436.525 265.324 444.592 269.288 448.937 276.611C453.932 285.03 452.898 295.793 450.485 304.858C443.292 331.879 421.333 357.074 402.644 376.935C396.884 383.056 390.476 388.786 385.028 395.166C378.136 400.443 372.044 406.756 365.438 412.381C331.728 444.748 291.568 469.657 251.221 492.827C247.912 494.027 244.81 495.766 241.688 497.38L232.118 501.672C200 518.624 147.342 530.924 111.256 528.606C98.1161 527.762 82.2649 525.035 73.2517 514.548C68.8871 509.47 67.1928 503.247 67.83 496.626C70.9434 464.276 122.469 413.796 147.27 393.35C147.173 393.067 147.072 392.785 146.978 392.502C139.624 370.224 144.577 340.094 154.948 319.524C167.186 295.25 187.219 277.435 213.093 268.959C247.139 257.806 271.286 264.646 302.07 280.295C307.262 283.743 313.068 287.063 317.585 291.365Z"
     id="path3114" />
  <path
     fill="#43B1BE"
     d="M362.173 373.32C377.465 358.327 409.836 323.635 409.734 301.569C409.718 298.016 408.576 294.755 405.889 292.345C399.861 286.936 389.359 287.138 381.851 287.85C370.59 288.919 359.874 292.043 349.39 296.226C346.851 297.239 336.216 302.912 334.486 302.509C348.265 291.425 377.852 280.671 395.775 282.445C401.915 283.053 408.46 285.268 412.474 290.205C415.809 294.307 416.519 299.376 415.922 304.501C412.639 332.668 382.555 361.667 363.636 380.95C320.463 422.171 260.998 464.785 204.579 484.916Q194.407 488.644 184.07 491.888C164.97 497.885 127.996 507.944 109.144 497.759C102.528 494.184 100.047 489.48 97.8858 482.528C103.492 455.419 132.13 428.925 152.734 411.931L155.3 417.952C142.427 430.589 105.211 464.248 105.672 482.051C105.746 484.929 106.85 487.505 109.031 489.414C116.456 495.915 131.229 495.047 140.435 494.079C160.04 492.018 180.108 487.173 198.384 479.75C259.898 455.987 314.811 419.014 362.173 373.32Z"
     id="path3116" />
  <path
     fill="#2A1051"
     d="M147.27 393.35C147.173 393.067 147.072 392.785 146.978 392.502C139.624 370.224 144.577 340.094 154.948 319.524C167.186 295.25 187.219 277.435 213.093 268.959C247.139 257.806 271.286 264.646 302.07 280.295C307.262 283.743 313.068 287.063 317.585 291.365C332.023 307.384 340.061 319.826 349.298 339.239C316.197 388.606 272.698 424.724 213.329 436.525C198.049 439.563 183.087 439.991 167.602 440.38C163.306 433.022 158.835 425.714 155.3 417.952L152.734 411.931C150.357 405.865 148.799 399.669 147.27 393.35Z"
     id="path3118" />
  <defs
     id="defs3125">
    <linearGradient
       id="gradient_0"
       gradientUnits="userSpaceOnUse"
       x1="310.48383"
       y1="1329.4852"
       x2="855.01056"
       y2="242.76627">
      <stop
         offset="0"
         stop-color="#001239"
         id="stop3120" />
      <stop
         offset="1"
         stop-color="#3C1764"
         id="stop3122" />
    </linearGradient>
  </defs>
  <path
     fill="url(#gradient_0)"
     d="M302.07 280.295C325.005 212.319 368.779 143.775 434.778 111.021Q436.748 110.052 438.741 109.131Q440.734 108.21 442.749 107.338Q444.764 106.465 446.799 105.642Q448.834 104.818 450.889 104.045Q452.944 103.271 455.016 102.547Q457.089 101.823 459.179 101.149Q461.268 100.475 463.374 99.8525Q465.479 99.2296 467.599 98.6579Q469.719 98.0861 471.852 97.5658Q473.985 97.0455 476.13 96.577Q478.275 96.1085 480.431 95.6921Q482.586 95.2756 484.752 94.9114Q486.917 94.5472 489.09 94.2355Q491.263 93.9238 493.444 93.6648Q495.624 93.4058 497.81 93.1997Q499.996 92.9935 502.186 92.8403Q504.376 92.6871 506.57 92.5869Q508.763 92.4867 510.958 92.4397Q513.153 92.3926 515.349 92.3987Q517.545 92.4047 519.739 92.4639Q521.934 92.5231 524.127 92.6354Q526.32 92.7477 528.509 92.913Q530.698 93.0783 532.883 93.2965Q535.068 93.5148 537.247 93.7858Q539.426 94.0568 541.597 94.3805Q543.769 94.7042 545.932 95.0803Q548.095 95.4565 550.248 95.8848Q552.402 96.3132 554.544 96.7935Q556.687 97.2739 558.817 97.8059Q560.947 98.338 563.064 98.9214Q565.18 99.5049 567.282 100.139Q569.384 100.774 571.47 101.459C619.998 117.794 651.795 154.671 695.356 179.113C722.265 194.211 751.519 202.05 780.244 212.662C853.754 239.818 919.008 281.956 954.562 354.108C985.975 417.858 990.902 495.183 973.079 563.555C959.87 614.225 942.553 659.983 942.8 713.557C942.935 742.766 946.441 773.014 955.881 800.787C960.341 813.911 966.389 826.307 970.281 839.675C975.081 856.161 977.933 873.546 980.115 890.547C989.441 963.223 980.37 1036.28 956.81 1105.5Q953.596 1114.98 949.993 1124.31Q946.39 1133.65 942.406 1142.83Q938.421 1152.01 934.061 1161.02Q929.701 1170.03 924.973 1178.85Q920.246 1187.67 915.158 1196.29Q910.07 1204.9 904.632 1213.3Q899.193 1221.71 893.412 1229.88Q887.632 1238.05 881.519 1245.97C878.609 1249.75 872.201 1259.59 868.388 1261.85C868.211 1261.95 868.013 1262.02 867.826 1262.1C861.485 1278.02 783.403 1345.24 766.857 1352.4C766.24 1352.67 765.717 1352.61 765.067 1352.58C762.779 1355.76 736.496 1371.99 732.635 1372.5C732.284 1372.55 731.749 1372.47 731.429 1372.44C727.869 1377.28 717.488 1381.35 712.083 1384Q704.175 1387.83 696.13 1391.35Q688.084 1394.88 679.911 1398.1Q671.738 1401.32 663.45 1404.23Q655.162 1407.14 646.771 1409.74Q638.379 1412.34 629.896 1414.62Q621.412 1416.9 612.849 1418.86Q604.286 1420.82 595.655 1422.46Q587.024 1424.1 578.338 1425.41C495.12 1437.98 405.826 1426.15 329.359 1390.61C319.45 1386.01 307.145 1381.67 298.197 1375.47C297.374 1374.91 296.802 1374.22 296.244 1373.39C297.518 1372.97 297.91 1372.17 298.756 1371.17C299.55 1359.95 267.501 1353.43 262.474 1345.43C259.669 1347.47 254.554 1346.02 251.193 1345.58C250.638 1345.56 250.303 1345.57 249.786 1345.45C247.443 1344.91 245.863 1342.58 244.635 1340.7C244.018 1340.67 243.488 1340.68 242.92 1340.39C234.964 1336.35 189.975 1300.46 186.758 1292.93C186.291 1292.83 185.779 1292.66 185.359 1292.42C179.999 1289.42 173.864 1281.21 169.728 1276.61C141.748 1245.45 116.879 1212.43 96.8518 1175.56C93.3857 1169.18 88.7219 1161.73 87.0897 1154.63C85.3616 1153.46 84.2541 1150.19 83.3652 1148.33Q81.0308 1143.37 78.8117 1138.36Q76.5927 1133.35 74.4903 1128.3Q72.3878 1123.24 70.4031 1118.13Q68.4184 1113.02 66.5524 1107.87Q64.6865 1102.72 62.9403 1097.53Q61.1941 1092.34 59.5686 1087.1Q57.9432 1081.87 56.4393 1076.6Q54.9354 1071.34 53.5539 1066.03Q52.1724 1060.73 50.914 1055.4Q49.6557 1050.07 48.5211 1044.71Q47.3865 1039.35 46.3764 1033.96Q45.3662 1028.58 44.481 1023.17Q43.5958 1017.77 42.8361 1012.34Q42.0763 1006.91 41.4424 1001.47Q40.8084 996.031 40.3007 990.576Q39.7929 985.121 39.4116 979.656Q39.0303 974.191 38.7756 968.718Q38.521 963.246 38.3931 957.769Q38.2652 952.292 38.2642 946.813Q38.2632 941.335 38.389 935.858Q38.5148 930.381 38.7675 924.908Q39.0201 919.435 39.3994 913.97Q39.7787 908.504 40.2844 903.049Q40.7901 897.594 41.4221 892.152Q42.054 886.71 42.8117 881.284Q43.5695 875.858 44.4527 870.452Q45.3358 865.045 46.344 859.66Q47.3521 854.275 48.4847 848.914Q49.6173 843.554 50.8737 838.222Q52.1301 832.889 53.5096 827.587Q54.8891 822.285 56.391 817.016Q57.893 811.748 59.5165 806.515C69.3643 775.073 82.4991 743.959 100.68 716.397C113.784 696.533 129.722 683.625 144.095 665.585C176.422 625.011 204.694 577.557 226.977 530.812C232.217 519.818 237.646 508.885 241.688 497.38C244.81 495.766 247.912 494.027 251.221 492.827C291.568 469.657 331.728 444.748 365.438 412.381C372.044 406.756 378.136 400.443 385.028 395.166C390.476 388.786 396.884 383.056 402.644 376.935C421.333 357.074 443.292 331.879 450.485 304.858C452.898 295.793 453.932 285.03 448.937 276.611C444.592 269.288 436.525 265.324 428.54 263.276C392.502 254.029 347.816 273.291 317.585 291.365C313.068 287.063 307.262 283.743 302.07 280.295Z"
     id="path3127" />
  <path
     fill="#E5C1AF"
     d="M510.868 131.875C512.327 132.396 513.091 133.06 514.174 134.106C514.362 136.362 513.837 136.97 512.84 138.952C512.692 138.914 512.541 138.883 512.394 138.839C510.269 138.19 509.497 137.716 508.373 135.813C508.862 133.731 509.413 133.374 510.868 131.875Z"
     id="path3129" />
  <path
     fill="#EFDCB9"
     d="M421.034 166.893C423.321 167.082 424.356 167.16 426.065 168.712C426.429 170.702 425.659 171.904 424.791 173.663C423.196 173.23 422.143 172.655 420.783 171.725C420.068 169.577 420.443 169.023 421.034 166.893Z"
     id="path3131" />
  <path
     fill="#FEFEFE"
     d="M511.45 242.529C512.109 242.64 512.556 242.693 513.211 242.916C514.695 243.423 515.059 244.219 515.675 245.555C515.303 247.664 514.706 248.369 513.154 249.812C511.562 249.215 510.974 248.789 509.866 247.499C509.786 245.23 510.401 244.501 511.45 242.529Z"
     id="path3133" />
  <path
     fill="#FEFEFE"
     d="M742.454 501.252C744.44 502.103 745.161 502.266 746.5 504.021C746.337 506.42 745.807 506.975 744.422 508.994C742.769 508.222 741.941 507.603 740.797 506.173C740.747 503.785 741.268 503.263 742.454 501.252Z"
     id="path3135" />
  <path
     fill="#FEFEFE"
     d="M533.781 439.028C536.135 439.46 537.242 439.505 539.114 441.09C539.734 443.288 539.055 444.634 538.255 446.704C536.053 446.696 534.758 446.351 533.125 444.911C532.509 442.579 533.003 441.266 533.781 439.028Z"
     id="path3137" />
  <path
     fill="#F0C7D7"
     d="M918.071 870.277C920.368 870.701 921.697 871.374 923.028 873.3C923.047 875.836 922.634 876.328 921.297 878.532C918.932 877.918 917.991 877.493 916.451 875.697C916.154 873.374 916.919 872.251 918.071 870.277Z"
     id="path3139" />
  <path
     fill="#FEFEFE"
     d="M702.079 210.292C704.292 211.436 705.105 211.704 706.428 213.763C706.406 216.12 705.232 217.391 703.878 219.169C703.623 219.088 703.366 219.011 703.111 218.927C700.915 218.195 700.176 217.236 699.22 215.271C699.782 212.791 700.369 212.228 702.079 210.292Z"
     id="path3141" />
  <path
     fill="#78E0C6"
     d="M95.1062 976.803C95.9044 976.886 96.7985 976.951 97.5577 977.217C99.3523 977.847 99.821 978.521 100.661 980.15C100.574 982.369 99.9233 983.407 98.6913 985.223C98.1423 985.149 97.5902 985.088 97.0471 984.978C94.9491 984.554 94.2154 983.909 93.0491 982.187C92.9693 979.867 93.8614 978.7 95.1062 976.803Z"
     id="path3143" />
  <path
     fill="#FEFEFE"
     d="M218.715 618.341C219.566 618.414 220.513 618.457 221.332 618.705C223.145 619.253 223.632 620.161 224.559 621.641C224.583 623.993 224.026 625.223 222.798 627.204C220.281 626.549 218.697 626.009 217.271 623.725C216.997 621.476 217.682 620.306 218.715 618.341Z"
     id="path3145" />
  <path
     fill="#FEFEFE"
     d="M417.87 462.377C418.086 462.392 418.303 462.398 418.518 462.422C420.956 462.698 421.813 463.14 423.321 464.942C423.536 467.257 422.782 468.594 421.771 470.604C421.281 470.599 420.79 470.608 420.302 470.569C418.101 470.397 417.355 469.841 415.996 468.266C415.672 465.812 416.658 464.369 417.87 462.377Z"
     id="path3147" />
  <path
     fill="#FEFEFE"
     d="M774.851 257.588C775.986 257.978 777.096 258.551 778.195 259.039C779.34 260.58 779.63 260.835 779.792 262.82C778.962 264.688 778.312 265.233 776.543 266.225C775.9 266.069 775.156 265.931 774.554 265.634C772.923 264.828 772.592 264.166 771.928 262.524C772.307 260.161 773.198 259.263 774.851 257.588Z"
     id="path3149" />
  <path
     fill="#FEFEFE"
     d="M788.335 388.121C788.88 388.271 789.432 388.422 789.964 388.615C792.135 389.401 792.761 390.184 793.635 392.169C793.265 394.478 792.346 395.503 790.821 397.23C790.421 397.111 789.939 396.979 789.541 396.821C787.358 395.949 786.599 395.029 785.655 393.023C785.863 390.689 786.773 389.8 788.335 388.121Z"
     id="path3151" />
  <path
     fill="#FEFEFE"
     d="M911.965 678.354C912.348 678.362 912.809 678.359 913.201 678.403C915.437 678.652 916.28 679.339 917.628 680.965C917.979 683.333 917.412 684.529 916.401 686.658C915.536 686.663 914.557 686.706 913.714 686.505C911.935 686.082 911.311 685.351 910.315 683.915C910.043 681.474 910.714 680.414 911.965 678.354Z"
     id="path3153" />
  <path
     fill="#FEFEFE"
     d="M313.41 789.32C314.194 789.318 315.084 789.289 315.845 789.485C317.758 789.98 318.26 790.741 319.232 792.292C319.36 794.806 318.633 796.126 317.34 798.237C316.885 798.192 316.194 798.138 315.71 798.049C313.59 797.658 312.787 796.743 311.669 795.082C311.394 792.635 312.161 791.372 313.41 789.32Z"
     id="path3155" />
  <path
     fill="#FEFEFE"
     d="M476.962 757.913C478.095 757.972 479.415 757.968 480.505 758.286C482.403 758.839 482.762 759.879 483.445 761.508C483.184 763.783 482.368 764.792 480.94 766.54C480.501 766.474 479.907 766.397 479.454 766.288C477.386 765.789 476.437 764.945 475.314 763.231C475.045 760.936 475.8 759.848 476.962 757.913Z"
     id="path3157" />
  <path
     fill="#FEFEFE"
     d="M543.436 322.997C546.281 323.137 547.893 323.43 549.876 325.462C550.536 327.785 549.905 329.33 549.211 331.541C548.316 331.558 547.383 331.582 546.497 331.436C544.617 331.128 543.675 330.343 542.579 328.862C541.973 326.494 542.488 325.194 543.436 322.997Z"
     id="path3159" />
  <path
     fill="#FEFEFE"
     d="M682.523 523.307C683.425 523.588 684.45 523.867 685.265 524.347C687.108 525.434 687.401 526.386 687.946 528.291C687.49 530.764 686.323 531.899 684.69 533.681C683.68 533.291 682.523 532.906 681.616 532.313C679.987 531.248 679.699 530.159 679.22 528.424C679.653 526.033 680.85 524.932 682.523 523.307Z"
     id="path3161" />
  <path
     fill="#43B1BE"
     d="M473.296 396.554C474.405 396.585 475.69 396.547 476.764 396.822C478.529 397.273 479.035 398.511 479.83 399.938C479.842 402.408 479.225 403.756 477.972 405.856C476.981 405.782 475.851 405.739 474.906 405.423C472.839 404.731 472.171 403.775 471.146 402.029C471.301 399.331 471.747 398.819 473.296 396.554Z"
     id="path3163" />
  <path
     fill="#EFDCB9"
     d="M377.283 206.011C378.506 206.05 380.254 206.1 381.382 206.59C383.294 207.42 383.559 208.477 384.112 210.274C383.781 212.558 382.794 213.678 381.287 215.364C380.24 215.211 379.072 215.088 378.077 214.724C376.105 214.002 375.612 213.13 374.721 211.399C374.781 208.978 375.784 207.827 377.283 206.011Z"
     id="path3165" />
  <path
     fill="#B8DEDE"
     d="M585.068 1032.6C587.285 1032.96 588.791 1033.3 590.831 1031.95C592.724 1030.7 594.718 1027.68 596.195 1025.87C597.616 1027.51 597.875 1027.92 598.314 1030.03C597.643 1032.35 596.252 1033.72 594.137 1034.86C591.323 1036.38 587.319 1037.73 584.175 1036.68C583.755 1036.54 583.35 1036.36 582.94 1036.2C583.057 1034.78 584.216 1033.68 585.068 1032.6Z"
     id="path3167" />
  <path
     fill="#43B1BE"
     d="M884.301 813.441C885.836 813.501 887.649 813.588 888.924 814.561C890.404 815.69 891.327 817.059 891.411 818.949C891.516 821.339 889.979 822.883 888.407 824.444C886.783 824.371 884.814 824.21 883.446 823.228C882.047 822.223 881.113 820.831 881.074 819.081C881.019 816.637 882.707 815.033 884.301 813.441Z"
     id="path3169" />
  <path
     fill="#735AB5"
     d="M550.13 1022.83L549.788 1020.35C550.481 1019.52 550.285 1019.4 551.431 1019.3C555.935 1018.92 582.892 1018.06 585.513 1019.37C585.325 1020.55 585.244 1022.47 584.689 1023.48L584.344 1022.31C583.894 1022.01 583.75 1021.87 583.155 1021.73C579.422 1020.83 552.382 1021.11 550.13 1022.83Z"
     id="path3171" />
  <path
     fill="#43B1BE"
     d="M818.642 939.914C819.863 935.47 820.783 928.855 824.918 926.262C826.526 926.694 826.747 926.799 827.633 928.237C829.524 931.307 830.048 936.425 830.775 939.931L818.642 939.914Z"
     id="path3173" />
  <path
     fill="#43B1BE"
     d="M840.096 922.941C842.918 928.486 845.792 934.13 846.823 940.33L846.412 940.442L834.789 940.323C836.036 934.298 837.669 928.615 840.096 922.941Z"
     id="path3175" />
  <path
     fill="#FEFEFE"
     d="M126.088 764.828C128.253 765.294 130.647 766.142 131.995 767.995Q132.161 768.22 132.303 768.462Q132.445 768.703 132.561 768.957Q132.678 769.212 132.768 769.477Q132.858 769.742 132.92 770.015Q132.982 770.288 133.016 770.566Q133.05 770.844 133.055 771.123Q133.061 771.403 133.037 771.682Q133.014 771.961 132.962 772.236C132.391 775.299 130.215 776.782 127.84 778.423C125.318 778.039 122.871 777.439 121.326 775.221C120.433 773.94 120.192 772.391 120.567 770.883C121.329 767.818 123.624 766.431 126.088 764.828Z"
     id="path3177" />
  <path
     fill="#43B1BE"
     d="M550.13 1022.83C552.382 1021.11 579.422 1020.83 583.155 1021.73C583.75 1021.87 583.894 1022.01 584.344 1022.31L584.689 1023.48L584.183 1027.12C583.692 1027.45 583.39 1027.7 582.851 1027.9C579.763 1029.06 554.698 1028.31 551.53 1027.15C550.846 1025.98 550.521 1024.16 550.13 1022.83Z"
     id="path3179" />
  <path
     fill="#FEFEFE"
     d="M594.978 707.925C595.962 707.923 596.944 707.928 597.925 707.997C600.582 708.185 602.972 709.347 604.648 711.448C606.057 713.215 606.479 715.498 606.054 717.693C605.333 721.418 603.031 723.193 600.11 725.203C596.619 725.108 593.353 724.689 590.893 721.902C589.323 720.122 588.725 717.881 589.081 715.548C589.654 711.783 592.091 709.96 594.978 707.925Z"
     id="path3181" />
  <path
     fill="#FEFEFE"
     d="M347.297 559.473C348.463 559.41 349.63 559.382 350.796 559.463C354.12 559.694 356.863 561.081 358.909 563.759C360.352 565.647 360.873 568.008 360.456 570.336C359.753 574.254 357.244 576.154 354.166 578.217C352.432 578.465 350.662 578.622 348.916 578.389C346.375 578.051 344.003 576.515 342.502 574.456C341.044 572.457 340.575 570.009 341.037 567.595C341.804 563.596 344.107 561.584 347.297 559.473Z"
     id="path3183" />
  <path
     fill="#FEFEFE"
     d="M851.331 940.35C851.262 934.096 849.28 919.659 853.713 914.897C854.762 913.77 856.298 913.024 857.86 913.076C859.703 913.137 861.099 913.785 862.279 915.209C866.198 919.939 864.378 933.914 864.318 939.962L864.149 940.316C859.88 940.237 855.601 940.326 851.331 940.35Z"
     id="path3185" />
  <path
     fill="#D3484A"
     d="M786.978 962.126C786.548 956.204 784.948 947.75 787.008 942.104C787.546 940.63 788.482 939.44 789.91 938.802C792.771 937.524 795.478 938.657 798.188 939.714L801.251 939.722L801.271 962.218L798.245 962.367L786.978 962.126Z"
     id="path3187" />
  <path
     fill="#A94339"
     d="M801.251 939.722L801.271 962.218L798.245 962.367L798.188 939.714L801.251 939.722Z"
     id="path3189" />
  <path
     fill="#D3484A"
     d="M801.251 939.722C805.831 939.759 810.664 940.113 815.2 939.486L816.912 941.332C815.891 948.071 817.109 954.946 816.186 961.622C815.334 961.974 815.572 961.683 815.29 962.307L801.271 962.218L801.251 939.722Z"
     id="path3191" />
  <path
     fill="#D3484A"
     d="M864.318 939.962C865.31 940.15 865.691 940.459 866.6 939.96C869.166 938.549 871.805 937.441 874.745 938.282C875.76 938.572 877.094 939.938 877.615 940.828C880.596 945.917 878.643 956.366 879.098 962.254C874.152 963.294 868.614 962.734 863.565 962.732C865.223 959.28 864.166 944.991 864.149 940.316L864.318 939.962Z"
     id="path3193" />
  <path
     fill="#43B1BE"
     d="M801.251 939.722C801.22 934.787 799.638 916.079 803.179 912.774C804.853 911.211 806.675 910.323 808.924 910.01C811.189 910.837 812.224 911.484 813.255 913.86C816.714 921.835 813.283 931.322 815.2 939.486C810.664 940.113 805.831 939.759 801.251 939.722Z"
     id="path3195" />
  <path
     fill="#F4B767"
     d="M846.823 940.33L851.331 940.35C855.601 940.326 859.88 940.237 864.149 940.316C864.166 944.991 865.223 959.28 863.565 962.732C859.353 962.906 855.131 962.765 850.919 962.688L846.46 962.588L846.412 940.442L846.823 940.33Z"
     id="path3197" />
  <path
     fill="#A94339"
     d="M846.823 940.33L851.331 940.35Q850.868 951.514 850.919 962.688L846.46 962.588L846.412 940.442L846.823 940.33Z"
     id="path3199" />
  <path
     fill="#EFDCB9"
     d="M911.344 444.189C913.362 444.188 915.345 444.305 917.309 444.81C920.538 445.639 923.386 448.018 924.888 450.985Q925.13 451.458 925.324 451.953Q925.517 452.448 925.661 452.96Q925.804 453.472 925.895 453.996Q925.987 454.519 926.025 455.05Q926.064 455.58 926.049 456.111Q926.035 456.642 925.967 457.17Q925.9 457.697 925.78 458.215Q925.66 458.733 925.489 459.236C924.036 463.574 921.02 465.581 917.201 467.553C914.809 467.575 912.251 467.693 909.983 466.822C906.733 465.574 904 462.664 902.733 459.45C901.676 456.769 901.604 453.75 902.777 451.094C904.524 447.14 907.521 445.57 911.344 444.189Z"
     id="path3201" />
  <path
     fill="#735AB5"
     d="M357.879 680.81C359.725 682.678 360.961 684.964 362.388 687.15C367.023 694.25 371.461 696.13 379.018 699.145C368.171 706.008 365.77 706.026 359.365 717.9C355.955 716.579 353.9 710.728 351.468 707.981C348.203 704.294 342.805 701.754 338.587 699.259C343.07 697.21 347.39 695.061 351.703 692.667Q354.64 686.66 357.879 680.81Z"
     id="path3203" />
  <path
     fill="#8C3287"
     d="M856.052 298.952C859.509 302.575 861.613 309.55 863.649 314.14Q870.732 317.299 877.721 320.662C872.898 323.136 868.254 325.188 863.1 326.906C860.637 331.352 858.674 336.19 856.541 340.809L856.113 340.862C853.458 339.374 850.562 330.162 849.249 326.985C844.688 324.585 840.006 322.511 835.486 320C840.018 318.201 844.526 316.417 848.923 314.302C851.716 309.55 853.681 303.954 856.052 298.952Z"
     id="path3205" />
  <path
     fill="#E26D26"
     d="M830.775 939.931L831.227 940.415L834.375 940.458L834.789 940.323L846.412 940.442L846.46 962.588C842.36 962.738 838.277 962.897 834.173 962.783L831.083 962.712C826.999 962.794 819.58 963.794 816.186 961.622C817.109 954.946 815.891 948.071 816.912 941.332L818.642 939.914L830.775 939.931Z"
     id="path3207" />
  <path
     fill="#D3484A"
     d="M831.227 940.415L834.375 940.458C834.299 947.897 834.146 955.344 834.173 962.783L831.083 962.712C831.689 955.398 831.248 947.766 831.227 940.415Z"
     id="path3209" />
  <path
     fill="#F4B767"
     d="M830.775 939.931L831.227 940.415C831.248 947.766 831.689 955.398 831.083 962.712C826.999 962.794 819.58 963.794 816.186 961.622C817.109 954.946 815.891 948.071 816.912 941.332L818.642 939.914L830.775 939.931Z"
     id="path3211" />
  <path
     fill="#FEFEFE"
     d="M577.908 172.281C581.37 175.659 583.93 184.801 585.779 189.421C590.794 191.625 595.59 194.426 600.409 197.029C595.504 199.705 590.143 201.878 585.058 204.217C583.04 208.84 581.114 215.33 577.978 219.214C575.559 213.732 572.647 208.454 569.877 203.144C564.301 201.123 559.3 197.818 554.311 194.677C559.507 192.588 564.6 190.796 570.146 189.909C573.139 184.176 575.522 178.284 577.908 172.281Z"
     id="path3213" />
  <path
     fill="#4A1277"
     d="M828.731 691.771C833.198 694.232 835.036 701.872 836.782 706.43C840.122 708.493 846.116 710.406 848.32 713.746C849.03 714.822 848.675 715.114 848.449 716.306C845.636 719.399 841.01 721.075 837.343 723.048C834.23 728.021 832.708 733.748 829.443 738.734C826.022 733.731 823.69 727.648 820.687 722.336C817.261 721.044 810.447 719.257 808.523 716.06C807.877 714.987 808.252 714.68 808.525 713.535C811.908 710.123 817.025 708.285 821.301 706.154C823.517 701.141 825.637 696.326 828.731 691.771Z"
     id="path3215" />
  <path
     fill="#F4B767"
     d="M548.671 845.13C541.658 843.972 535.281 841.726 529.836 837.016C524.093 832.047 519.287 823.579 519.035 815.868C518.951 813.284 519.316 811.901 521.089 810.024C528.804 806.818 537.76 819.333 545.039 820.112C545.576 819.465 546.115 818.807 546.696 818.199C547.765 817.081 548.962 816.44 550.525 816.497C556.557 816.715 561.575 823.574 565.253 827.724C561.736 833.521 554.183 841.154 548.671 845.13Z"
     id="path3217" />
  <path
     fill="#F4B767"
     d="M485.033 1004.14C485.313 1002.05 485.164 1000.27 486.901 998.799C487.608 998.2 488.458 997.708 489.242 997.214C489.945 995.379 489.36 993.741 488.943 991.892C489.709 990.233 490.038 989.612 491.792 988.934C492.832 988.532 493.977 988.291 495.06 988.023C496.237 985.882 496.632 984.568 498.857 983.319L501.087 984.564C502.597 983.743 503.361 982.626 504.375 981.266C506.882 981.009 508.014 983.844 509.741 981.664C511.205 979.816 511.295 978.648 513.545 977.472C516.472 977.767 517.86 978.761 519.705 980.997C521.987 983.762 526.321 991.699 529.131 993.239C529.924 993.674 531.711 993.85 532.632 994.035C534.475 994.405 535.797 995.029 536.886 996.639C538.488 999.009 536.186 1003.45 538.663 1004.35C539.157 1004.52 540.146 1004.47 540.633 1004.48L541.618 1005.42C542.976 1007.01 543.28 1008.05 543.632 1010.1C542.978 1012 542.827 1012.13 541.327 1013.3L538.055 1013.56C530.179 1013.5 490.896 1011.95 486.449 1014.05C486.382 1013.99 486.328 1013.91 486.247 1013.87C485.611 1013.57 484.89 1013.42 484.296 1013.02C482.074 1011.51 481.943 1007.97 481.49 1005.53C482.701 1005.13 483.857 1004.63 485.033 1004.14Z"
     id="path3219" />
  <path
     fill="#4A1277"
     d="M485.033 1004.14C486.141 1004.99 487.18 1005.51 488.578 1005.74C494.349 1006.66 534.811 1006.49 540.508 1005.72C540.959 1005.66 541.212 1005.55 541.618 1005.42C542.976 1007.01 543.28 1008.05 543.632 1010.1C542.978 1012 542.827 1012.13 541.327 1013.3L538.055 1013.56C530.179 1013.5 490.896 1011.95 486.449 1014.05C486.382 1013.99 486.328 1013.91 486.247 1013.87C485.611 1013.57 484.89 1013.42 484.296 1013.02C482.074 1011.51 481.943 1007.97 481.49 1005.53C482.701 1005.13 483.857 1004.63 485.033 1004.14Z"
     id="path3221" />
  <path
     fill="#43B1BE"
     d="M159.006 1050.62C160.619 1052.1 161.085 1052.48 161.148 1054.83C161.359 1062.74 160.239 1071.06 159.573 1078.94C155.95 1080.84 127.942 1080.96 123.113 1079.65C122.334 1079.44 122.363 1079.42 121.747 1079.13Q121.218 1079.35 120.671 1079.51Q120.125 1079.68 119.566 1079.8Q119.007 1079.92 118.44 1079.99Q117.873 1080.07 117.301 1080.09Q116.73 1080.11 116.159 1080.08Q115.588 1080.05 115.022 1079.97Q114.455 1079.89 113.898 1079.76Q113.341 1079.64 112.797 1079.46C109.521 1078.39 107.011 1075.78 105.586 1072.69C103.762 1068.75 103.604 1063.8 105.31 1059.8C111.735 1044.71 146.637 1056.5 158.577 1050.84C158.723 1050.77 158.863 1050.69 159.006 1050.62Z"
     id="path3223" />
  <path
     fill="#B8DEDE"
     d="M486.449 1014.05C490.896 1011.95 530.179 1013.5 538.055 1013.56C535.772 1023.05 532.69 1040.94 528.828 1049.01L527.219 1050.32C520.733 1051.33 501.124 1052.08 495.486 1049.79L494.493 1047.23C491.414 1036.26 488.308 1025.3 486.449 1014.05Z"
     id="path3225" />
  <path
     fill="#A94339"
     d="M304.68 881.728C307.753 887.175 313.027 900.13 319.148 902.044C319.763 902.236 320.378 902.299 321.012 902.379C321.303 902.416 321.593 902.464 321.885 902.496C322.068 902.517 322.253 902.525 322.437 902.539C314.669 913.262 309.562 928.935 311.67 942.254C312.183 945.498 313.271 948.882 315.118 951.621C312.572 951.462 310.018 951.302 307.483 951.009C296.484 949.738 291.136 945.401 284.481 936.902Q284.245 921.913 284.496 906.924C292.781 899.132 298.307 891.068 304.68 881.728Z"
     id="path3227" />
  <path
     fill="#0E8F82"
     d="M888.646 547.342C891.598 565.92 889.227 585.082 877.981 600.673C868.111 614.356 852.78 622.685 836.21 625.168Q834.609 625.401 832.999 625.556Q831.388 625.711 829.773 625.787Q828.157 625.864 826.539 625.862Q824.921 625.86 823.305 625.779Q821.689 625.699 820.079 625.54Q818.469 625.381 816.869 625.145Q815.269 624.908 813.682 624.594Q812.095 624.28 810.525 623.889Q808.955 623.498 807.406 623.032Q805.857 622.565 804.332 622.024Q802.808 621.483 801.311 620.869Q799.815 620.254 798.35 619.568Q796.885 618.882 795.455 618.125Q794.025 617.369 792.634 616.543Q791.242 615.718 789.893 614.827Q788.543 613.935 787.238 612.979C784.064 610.608 781.07 607.957 778.711 604.756C798.903 610.412 818.641 613.315 839.068 606.381C865.431 597.431 875.1 578.891 886.421 555.936C888.246 554.403 888.326 549.661 888.646 547.342Z"
     id="path3229" />
  <path
     fill="#F4B767"
     d="M383.979 853.289C389.293 850.067 423.417 852.524 430.119 853.979C428.374 857.581 426.094 858.741 422.459 860.002C413.884 862.976 402.854 863.303 393.804 863.224C380.186 891.307 345.037 939.592 315.118 951.621C313.271 948.882 312.183 945.498 311.67 942.254C309.562 928.935 314.669 913.262 322.437 902.539C339.87 884.831 360.952 872.056 382.632 860.278C382.746 857.846 383.358 855.626 383.979 853.289Z"
     id="path3231" />
  <path
     fill="#8C3287"
     d="M385.028 395.166C377.822 428.696 363.268 459.346 333.506 478.536C311.662 492.619 283.837 500.325 258.012 494.78C255.686 494.281 253.437 493.698 251.221 492.827C291.568 469.657 331.728 444.748 365.438 412.381C372.044 406.756 378.136 400.443 385.028 395.166Z"
     id="path3233" />
  <path
     fill="#43B1BE"
     d="M297.155 988.412Q325.46 988.514 353.764 988.232C353.775 991.023 353.294 994.65 354.652 997.139C359.486 999.66 362.699 1000.87 364.454 1006.3C366.065 1011.28 366.093 1017.17 363.569 1021.86C361.938 1024.88 359.224 1027.18 355.866 1028.07C355.252 1028.23 354.627 1028.33 353.999 1028.42C354.042 1035.31 354.211 1042.23 354.11 1049.12C353.263 1049.91 352.616 1050.17 351.494 1050.32C344.023 1051.31 308.44 1050.91 300.363 1050.02C299.081 1049.88 298.065 1049.38 297.033 1048.62Q296.872 1018.52 297.155 988.412Z"
     id="path3235" />
  <path
     fill="#00012F"
     d="M353.868 1001.94C354.785 1002.21 355.731 1002.44 356.605 1002.83C358.544 1003.69 359.702 1005.85 360.351 1007.78C361.876 1012.32 360.718 1017.14 358.781 1021.32C357.319 1022.43 356.921 1023 355.049 1023.11C352.128 1019.67 353.805 1006.6 353.868 1001.94Z"
     id="path3237" />
  <path
     fill="#FEFEFE"
     d="M320.54 1003.56C324.97 1003.63 329.495 1004.07 332.837 1007.35C335.605 1010.07 336.978 1013.65 337.073 1017.49C337.154 1020.78 336.025 1024.54 333.544 1026.83C331.711 1028.52 329.771 1029.21 327.344 1029.19C326.864 1029.5 326.378 1029.81 325.854 1030.05C323.478 1031.13 319.992 1030.78 317.644 1029.78C314.58 1028.47 312.204 1025.48 311.06 1022.41C309.649 1018.63 309.663 1014.43 311.398 1010.75C313.348 1006.61 316.491 1005.03 320.54 1003.56Z"
     id="path3239" />
  <path
     fill="#43B1BE"
     d="M450.886 535.289C467.76 517.353 490.108 505.794 515.027 505.039C537.221 504.366 560.478 511.953 576.688 527.379C579.315 529.879 581.837 532.575 584.255 535.278Q582.544 536.057 580.785 536.722C544.106 550.456 486.942 551.852 450.886 535.289Z"
     id="path3241" />
  <path
     fill="#2A1051"
     d="M206.452 765.561C204.261 763.895 201.928 762.78 200.011 760.752C197.333 757.921 194.846 754.179 193.554 750.486C190.583 741.991 189.522 720.982 189.828 711.725C190.079 704.14 191.713 696.772 197.539 691.485C202.586 686.904 209.543 684.787 216.169 683.872C228.028 682.236 240.564 684.368 252.498 684.841C264.794 685.328 277.097 685.008 289.394 685.572C287.293 696.137 283.747 703.517 275.523 710.483C273.708 712.021 271.103 713.254 269.616 715.074C269.451 715.275 269.296 715.484 269.136 715.689C258.935 715.426 236.716 713.178 228.041 716.1C224.003 720.424 229.603 738.935 227.106 744.493C226.369 746.134 225.09 746.586 223.339 746.451C221.912 746.341 220.71 745.608 219.938 744.44C216.761 739.632 220.174 732.059 215.201 728.278C212.163 727.916 209.432 729.632 207.097 731.424C205.326 732.784 203.509 734.65 203.24 736.975C202.074 747.028 222.119 752.911 210.806 763.073C209.633 764.127 208.138 764.897 206.758 765.646L206.452 765.561Z"
     id="path3243" />
  <path
     fill="#43B1BE"
     d="M763.063 551.613C763.951 546.843 765.09 542.293 766.89 537.775C773.217 521.892 785.843 510.205 801.464 503.584Q802.915 502.964 804.395 502.417Q805.876 501.871 807.382 501.4Q808.888 500.929 810.416 500.534Q811.944 500.139 813.49 499.822Q815.036 499.505 816.596 499.266Q818.156 499.027 819.726 498.867Q821.296 498.707 822.872 498.626Q824.448 498.545 826.026 498.544Q827.604 498.542 829.18 498.621Q830.757 498.699 832.327 498.856Q833.897 499.013 835.457 499.25Q837.018 499.486 838.564 499.801Q840.111 500.115 841.639 500.507Q843.168 500.899 844.675 501.368Q846.182 501.836 847.663 502.38Q849.145 502.924 850.597 503.542C867.428 510.607 879.081 522.547 886.035 539.348C872.845 534.764 856.845 530.721 843.553 537.163C829.46 543.994 823.81 562.3 805.183 556.307C791.47 551.896 780.752 542.588 765.798 550.032C764.844 550.507 763.942 551.013 763.063 551.613Z"
     id="path3245" />
  <path
     fill="#F4B767"
     d="M206.758 765.646C208.138 764.897 209.633 764.127 210.806 763.073C222.119 752.911 202.074 747.028 203.24 736.975C203.509 734.65 205.326 732.784 207.097 731.424C209.432 729.632 212.163 727.916 215.201 728.278C220.174 732.059 216.761 739.632 219.938 744.44C220.71 745.608 221.912 746.341 223.339 746.451C225.09 746.586 226.369 746.134 227.106 744.493C229.603 738.935 224.003 720.424 228.041 716.1C236.716 713.178 258.935 715.426 269.136 715.689C269.946 722.133 269.667 728.825 269.714 735.314C269.809 748.453 271.411 763.58 262.697 774.554C259.08 779.11 254.099 782.088 248.271 782.757C245.647 783.059 243.315 782.579 240.777 782.009L241.353 805.003L241.554 805.3C235.992 807.726 207.876 806.702 200.7 805.865C202.989 792.459 205.052 779.096 206.452 765.561L206.758 765.646Z"
     id="path3247" />
  <path
     fill="#D3484A"
     d="M208.73 768.98C211.318 768.976 214.249 768.689 216.788 769.147C224.416 774.438 231.586 779.778 240.777 782.009L241.353 805.003C241.1 803.82 240.869 802.522 240.074 801.558C237.853 798.867 234.134 796.453 231.432 794.193C222.583 786.791 214.368 779.185 208.73 768.98Z"
     id="path3249" />
  <path
     fill="#E26D26"
     d="M662.799 434.255C660.068 427.815 660.08 419.756 662.034 413.106C664.822 403.616 671.565 395.137 680.338 390.528C688.69 386.14 699.062 384.872 708.116 387.736C714.268 389.681 722.081 394.779 724.557 400.988C725.587 403.571 725.756 406.228 727.077 408.734C729.341 408.775 730.775 407.283 732.631 406.05C737.601 400.713 743.28 396.081 748.242 390.642C745.758 412.96 735.913 433.709 718.148 447.929Q716.732 449.069 715.262 450.138Q713.791 451.207 712.27 452.202Q710.749 453.197 709.18 454.116Q707.612 455.035 706 455.876Q704.388 456.717 702.737 457.477Q701.086 458.238 699.399 458.916Q697.712 459.594 695.994 460.189Q694.276 460.784 692.531 461.293Q690.786 461.802 689.018 462.225Q687.25 462.647 685.463 462.983Q683.676 463.318 681.875 463.565Q680.074 463.812 678.263 463.97Q676.452 464.128 674.635 464.196Q672.818 464.265 671 464.244Q669.182 464.223 667.368 464.113Q665.553 464.002 663.746 463.803C642.524 461.416 623.136 449.587 610.121 432.851C607.532 429.521 605.205 425.97 603.393 422.157C628.854 438.328 636.131 433.717 662.799 434.255Z"
     id="path3251" />
  <path
     fill="#C75318"
     d="M662.924 434.765C665.732 432.021 673.347 431.224 677.205 430.244C688.96 427.259 700.61 424.018 711.701 419.039C716.565 416.855 720.947 413.519 725.87 411.659L726.58 412.168C727.007 415.4 725.917 418.654 725.184 421.792C719.379 434.2 714.248 444.889 700.376 449.832C692.627 452.593 683.721 452.401 676.29 448.747C669.968 445.639 666.2 440.847 662.924 434.765Z"
     id="path3253" />
  <path
     fill="#2A1051"
     d="M435.092 623.298C444.476 626.729 455.234 628.336 465.1 629.788Q469.372 630.415 473.659 630.927Q477.946 631.44 482.245 631.838Q486.544 632.237 490.853 632.52Q495.161 632.804 499.475 632.973Q503.789 633.141 508.107 633.195Q512.424 633.249 516.741 633.188Q521.058 633.127 525.372 632.95Q529.686 632.774 533.994 632.483Q538.302 632.192 542.6 631.786Q546.899 631.38 551.185 630.86Q555.471 630.34 559.742 629.706Q564.013 629.072 568.265 628.324Q572.517 627.577 576.748 626.716Q580.979 625.855 585.186 624.882Q589.392 623.909 593.571 622.824Q597.75 621.74 601.899 620.544C594.393 643.532 579.956 661.653 558.229 672.723C537.827 683.118 512.392 684.967 490.635 677.805Q489.587 677.451 488.549 677.071Q487.51 676.691 486.481 676.285Q485.452 675.88 484.434 675.449Q483.415 675.018 482.408 674.562Q481.4 674.106 480.404 673.625Q479.408 673.144 478.425 672.639Q477.441 672.133 476.47 671.604Q475.499 671.074 474.542 670.52Q473.584 669.967 472.641 669.39Q471.697 668.812 470.769 668.212Q469.84 667.612 468.926 666.989Q468.013 666.365 467.115 665.72Q466.217 665.074 465.335 664.406Q464.454 663.739 463.589 663.05Q462.724 662.36 461.877 661.65Q461.029 660.939 460.2 660.208Q459.37 659.476 458.559 658.725Q457.748 657.973 456.956 657.202Q456.164 656.43 455.391 655.639Q454.618 654.848 453.865 654.038Q453.112 653.228 452.379 652.4Q451.647 651.572 450.935 650.726Q450.223 649.88 449.532 649.016Q448.841 648.152 448.172 647.272Q447.503 646.391 446.856 645.495Q446.209 644.598 445.584 643.686Q444.96 642.773 444.358 641.845Q443.756 640.918 443.177 639.975Q442.599 639.033 442.044 638.076Q441.489 637.12 440.958 636.15Q440.426 635.18 439.919 634.198Q439.412 633.215 438.93 632.22C437.482 629.305 436.179 626.368 435.092 623.298Z"
     id="path3255" />
  <path
     fill="#43B1BE"
     d="M763.063 551.613C763.942 551.013 764.844 550.507 765.798 550.032C780.752 542.588 791.47 551.896 805.183 556.307C823.81 562.3 829.46 543.994 843.553 537.163C856.845 530.721 872.845 534.764 886.035 539.348L888.646 547.342C888.326 549.661 888.246 554.403 886.421 555.936C875.1 578.891 865.431 597.431 839.068 606.381C818.641 613.315 798.903 610.412 778.711 604.756C768.312 594.841 763.596 579.502 762.22 565.616C762.163 560.872 762.543 556.317 763.063 551.613Z"
     id="path3257" />
  <path
     fill="#78E0C6"
     d="M763.063 551.613C763.942 551.013 764.844 550.507 765.798 550.032C780.752 542.588 791.47 551.896 805.183 556.307C823.81 562.3 829.46 543.994 843.553 537.163C856.845 530.721 872.845 534.764 886.035 539.348L888.646 547.342C888.326 549.661 888.246 554.403 886.421 555.936C874.76 552.771 862.234 548.908 850.901 555.284C835.279 564.072 828.917 582.581 805.981 576.664C793.739 573.506 785.6 564.028 771.969 564.148C768.557 564.179 765.502 565.36 762.22 565.616C762.163 560.872 762.543 556.317 763.063 551.613Z"
     id="path3259" />
  <path
     fill="#43B1BE"
     d="M383.979 853.289C378.101 853.413 356.771 855.106 353.273 852.383C351.513 844.173 350.467 766.658 352.752 761.446C359.871 758.498 428.527 758.485 435.65 761.253C437.05 767.045 437.534 849.893 436.416 852.188C435.878 853.293 435.059 853.298 433.969 853.527C432.808 853.771 431.146 853.558 430.119 853.979C423.417 852.524 389.293 850.067 383.979 853.289Z"
     id="path3261" />
  <path
     fill="#78E0C6"
     d="M356.417 763.006C367.93 762.386 424.004 761.18 432.186 763.815C432.506 764.323 432.808 764.751 432.903 765.361C433.841 771.414 434.386 845.345 433.089 849.331C432.94 849.79 432.118 850.623 431.8 851.047C406.504 851.429 379.578 853.009 354.481 850.089C354.184 839.336 353.002 769.047 354.969 764.603C355.169 764.15 356.053 763.407 356.417 763.006Z"
     id="path3263" />
  <path
     fill="#F4B767"
     d="M370.741 796.55C374.068 796.809 378.07 797.474 380.853 799.44C382.278 800.447 382.278 800.721 382.604 802.423C381.217 804.682 378.969 805.163 376.6 806.036C371.44 806.16 368.434 806.385 364.162 803.085C363.523 801.383 363.528 801.509 364.252 799.839C366.24 798.082 368.289 797.398 370.741 796.55Z"
     id="path3265" />
  <path
     fill="#F4B767"
     d="M413.322 797.455C415.628 795.396 417.758 793.08 420.781 792.184C422.219 792.489 422.81 792.395 423.625 793.757C424.872 795.842 424.97 802.226 424.234 804.578C423.68 806.35 422.952 807.944 422.486 809.787C422.323 809.971 421.545 810.039 421.293 810.087C419.735 808.569 418.027 806.816 416.161 805.694C413.688 804.208 410.355 804.194 408.633 801.758C409.718 799.472 411.27 798.843 413.322 797.455Z"
     id="path3267" />
  <path
     fill="#0E8F82"
     d="M151.104 967.194C170.132 971.584 189.798 975.047 209.345 975.839C220.705 976.299 237.82 974.204 248.156 976.698C256.755 979.829 262.837 980.809 271.792 978.433C273.932 977.866 276.7 976.488 278.875 976.427C280.282 976.388 282.465 977.655 283.738 978.242Q283.352 999.774 283.298 1021.31C283.306 1029.55 284.16 1038.55 283.023 1046.67C280.103 1049.3 276.295 1049.18 272.567 1049.02C271.388 1048.97 270.295 1048.73 269.19 1048.33C262.594 1049.46 249.307 1049.75 243.062 1047.69C237.32 1049.49 166.548 1049.18 162.194 1047.16C160.282 1048.07 157.449 1048.61 155.325 1048.34C152.947 1048.04 152.871 1047.98 151.463 1046.2C149.968 1043.66 151.183 975.57 151.104 967.194Z"
     id="path3269" />
  <path
     fill="#055860"
     d="M151.104 967.194C170.132 971.584 189.798 975.047 209.345 975.839C220.705 976.299 237.82 974.204 248.156 976.698C248.732 983.047 250.548 992.315 246.086 997.67C243.576 1000.68 239.203 1002.4 235.536 1003.48C226.602 1006.09 216.524 1006.63 207.28 1007.76C190.444 1009.81 173.622 1012.03 156.667 1012.79L151.627 1013C151.672 1023.82 152.609 1035.47 151.463 1046.2C149.968 1043.66 151.183 975.57 151.104 967.194Z"
     id="path3271" />
  <defs
     id="defs3278">
    <linearGradient
       id="gradient_1"
       gradientUnits="userSpaceOnUse"
       x1="710.69598"
       y1="658.11725"
       x2="671.8598"
       y2="778.57532">
      <stop
         offset="0"
         stop-color="#E49242"
         id="stop3273" />
      <stop
         offset="1"
         stop-color="#DF5C65"
         id="stop3275" />
    </linearGradient>
  </defs>
  <path
     fill="url(#gradient_1)"
     d="M657.983 694.371L657.184 693.734C651.935 689.514 649.6 685.114 648.894 678.393C647.861 668.558 651.372 657.061 657.766 649.515C660.269 646.559 663.649 643.735 667.64 643.283C668.09 643.232 668.289 643.261 668.77 643.278C670.735 649.669 669.909 653.297 676.883 656.978C694.202 666.12 715.944 652.472 738.703 669.468Q739.826 670.294 740.881 671.204Q741.937 672.115 742.918 673.104Q743.9 674.093 744.803 675.155Q745.705 676.218 746.522 677.347Q747.339 678.475 748.067 679.664Q748.794 680.853 749.427 682.095Q750.061 683.336 750.596 684.623Q751.131 685.91 751.565 687.234C756.474 702.194 751.869 719.829 744.818 733.344C740.41 741.795 734.332 750.306 727.335 756.797C710.828 764.81 706.71 783.031 686.187 786.057L685.756 785.779C687.693 782.63 686.712 775.237 686.667 771.55C683.235 771.684 679.991 771.592 676.574 771.236C672.897 770.114 669.48 768.45 666.745 765.699C655.012 753.9 658.474 723.818 658.489 708.147Q658.033 701.266 657.983 694.371Z"
     id="path3280" />
  <path
     fill="#F4B767"
     d="M658.524 694.917L659.465 695.174C672.979 698.789 698.349 690.897 706.446 704.374C710.433 711.011 710.667 720.03 711.555 727.577C714.276 724.045 716.856 719.938 721.675 719.307C723.73 719.037 725.84 719.424 727.486 720.727C729.729 722.501 730.803 725.253 730.973 728.048C731.24 732.416 729.421 736.452 726.495 739.596C723.203 743.134 719.251 744.273 714.716 745.428C712.824 753.975 708.375 760.444 700.971 765.236C693.266 770.224 685.531 771.256 676.574 771.236C672.897 770.114 669.48 768.45 666.745 765.699C655.012 753.9 658.474 723.818 658.489 708.147C658.576 703.731 658.649 699.334 658.524 694.917Z"
     id="path3282" />
  <path
     fill="#735AB5"
     d="M815.29 962.307C815.572 961.683 815.334 961.974 816.186 961.622C819.58 963.794 826.999 962.794 831.083 962.712L834.173 962.783C838.277 962.897 842.36 962.738 846.46 962.588L850.919 962.688C855.131 962.765 859.353 962.906 863.565 962.732C868.614 962.734 874.152 963.294 879.098 962.254C881.565 962.876 883.499 963.046 884.839 965.487C889.808 974.542 883.039 1045.02 886.625 1051.23C886.776 1051.3 886.924 1051.37 887.076 1051.43C897.533 1055.62 913.27 1046.37 919.895 1059.74C921.637 1063.25 921.888 1067.67 920.511 1071.35C919.289 1074.61 916.976 1077.33 913.772 1078.76C909.565 1080.64 871.381 1080.74 867.19 1079.01C865.977 1079.38 864.729 1079.69 863.459 1079.76C853.696 1080.29 763.518 1080.86 760.285 1079.76C759.868 1079.62 758.966 1078.63 758.583 1078.3L758.488 1070.09C763.079 1070.22 770.246 1071.16 774.312 1068.85Q774.527 1059.94 775.051 1051.04C778.69 1052.87 788.386 1052.96 792.299 1051.84C792.904 1051.66 793.218 1051.49 793.817 1051.22C792.874 1051.09 792.638 1051.02 791.862 1050.51C785.628 1046.45 781.677 1037.51 780.241 1030.49C779.469 1026.72 778.703 1019.8 780.801 1016.61C779.806 1015.69 779.106 1014.78 778.323 1013.69C778.44 1012.2 778.543 1012.22 779.589 1011.12C782.692 1009.85 785.909 1010.13 789.197 1010.18L788.397 1009.19C784.371 1009.27 780.353 1009.17 776.329 1009.07C776.461 1001.1 778.278 972.549 775.732 966.484C776.239 965.893 776.742 965.303 777.297 964.755C780.11 961.976 783.29 962.184 786.978 962.126L798.245 962.367L801.271 962.218L815.29 962.307Z"
     id="path3284" />
  <path
     fill="#00012F"
     d="M815.733 1010.12C820.169 1009.9 825.471 1008.92 829.189 1011.77C829.834 1013.63 829.905 1013.52 829.086 1015.29C824.32 1017.96 816.747 1016.32 811.388 1016.52C801.193 1016.43 790.992 1016.25 780.801 1016.61C779.806 1015.69 779.106 1014.78 778.323 1013.69C778.44 1012.2 778.543 1012.22 779.589 1011.12C782.692 1009.85 785.909 1010.13 789.197 1010.18L815.733 1010.12Z"
     id="path3286" />
  <path
     fill="#F4B767"
     d="M788.397 1009.19C788.396 1009.03 788.391 1008.86 788.396 1008.69C788.545 1003.43 789.217 1000.17 793.036 996.409C795.76 993.724 800.161 991.642 803.887 990.68C805.575 990.245 806.745 990.681 808.131 991.615C808.511 992.509 808.928 994.069 809.488 994.805C812.801 999.158 821.128 996.842 816.472 1008.35Q816.119 1009.24 815.733 1010.12L789.197 1010.18L788.397 1009.19Z"
     id="path3288" />
  <path
     fill="#F4B767"
     d="M780.801 1016.61C790.992 1016.25 801.193 1016.43 811.388 1016.52C816.454 1016.6 821.523 1016.72 826.589 1016.72C827.052 1026.58 827.765 1039.18 820.632 1047.04C819.086 1048.74 817.718 1050.14 815.437 1050.75C812.621 1053.34 806.696 1053.14 803.033 1052.96C799.923 1052.8 796.639 1052.64 793.817 1051.22C792.874 1051.09 792.638 1051.02 791.862 1050.51C785.628 1046.45 781.677 1037.51 780.241 1030.49C779.469 1026.72 778.703 1019.8 780.801 1016.61Z"
     id="path3290" />
  <path
     fill="#F4B767"
     d="M603.393 422.157C594.114 409.2 591.25 388.424 592.922 373.038Q593.028 372.021 593.159 371.006Q593.289 369.992 593.445 368.981Q593.6 367.97 593.78 366.963Q593.96 365.957 594.165 364.955Q594.37 363.952 594.599 362.956Q594.828 361.959 595.081 360.968Q595.334 359.977 595.612 358.993Q595.889 358.008 596.19 357.031Q596.492 356.053 596.817 355.084Q597.142 354.114 597.491 353.152Q597.84 352.191 598.212 351.238Q598.584 350.286 598.979 349.342Q599.374 348.399 599.793 347.465Q600.211 346.532 600.652 345.609Q601.093 344.686 601.556 343.774Q602.019 342.863 602.505 341.962Q602.99 341.062 603.497 340.174Q604.005 339.286 604.533 338.41Q605.062 337.535 605.612 336.672Q606.162 335.81 606.733 334.961Q607.304 334.112 607.896 333.278Q608.487 332.444 609.099 331.624Q609.71 330.804 610.342 329.999Q610.973 329.195 611.624 328.406Q612.275 327.617 612.946 326.844Q613.616 326.071 614.304 325.315Q614.993 324.559 615.7 323.819Q616.407 323.08 617.132 322.358Q617.857 321.637 618.599 320.933Q619.341 320.229 620.101 319.544Q620.86 318.858 621.635 318.191Q622.411 317.525 623.203 316.877C639.5 303.781 658.467 298.206 679.3 300.555C699.775 302.864 718.03 313.822 730.767 329.821C744.736 347.369 750.742 368.396 748.242 390.642C743.28 396.081 737.601 400.713 732.631 406.05C730.775 407.283 729.341 408.775 727.077 408.734C725.756 406.228 725.587 403.571 724.557 400.988C722.081 394.779 714.268 389.681 708.116 387.736C699.062 384.872 688.69 386.14 680.338 390.528C671.565 395.137 664.822 403.616 662.034 413.106C660.08 419.756 660.068 427.815 662.799 434.255C636.131 433.717 628.854 438.328 603.393 422.157Z"
     id="path3292" />
  <path
     fill="#E26D26"
     d="M621.195 403.78C622.162 404.08 623.134 404.387 624.037 404.853C626.237 405.988 626.859 407.462 627.474 409.658C627.214 412.242 626.137 413.341 624.397 415.114C622.487 415.035 620.239 414.821 618.821 413.387C617.714 412.267 617.293 411.189 617.395 409.582C617.552 407.11 619.53 405.374 621.195 403.78Z"
     id="path3294" />
  <path
     fill="#E26D26"
     d="M732.218 353.698C734.728 354.376 736.867 355.06 738.393 357.324C739.242 358.584 739.447 360.071 739.135 361.544C738.535 364.378 736.532 365.592 734.305 367.101C734.101 367.08 733.895 367.07 733.692 367.038C731.551 366.703 729.671 365.944 728.443 364.067C727.483 362.601 727.287 360.974 727.636 359.277C728.225 356.415 729.918 355.209 732.218 353.698Z"
     id="path3296" />
  <path
     fill="#E26D26"
     d="M634.097 317.224C635.282 317.133 636.493 317.035 637.68 317.11C640.324 317.276 642.947 318.679 644.508 320.829C645.7 322.472 646.122 324.595 645.805 326.587C645.254 330.054 643.072 331.764 640.483 333.771Q639.866 333.802 639.249 333.806C636.146 333.813 633.176 332.832 631.03 330.488C629.586 328.912 628.86 326.919 629 324.782C629.236 321.178 631.495 319.302 634.097 317.224Z"
     id="path3298" />
  <path
     fill="#E26D26"
     d="M619.028 363.648C620.3 363.617 621.591 363.59 622.859 363.72C625.109 363.95 627.437 365.348 628.77 367.167C630.195 369.111 630.421 371.587 629.911 373.895C629.044 377.815 626.522 379.664 623.388 381.73C622.086 381.723 620.585 381.776 619.315 381.48C616.911 380.921 614.54 379.45 613.19 377.355C612.008 375.519 611.733 373.329 612.192 371.212C613.043 367.286 615.851 365.569 619.028 363.648Z"
     id="path3300" />
  <path
     fill="#E26D26"
     d="M685.174 319.709C690.239 319.272 695.001 319.283 699.553 321.779Q699.996 322.022 700.426 322.288Q700.856 322.553 701.271 322.84Q701.687 323.127 702.088 323.435Q702.489 323.743 702.873 324.071Q703.257 324.399 703.625 324.746Q703.992 325.093 704.341 325.458Q704.69 325.823 705.02 326.206Q705.35 326.588 705.66 326.987Q705.97 327.386 706.26 327.8Q706.549 328.214 706.817 328.642Q707.085 329.07 707.331 329.512Q707.577 329.953 707.8 330.406Q708.023 330.86 708.223 331.324Q708.422 331.788 708.598 332.261Q708.774 332.735 708.925 333.217Q709.076 333.699 709.203 334.188C710.84 340.26 710.264 347.096 706.999 352.545C703.673 358.094 698.934 360.477 692.871 362.015C688.634 362.176 684.776 362.035 680.857 360.237Q680.365 360.01 679.886 359.757Q679.406 359.505 678.94 359.229Q678.474 358.953 678.023 358.653Q677.572 358.354 677.136 358.031Q676.7 357.709 676.282 357.365Q675.863 357.021 675.463 356.657Q675.062 356.292 674.681 355.907Q674.299 355.522 673.938 355.119Q673.577 354.715 673.236 354.294Q672.896 353.872 672.578 353.434Q672.259 352.996 671.964 352.542Q671.668 352.088 671.396 351.62Q671.124 351.152 670.876 350.67Q670.628 350.188 670.404 349.695Q670.181 349.201 669.984 348.697Q669.786 348.193 669.614 347.679C667.743 342.229 667.939 336.213 670.539 331.03C673.68 324.767 678.709 321.767 685.174 319.709Z"
     id="path3302" />
  <path
     fill="#0E8F82"
     d="M450.886 535.289C486.942 551.852 544.106 550.456 580.785 536.722Q582.544 536.057 584.255 535.278C589.463 541.713 595.272 548.916 598.179 556.739C600.736 562.93 602.63 568.972 604.259 575.473C605.579 583.99 606.198 591.877 605.484 600.483C605.256 604.859 605.002 609.973 603.619 614.135L601.899 620.544Q597.75 621.74 593.571 622.824Q589.392 623.909 585.186 624.882Q580.979 625.855 576.748 626.716Q572.517 627.577 568.265 628.324Q564.013 629.072 559.742 629.706Q555.471 630.34 551.185 630.86Q546.899 631.38 542.6 631.786Q538.302 632.192 533.994 632.483Q529.686 632.774 525.372 632.95Q521.058 633.127 516.741 633.188Q512.424 633.249 508.107 633.195Q503.789 633.141 499.475 632.973Q495.161 632.804 490.853 632.52Q486.544 632.237 482.245 631.838Q477.946 631.44 473.659 630.927Q469.372 630.415 465.1 629.788C455.234 628.336 444.476 626.729 435.092 623.298L432.334 614.24C431.344 610.24 430.727 606.083 429.958 602.031C429.033 593.477 429.851 585.215 430.817 576.712C432.344 569.811 434.139 563.257 436.96 556.766C440.29 548.846 445.307 541.768 450.886 535.289Z"
     id="path3304" />
  <path
     fill="#43B1BE"
     d="M436.96 556.766C488.277 571.572 547.042 573.681 598.179 556.739C600.736 562.93 602.63 568.972 604.259 575.473C551.146 592.129 484.412 591.074 430.817 576.712C432.344 569.811 434.139 563.257 436.96 556.766Z"
     id="path3306" />
  <path
     fill="#0E8F82"
     d="M450.886 535.289C486.942 551.852 544.106 550.456 580.785 536.722Q582.544 536.057 584.255 535.278C589.463 541.713 595.272 548.916 598.179 556.739C547.042 573.681 488.277 571.572 436.96 556.766C440.29 548.846 445.307 541.768 450.886 535.289Z"
     id="path3308" />
  <path
     fill="#055860"
     d="M605.484 600.483C605.256 604.859 605.002 609.973 603.619 614.135L601.899 620.544Q597.75 621.74 593.571 622.824Q589.392 623.909 585.186 624.882Q580.979 625.855 576.748 626.716Q572.517 627.577 568.265 628.324Q564.013 629.072 559.742 629.706Q555.471 630.34 551.185 630.86Q546.899 631.38 542.6 631.786Q538.302 632.192 533.994 632.483Q529.686 632.774 525.372 632.95Q521.058 633.127 516.741 633.188Q512.424 633.249 508.107 633.195Q503.789 633.141 499.475 632.973Q495.161 632.804 490.853 632.52Q486.544 632.237 482.245 631.838Q477.946 631.44 473.659 630.927Q469.372 630.415 465.1 629.788C455.234 628.336 444.476 626.729 435.092 623.298L432.334 614.24C431.344 610.24 430.727 606.083 429.958 602.031C441.932 602.935 456.054 607.13 468.895 608.429Q477.442 609.249 486.014 609.74Q494.586 610.231 503.171 610.392Q511.755 610.553 520.34 610.384Q528.924 610.215 537.496 609.717Q546.067 609.218 554.613 608.39Q563.159 607.563 571.667 606.407Q580.175 605.252 588.633 603.77Q597.09 602.288 605.484 600.483Z"
     id="path3310" />
  <path
     fill="#0E8F82"
     d="M432.334 614.24C470.96 622.694 512.464 624.615 551.883 621.612C563.736 620.709 575.863 619.087 587.53 616.869C591.391 616.135 600.225 613.118 603.619 614.135L601.899 620.544Q597.75 621.74 593.571 622.824Q589.392 623.909 585.186 624.882Q580.979 625.855 576.748 626.716Q572.517 627.577 568.265 628.324Q564.013 629.072 559.742 629.706Q555.471 630.34 551.185 630.86Q546.899 631.38 542.6 631.786Q538.302 632.192 533.994 632.483Q529.686 632.774 525.372 632.95Q521.058 633.127 516.741 633.188Q512.424 633.249 508.107 633.195Q503.789 633.141 499.475 632.973Q495.161 632.804 490.853 632.52Q486.544 632.237 482.245 631.838Q477.946 631.44 473.659 630.927Q469.372 630.415 465.1 629.788C455.234 628.336 444.476 626.729 435.092 623.298L432.334 614.24Z"
     id="path3312" />
  <path
     fill="#2A1051"
     d="M162.194 1047.16C166.548 1049.18 237.32 1049.49 243.062 1047.69C240.187 1062.77 216.837 1162.9 218.143 1167.55C214.632 1172.83 212.645 1190.05 211.054 1197.34Q200.543 1244.09 188.531 1290.48C188.214 1291.68 188.197 1292.61 186.758 1292.93C186.291 1292.83 185.779 1292.66 185.359 1292.42C179.999 1289.42 173.864 1281.21 169.728 1276.61C141.748 1245.45 116.879 1212.43 96.8518 1175.56C93.3857 1169.18 88.7219 1161.73 87.0897 1154.63C92.3258 1158.99 96.4508 1171.99 100.109 1178.54C106.827 1190.56 139.879 1244.56 148.086 1247.85C148.001 1241.34 149.096 1234.68 149.656 1228.18L152.389 1192.55Q156.298 1136.31 159.203 1080.01C158.068 1080.63 157.264 1080.9 155.969 1080.96C150.727 1081.22 127.089 1082.03 123.507 1080.72C123.072 1080.56 122.142 1079.49 121.747 1079.13C122.363 1079.42 122.334 1079.44 123.113 1079.65C127.942 1080.96 155.95 1080.84 159.573 1078.94C160.239 1071.06 161.359 1062.74 161.148 1054.83C161.085 1052.48 160.619 1052.1 159.006 1050.62C160.116 1050.92 160.635 1051.03 161.74 1050.67L162.194 1047.16Z"
     id="path3314" />
  <path
     fill="#0E8F82"
     d="M241.554 805.3C253.313 805.515 263.715 810.413 271.9 818.828C276.962 824.034 280.551 830.072 283.683 836.572C291.858 850.738 297.732 866.854 304.68 881.728C298.307 891.068 292.781 899.132 284.496 906.924Q284.245 921.913 284.481 936.902C284.412 946.037 283.253 956.868 284.888 965.802L282.8 968.716C283.972 972.799 285.674 973.959 283.738 978.242C282.465 977.655 280.282 976.388 278.875 976.427C276.7 976.488 273.932 977.866 271.792 978.433C262.837 980.809 256.755 979.829 248.156 976.698C237.82 974.204 220.705 976.299 209.345 975.839C189.798 975.047 170.132 971.584 151.104 967.194C142.457 964.303 128.385 962.957 123.403 954.356C115.636 940.946 128.855 904.559 132.833 890.123C132.339 889.55 131.851 889.009 131.495 888.335C128.967 883.553 135.829 868.505 137.615 863.618C141.153 853.939 146.092 835.28 153.344 828.614C157.053 825.204 161.554 823.548 166.038 821.465Q167.382 819.415 169.014 817.587Q170.647 815.76 172.533 814.194C180.281 807.888 190.799 804.893 200.7 805.865C207.876 806.702 235.992 807.726 241.554 805.3Z"
     id="path3316" />
  <path
     fill="#055860"
     d="M283.683 836.572C291.858 850.738 297.732 866.854 304.68 881.728C298.307 891.068 292.781 899.132 284.496 906.924C284.297 883.488 284.402 859.996 283.683 836.572Z"
     id="path3318" />
  <path
     fill="#43B1BE"
     d="M166.038 821.465C175.011 820.924 184.622 823.032 191.544 829.051Q192.076 829.516 192.584 830.007Q193.093 830.498 193.577 831.014Q194.06 831.529 194.518 832.068Q194.976 832.606 195.407 833.166Q195.838 833.726 196.24 834.307Q196.643 834.888 197.017 835.488Q197.391 836.087 197.735 836.705Q198.079 837.322 198.392 837.956Q198.705 838.589 198.987 839.237Q199.269 839.886 199.518 840.547Q199.768 841.208 199.985 841.881Q200.201 842.553 200.385 843.236Q200.569 843.918 200.718 844.609Q200.868 845.3 200.984 845.997Q201.1 846.694 201.181 847.396Q201.262 848.098 201.309 848.803C201.534 852.457 201.028 855.921 200.068 859.441C198.212 866.241 184.35 903.265 180.933 907.23C180.137 908.154 179.206 908.656 177.943 908.63C176.268 908.595 174.405 907.88 173.003 906.991C169.209 904.45 139.079 892.655 132.833 890.123C132.339 889.55 131.851 889.009 131.495 888.335C128.967 883.553 135.829 868.505 137.615 863.618C141.153 853.939 146.092 835.28 153.344 828.614C157.053 825.204 161.554 823.548 166.038 821.465Z"
     id="path3320" />
  <path
     fill="#F4B767"
     d="M132.833 890.123C139.079 892.655 169.209 904.45 173.003 906.991C168.816 916.047 163.996 924.618 159.498 933.495C189.057 938.449 216.622 953.617 245.749 960.99C259.231 955.774 268.101 958.065 281.051 963.78C282.398 964.375 283.645 965.009 284.888 965.802L282.8 968.716C283.972 972.799 285.674 973.959 283.738 978.242C282.465 977.655 280.282 976.388 278.875 976.427C276.7 976.488 273.932 977.866 271.792 978.433C262.837 980.809 256.755 979.829 248.156 976.698C237.82 974.204 220.705 976.299 209.345 975.839C189.798 975.047 170.132 971.584 151.104 967.194C142.457 964.303 128.385 962.957 123.403 954.356C115.636 940.946 128.855 904.559 132.833 890.123Z"
     id="path3322" />
  <path
     fill="#735AB5"
     d="M758.583 1078.3C758.966 1078.63 759.868 1079.62 760.285 1079.76C763.518 1080.86 853.696 1080.29 863.459 1079.76C864.729 1079.69 865.977 1079.38 867.19 1079.01C865.688 1089.15 869.19 1109.11 866.595 1117.26C866.594 1131.29 865.341 1258.83 867.083 1261.97L867.826 1262.1C861.485 1278.02 783.403 1345.24 766.857 1352.4C766.24 1352.67 765.717 1352.61 765.067 1352.58C764.496 1350.19 763.302 1349.04 761.585 1347.43C760.632 1346.53 760.699 1345.72 760.434 1344.47C762.026 1321.81 760.617 1296.14 760.539 1273.23L759.039 1114.99C756.995 1109.31 758.489 1085.58 758.583 1078.3Z"
     id="path3324" />
  <path
     fill="#4A1277"
     d="M758.583 1078.3C758.966 1078.63 759.868 1079.62 760.285 1079.76C763.518 1080.86 853.696 1080.29 863.459 1079.76C864.729 1079.69 865.977 1079.38 867.19 1079.01C865.688 1089.15 869.19 1109.11 866.595 1117.26C866.419 1116.18 866.195 1115.11 865.992 1114.04C860.012 1112.12 770.372 1113.03 759.946 1113.85L759.039 1114.99C756.995 1109.31 758.489 1085.58 758.583 1078.3Z"
     id="path3326" />
  <path
     fill="#735AB5"
     d="M383.33 1049.71C382.92 1049.2 382.52 1048.69 382.15 1048.16C380.651 1045.98 379.81 1043.91 379.623 1041.26C378.985 1032.29 379.502 1022.92 379.543 1013.91L379.759 961.606L379.764 920.152C379.767 912.517 379.031 903.733 380.496 896.258C381.2 892.664 384.385 888.539 387.486 886.628C390.478 884.784 394.221 884.056 397.676 883.744C404.833 883.1 464.24 883.166 468.221 884.155C474.473 885.708 477.35 889.371 480.468 894.63C482.276 931.408 480.524 968.794 480.73 1005.65L481.49 1005.53C481.943 1007.97 482.074 1011.51 484.296 1013.02C484.89 1013.42 485.611 1013.57 486.247 1013.87C486.328 1013.91 486.382 1013.99 486.449 1014.05C488.308 1025.3 491.414 1036.26 494.493 1047.23L495.486 1049.79C501.124 1052.08 520.733 1051.33 527.219 1050.32L528.828 1049.01C529.39 1049.42 530.226 1050.22 530.84 1050.47C533.443 1051.5 550.307 1051.21 553.969 1050.48C554.944 1050.29 555.743 1049.87 556.556 1049.32C555.595 1041.88 552.713 1034.64 551.53 1027.15C554.698 1028.31 579.763 1029.06 582.851 1027.9C583.39 1027.7 583.692 1027.45 584.183 1027.12L583.624 1031.69C584.227 1032.33 584.15 1032.48 585.068 1032.6C584.216 1033.68 583.057 1034.78 582.94 1036.2Q581.521 1041.76 580.438 1047.39L580.002 1049.2C580.956 1049.96 581.923 1050.47 583.153 1050.62C591.423 1051.59 600.699 1050.79 609.058 1050.76C619.238 1050.72 630.06 1051.39 640.173 1050.43C641.304 1050.32 642.228 1049.99 643.27 1049.56L643.159 1069.25C643.295 1069.33 643.429 1069.41 643.567 1069.48C645.177 1070.31 646.246 1070.38 648.033 1070.37C649.018 1070.36 649.877 1070.49 650.843 1070.66C652.231 1072.1 652.271 1073.37 652.51 1075.3L652.512 1078.95L650.989 1080.24C643.599 1081.68 634.608 1080.47 627.048 1080.48L569.7 1080.56L356.05 1080.67C345.379 1080.68 273.877 1082.22 269.166 1079.44C269.345 1075.83 269.238 1072.21 269.178 1068.6C269.261 1062.22 268.97 1055.51 269.957 1049.22C276.045 1050.58 291.665 1051.76 297.033 1048.62C298.065 1049.38 299.081 1049.88 300.363 1050.02C308.44 1050.91 344.023 1051.31 351.494 1050.32C352.616 1050.17 353.263 1049.91 354.11 1049.12C358.255 1051.68 376.698 1051.46 381.924 1050.21C382.347 1050.11 382.955 1049.86 383.33 1049.71Z"
     id="path3328" />
  <path
     fill="#00012F"
     d="M480.73 1005.65L481.49 1005.53C481.943 1007.97 482.074 1011.51 484.296 1013.02C484.89 1013.42 485.611 1013.57 486.247 1013.87C486.328 1013.91 486.382 1013.99 486.449 1014.05C488.308 1025.3 491.414 1036.26 494.493 1047.23L494.395 1049.1C489.993 1051.64 482.151 1050.25 477.156 1049.9C482.781 1041.55 480.312 1016.63 480.73 1005.65Z"
     id="path3330" />
  <path
     fill="#4A1277"
     d="M386.254 898.029C387.498 896.454 388.732 894.751 390.16 893.34C392.1 891.423 394.445 890.594 397.089 890.172C405.926 888.761 415.948 889.722 424.927 889.828Q446.444 890.19 467.96 889.823C470.646 892.232 472.618 894.618 474.643 897.6C475.021 906.883 476.229 961.364 474.211 966.834C474.081 970.326 473.854 973.822 474.222 977.306C475.154 979.795 475.397 1035.34 474.741 1039.89C474.6 1040.87 474.486 1042.63 473.581 1043.17C468.282 1046.39 399.74 1046.36 390.088 1044.7C387.942 1043.3 387.114 1041.36 385.947 1039.17C384.471 1012.86 385.662 985.818 386.053 959.449C386.357 938.977 385.87 918.496 386.254 898.029Z"
     id="path3332" />
  <path
     fill="#B8DEDE"
     d="M459.521 966.836L474.211 966.834C474.081 970.326 473.854 973.822 474.222 977.306L459.58 977.308L459.521 966.836Z"
     id="path3334" />
  <path
     fill="#B8DEDE"
     d="M390.38 966.748L445.97 966.792L446.091 977.401L390.439 977.262L390.38 966.748Z"
     id="path3336" />
  <path
     fill="#4A1277"
     d="M686.187 786.057C706.71 783.031 710.828 764.81 727.335 756.797C728.765 761.188 730.093 765.559 732.252 769.662C735.246 774.954 738.118 781.029 741.872 785.792C756.891 796.665 769.44 831.997 772.159 849.941C774.017 862.202 773.494 875.066 773.427 887.437L773.216 938.659C773.249 946.207 772.393 955.712 773.877 963.053C774.202 964.663 774.529 965.428 775.732 966.484C778.278 972.549 776.461 1001.1 776.329 1009.07C780.353 1009.17 784.371 1009.27 788.397 1009.19L789.197 1010.18C785.909 1010.13 782.692 1009.85 779.589 1011.12C778.543 1012.22 778.44 1012.2 778.323 1013.69C779.106 1014.78 779.806 1015.69 780.801 1016.61C778.703 1019.8 779.469 1026.72 780.241 1030.49C781.677 1037.51 785.628 1046.45 791.862 1050.51C792.638 1051.02 792.874 1051.09 793.817 1051.22C793.218 1051.49 792.904 1051.66 792.299 1051.84C788.386 1052.96 778.69 1052.87 775.051 1051.04Q774.527 1059.94 774.312 1068.85C770.246 1071.16 763.079 1070.22 758.488 1070.09C750.056 1072.49 679.625 1072.56 674.355 1070.26C667.954 1072.93 658.181 1068.58 652.87 1072.49L652.51 1075.3C652.271 1073.37 652.231 1072.1 650.843 1070.66C649.877 1070.49 649.018 1070.36 648.033 1070.37C646.246 1070.38 645.177 1070.31 643.567 1069.48C643.429 1069.41 643.295 1069.33 643.159 1069.25L643.27 1049.56C642.228 1049.99 641.304 1050.32 640.173 1050.43C630.06 1051.39 619.238 1050.72 609.058 1050.76C600.699 1050.79 591.423 1051.59 583.153 1050.62C581.923 1050.47 580.956 1049.96 580.002 1049.2L580.438 1047.39C580.925 1048.57 581.304 1049.22 582.231 1050.1C591.025 1050.15 637.985 1051.6 642.98 1048.66Q642.789 1008.56 643.012 968.466C643.134 958.023 642.971 947.553 642.941 937.108C634.155 933.705 626.192 928.977 618.486 923.6C601.4 911.677 552.548 870.281 542.756 852.708C544.472 849.947 546.547 847.578 548.671 845.13C554.183 841.154 561.736 833.521 565.253 827.724C580.948 838.848 631.928 884.565 646.203 887.029L647.284 886.567Q647.384 882.78 647.714 879.006C648.53 870.028 650.159 861.059 651.755 852.189C656.19 827.545 662.246 806.338 682.358 789.533C683.368 788.163 684.567 786.991 685.756 785.779L686.187 786.057Z"
     id="path3338" />
  <path
     fill="#8C3287"
     d="M776.329 1009.07C780.353 1009.17 784.371 1009.27 788.397 1009.19L789.197 1010.18C785.909 1010.13 782.692 1009.85 779.589 1011.12C778.543 1012.22 778.44 1012.2 778.323 1013.69C779.106 1014.78 779.806 1015.69 780.801 1016.61C778.703 1019.8 779.469 1026.72 780.241 1030.49C781.677 1037.51 785.628 1046.45 791.862 1050.51C792.638 1051.02 792.874 1051.09 793.817 1051.22C793.218 1051.49 792.904 1051.66 792.299 1051.84C788.386 1052.96 778.69 1052.87 775.051 1051.04C774.377 1037.35 775.748 1022.81 776.329 1009.07Z"
     id="path3340" />
  <path
     fill="#FEFEFE"
     d="M686.187 786.057C706.71 783.031 710.828 764.81 727.335 756.797C728.765 761.188 730.093 765.559 732.252 769.662C735.246 774.954 738.118 781.029 741.872 785.792C728.236 798.839 711.241 811.229 694.795 820.494L694.713 821.334C690.574 827.559 684.637 838.151 677.7 841.156C676.587 841.056 676.274 841.308 675.519 840.377C673.701 838.133 674.24 831.558 674.721 828.842C674.933 827.644 675.216 826.228 675.817 825.176C678.593 813.461 679.491 801.3 682.358 789.533C683.368 788.163 684.567 786.991 685.756 785.779L686.187 786.057Z"
     id="path3342" />
  <path
     fill="#735AB5"
     d="M675.817 825.176C680.661 819.39 687.098 804.801 691.213 797.713C692.143 805.319 693.604 812.919 694.795 820.494L694.713 821.334C690.574 827.559 684.637 838.151 677.7 841.156C676.587 841.056 676.274 841.308 675.519 840.377C673.701 838.133 674.24 831.558 674.721 828.842C674.933 827.644 675.216 826.228 675.817 825.176Z"
     id="path3344" />
  <path
     fill="#F4B767"
     d="M686.187 786.057C706.71 783.031 710.828 764.81 727.335 756.797C728.765 761.188 730.093 765.559 732.252 769.662C729.79 776.888 717.181 782.785 710.5 786.083C704.67 788.961 695.462 794.129 688.95 793.172C687.057 791.476 686.36 788.545 686.187 786.057Z"
     id="path3346" />
  <path
     fill="#2A1051"
     d="M730.497 862.435C733.339 878.45 713.698 912.387 704.52 925.531C690.566 945.513 673.083 963.097 648.166 967.738Q645.602 968.195 643.012 968.466C643.134 958.023 642.971 947.553 642.941 937.108C647.774 938.193 652.803 938.861 657.639 937.465C670.768 933.674 722.881 876.009 730.497 862.435Z"
     id="path3348" />
  <path
     fill="#735AB5"
     d="M703.521 819.176C711.678 818.872 718.594 818.787 724.965 824.741C730.845 830.236 733.791 838.994 733.942 846.896C734.048 852.44 732.838 857.426 730.497 862.435C722.881 876.009 670.768 933.674 657.639 937.465C652.803 938.861 647.774 938.193 642.941 937.108C634.155 933.705 626.192 928.977 618.486 923.6C601.4 911.677 552.548 870.281 542.756 852.708C544.472 849.947 546.547 847.578 548.671 845.13C554.183 841.154 561.736 833.521 565.253 827.724C580.948 838.848 631.928 884.565 646.203 887.029L647.284 886.567C663.152 865.961 677.963 843.496 695.989 824.715C698.42 822.636 700.768 820.809 703.521 819.176Z"
     id="path3350" />
  <path
     fill="#735AB5"
     d="M243.062 1047.69C249.307 1049.75 262.594 1049.46 269.19 1048.33L269.957 1049.22C268.97 1055.51 269.261 1062.22 269.178 1068.6C269.238 1072.21 269.345 1075.83 269.166 1079.44C273.877 1082.22 345.379 1080.68 356.05 1080.67L569.7 1080.56L627.048 1080.48C634.608 1080.47 643.599 1081.68 650.989 1080.24L652.512 1078.95L652.51 1075.3L652.87 1072.49C658.181 1068.58 667.954 1072.93 674.355 1070.26C679.625 1072.56 750.056 1072.49 758.488 1070.09L758.583 1078.3C758.489 1085.58 756.995 1109.31 759.039 1114.99L760.539 1273.23C760.617 1296.14 762.026 1321.81 760.434 1344.47C760.699 1345.72 760.632 1346.53 761.585 1347.43C763.302 1349.04 764.496 1350.19 765.067 1352.58C762.779 1355.76 736.496 1371.99 732.635 1372.5C732.284 1372.55 731.749 1372.47 731.429 1372.44C727.869 1377.28 717.488 1381.35 712.083 1384Q704.175 1387.83 696.13 1391.35Q688.084 1394.88 679.911 1398.1Q671.738 1401.32 663.45 1404.23Q655.162 1407.14 646.771 1409.74Q638.379 1412.34 629.896 1414.62Q621.412 1416.9 612.849 1418.86Q604.286 1420.82 595.655 1422.46Q587.024 1424.1 578.338 1425.41C495.12 1437.98 405.826 1426.15 329.359 1390.61C319.45 1386.01 307.145 1381.67 298.197 1375.47C297.374 1374.91 296.802 1374.22 296.244 1373.39C297.518 1372.97 297.91 1372.17 298.756 1371.17C299.55 1359.95 267.501 1353.43 262.474 1345.43C259.669 1347.47 254.554 1346.02 251.193 1345.58C250.638 1345.56 250.303 1345.57 249.786 1345.45C247.443 1344.91 245.863 1342.58 244.635 1340.7C244.018 1340.67 243.488 1340.68 242.92 1340.39C234.964 1336.35 189.975 1300.46 186.758 1292.93C188.197 1292.61 188.214 1291.68 188.531 1290.48Q200.543 1244.09 211.054 1197.34C212.645 1190.05 214.632 1172.83 218.143 1167.55C216.837 1162.9 240.187 1062.77 243.062 1047.69Z"
     id="path3352" />
  <path
     fill="#4A1277"
     d="M743.433 1346.76C743.757 1346.93 744.235 1347.2 744.605 1347.32C748.305 1348.51 756.034 1348.44 759.701 1346.92L760.434 1344.47C760.699 1345.72 760.632 1346.53 761.585 1347.43C763.302 1349.04 764.496 1350.19 765.067 1352.58C762.779 1355.76 736.496 1371.99 732.635 1372.5C732.284 1372.55 731.749 1372.47 731.429 1372.44C730.815 1372.68 730.197 1372.86 729.557 1373.03C724.468 1374.34 704.283 1375.83 700.037 1372.75C699.048 1372.03 699.285 1371.61 699.12 1370.48C703.994 1361.72 732.766 1352.94 742.261 1349.42L743.433 1346.76Z"
     id="path3354" />
  <path
     fill="#4A1277"
     d="M673.743 1349.9C676.756 1351.05 690.007 1352.04 692.556 1350.57C692.749 1350.46 692.9 1350.29 693.072 1350.15C692.96 1358.09 693.62 1366.17 693.978 1374.11C693.495 1374.4 693.043 1374.7 692.513 1374.89C688.321 1376.37 637.604 1376.01 630.15 1375.4C628.76 1375.28 627.616 1374.87 626.399 1374.19C629.879 1373.22 636.224 1365.88 640.367 1363.72C647.32 1360.11 672.125 1354.71 675.107 1351.67L673.743 1349.9Z"
     id="path3356" />
  <defs
     id="defs3363">
    <linearGradient
       id="gradient_2"
       gradientUnits="userSpaceOnUse"
       x1="400.4278"
       y1="1187.9341"
       x2="393.90143"
       y2="1278.9153">
      <stop
         offset="0"
         stop-color="#511879"
         id="stop3358" />
      <stop
         offset="1"
         stop-color="#664F9E"
         id="stop3360" />
    </linearGradient>
  </defs>
  <path
     fill="url(#gradient_2)"
     d="M395.244 1186.53C398.505 1187.81 403.022 1187.43 406.555 1188.39C413.003 1190.15 418.144 1196.59 421.204 1202.21C427.978 1214.65 428.238 1242.07 424.291 1255.43C421.913 1263.48 416.866 1272.7 409.201 1276.78C406.634 1278.15 403.141 1279.89 400.219 1279.01C397.434 1280.37 394.159 1280.18 391.163 1279.65C384.798 1278.53 380.482 1273.86 377.049 1268.72C369.043 1256.74 368.661 1244.87 368.762 1230.99C368.8 1225.8 368.734 1220.43 369.821 1215.34C373.738 1197.01 380.855 1195.77 394.754 1186.85L395.244 1186.53Z"
     id="path3365" />
  <defs
     id="defs3372">
    <linearGradient
       id="gradient_3"
       gradientUnits="userSpaceOnUse"
       x1="600.29669"
       y1="1190.4767"
       x2="588.16791"
       y2="1278.7533">
      <stop
         offset="0"
         stop-color="#581C80"
         id="stop3367" />
      <stop
         offset="1"
         stop-color="#64519C"
         id="stop3369" />
    </linearGradient>
  </defs>
  <path
     fill="url(#gradient_3)"
     d="M591.466 1188.16C593.149 1189.02 595.457 1188.95 597.332 1189.37C606.363 1191.39 612.255 1195.57 617.126 1203.48C625.076 1216.38 625.842 1241.7 622.138 1256.21C620.216 1263.73 615.776 1273.36 608.698 1277.31C605.51 1279.09 602.479 1279.91 599.025 1278.91C598.454 1279.28 598.141 1279.54 597.536 1279.79C594.382 1281.09 587.757 1280.45 584.663 1279.2C577.559 1276.34 571.847 1268.79 568.9 1261.96C563.38 1249.18 563.826 1220.69 569.023 1207.85C573.845 1195.94 580.351 1192.92 591.466 1188.16Z"
     id="path3374" />
  <path
     fill="#4A1277"
     d="M490.131 1145.36C492.737 1146.23 495.7 1145.88 498.419 1146.27C509.194 1147.82 517.821 1153.18 525.261 1160.99C544.957 1181.67 542.005 1211.85 541.156 1238.15C539.524 1235.65 541.695 1222.31 540.454 1217.81C530.498 1211.86 512.609 1214.37 501.499 1211.12C493.041 1210.91 460.719 1208.2 455.238 1211.03C453.634 1211.86 452.743 1212.04 450.929 1212.01C450.73 1212.01 450.532 1212 450.333 1211.99C447.757 1215.36 449.74 1225.1 449.054 1229.61C448.779 1214.01 447.094 1196.3 452.073 1181.31C456.689 1167.41 466.933 1156.58 479.818 1149.88C483.144 1148.15 486.761 1147.07 490.131 1145.36Z"
     id="path3376" />
  <path
     fill="#00012F"
     d="M652.51 1075.3L652.87 1072.49C658.181 1068.58 667.954 1072.93 674.355 1070.26L699.094 1181.38C700.883 1189.44 707.529 1210.72 706.814 1218.03L693.072 1350.15C692.9 1350.29 692.749 1350.46 692.556 1350.57C690.007 1352.04 676.756 1351.05 673.743 1349.9L672.3 1350.14C667.552 1345.76 655.022 1138.39 653.999 1113.62C652.212 1105.31 652.893 1088.24 652.512 1078.95L652.51 1075.3Z"
     id="path3378" />
  <path
     fill="#4A1277"
     d="M269.178 1068.6C269.238 1072.21 269.345 1075.83 269.166 1079.44C273.877 1082.22 345.379 1080.68 356.05 1080.67L569.7 1080.56L627.048 1080.48C634.608 1080.47 643.599 1081.68 650.989 1080.24L652.512 1078.95C652.893 1088.24 652.212 1105.31 653.999 1113.62C646.806 1112.48 638.294 1113.32 630.987 1113.39Q609.126 1113.66 587.263 1113.66L377.147 1113.67L307.718 1113.7C295.824 1113.71 283.623 1114.25 271.765 1113.58C270.318 1113.5 269.24 1113.21 267.93 1112.58C267.49 1107.65 268.2 1102.28 268.297 1097.29C268.48 1087.83 267.903 1077.98 269.178 1068.6Z"
     id="path3380" />
  <path
     fill="#2A1051"
     d="M674.355 1070.26C679.625 1072.56 750.056 1072.49 758.488 1070.09L758.583 1078.3C758.489 1085.58 756.995 1109.31 759.039 1114.99L760.539 1273.23C760.617 1296.14 762.026 1321.81 760.434 1344.47L759.701 1346.92C756.034 1348.44 748.305 1348.51 744.605 1347.32C744.235 1347.2 743.757 1346.93 743.433 1346.76C740.151 1342.94 738.68 1332.29 737.188 1327.08C733.595 1314.53 729.835 1302 726.473 1289.39C724.033 1280.23 711.039 1222.28 708.049 1218.78C707.735 1218.42 707.226 1218.28 706.814 1218.03C707.529 1210.72 700.883 1189.44 699.094 1181.38L674.355 1070.26Z"
     id="path3382" />
  <path
     fill="#00012F"
     d="M243.062 1047.69C249.307 1049.75 262.594 1049.46 269.19 1048.33L269.957 1049.22C268.97 1055.51 269.261 1062.22 269.178 1068.6C267.903 1077.98 268.48 1087.83 268.297 1097.29C268.2 1102.28 267.49 1107.65 267.93 1112.58Q263.298 1228.96 262.474 1345.43C259.669 1347.47 254.554 1346.02 251.193 1345.58C250.638 1345.56 250.303 1345.57 249.786 1345.45C247.443 1344.91 245.863 1342.58 244.635 1340.7C244.018 1340.67 243.488 1340.68 242.92 1340.39C234.964 1336.35 189.975 1300.46 186.758 1292.93C188.197 1292.61 188.214 1291.68 188.531 1290.48Q200.543 1244.09 211.054 1197.34C212.645 1190.05 214.632 1172.83 218.143 1167.55C216.837 1162.9 240.187 1062.77 243.062 1047.69Z"
     id="path3384" />
  <path
     fill="#735AB5"
     d="M186.758 1292.93C188.197 1292.61 188.214 1291.68 188.531 1290.48Q200.543 1244.09 211.054 1197.34C212.645 1190.05 214.632 1172.83 218.143 1167.55C219.889 1188.4 223.517 1209.15 226.668 1229.83Q234.982 1285.37 244.635 1340.7C244.018 1340.67 243.488 1340.68 242.92 1340.39C234.964 1336.35 189.975 1300.46 186.758 1292.93Z"
     id="path3386" />
</svg>
