<?xml version="1.0" encoding="UTF-8" standalone="no"?>
<svg
   width="1024"
   height="1536"
   version="1.1"
   id="svg2123"
   sodipodi:docname="galactic-beer.svg"
   inkscape:version="1.1.2 (0a00cf5339, 2022-02-04)"
   xmlns:inkscape="http://www.inkscape.org/namespaces/inkscape"
   xmlns:sodipodi="http://sodipodi.sourceforge.net/DTD/sodipodi-0.dtd"
   xmlns="http://www.w3.org/2000/svg"
   xmlns:svg="http://www.w3.org/2000/svg">
  <sodipodi:namedview
     id="namedview2125"
     pagecolor="#ffffff"
     bordercolor="#666666"
     borderopacity="1.0"
     inkscape:pageshadow="2"
     inkscape:pageopacity="0.0"
     inkscape:pagecheckerboard="0"
     showgrid="false"
     inkscape:zoom="0.50976562"
     inkscape:cx="511.01916"
     inkscape:cy="768"
     inkscape:window-width="1920"
     inkscape:window-height="1009"
     inkscape:window-x="1920"
     inkscape:window-y="34"
     inkscape:window-maximized="1"
     inkscape:current-layer="svg2123" />
  <path
     fill="#4CC6AF"
     d="M834.846 501.481C837.004 501.593 839.312 501.727 841.073 503.15C842.569 504.359 843.286 505.735 843.251 507.667C843.208 510.017 841.164 511.701 839.594 513.189C837.363 513.147 835.123 513.061 833.325 511.548C831.897 510.346 831.389 508.923 831.429 507.08C831.478 504.805 833.392 503.03 834.846 501.481Z"
     id="path1998" />
  <path
     fill="#4CC6AF"
     d="M152.919 672.549C155.312 672.593 158.177 672.784 159.931 674.636C161.234 676.01 161.691 677.555 161.407 679.417C161.033 681.874 159.004 683.38 157.207 684.838C155.042 684.638 152.848 684.315 151.188 682.757C149.801 681.454 149.341 679.916 149.399 678.05C149.472 675.714 151.381 674.078 152.919 672.549Z"
     id="path2000" />
  <path
     fill="#4CC6AF"
     d="M299.325 434.273C301.107 434.368 302.816 434.655 304.491 435.3C306.931 436.239 308.767 438.235 309.77 440.628C310.673 442.784 310.582 445.235 309.707 447.383C308.247 450.967 305.726 452.429 302.385 453.877C301.287 453.767 300.166 453.652 299.093 453.386Q298.532 453.243 297.99 453.04Q297.448 452.837 296.931 452.577Q296.414 452.317 295.928 452.002Q295.442 451.688 294.992 451.323Q294.543 450.958 294.135 450.547Q293.728 450.136 293.367 449.684Q293.006 449.231 292.696 448.742Q292.386 448.253 292.131 447.734Q291.913 447.308 291.743 446.86Q291.573 446.413 291.452 445.949Q291.331 445.486 291.261 445.012Q291.191 444.539 291.172 444.06Q291.154 443.582 291.187 443.104Q291.221 442.627 291.306 442.156Q291.391 441.684 291.526 441.225Q291.662 440.766 291.846 440.324C293.262 436.886 296.091 435.522 299.325 434.273Z"
     id="path2002" />
  <path
     fill="#8FD5DB"
     d="M207.777 1008.03C211.162 1007.74 214.375 1007.56 217.214 1009.74C219.941 1011.84 221.621 1015.24 221.901 1018.64C222.085 1020.88 221.564 1023.8 219.867 1025.42C218.185 1027.04 217.098 1027.32 214.926 1027.38C214.749 1027.55 214.587 1027.73 214.396 1027.89C213.036 1028.96 211.442 1029.04 209.778 1028.79C207.215 1028.4 205.266 1026.9 203.803 1024.8C201.992 1022.21 201.127 1018.34 201.834 1015.24C202.642 1011.69 204.973 1009.97 207.777 1008.03Z"
     id="path2004" />
  <path
     fill="#7777B9"
     d="M868.017 911.412C869.878 911.649 871.889 911.999 873.596 912.803C876.098 913.983 878.029 916.658 878.782 919.264C879.608 922.126 879.167 925.121 877.701 927.705C875.529 931.533 872.565 932.711 868.564 933.717C866.994 933.378 865.26 932.951 863.814 932.249C861.215 930.986 859.131 928.402 858.224 925.691C857.268 922.83 857.577 919.917 859.043 917.284C861.033 913.712 864.268 912.337 868.017 911.412Z"
     id="path2006" />
  <path
     fill="#8FD5DB"
     d="M694.954 363.801C696.947 363.914 699.036 363.98 700.908 364.734Q701.493 364.971 702.051 365.266Q702.609 365.562 703.133 365.912Q703.658 366.263 704.144 366.665Q704.63 367.068 705.073 367.517Q705.516 367.967 705.91 368.46Q706.305 368.952 706.647 369.483Q706.989 370.013 707.275 370.575Q707.562 371.137 707.789 371.726C708.999 374.933 708.659 378.622 707.228 381.698C705.318 385.805 702.349 387.313 698.378 388.87C696.041 388.581 693.694 388.397 691.535 387.38Q690.936 387.101 690.368 386.763Q689.8 386.424 689.269 386.03Q688.738 385.636 688.25 385.19Q687.762 384.744 687.321 384.251Q686.881 383.758 686.493 383.223Q686.104 382.688 685.772 382.117Q685.44 381.545 685.168 380.943Q684.895 380.341 684.685 379.714C683.623 376.492 683.946 373.118 685.672 370.186C687.843 366.497 691.017 364.902 694.954 363.801Z"
     id="path2008" />
  <path
     fill="#4CC6AF"
     d="M766.607 1063.25C765.83 1062.64 765.369 1061.9 764.946 1061.02C759.825 1050.31 761.381 1035.41 765.742 1024.73Q766.183 1023.63 766.679 1022.55Q767.176 1021.47 767.725 1020.42Q768.275 1019.37 768.876 1018.34Q769.478 1017.32 770.13 1016.33Q770.782 1015.34 771.483 1014.38Q772.184 1013.42 772.932 1012.5Q773.68 1011.58 774.474 1010.69Q775.267 1009.81 776.104 1008.97Q776.94 1008.12 777.818 1007.33Q778.696 1006.53 779.613 1005.77Q780.53 1005.02 781.483 1004.31Q782.436 1003.6 783.424 1002.94Q784.412 1002.29 785.431 1001.68Q786.451 1001.07 787.5 1000.51Q788.548 999.955 789.624 999.451Q790.699 998.948 791.798 998.499C805.351 992.868 819.369 993.791 832.769 999.268C832.366 1016.99 826.629 1032.73 813.572 1045.17C800.321 1057.79 784.495 1062.51 766.607 1063.25Z"
     id="path2010" />
  <path
     fill="#0AA497"
     d="M832.769 999.268C845.55 1006.35 855.152 1015.46 859.258 1029.85C862.947 1042.78 861.563 1057.17 854.829 1068.88C848.36 1080.13 836.715 1089.02 824.13 1092.22Q822.912 1092.52 821.681 1092.76Q820.45 1093 819.208 1093.18Q817.967 1093.36 816.718 1093.48Q815.469 1093.6 814.216 1093.66Q812.963 1093.72 811.708 1093.72Q810.454 1093.71 809.201 1093.65Q807.948 1093.58 806.7 1093.46Q805.452 1093.33 804.211 1093.15Q802.971 1092.96 801.741 1092.71Q800.511 1092.47 799.294 1092.16Q798.078 1091.85 796.878 1091.49Q795.678 1091.12 794.497 1090.7Q793.316 1090.28 792.158 1089.79Q790.999 1089.31 789.865 1088.78Q788.732 1088.24 787.626 1087.65Q786.52 1087.06 785.444 1086.41C777.626 1081.69 769.018 1073.01 766.758 1063.91C766.704 1063.69 766.658 1063.47 766.607 1063.25C784.495 1062.51 800.321 1057.79 813.572 1045.17C826.629 1032.73 832.366 1016.99 832.769 999.268Z"
     id="path2012" />
  <path
     fill="#0AA497"
     d="M159.215 559.225C166.471 557.523 173.88 554.542 180.633 551.425C202.047 541.542 220.803 525.26 229.359 502.723C232.002 495.761 232.793 488.239 235.385 481.372C235.443 481.219 235.505 481.067 235.565 480.915C248.422 489.907 257.514 501.476 260.229 517.234C262.758 531.919 259.628 546.986 250.82 559.085Q249.991 560.213 249.107 561.298Q248.224 562.383 247.287 563.423Q246.351 564.463 245.364 565.455Q244.377 566.447 243.343 567.39Q242.308 568.332 241.228 569.222Q240.148 570.112 239.025 570.947Q237.902 571.782 236.739 572.561Q235.576 573.34 234.376 574.06Q233.176 574.78 231.942 575.44Q230.708 576.099 229.442 576.697Q228.177 577.295 226.883 577.83Q225.59 578.364 224.271 578.834Q222.953 579.303 221.613 579.707Q220.273 580.111 218.914 580.448Q217.556 580.785 216.183 581.055Q214.809 581.324 213.424 581.525Q212.039 581.735 210.645 581.877Q209.252 582.019 207.853 582.092Q206.453 582.165 205.053 582.168Q203.652 582.172 202.252 582.106Q200.853 582.04 199.458 581.906Q198.064 581.771 196.678 581.568Q195.292 581.364 193.918 581.092Q192.543 580.821 191.184 580.482Q189.825 580.142 188.484 579.736Q187.143 579.33 185.824 578.859Q184.505 578.387 183.211 577.851Q181.917 577.315 180.651 576.715Q179.385 576.115 178.15 575.454Q176.915 574.793 175.714 574.071Q174.514 573.349 173.35 572.57Q172.187 571.789 171.063 570.953C166.661 567.656 162.437 563.702 159.215 559.225Z"
     id="path2014" />
  <path
     fill="#4CC6AF"
     d="M159.215 559.225C154.409 553.397 151.104 545.06 149.596 537.715Q149.329 536.379 149.127 535.032Q148.926 533.684 148.79 532.329Q148.655 530.973 148.586 529.612Q148.517 528.252 148.515 526.889Q148.513 525.527 148.578 524.166Q148.643 522.805 148.774 521.449Q148.905 520.093 149.103 518.745Q149.3 517.397 149.563 516.06Q149.826 514.724 150.155 513.401Q150.483 512.079 150.876 510.775Q151.269 509.47 151.725 508.186Q152.181 506.902 152.699 505.642Q153.218 504.382 153.797 503.149Q154.377 501.916 155.016 500.713Q155.655 499.51 156.353 498.339Q157.05 497.169 157.804 496.034Q158.556 494.902 159.363 493.808Q160.169 492.715 161.029 491.662Q161.888 490.61 162.799 489.601Q163.709 488.592 164.668 487.629Q165.627 486.666 166.632 485.751Q167.638 484.837 168.687 483.973Q169.736 483.109 170.826 482.298Q171.917 481.487 173.046 480.73Q174.175 479.974 175.34 479.274Q176.505 478.574 177.703 477.932Q178.901 477.29 180.129 476.708Q181.357 476.126 182.613 475.605Q183.868 475.085 185.148 474.626Q186.427 474.168 187.728 473.773Q189.028 473.378 190.347 473.048Q191.665 472.718 192.998 472.453C208.234 469.417 222.714 472.218 235.565 480.915C235.505 481.067 235.443 481.219 235.385 481.372C232.793 488.239 232.002 495.761 229.359 502.723C220.803 525.26 202.047 541.542 180.633 551.425C173.88 554.542 166.471 557.523 159.215 559.225Z"
     id="path2016" />
  <path
     fill="#F1DCBD"
     d="M303.852 1401.53C304.674 1403.66 305.586 1405.78 306.628 1407.82C312.642 1419.55 323.798 1428.5 336.341 1432.39C348.375 1436.11 386.511 1434.2 400.833 1434.21L509.384 1434.32L619.437 1434.43C638.324 1434.41 657.799 1435.31 676.622 1434.07C684.138 1433.57 689.653 1432.4 696.403 1428.84C708.208 1422.63 716.211 1411.88 720.067 1399.26C722.058 1402.5 725.967 1402.74 729.18 1404.77C740.594 1411.97 748.386 1424.78 744.956 1438.51C742.925 1446.64 737.063 1455.17 729.808 1459.49C724.584 1462.61 719.266 1463.4 713.275 1463.67C686.657 1464.87 659.522 1463.6 632.853 1463.47L495.165 1463.39L364.92 1463.36C347.142 1463.34 308.739 1465.21 294.002 1461.3C287.077 1459.46 280.358 1453.69 276.851 1447.53Q276.482 1446.87 276.145 1446.19Q275.809 1445.51 275.507 1444.81Q275.204 1444.12 274.936 1443.41Q274.669 1442.7 274.436 1441.98Q274.204 1441.26 274.007 1440.52Q273.81 1439.79 273.65 1439.05Q273.489 1438.31 273.366 1437.56Q273.242 1436.81 273.155 1436.06Q273.069 1435.31 273.019 1434.55Q272.97 1433.79 272.957 1433.04Q272.945 1432.28 272.97 1431.52Q272.996 1430.76 273.058 1430.01Q273.12 1429.25 273.22 1428.5Q273.32 1427.75 273.456 1427Q273.593 1426.26 273.766 1425.52Q273.939 1424.78 274.148 1424.05C276.084 1417.26 279.536 1410.87 285.918 1407.42C290.469 1404.95 301.802 1403.26 303.852 1401.53Z"
     id="path2018" />
  <path
     fill="#0AA497"
     d="M616.466 458.361C627.76 461.953 638.509 466.801 649.254 471.759Q652.266 473.128 655.248 474.56Q658.231 475.992 661.183 477.486Q664.134 478.98 667.054 480.536Q669.974 482.092 672.86 483.709Q675.746 485.326 678.598 487.003Q681.45 488.68 684.266 490.417Q687.081 492.154 689.86 493.949Q692.639 495.745 695.379 497.598Q698.12 499.452 700.82 501.362Q703.521 503.273 706.181 505.24Q708.841 507.207 711.459 509.229Q714.078 511.252 716.653 513.328Q719.228 515.405 721.758 517.536Q724.289 519.667 726.775 521.85Q729.26 524.033 731.699 526.268Q734.138 528.503 736.53 530.789Q738.922 533.074 741.264 535.41Q743.608 537.745 745.901 540.129Q748.194 542.514 750.437 544.945Q752.68 547.377 754.871 549.856Q757.062 552.334 759.201 554.858Q761.339 557.382 763.424 559.95Q765.51 562.518 767.54 565.13Q769.571 567.741 771.546 570.394Q773.522 573.048 775.441 575.742Q777.36 578.437 779.222 581.171Q781.084 583.905 782.888 586.678Q784.693 589.45 786.438 592.26Q788.184 595.07 789.87 597.916Q791.556 600.762 793.182 603.643Q794.808 606.524 796.373 609.438Q797.938 612.353 799.441 615.299C838.453 690.845 843.117 777.709 817.418 858.135C799.31 914.803 765.45 961.399 723.276 1002.7L723.543 803.223L723.465 740.566C723.417 728.732 723.902 716.548 722.786 704.765Q722.299 699.555 721.484 694.387Q720.669 689.218 719.529 684.111Q718.388 679.005 716.927 673.98Q715.466 668.956 713.69 664.034C705.994 642.552 694.197 622.316 680.156 604.38C661.114 580.054 637.467 558.009 627.448 527.864C620.962 508.348 619.17 479.249 616.466 458.361Z"
     id="path2020" />
  <path
     fill="#271452"
     d="M418.512 171.817C415.486 171.788 410.316 172.356 407.734 170.639C406.027 169.503 405.407 168.084 405.143 166.101C404.296 159.746 408.86 131.538 411.11 125.171Q411.772 123.285 412.616 121.473Q413.459 119.661 414.475 117.94Q415.492 116.218 416.672 114.605Q417.852 112.991 419.184 111.501C426.132 103.785 436.103 99.6283 446.371 99.0759C470.992 97.7514 496.28 99.0116 520.968 99.0154C537.458 99.018 570.537 97.2405 585.456 100.319C591.361 101.537 597.198 104.966 601.628 109.002C606.852 113.763 611.832 121.305 613.833 128.155C615.873 135.14 617.235 154.488 617.601 162.254C617.715 164.668 617.992 167.175 616.161 169.018C613.16 172.039 608.567 171.516 604.646 171.584C604.035 188.69 606.212 208.623 604.243 225.122C603.165 234.158 599.336 239.436 592.394 244.959C593.844 270.21 598.092 295.682 600.848 320.863C605.858 366.652 610.301 412.723 616.466 458.361C619.17 479.249 620.962 508.348 627.448 527.864C637.467 558.009 661.114 580.054 680.156 604.38C694.197 622.316 705.994 642.552 713.69 664.034Q715.466 668.956 716.927 673.98Q718.388 679.005 719.529 684.111Q720.669 689.218 721.484 694.387Q722.299 699.555 722.786 704.765C723.902 716.548 723.417 728.732 723.465 740.566L723.543 803.223L723.276 1002.7C721.669 1098.07 722.708 1193.56 722.357 1288.95C722.29 1307.35 723.958 1388.05 720.067 1399.26C716.211 1411.88 708.208 1422.63 696.403 1428.84C689.653 1432.4 684.138 1433.57 676.622 1434.07C657.799 1435.31 638.324 1434.41 619.437 1434.43L509.384 1434.32L400.833 1434.21C386.511 1434.2 348.375 1436.11 336.341 1432.39C323.798 1428.5 312.642 1419.55 306.628 1407.82C305.586 1405.78 304.674 1403.66 303.852 1401.53C301.851 1396.57 301.094 1391.83 300.783 1386.51C299.88 1371.04 300.547 1355.2 300.554 1339.69L300.612 1251.85L300.686 973.258C294.864 967.525 289.966 960.035 285.299 953.358C263.241 921.802 247.693 888.16 236.634 851.34C220.712 784.61 219.659 720.164 242.991 654.769C269.919 579.3 330.858 508.313 403.661 473.713C407.431 447.971 409.315 421.695 412.143 395.809L429.35 246.561Q427.359 244.827 425.469 242.983C422.112 239.654 420.112 235.042 419.171 230.454C416.853 219.151 418.487 185.688 418.512 171.817Z"
     id="path2022" />
  <path
     fill="#FEFEFE"
     d="M585.141 822.452C586.691 822.546 588.687 822.764 589.931 823.777C591.078 824.71 591.682 825.648 591.758 827.174C591.867 829.375 590.274 831.198 588.992 832.804C587.831 832.63 586.394 832.523 585.332 832.017C583.398 831.095 583.064 829.903 582.462 828.052C582.669 825.586 583.625 824.348 585.141 822.452Z"
     id="path2024" />
  <path
     fill="#FEFEFE"
     d="M549.109 859.216C550.47 859.391 552.273 859.778 553.429 860.572C554.836 861.537 555.744 862.962 555.744 864.686C555.745 866.881 554.1 868.481 552.694 869.957C551.147 869.95 549.454 869.796 548.144 868.864C546.738 867.865 546.13 866.482 546.094 864.788C546.043 862.461 547.656 860.82 549.109 859.216Z"
     id="path2026" />
  <path
     fill="#FEFEFE"
     d="M633.787 876.478C635.831 876.419 638.21 876.247 640.026 877.36C641.646 878.352 642.432 879.746 642.675 881.565C643.03 884.214 641.46 886.107 639.956 888.088C639.688 888.126 639.42 888.168 639.15 888.2C636.958 888.463 634.269 888.354 632.574 886.743C631.355 885.585 630.894 884.432 630.782 882.799C630.598 880.1 632.108 878.395 633.787 876.478Z"
     id="path2028" />
  <path
     fill="#FEFEFE"
     d="M669.488 1043.42C670.856 1043.9 672.346 1044.36 673.624 1045.05C675.496 1046.06 676.959 1048.51 677.46 1050.57C677.95 1052.58 677.95 1054.15 676.905 1055.94C675.299 1056.9 674.412 1057.19 672.533 1057.21C671.588 1057.69 670.375 1058.12 669.294 1058.03C667.759 1057.91 666.54 1057.48 665.544 1056.3C664.216 1054.71 664.287 1052.51 664.521 1050.56C664.953 1046.97 666.859 1045.53 669.488 1043.42Z"
     id="path2030" />
  <path
     fill="#FEFEFE"
     d="M658.66 784.429C659.92 784.431 661.21 784.438 662.438 784.756C664.69 785.339 666.561 786.728 667.688 788.776C668.693 790.6 668.82 792.638 668.223 794.617C667.274 797.764 665.26 799.039 662.608 800.605C661.782 800.582 660.957 800.54 660.138 800.414C657.518 800.011 655.168 798.777 653.696 796.509C652.599 794.819 652.332 792.858 652.819 790.912C653.638 787.635 655.984 786.088 658.66 784.429Z"
     id="path2032" />
  <path
     fill="#EF8721"
     d="M630.575 1192.09C636.322 1196.14 637.682 1204.77 645.75 1206.36C643.516 1210.16 638.923 1213.08 635.922 1216.44C635.034 1217.44 633.045 1220.88 632.087 1221.41C631.617 1221.67 631.05 1221.69 630.531 1221.82C630.329 1221.74 616.418 1208.17 615.294 1206.84C615.472 1206.81 615.654 1206.8 615.828 1206.76C621.816 1205.27 627.731 1197.13 630.575 1192.09Z"
     id="path2034" />
  <path
     fill="#DB6517"
     d="M548.715 119.815C559.72 119.762 577.206 117.069 585.595 125.375C591.531 131.253 592.62 140.652 592.932 148.579L550.759 148.547C553.048 138.285 552.305 129.672 548.715 119.815Z"
     id="path2036" />
  <path
     fill="#EF8721"
     d="M430.587 148.504C430.559 140.367 431.449 132.112 437.453 126.008C440.199 123.217 443.337 121.504 447.179 120.752C458.617 118.513 471.761 119.772 483.445 119.769L548.715 119.815C552.305 129.672 553.048 138.285 550.759 148.547L430.587 148.504Z"
     id="path2038" />
  <path
     fill="#0AA497"
     d="M300.274 796.418C302.267 855.209 300.152 914.41 300.686 973.258C294.864 967.525 289.966 960.035 285.299 953.358C263.241 921.802 247.693 888.16 236.634 851.34Q240.904 852.508 245.118 853.866Q249.332 855.223 253.48 856.767Q257.629 858.311 261.705 860.039Q265.781 861.767 269.776 863.674Q273.77 865.582 277.676 867.666Q281.581 869.75 285.39 872.007Q289.199 874.263 292.903 876.687Q296.607 879.111 300.199 881.698C300.131 853.374 299.119 824.701 300.274 796.418Z"
     id="path2040" />
  <path
     fill="#4F2D7A"
     d="M452.934 172.126C454.425 171.204 520.338 172.438 527.235 172.475C524.292 190.739 518.082 208.813 511.582 226.074L510.456 227.956C509.446 228.48 508.671 228.725 507.537 228.812C496.706 229.642 463.043 229.862 453.097 228.581C449.899 228.17 445.355 227.147 442.956 224.903C438.02 220.289 440.016 181.14 439.946 172.161L452.934 172.126Z"
     id="path2042" />
  <path
     fill="#4CC6AF"
     d="M236.634 851.34C220.712 784.61 219.659 720.164 242.991 654.769C269.919 579.3 330.858 508.313 403.661 473.713C401.53 492.713 400.149 512.787 393.992 530.973C380.848 569.792 355.512 591.174 333.253 622.826Q330.683 626.449 328.295 630.194Q325.908 633.939 323.708 637.797Q321.508 641.655 319.501 645.618Q317.494 649.58 315.686 653.636Q313.877 657.693 312.271 661.833Q310.664 665.974 309.264 670.189Q307.865 674.404 306.674 678.683Q305.484 682.962 304.507 687.294C296.245 722.561 301.857 760.477 300.274 796.418C299.119 824.701 300.131 853.374 300.199 881.698Q296.607 879.111 292.903 876.687Q289.199 874.263 285.39 872.007Q281.581 869.75 277.676 867.666Q273.77 865.582 269.776 863.674Q265.781 861.767 261.705 860.039Q257.629 858.311 253.48 856.767Q249.332 855.223 245.118 853.866Q240.904 852.508 236.634 851.34Z"
     id="path2044" />
  <path
     fill="#4F2D7A"
     d="M528.088 1300.32C533.088 1303.4 545.138 1305.39 551.762 1308.55C575.829 1320.03 591.097 1338.38 621.151 1331.3C640.858 1326.65 652.296 1312.68 669.584 1304.56C677.055 1301.05 691.604 1299.34 697.018 1295.64L697.055 1354.54C697.092 1365.29 698.292 1377.4 696.436 1387.9C695.541 1392.97 693.781 1397.82 690.11 1401.52C686.314 1405.36 681.157 1408.04 675.78 1408.71C664.12 1410.17 651.586 1409.24 639.829 1409.22L572.693 1409.14L358.084 1409.28C349.907 1409.21 340.942 1408.1 334.862 1402.01C331.415 1398.56 328.908 1393.64 328.513 1388.77C326.683 1385.99 328.018 1309.07 327.929 1299.62C349.26 1302.36 364.515 1314.68 382.804 1324.59C391.951 1329.54 401.904 1332.68 412.311 1333.35C443.284 1335.32 464.234 1311.64 491.991 1303.12C500.464 1300.52 509.436 1300.26 518.231 1300.32C521.099 1300.35 525.43 1301.1 528.088 1300.32Z"
     id="path2046" />
  <path
     fill="#7777B9"
     d="M327.929 1299.62C349.26 1302.36 364.515 1314.68 382.804 1324.59C391.951 1329.54 401.904 1332.68 412.311 1333.35C443.284 1335.32 464.234 1311.64 491.991 1303.12C500.464 1300.52 509.436 1300.26 518.231 1300.32C521.099 1300.35 525.43 1301.1 528.088 1300.32C527.943 1326.08 522.68 1349.5 503.462 1368.35C494.173 1377.46 482.409 1384.43 469.724 1387.51C452.489 1391.71 418.277 1389.43 399.19 1389.42C378.47 1389.41 357.693 1390.19 336.983 1389.86C334.125 1389.81 331.158 1389.99 328.513 1388.77C326.683 1385.99 328.018 1309.07 327.929 1299.62Z"
     id="path2048" />
  <path
     fill="#4F2D7A"
     d="M384.089 1069.14C385.124 1071.23 386.755 1076.06 388.55 1077.39L388.355 1078.57C392.45 1088.66 397.888 1097.73 403.538 1107.02L404.975 1107.51C409.025 1115.32 421.375 1124.07 427.619 1131.04L429.14 1131.18C435.632 1141.06 467.879 1152.12 479.804 1154.61C486.924 1156.09 498.192 1158.37 504.988 1155.8C503.61 1157.71 503.366 1158.2 503.768 1160.61C508.741 1190.5 516.237 1220.12 521.499 1250.02Q524.346 1266.81 526.352 1283.72C526.974 1289.16 527.106 1294.95 528.088 1300.32C525.43 1301.1 521.099 1300.35 518.231 1300.32C509.436 1300.26 500.464 1300.52 491.991 1303.12C464.234 1311.64 443.284 1335.32 412.311 1333.35C401.904 1332.68 391.951 1329.54 382.804 1324.59C364.515 1314.68 349.26 1302.36 327.929 1299.62C326.666 1288.62 327.652 1276.38 327.654 1265.27L327.689 1195.05C327.697 1185.26 328.964 1173.77 327.282 1164.23C325.792 1163.75 324.318 1163.36 323.152 1162.27C322.913 1162.04 322.685 1161.8 322.452 1161.57C321.012 1162.03 320.423 1161.99 318.983 1161.55C317.205 1160.19 316.386 1158.84 315.603 1156.73C310.33 1142.55 321.808 1131.1 326.984 1119.37C327.054 1119.21 327.119 1119.05 327.187 1118.89C330.713 1118.21 337.389 1109.18 340.353 1106.33C349.611 1097.45 359.777 1089.49 369.718 1081.4C374.535 1077.47 379.871 1073.69 384.089 1069.14Z"
     id="path2050" />
  <path
     fill="#FEFEFE"
     d="M402.465 1179.16C403.859 1179.39 405.362 1179.58 406.706 1180.02C409.239 1180.85 410.874 1183.51 411.901 1185.83C412.817 1187.91 412.64 1189.62 411.839 1191.66C410.254 1192.89 409.748 1193.45 407.724 1193.78L406.086 1195.05C403.934 1195.29 402.469 1195.8 400.63 1194.38C398.594 1192.8 397.938 1189.35 397.94 1186.94C397.943 1183.18 399.932 1181.54 402.465 1179.16Z"
     id="path2052" />
  <path
     fill="#FDBF46"
     d="M470.45 1227.47C475.379 1232.95 478.717 1241.14 486.362 1243.52C485.39 1245.17 473.987 1256.25 471.488 1258.74C471.011 1259.05 470.42 1259.17 469.883 1259.35C465.358 1253.76 459.168 1248.97 455.214 1243.16C455.311 1243.14 455.408 1243.13 455.503 1243.11C462.178 1241.47 466.95 1232.85 470.45 1227.47Z"
     id="path2054" />
  <path
     fill="#F1DCBD"
     d="M384.089 1069.14C385.124 1071.23 386.755 1076.06 388.55 1077.39L388.355 1078.57C392.45 1088.66 397.888 1097.73 403.538 1107.02L404.975 1107.51C409.025 1115.32 421.375 1124.07 427.619 1131.04C422.49 1134.89 414.877 1137.23 408.955 1139.74C387.921 1148.65 348.05 1165.24 325.589 1162.5C324.497 1162.37 323.452 1162.02 322.452 1161.57C321.012 1162.03 320.423 1161.99 318.983 1161.55C317.205 1160.19 316.386 1158.84 315.603 1156.73C310.33 1142.55 321.808 1131.1 326.984 1119.37C327.054 1119.21 327.119 1119.05 327.187 1118.89C330.713 1118.21 337.389 1109.18 340.353 1106.33C349.611 1097.45 359.777 1089.49 369.718 1081.4C374.535 1077.47 379.871 1073.69 384.089 1069.14Z"
     id="path2056" />
  <path
     fill="#4F2D7A"
     d="M388.355 1078.57C392.45 1088.66 397.888 1097.73 403.538 1107.02C402.162 1107.98 400.545 1108.33 398.926 1108.67C393.333 1109.86 383.046 1110.41 378.2 1106.91C376.695 1105.82 375.718 1104.23 375.546 1102.37C374.807 1094.39 383.748 1084.52 388.355 1078.57Z"
     id="path2058" />
  <path
     fill="#4F2D7A"
     d="M326.958 715.359C376.439 716.213 426.034 715.547 475.526 715.549C510.334 715.551 545.563 716.648 580.332 715.392C571.543 768.217 525.928 825.95 500.985 873.923C496.505 882.538 489.776 892.409 486.961 901.615C489.015 901.88 491.065 902.156 493.13 902.332C460.842 905.618 433.723 916.898 411.993 941.679C401.181 953.361 393.291 965.6 386.841 980.159C376.56 1009.37 375.316 1035.62 383.615 1065.64C383.939 1066.81 384.668 1068.05 384.089 1069.14C379.871 1073.69 374.535 1077.47 369.718 1081.4C359.777 1089.49 349.611 1097.45 340.353 1106.33C337.389 1109.18 330.713 1118.21 327.187 1118.89Q327.48 1068.6 326.934 1018.32L326.802 819.13C326.761 784.542 326.126 749.941 326.958 715.359Z"
     id="path2060" />
  <path
     fill="#FEFEFE"
     d="M363.364 760.452Q364.154 760.454 364.943 760.489C367.439 760.611 369.394 761.256 371.005 763.265C372.095 764.624 372.471 766.219 372.263 767.935C371.882 771.086 370.083 772.661 367.718 774.492C365.007 774.398 362.851 774.139 360.801 772.2C359.375 770.851 358.68 769.294 358.8 767.318C358.998 764.05 361.01 762.338 363.364 760.452Z"
     id="path2062" />
  <path
     fill="#FDBF46"
     d="M466.11 779.58C468.047 780.957 469.14 783.599 470.567 785.489C474.482 790.676 479.002 793.419 484.602 796.412C476.217 801.394 471.846 805.529 466.77 813.78C464.056 811.283 462.667 806.939 460.113 804.024L459.448 803.277C456.668 800.12 452.378 798.28 448.71 796.305C457.553 791.626 461.435 788.815 466.11 779.58Z"
     id="path2064" />
  <path
     fill="#FEFEFE"
     d="M381.127 841.784L382.794 842.679C384.715 847.333 383.554 855.798 383.445 860.991C388.3 864.056 390.531 866.252 392.944 871.492C398.684 871.413 404.293 871.612 410.015 872.058L409.214 873.081L411.67 872.415L410.297 872.112L410.729 872.861C404.762 874.222 398.987 874.21 392.903 874.23C390.505 879.274 388.486 881.295 383.647 883.989C383.729 888.921 384.895 898.058 382.263 902.115C379.173 898.251 380.566 888.735 380.663 883.845C379.654 883.56 378.64 883.259 377.676 882.843C373.386 880.991 371.918 877.98 370.227 873.939C365.208 874.088 359.184 874.783 354.472 872.879L355.205 872.107C360.172 870.933 365.3 871.343 370.361 871.494C372.927 866.248 375.182 864.117 380.387 861.732C380.357 855.601 379.469 847.657 381.127 841.784Z"
     id="path2066" />
  <path
     fill="#EF8721"
     d="M493.13 902.332C528.362 902.851 561.272 914.908 586.159 940.54C591.877 946.429 596.895 952.84 601.711 959.475C620.339 949.278 682.376 917.119 701.337 922.923C703.583 923.61 705.438 925.322 706.498 927.395C709.228 932.733 708.023 940.1 705.994 945.447C696.956 969.266 664.749 995.906 645.466 1012.15C640.699 1016.16 633.997 1022.98 628.25 1025.27C627.745 1025.47 627.67 1025.46 627.204 1025.52L627.056 1026.73C628.569 1059.86 616.745 1090.97 594.399 1115.41C573.946 1137.79 542.128 1155.16 511.469 1156.47C509.256 1156.57 507.087 1156.6 504.988 1155.8C498.192 1158.37 486.924 1156.09 479.804 1154.61C467.879 1152.12 435.632 1141.06 429.14 1131.18L427.619 1131.04C421.375 1124.07 409.025 1115.32 404.975 1107.51L403.538 1107.02C397.888 1097.73 392.45 1088.66 388.355 1078.57L388.55 1077.39C386.755 1076.06 385.124 1071.23 384.089 1069.14C384.668 1068.05 383.939 1066.81 383.615 1065.64C375.316 1035.62 376.56 1009.37 386.841 980.159C393.291 965.6 401.181 953.361 411.993 941.679C433.723 916.898 460.842 905.618 493.13 902.332Z"
     id="path2068" />
  <path
     fill="#271452"
     d="M606.898 967.357C610.099 963.913 617.057 963.367 621.603 963.207C625.376 963.074 629.484 963.952 632.189 966.76C634.573 969.235 635.302 972.693 635.038 976.028C634.401 984.071 628.868 991.314 622.765 996.189C622.159 996.672 621.387 997.196 620.622 997.348C618.905 988.209 612.667 974.584 606.898 967.357Z"
     id="path2070" />
  <path
     fill="#FDD370"
     d="M620.784 998.112C625.535 1005.64 623.807 1018.74 627.204 1025.52L627.056 1026.73C617.116 1036.38 605.226 1044.34 593.756 1052.05Q577.882 1062.6 561.444 1072.24Q545.006 1081.89 528.056 1090.61Q511.105 1099.32 493.695 1107.08Q476.285 1114.84 458.47 1121.61C449.658 1125 438.483 1130.48 429.14 1131.18L427.619 1131.04C421.375 1124.07 409.025 1115.32 404.975 1107.51C405.488 1107.59 405.966 1107.69 406.484 1107.7C414.459 1107.94 425.409 1103.97 433.022 1101.67C488.741 1084.84 543.271 1055.21 590.745 1021.73C600.957 1014.53 612.019 1007.01 620.784 998.112Z"
     id="path2072" />
  <path
     fill="#EF8721"
     d="M429.14 1131.18C438.483 1130.48 449.658 1125 458.47 1121.61Q476.285 1114.84 493.695 1107.08Q511.105 1099.32 528.056 1090.61Q545.006 1081.89 561.444 1072.24Q577.882 1062.6 593.756 1052.05C605.226 1044.34 617.116 1036.38 627.056 1026.73C628.569 1059.86 616.745 1090.97 594.399 1115.41C573.946 1137.79 542.128 1155.16 511.469 1156.47C509.256 1156.57 507.087 1156.6 504.988 1155.8C498.192 1158.37 486.924 1156.09 479.804 1154.61C467.879 1152.12 435.632 1141.06 429.14 1131.18Z"
     id="path2074" />
  <path
     fill="#DB6517"
     d="M495.255 1119.14C497.402 1119.63 499.63 1119.15 501.624 1120.39C503.527 1121.57 504.947 1123.96 505.313 1126.15C505.621 1127.99 504.961 1130.39 503.762 1131.82C502.267 1133.61 501.392 1133.83 499.247 1133.94L497.898 1134.95C495.714 1135.19 494.803 1135.46 492.744 1134.6C490.69 1132.39 490.138 1130.53 490.253 1127.51C490.404 1123.52 492.57 1121.71 495.255 1119.14Z"
     id="path2076" />
  <path
     fill="#DB6517"
     d="M543.632 1113.86C546.511 1114.36 549.937 1114.78 552.205 1116.75C553.866 1118.2 555.215 1120.58 555.262 1122.81C555.302 1124.66 554.496 1126.48 553.183 1127.77C551.374 1129.54 549.629 1130.01 547.256 1129.93C546.413 1130.38 545.691 1130.76 544.734 1130.89C541.663 1131.34 539.649 1130.9 537.199 1129.16C535.873 1127.02 535.652 1125.3 536.148 1122.83C537.102 1118.06 539.856 1116.42 543.632 1113.86Z"
     id="path2078" />
  <path
     fill="#DB6517"
     d="M580.108 1074.85C582.327 1075.42 584.785 1075.94 586.398 1077.7C588.021 1079.46 588.451 1082.04 588.333 1084.37Q588.307 1084.89 588.228 1085.41Q588.15 1085.93 588.019 1086.44Q587.889 1086.95 587.708 1087.44Q587.528 1087.94 587.298 1088.41Q587.069 1088.88 586.794 1089.33Q586.518 1089.77 586.199 1090.19Q585.88 1090.61 585.521 1090.99Q585.162 1091.37 584.766 1091.72C582.729 1093.48 580.643 1094.29 578.018 1094.23C576.621 1095.59 574.712 1095.54 572.874 1095.73C571.683 1095.25 571.215 1095.2 570.488 1094.15C569.214 1092.3 569.106 1090.34 569.551 1088.18C570.895 1081.64 574.897 1078.51 580.108 1074.85Z"
     id="path2080" />
  <path
     fill="#FDBF46"
     d="M493.13 902.332C528.362 902.851 561.272 914.908 586.159 940.54C591.877 946.429 596.895 952.84 601.711 959.475C603.274 962.03 605.163 964.702 606.403 967.421L604.851 968.164C599.556 975.784 586.011 984.341 578.173 989.693C526.815 1024.76 448.879 1064.03 388.55 1077.39C386.755 1076.06 385.124 1071.23 384.089 1069.14C384.668 1068.05 383.939 1066.81 383.615 1065.64C375.316 1035.62 376.56 1009.37 386.841 980.159C393.291 965.6 401.181 953.361 411.993 941.679C433.723 916.898 460.842 905.618 493.13 902.332Z"
     id="path2082" />
  <path
     fill="#EF8721"
     d="M401.357 1001.17C401.979 1001.17 402.599 1001.18 403.219 1001.24C405.369 1001.44 407.797 1002.33 409.019 1004.23C409.964 1005.7 410.118 1007 409.833 1008.68C409.366 1011.42 407.32 1012.77 405.211 1014.27C404.053 1014.26 402.849 1014.28 401.703 1014.1C400.045 1013.84 397.981 1012.68 397.054 1011.25C395.953 1009.55 395.876 1007.83 396.439 1005.92C397.113 1003.64 399.475 1002.36 401.357 1001.17Z"
     id="path2084" />
  <path
     fill="#EF8721"
     d="M516.019 998.063C517.225 998.01 518.671 997.886 519.87 998.121C521.896 998.519 523.912 999.709 525.047 1001.46C525.976 1002.9 526.007 1004.58 525.636 1006.2C524.973 1009.11 522.804 1010.32 520.481 1011.83C517.934 1011.78 514.821 1011.25 512.911 1009.44C511.77 1008.35 511.178 1006.88 511.277 1005.3C511.483 1002.02 513.777 1000.12 516.019 998.063Z"
     id="path2086" />
  <path
     fill="#EF8721"
     d="M474.666 1008.13C475.054 1008.21 475.443 1008.3 475.83 1008.39C478.324 1009.01 480.627 1010.11 481.866 1012.5C482.711 1014.13 482.653 1015.91 481.954 1017.58C480.689 1020.61 478.246 1021.58 475.421 1022.7C474.641 1022.45 473.862 1022.19 473.103 1021.88C470.952 1020.99 468.762 1019.25 468.021 1016.96C467.495 1015.33 467.591 1014.02 468.323 1012.5C469.53 1010 472.23 1009.01 474.666 1008.13Z"
     id="path2088" />
  <path
     fill="#EF8721"
     d="M428.574 1029.1C430.971 1029.55 434.048 1029.88 436.006 1031.42C437.988 1032.98 439.749 1035.75 439.839 1038.32C439.891 1039.79 439.287 1041.71 438.198 1042.73C436.574 1044.26 435.393 1044.75 433.247 1044.72C431.886 1045.94 430.543 1046.09 428.781 1045.97C426.94 1045.83 425.625 1045.24 424.438 1043.81C422.833 1041.87 422.4 1039.2 422.698 1036.75C423.152 1033.01 425.816 1031.24 428.574 1029.1Z"
     id="path2090" />
  <path
     fill="#EF8721"
     d="M573.153 943.16C576.152 945.435 579.204 947.665 582.053 950.127C582.593 953.299 582.584 955.867 581.15 958.833C580.242 960.711 578.846 962.159 576.781 962.713C574.009 963.456 570.857 962.578 568.442 961.168C565.6 959.509 563.053 956.595 562.34 953.319Q562.263 952.974 562.223 952.624Q562.183 952.273 562.18 951.92Q562.177 951.567 562.211 951.216Q562.245 950.864 562.316 950.518Q562.387 950.173 562.494 949.836Q562.6 949.5 562.742 949.176Q562.884 948.853 563.059 948.546Q563.234 948.24 563.44 947.953C565.471 945.098 569.86 943.683 573.153 943.16Z"
     id="path2092" />
  <path
     fill="#EF8721"
     d="M544.669 963.049C545.758 963.113 546.86 963.187 547.931 963.404C550.885 964.003 553.734 965.702 555.41 968.242C556.953 970.579 557.301 973.374 556.61 976.07C555.501 980.398 552.709 982.414 549.106 984.548C547.665 984.517 546.028 984.459 544.62 984.098C541.577 983.317 538.75 981.217 537.327 978.39Q537.091 977.916 536.905 977.421Q536.72 976.925 536.586 976.412Q536.453 975.9 536.373 975.377Q536.294 974.854 536.269 974.325Q536.244 973.796 536.274 973.268Q536.304 972.739 536.389 972.216Q536.473 971.694 536.611 971.183Q536.75 970.672 536.94 970.178C538.392 966.362 541.198 964.691 544.669 963.049Z"
     id="path2094" />
  <path
     fill="#EF8721"
     d="M438.201 980.354C439.739 980.244 441.276 980.193 442.809 980.394C446.166 980.834 449.422 982.664 451.319 985.507C452.916 987.901 453.334 990.812 452.647 993.588C451.475 998.323 448.11 1000.54 444.151 1002.76C442.262 1002.83 440.403 1002.82 438.551 1002.38C435.375 1001.63 432.355 999.563 430.658 996.758Q430.381 996.304 430.154 995.824Q429.927 995.343 429.753 994.841Q429.579 994.339 429.459 993.821Q429.339 993.303 429.276 992.775Q429.212 992.248 429.205 991.716Q429.198 991.185 429.248 990.655Q429.297 990.126 429.403 989.606Q429.509 989.085 429.67 988.578C431.05 984.105 434.324 982.304 438.201 980.354Z"
     id="path2096" />
  <path
     fill="#EF8721"
     d="M486.598 962.73C490.701 962.76 495.848 962.614 498.924 965.849C501.048 968.085 502.022 971.631 501.938 974.678C501.855 977.714 500.643 980.404 498.413 982.475C495.51 985.17 491.543 986.325 487.638 986.069C484.251 985.846 480.767 984.266 478.596 981.626C476.515 979.095 475.569 975.384 475.989 972.152C476.226 970.335 476.953 968.589 477.632 966.9C480.517 965.24 483.529 964.002 486.598 962.73Z"
     id="path2098" />
  <path
     fill="#FDD370"
     d="M493.13 902.332C528.362 902.851 561.272 914.908 586.159 940.54C591.877 946.429 596.895 952.84 601.711 959.475C603.274 962.03 605.163 964.702 606.403 967.421L604.851 968.164C600.135 966.754 586.896 953.963 582.053 950.127C579.204 947.665 576.152 945.435 573.153 943.16C565.838 937.307 557.245 932.51 548.578 928.998L548.542 930.13L551.719 931.946C550.134 936.469 530.069 947.388 524.969 949.828C522.816 950.858 518.897 953.123 516.498 952.715C517.238 950.423 518.047 948.045 517.02 945.681C516.321 944.073 515.056 942.99 513.346 942.58C511.621 942.167 509.165 942.889 507.781 943.941C505.983 945.308 505.756 946.432 505.259 948.491C505.677 950.525 506.329 951.951 508.034 953.229C509.098 954.027 510.474 954.618 511.668 955.198C509.11 958.562 494.273 961.745 489.891 962.363Q488.25 962.592 486.598 962.73C483.529 964.002 480.517 965.24 477.632 966.9C443.754 977.978 422.343 981.225 386.841 980.159C393.291 965.6 401.181 953.361 411.993 941.679C433.723 916.898 460.842 905.618 493.13 902.332Z"
     id="path2100" />
  <path
     fill="#FDBF46"
     d="M468.16 932.07C470.155 932.111 472.244 932.308 473.835 933.668C475.262 934.887 475.795 936.344 475.711 938.187C475.603 940.551 473.825 942.18 472.282 943.758C470.392 943.811 468.341 943.843 466.853 942.466C465.358 941.084 464.902 939.528 464.978 937.532C465.065 935.215 466.655 933.648 468.16 932.07Z"
     id="path2102" />
  <path
     fill="#FDBF46"
     d="M429.729 948.57C432.619 948.606 435.08 949.034 437.163 951.242C438.371 952.522 438.905 954.107 438.802 955.855C438.628 958.805 436.87 960.227 434.806 962.02C432.194 962.24 430.04 961.996 428.007 960.163C426.554 958.853 425.994 957.075 426.068 955.151C426.183 952.109 427.705 950.568 429.729 948.57Z"
     id="path2104" />
  <path
     fill="#FEFEFE"
     d="M493.13 902.332C528.362 902.851 561.272 914.908 586.159 940.54C591.877 946.429 596.895 952.84 601.711 959.475C603.274 962.03 605.163 964.702 606.403 967.421L604.851 968.164C600.135 966.754 586.896 953.963 582.053 950.127C579.204 947.665 576.152 945.435 573.153 943.16C565.838 937.307 557.245 932.51 548.578 928.998C526.282 915.2 485.327 914.491 460.381 920.356C449.886 922.824 439.357 926.408 429.951 931.706C424.237 934.925 418.086 939.407 411.993 941.679C433.723 916.898 460.842 905.618 493.13 902.332Z"
     id="path2106" />
  <defs
     id="defs2113">
    <linearGradient
       id="gradient_0"
       gradientUnits="userSpaceOnUse"
       x1="644.02386"
       y1="464.53452"
       x2="285.38379"
       y2="597.8606">
      <stop
         offset="0"
         stop-color="#5A4AA0"
         id="stop2108" />
      <stop
         offset="1"
         stop-color="#A26BB7"
         id="stop2110" />
    </linearGradient>
  </defs>
  <path
     fill="url(#gradient_0)"
     d="M501.953 248.056L565.396 247.706Q577.129 334.01 587.152 420.529L594.182 479.831C596.27 497.265 597.744 514.864 603.012 531.7C614.261 567.656 638.913 593.751 660.608 623.402C680.914 651.156 694.032 681.129 697.013 715.47C658.261 715.368 619.032 714.001 580.332 715.392C545.563 716.648 510.334 715.551 475.526 715.549C426.034 715.547 376.439 716.213 326.958 715.359C333.471 639.066 373.804 622.714 406.324 561.426C412.218 549.909 417.415 538.005 420.349 525.365C423.275 512.763 424.371 499.701 425.897 486.874Q429.061 459.444 432.645 432.066Q444.892 339.966 458.577 248.068Q480.265 247.897 501.953 248.056Z"
     id="path2115" />
  <path
     fill="#FEFEFE"
     d="M435.636 575.971C437.116 576.008 438.604 576.022 440.076 576.205C442.754 576.538 446.014 578.07 447.595 580.289C449.038 582.314 449.065 584.926 448.542 587.27C443.927 607.953 405.112 633.281 390.964 650.577C388.392 653.721 386.664 657.329 384.724 660.868C381.416 666.903 378.463 672.986 376.252 679.513C374.61 684.359 373.422 690.316 371.038 694.784C370.067 696.606 368.184 697.659 366.468 698.68C364.898 698.833 363.116 698.793 361.572 698.47C359.258 697.987 356.858 696.638 355.558 694.624C353.209 690.986 354.485 685.686 355.407 681.766C360.712 659.213 376.099 636.898 393.397 621.807C401.789 614.486 411.03 608.275 418.433 599.858C424.645 592.797 427.745 580.901 435.636 575.971Z"
     id="path2117" />
  <path
     fill="#7777B9"
     d="M458.577 248.068Q480.265 247.897 501.953 248.056C536.711 316.567 569.419 406.594 544.37 483.263C534.7 512.86 516.817 534.57 488.928 548.637C463.713 561.355 434.092 563.258 406.324 561.426C412.218 549.909 417.415 538.005 420.349 525.365C423.275 512.763 424.371 499.701 425.897 486.874Q429.061 459.444 432.645 432.066Q444.892 339.966 458.577 248.068Z"
     id="path2119" />
  <path
     fill="#FEFEFE"
     d="M477.934 270.06C479.251 270.026 480.693 269.942 481.996 270.148C484.819 270.596 487.567 271.957 489.153 274.407C490.909 277.121 490.849 280.042 490.577 283.143C489.072 300.291 485.901 317.603 483.697 334.709L470.121 442.889Q466.823 468.562 463.783 494.267C462.592 505.165 462.38 517.396 459.585 527.992C458.553 531.907 456.214 533.302 452.944 535.209C451.187 535.29 449.354 535.345 447.648 534.854C444.84 534.046 442.173 532.428 440.75 529.807C439.404 527.328 439.689 524.635 439.946 521.93C441.222 508.519 443.45 495.132 445.011 481.739L460.786 352.34L467.123 301.557C468.08 293.86 468.268 284.15 470.652 276.853C471.868 273.129 474.693 271.725 477.934 270.06Z"
     id="path2121" />
</svg>
