<?xml version="1.0" encoding="UTF-8" standalone="no"?>
<svg
   width="856.92249"
   height="856.88788"
   version="1.1"
   id="svg3145"
   sodipodi:docname="galactic-user-icon-alt.svg"
   inkscape:version="1.1.2 (0a00cf5339, 2022-02-04)"
   xmlns:inkscape="http://www.inkscape.org/namespaces/inkscape"
   xmlns:sodipodi="http://sodipodi.sourceforge.net/DTD/sodipodi-0.dtd"
   xmlns="http://www.w3.org/2000/svg"
   xmlns:svg="http://www.w3.org/2000/svg">
  <defs
     id="defs3149" />
  <sodipodi:namedview
     id="namedview3147"
     pagecolor="#ffffff"
     bordercolor="#666666"
     borderopacity="1.0"
     inkscape:pageshadow="2"
     inkscape:pageopacity="0.0"
     inkscape:pagecheckerboard="0"
     showgrid="false"
     fit-margin-top="0"
     fit-margin-left="0"
     fit-margin-right="0"
     fit-margin-bottom="0"
     inkscape:zoom="0.80078125"
     inkscape:cx="427.70732"
     inkscape:cy="428.9561"
     inkscape:window-width="1920"
     inkscape:window-height="1009"
     inkscape:window-x="1920"
     inkscape:window-y="34"
     inkscape:window-maximized="1"
     inkscape:current-layer="svg3145" />
  <path
     fill="#271a42"
     d="m 407.72638,0.54918698 c 0.346,-0.0381 0.694,-0.0622 1.041,-0.0788 q 5.182,-0.2435 10.368,-0.361 5.186,-0.1174 10.374,-0.10879999587 5.187,0.008599996 10.373,0.14329999587 5.186,0.1347 10.367,0.3955 5.181,0.2607 10.354,0.64730002 5.173,0.3866 10.335,0.8988 5.162,0.5122 10.31,1.1498 5.148,0.6375 10.28,1.4 5.131,0.7625 10.242,1.6495 5.111,0.887 10.199,1.8979 5.088,1.011 10.15,2.1453 5.062,1.1344 10.095,2.3915 5.033,1.257 10.033,2.636 5.001,1.3794 9.967,2.8794 4.966,1.5 9.894,3.12 4.928,1.621 9.815,3.361 4.887,1.739 9.73,3.597 4.844,1.858 9.641,3.834 4.796,1.975 9.544,4.066 4.747,2.091 9.442,4.297 4.695,2.206 9.335,4.526 4.64,2.319 9.223,4.751 4.582,2.431 9.104,4.973 4.522,2.543 8.98,5.194 4.459,2.651 8.852,5.41 4.393,2.759 8.718,5.624 4.324,2.865 8.578,5.834 4.254,2.97 8.434,6.041 4.18,3.072 8.285,6.245 4.104,3.172 8.13,6.443 4.026,3.272 7.971,6.640003 3.946,3.368 7.808,6.831 c 88.498,80.134 137.059,184.991 142.851,304.009 1.124,23.104 -0.38,46.699 -3.323,69.625 q -0.518,4.104 -1.116,8.198 -0.598,4.094 -1.275,8.175 -0.677,4.081 -1.433,8.148 -0.756,4.068 -1.591,8.12 -0.834,4.051 -1.747,8.086 -0.913,4.035 -1.904,8.052 -0.991,4.017 -2.06,8.013 -1.068,3.997 -2.214,7.972 -1.146,3.975 -2.368,7.927 -1.223,3.953 -2.522,7.88 -1.299,3.928 -2.673,7.83 -1.375,3.902 -2.825,7.776 -1.45,3.875 -2.975,7.721 -1.525,3.845 -3.124,7.661 -1.599,3.815 -3.272,7.599 -1.672,3.784 -3.418,7.535 -1.746,3.75 -3.563,7.466 -1.818,3.717 -3.708,7.397 -1.89,3.68 -3.85,7.323 -1.961,3.643 -3.992,7.247 -2.03,3.605 -4.13,7.169 -2.101,3.564 -4.269,7.087 -2.169,3.523 -4.406,7.003 -2.237,3.48 -4.54,6.917 -2.304,3.436 -4.674,6.827 -2.37,3.391 -4.805,6.735 -2.435,3.345 -4.934,6.642 -2.499,3.296 -5.062,6.544 -2.563,3.247 -5.188,6.445 -2.625,3.197 -5.312,6.343 -2.686,3.146 -5.433,6.239 -2.748,3.094 -5.554,6.133 -3.52,3.82 -7.132,7.554 -3.612,3.734 -7.314,7.379 -3.701,3.646 -7.49,7.2 -3.789,3.554 -7.663,7.015 -3.874,3.462 -7.831,6.828 -3.957,3.366 -7.994,6.635 -4.038,3.269 -8.153,6.44 -4.116,3.17 -8.307,6.239 -4.191,3.07 -8.456,6.037 -4.264,2.966 -8.6,5.829 -4.335,2.863 -8.738,5.619 -4.404,2.756 -8.873,5.405 -4.469,2.649 -9.001,5.188 -4.532,2.54 -9.124,4.969 -4.592,2.429 -9.242,4.745 -4.65,2.317 -9.355,4.52 -4.705,2.203 -9.461,4.292 -4.757,2.088 -9.563,4.06 -4.806,1.973 -9.659,3.828 -4.852,1.855 -9.748,3.592 -4.897,1.736 -9.833,3.354 -4.937,1.617 -9.912,3.114 -4.974,1.498 -9.984,2.873 -5.009,1.376 -10.051,2.631 -5.041,1.254 -10.112,2.385 -5.07,1.131 -10.166,2.139 -5.097,1.008 -10.216,1.892 -5.119,0.884 -10.258,1.644 -5.139,0.759 -10.296,1.394 -5.156,0.634 -10.326,1.144 -5.17,0.509 -10.351,0.893 -5.18,0.383 -10.369,0.641 l -0.739,0.04 q -5.193,0.253 -10.39,0.379 -5.198,0.126 -10.397,0.125 -5.199,-10e-4 -10.396,-0.128 -5.198,-0.128 -10.39,-0.382 -5.193,-0.254 -10.378,-0.635 -5.185,-0.38 -10.359,-0.887 -5.175,-0.507 -10.335,-1.14 -5.16,-0.633 -10.304,-1.392 -5.143,-0.759 -10.266,-1.642 -5.124,-0.884 -10.224,-1.893 -5.1,-1.008 -10.174,-2.141 -5.074,-1.132 -10.119,-2.388 -5.045,-1.256 -10.058,-2.635 -5.013,-1.378 -9.991,-2.878 -4.978,-1.501 -9.918,-3.122 -4.939,-1.621 -9.838,-3.362 -4.899,-1.742 -9.754,-3.602 -4.854,-1.86 -9.662,-3.838 -4.808,-1.978 -9.567,-4.073 -4.758,-2.094 -9.464,-4.304 -4.706,-2.21 -9.357,-4.534 -4.65,-2.324 -9.243,-4.761 -4.592,-2.437 -9.124,-4.985 -4.532,-2.548 -9,-5.205 -4.469,-2.658 -8.871,-5.424 -4.402,-2.766 -8.735,-5.638 -4.334,-2.873 -8.596,-5.85 -4.262,-2.977 -8.45,-6.058 -4.189,-3.08 -8.301,-6.261 -4.111,-3.182 -8.145,-6.463 -4.033,-3.28 -7.985,-6.658 -3.952,-3.379 -7.82,-6.852 C 60.504376,673.02589 6.4636757,566.83889 0.81807568,454.74589 q -0.9443,-15.977 -0.7986,-31.98 0.1456,-16.004 1.38050002,-31.961 0.3685,-4.248 0.8224,-8.488 0.4538,-4.239 0.9928,-8.469 0.539,-4.23 1.1629,-8.448 0.6239,-4.218 1.3324,-8.422 0.7086,-4.205 1.5016,-8.394 0.7929,-4.19 1.6699,-8.362 0.877,-4.173 1.8378003,-8.327 0.9607,-4.155 2.0047,-8.289 1.0441,-4.134 2.171,-8.246 1.127,-4.112 2.3359,-8.201 1.21,-4.089 2.501,-8.152 1.291,-4.064 2.664,-8.101 1.373,-4.037 2.827,-8.045 1.453,-4.009 2.987,-7.987 1.534,-3.978 3.148,-7.925 1.613,-3.947 3.306,-7.86 1.693,-3.914 3.464,-7.793 1.771,-3.878 3.619,-7.721 1.849,-3.842 3.774,-7.646 1.926,-3.805 3.927,-7.57 2.002,-3.765 4.078,-7.488 2.077,-3.724 4.228,-7.406 2.152,-3.681 4.377,-7.319 2.224,-3.637 4.522,-7.229 2.297,-3.592 4.667,-7.137 2.369,-3.545 4.809,-7.042 2.44,-3.496 4.95,-6.943 2.51,-3.447 5.088,-6.843 2.579,-3.396 5.225,-6.739 2.647,-3.343 5.36,-6.633 2.713,-3.289 5.491004,-6.523 2.779,-3.234 5.622,-6.412 3.558,-3.975 7.212,-7.861 3.654,-3.887 7.403,-7.682 3.749,-3.796 7.589,-7.498 3.841,-3.702 7.771,-7.309 3.93,-3.607 7.948,-7.117 4.018,-3.509 8.12,-6.919 4.103,-3.410003 8.288,-6.718003 4.185,-3.308 8.45,-6.512 4.265,-3.205 8.607,-6.303 4.343,-3.099 8.76,-6.09 4.417,-2.991 8.906,-5.873 4.489,-2.882 9.048,-5.653 4.558,-2.77 9.184,-5.428 4.625,-2.659 9.314,-5.202 4.689,-2.544 9.439,-4.972 4.75,-2.428 9.558,-4.738 4.808,-2.311 9.672,-4.503 4.863,-2.192 9.779,-4.263 4.916,-2.072 9.881,-4.023 4.965,-1.95 9.977,-3.778 5.012,-1.828 10.067,-3.533 5.055,-1.704 10.15,-3.284 5.095,-1.58 10.228,-3.035 5.132,-1.454 10.299,-2.782 5.166,-1.3279 10.364,-2.5287 5.198,-1.2008 10.423,-2.2736 5.226,-1.0728 10.476,-2.017 5.251,-0.9443 10.523,-1.7594 5.271,-0.815 10.562,-1.5005 5.29,-0.6854 10.596,-1.2408 5.305,-0.5554 10.623,-0.9804 5.318,-0.42500002 10.644,-0.71930002 z"
     id="path3111" />
  <path
     fill="#0abeb0"
     d="m 759.66238,425.40889 c 1.069,0.1 2.162,0.198 3.186,0.535 q 0.452,0.147 0.885,0.341 0.434,0.194 0.845,0.433 0.411,0.238 0.794,0.519 0.383,0.28 0.735,0.6 0.352,0.319 0.668,0.674 0.316,0.355 0.592,0.741 0.277,0.386 0.512,0.799 0.234,0.413 0.424,0.849 c 0.901,2.113 0.841,4.495 -0.044,6.602 -1.151,2.743 -3.168,3.944 -5.799,5.063 -1.664,-0.062 -3.328,-0.178 -4.872,-0.867 -2.316,-1.033 -4.225,-3.064 -4.991,-5.497 -0.65,-2.066 -0.489,-4.306 0.58,-6.206 1.474,-2.62 3.705,-3.76 6.485,-4.586 z"
     id="path3113" />
  <path
     fill="#0abeb0"
     d="m 724.96338,295.88389 c 1.277,0.095 2.664,0.196 3.875,0.626 2.382,0.848 4.375,2.863 5.292,5.206 q 0.16,0.41 0.278,0.835 0.119,0.424 0.195,0.858 0.076,0.434 0.109,0.873 0.033,0.439 0.022,0.879 -0.011,0.441 -0.066,0.878 -0.054,0.437 -0.151,0.867 -0.098,0.429 -0.237,0.847 -0.139,0.418 -0.319,0.82 c -1.222,2.788 -3.249,3.95 -5.968,5.032 -1.034,-0.129 -2.092,-0.251 -3.104,-0.501 -2.515,-0.623 -4.699,-2.524 -5.911,-4.778 q -0.196,-0.367 -0.354,-0.753 -0.157,-0.385 -0.273,-0.785 -0.117,-0.4 -0.191,-0.81 -0.074,-0.41 -0.105,-0.825 -0.031,-0.415 -0.019,-0.832 0.012,-0.416 0.068,-0.829 0.055,-0.412 0.153,-0.817 0.098,-0.405 0.238,-0.797 c 1.139,-3.156 3.542,-4.698 6.468,-5.994 z"
     id="path3115" />
  <path
     fill="#0abeb0"
     d="m 367.07938,56.359887 c 1.65,-0.117 3.331,-0.092 4.888,0.52 q 0.42,0.16 0.821,0.362 0.401,0.202 0.78,0.443 0.379,0.241 0.732,0.519 0.352,0.278 0.675,0.59 0.323,0.312 0.613,0.655 0.29,0.343 0.544,0.714 0.253,0.371 0.468,0.765 0.216,0.394 0.39,0.808 0.162,0.39 0.284,0.794 0.122,0.404 0.203,0.819 0.082,0.414 0.121,0.835 0.04,0.42 0.038,0.842 -0.003,0.423 -0.047,0.843 -0.045,0.419 -0.131,0.833 -0.086,0.413 -0.213,0.816 -0.127,0.403 -0.293,0.791 c -1.19,2.713 -3.172,4.05 -5.822,5.155 -0.887,-0.002 -1.793,-0.003 -2.673,-0.128 -2.533,-0.361 -5.1,-1.856 -6.496,-4.025 -1.259,-1.957 -1.555,-4.264 -0.936,-6.496 0.937,-3.379 3.147,-4.821 6.054,-6.455 z"
     id="path3117" />
  <path
     fill="#8d8b87"
     d="m 642.98738,388.41889 c 1.497,-0.051 3.045,0.027 4.497,0.425 2.419,0.664 4.59,2.704 5.631,4.955 q 0.183,0.393 0.327,0.802 0.143,0.409 0.246,0.831 0.102,0.421 0.163,0.851 0.06,0.429 0.078,0.862 0.018,0.433 -0.007,0.866 -0.025,0.433 -0.093,0.862 -0.067,0.428 -0.176,0.848 -0.11,0.419 -0.26,0.826 c -1.158,3.056 -3.429,4.641 -6.329,5.864 -1.584,0.068 -3.213,0.099 -4.729,-0.442 -2.476,-0.883 -4.621,-2.946 -5.638,-5.363 q -0.171,-0.395 -0.302,-0.805 -0.131,-0.411 -0.221,-0.832 -0.09,-0.421 -0.138,-0.849 -0.048,-0.428 -0.054,-0.858 -0.006,-0.431 0.03,-0.86 0.037,-0.429 0.115,-0.852 0.079,-0.424 0.199,-0.837 0.119,-0.414 0.279,-0.814 c 1.228,-3.022 3.482,-4.323 6.382,-5.48 z"
     id="path3119" />
  <path
     fill="#0abeb0"
     d="m 73.394376,371.91389 c 1.759,-0.186 3.581,-0.389 5.317,0.072 2.349,0.625 4.576,2.469 5.757,4.572 q 0.211,0.373 0.383,0.766 0.172,0.392 0.304,0.8 0.132,0.407 0.222,0.826 0.091,0.419 0.139,0.845 0.048,0.426 0.054,0.854 0.005,0.429 -0.032,0.855 -0.038,0.427 -0.118,0.848 -0.08,0.421 -0.202,0.832 c -0.971,3.272 -3.321,4.903 -6.22,6.378 -1.327,0.247 -2.666,0.31 -3.999,0.051 q -0.434,-0.082 -0.858,-0.206 -0.423,-0.124 -0.833,-0.289 -0.409,-0.165 -0.8,-0.37 -0.391,-0.205 -0.76,-0.447 -0.369,-0.243 -0.713,-0.52 -0.343,-0.278 -0.657,-0.588 -0.314,-0.311 -0.596,-0.65 -0.282,-0.34 -0.529,-0.706 c -1.425,-2.143 -1.815,-4.786 -1.302,-7.286 0.701,-3.413 2.62,-4.881 5.443,-6.637 z"
     id="path3121" />
  <path
     fill="#9e89b4"
     d="m 170.06638,442.92089 c 1.834,-0.158 3.792,-0.427 5.593,0.079 2.535,0.713 4.888,2.593 6.137,4.909 q 0.231,0.42 0.417,0.861 0.186,0.442 0.324,0.901 0.137,0.459 0.226,0.93 0.089,0.47 0.127,0.948 0.039,0.478 0.026,0.956 -0.012,0.479 -0.075,0.954 -0.062,0.476 -0.175,0.941 -0.113,0.466 -0.274,0.917 c -1.151,3.141 -3.44,4.733 -6.334,6.135 -1.518,0.265 -2.948,0.464 -4.48,0.175 -2.579,-0.486 -4.994,-2.022 -6.395,-4.257 -1.503,-2.398 -1.838,-5.246 -1.099,-7.959 0.929,-3.409 3.048,-4.831 5.982,-6.49 z"
     id="path3123" />
  <path
     fill="#f6cb22"
     d="m 216.08638,155.69389 c 2.311,2.896 3.632,7.208 5.56,10.447 3.921,6.584 10.076,11.6 15.715,16.649 -9.397,7.936 -15.669,15.525 -21.385,26.392 -6.124,-12.218 -11.375,-17.526 -21.759,-26.221 10.203,-7.595 17.097,-15.426 21.869,-27.267 z"
     id="path3125" />
  <path
     fill="#f6cb22"
     d="m 608.16238,109.23189 c 2.668,2.922 4.529,7.226 6.92,10.477 6.791,9.235 15.212,16.365 24.388,23.073 -12.888,9.551 -22.802,20.091 -31.166,33.787 -7.842,-13.59 -19.045,-25.061 -31.776,-34.151 14.159,-9.73 22.725,-18.544 31.634,-33.186 z"
     id="path3127" />
  <path
     fill="#038784"
     d="m 609.58938,538.37789 c 5.636,5.276 10.624,11.605 15.447,17.626 29.023,36.232 44.474,77.814 50.628,123.431 -15.918,12.625 -34.097,23.635 -52.28,32.652 0.009,-11.762 2.461,-23.956 3.237,-35.764 q 0.607,-9.929 0.72,-19.876 0.113,-9.947 -0.268,-19.887 -0.382,-9.94 -1.256,-19.849 -0.874,-9.909 -2.24,-19.762 -2.395,-16.799 -6.923,-33.152 c -2.286,-8.138 -5.484,-16.445 -6.951,-24.751 z"
     id="path3129" />
  <path
     fill="#0abeb0"
     d="m 335.66438,477.72289 c 10.041,13.223 20.338,24.962 34.417,34.117 q -1.605,0.971 -3.185,1.981 -1.58,1.011 -3.135,2.059 -1.555,1.049 -3.083,2.136 -1.529,1.086 -3.03,2.211 -1.502,1.123 -2.975,2.284 -1.474,1.161 -2.918,2.357 -1.444,1.196 -2.859,2.428 -1.414,1.232 -2.798,2.498 -1.384,1.266 -2.736,2.565 -1.352,1.3 -2.672,2.632 -1.32,1.333 -2.607,2.697 -1.287,1.365 -2.539,2.761 -1.253,1.395 -2.471,2.822 -1.218,1.426 -2.401,2.881 -1.182,1.456 -2.329,2.94 -1.146,1.485 -2.256,2.997 -1.11,1.512 -2.182,3.051 -1.072,1.539 -2.106,3.103 -1.034,1.565 -2.029,3.155 -0.995,1.589 -1.951,3.203 -0.956,1.614 -1.872,3.251 -0.915,1.636 -1.791,3.295 -0.875,1.659 -1.709,3.339 -0.834,1.68 -1.627,3.379 -0.793,1.7 -1.543,3.419 -0.751,1.719 -1.459,3.455 -0.708,1.737 -1.374,3.491 -0.665,1.753 -1.287,3.523 -0.622,1.769 -1.2,3.553 -0.578,1.784 -1.112,3.582 -0.534,1.798 -1.024,3.609 -0.49,1.81 -0.935,3.632 -1.674,6.396 -2.738,12.921 -1.065,6.526 -1.511,13.122 c -0.765,13.285 0.82,102.998 -0.568,106.051 q -10.202,-3.161 -20.223,-6.852 -10.022,-3.692 -19.836,-7.905 -9.814,-4.214 -19.393,-8.936 -9.579,-4.723 -18.897,-9.942 c -12.718,-7.203 -25.02,-15.4 -37.308,-23.317 1.513,-21.734 7.136,-44.415 15.179,-64.668 26.369,-66.403 75.247,-111.019 140.073,-138.88 z"
     id="path3131" />
  <path
     fill="#6d3f8c"
     d="m 369.95138,432.09589 c -32.866,-10.59 -61.529,-36.9 -77.192,-67.452 -18.309,-35.716 -20.095,-78.764 -7.712,-116.62 q 0.591,-1.774 1.226,-3.533 0.634,-1.76 1.312,-3.503 0.677,-1.743 1.396,-3.469 0.72,-1.727 1.481,-3.435 0.762,-1.708 1.565,-3.397 0.802,-1.689 1.646,-3.358 0.844,-1.669 1.728,-3.317 0.885,-1.648 1.809,-3.274 0.924,-1.625 1.888,-3.228 0.963,-1.603 1.966,-3.182 1.002,-1.578 2.043,-3.132 1.041,-1.554 2.119,-3.082 1.078,-1.528 2.193,-3.03 1.116,-1.501 2.267,-2.974 1.152,-1.474 2.339,-2.919 1.187,-1.445 2.409,-2.861 1.222,-1.416 2.478,-2.801 1.256,-1.385 2.546,-2.74 1.29,-1.354 2.612,-2.677 1.322,-1.322 2.677,-2.612 1.354,-1.29 2.739,-2.546 1.385,-1.257 2.801,-2.479 1.415,-1.222 2.86,-2.41 1.445,-1.187 2.918,-2.339 1.474,-1.152 2.975,-2.267 1.501,-1.116 3.029,-2.194 1.528,-1.079 3.081,-2.12 1.554,-1.04 3.133,-2.043 1.578,-1.003 3.181,-1.967 1.602,-0.964 3.228,-1.888 1.626,-0.925 3.273,-1.809 1.648,-0.885 3.317,-1.729 1.648,-0.821 3.316,-1.6 1.668,-0.78 3.354,-1.518 1.687,-0.738 3.391,-1.435 1.704,-0.696 3.425,-1.35 1.721,-0.654 3.458,-1.266 1.737,-0.611 3.488,-1.179 1.751,-0.569 3.515,-1.094 1.765,-0.525 3.542,-1.006 1.777,-0.481 3.566,-0.918 1.788,-0.437 3.587,-0.83 1.798,-0.393 3.606,-0.741 1.808,-0.349 3.624,-0.652 1.816,-0.304 3.639,-0.562 1.822,-0.259 3.651,-0.473 1.829,-0.213 3.662,-0.382 1.833,-0.168 3.67,-0.291 1.837,-0.123 3.677,-0.2 1.839,-0.078 3.68,-0.11 1.841,-0.032 3.682,-0.019 1.841,0.013 3.681,0.072 1.84,0.059 3.678,0.163 1.838,0.104 3.673,0.254 1.835,0.149 3.666,0.344 1.831,0.195 3.656,0.435 1.826,0.24 3.644,0.524 1.819,0.285 3.631,0.615 1.811,0.33 3.613,0.704 1.803,0.375 3.596,0.794 1.793,0.418 3.575,0.881 1.782,0.463 3.551,0.97 1.77,0.507 3.527,1.057 1.757,0.55 3.5,1.144 1.736,0.577 3.458,1.196 1.721,0.62 3.427,1.282 1.706,0.661 3.394,1.365 1.689,0.703 3.36,1.448 1.671,0.745 3.323,1.531 1.653,0.786 3.285,1.612 1.632,0.827 3.243,1.693 1.612,0.866 3.201,1.772 1.59,0.906 3.157,1.851 1.567,0.944 3.11,1.927 1.543,0.983 3.061,2.004 1.518,1.021 3.011,2.078 1.493,1.058 2.959,2.152 1.466,1.095 2.905,2.225 1.439,1.13 2.849,2.295 1.411,1.165 2.792,2.365 1.382,1.199 2.733,2.433 1.351,1.233 2.672,2.499 1.321,1.266 2.61,2.564 1.289,1.299 2.545,2.628 1.257,1.33 2.48,2.69 1.224,1.361 2.413,2.751 1.19,1.39 2.345,2.809 1.155,1.418 2.275,2.865 1.119,1.447 2.203,2.921 1.084,1.474 2.131,2.975 1.047,1.5 2.056,3.026 1.01,1.525 1.982,3.075 0.972,1.55 1.905,3.124 0.934,1.573 1.828,3.17 0.894,1.596 1.749,3.213 0.854,1.618 1.669,3.256 0.836,1.665 1.631,3.35 0.796,1.685 1.549,3.389 0.754,1.704 1.466,3.426 0.712,1.722 1.381,3.461 0.67,1.739 1.297,3.494 0.627,1.754 1.21,3.524 0.584,1.769 1.124,3.553 0.541,1.783 1.037,3.579 0.497,1.796 0.949,3.603 0.453,1.808 0.861,3.626 0.408,1.818 0.772,3.645 0.364,1.828 0.683,3.664 0.318,1.835 0.592,3.679 0.274,1.843 0.503,3.692 0.229,1.849 0.412,3.703 0.184,1.855 0.322,3.713 0.138,1.858 0.23,3.719 0.093,1.861 0.14,3.724 0.047,1.862 0.049,3.726 10e-4,1.863 -0.043,3.726 -0.044,1.863 -0.133,3.724 -0.09,1.861 -0.225,3.719 -0.135,1.859 -0.315,3.713 -0.181,1.855 -0.406,3.704 -0.226,1.85 -0.497,3.693 -0.271,1.844 -0.587,3.68 -0.315,1.837 -0.676,3.665 -0.361,1.828 -0.766,3.647 -0.405,1.818 -0.855,3.627 -0.449,1.808 -0.943,3.605 -0.493,1.796 -1.031,3.58 -0.537,1.785 -1.118,3.555 c -11.944,35.359 -37.699,67.443 -71.38,84.1 -3.662,1.81 -8.17,4.045 -12.203,4.729 q 0.056,-8.273 -0.149,-16.544 c 15.443,-11.733 27.966,-28.155 36.378,-45.545 14.714,-30.416 20.849,-76.899 9.493,-109.168 -4.68,-13.3 -13.831,-23.496 -26.6,-29.553 -24.794,-11.759 -35.548,1.523 -54.865,14.434 q -5.577,3.675 -11.565,6.634 -5.987,2.959 -12.294,5.157 c -34.184,12.254 -63.968,7.375 -96.043,-7.78 -10.32,17.909 -13.312,38.292 -12.439,58.636 1.369,31.919 11.621,63.384 32.698,87.813 5.759,6.675 12.453,12.503 18.94,18.454 -0.737,5.949 -0.552,12.001 -0.57,17.986 z"
     id="path3133" />
  <path
     fill="#f6c592"
     d="m 331.32238,249.20689 c 32.075,15.155 61.859,20.034 96.043,7.78 q 6.307,-2.198 12.294,-5.157 5.988,-2.959 11.565,-6.634 c 19.317,-12.911 30.071,-26.193 54.865,-14.434 12.769,6.057 21.92,16.253 26.6,29.553 11.356,32.269 5.221,78.752 -9.493,109.168 -8.412,17.39 -20.935,33.812 -36.378,45.545 q 0.205,8.271 0.149,16.544 l 0.052,23.117 c -6.028,3.302 -13.055,5.396 -19.658,7.239 -33.663,9.396 -67.207,4.133 -97.513,-12.912 l 0.103,-16.92 c 0.018,-5.985 -0.167,-12.037 0.57,-17.986 -6.487,-5.951 -13.181,-11.779 -18.94,-18.454 -21.077,-24.429 -31.329,-55.894 -32.698,-87.813 -0.873,-20.344 2.119,-40.727 12.439,-58.636 z"
     id="path3135" />
  <path
     fill="#ce9d81"
     d="m 370.52138,414.10989 c 21.645,15.686 45.871,26.884 73.262,22.404 15.994,-2.617 30.773,-11.175 43.035,-21.486 q 0.205,8.271 0.149,16.544 l 0.052,23.117 c -6.028,3.302 -13.055,5.396 -19.658,7.239 -33.663,9.396 -67.207,4.133 -97.513,-12.912 l 0.103,-16.92 c 0.018,-5.985 -0.167,-12.037 0.57,-17.986 z"
     id="path3137" />
  <path
     fill="#04ada0"
     d="m 369.84838,449.01589 c 30.306,17.045 63.85,22.308 97.513,12.912 6.603,-1.843 13.63,-3.937 19.658,-7.239 l 0.046,12.863 c 10.962,3.235 22.46,6.294 32.962,10.867 32.011,11.735 66.684,34.659 89.562,59.959 l 0.114,0.668 c 1.467,8.306 4.665,16.613 6.951,24.751 q 4.528,16.353 6.923,33.152 1.366,9.853 2.24,19.762 0.874,9.909 1.256,19.849 0.381,9.94 0.268,19.887 -0.113,9.947 -0.72,19.876 c -0.776,11.808 -3.228,24.002 -3.237,35.764 q -3.907,1.929 -7.85,3.781 -3.944,1.851 -7.923,3.626 -3.979,1.774 -7.993,3.47 -4.013,1.696 -8.058,3.313 -4.046,1.617 -8.122,3.155 -4.077,1.537 -8.183,2.995 -4.106,1.457 -8.239,2.834 -4.134,1.377 -8.293,2.672 -4.16,1.296 -8.345,2.509 -4.184,1.214 -8.391,2.346 -4.208,1.132 -8.436,2.181 -4.229,1.049 -8.477,2.015 -4.248,0.966 -8.515,1.848 -4.266,0.883 -8.549,1.682 -4.283,0.799 -8.581,1.514 -4.298,0.715 -8.609,1.345 -4.311,0.631 -8.633,1.177 -4.323,0.546 -8.655,1.007 -4.332,0.462 -8.673,0.838 -4.34,0.377 -8.687,0.668 -4.348,0.291 -8.7,0.497 -4.351,0.207 -8.707,0.327 -4.355,0.121 -8.711,0.157 -4.357,0.035 -8.714,-0.014 -4.356,-0.05 -8.711,-0.185 -4.355,-0.135 -8.706,-0.355 -4.351,-0.221 -8.697,-0.526 -4.346,-0.306 -8.686,-0.696 -4.339,-0.391 -8.67,-0.866 -4.331,-0.476 -8.651,-1.036 -4.321,-0.56 -8.63,-1.204 -4.309,-0.645 -8.604,-1.374 c -18.999,-3.233 -37.432,-8.176 -55.916,-13.565 1.388,-3.053 -0.197,-92.766 0.568,-106.051 q 0.446,-6.596 1.511,-13.122 1.064,-6.525 2.738,-12.921 0.445,-1.822 0.935,-3.632 0.49,-1.811 1.024,-3.609 0.534,-1.798 1.112,-3.582 0.578,-1.784 1.2,-3.553 0.622,-1.77 1.287,-3.523 0.666,-1.754 1.374,-3.491 0.708,-1.736 1.459,-3.455 0.75,-1.719 1.543,-3.419 0.793,-1.7 1.627,-3.379 0.834,-1.68 1.709,-3.339 0.876,-1.659 1.791,-3.295 0.916,-1.637 1.872,-3.251 0.956,-1.614 1.951,-3.203 0.995,-1.59 2.029,-3.155 1.034,-1.565 2.106,-3.103 1.072,-1.539 2.182,-3.051 1.11,-1.512 2.256,-2.997 1.146,-1.484 2.329,-2.94 1.183,-1.455 2.401,-2.881 1.218,-1.427 2.471,-2.822 1.252,-1.396 2.539,-2.761 1.287,-1.364 2.607,-2.697 1.32,-1.332 2.672,-2.632 1.352,-1.299 2.736,-2.565 1.384,-1.266 2.798,-2.498 1.415,-1.232 2.859,-2.428 1.444,-1.196 2.918,-2.357 1.473,-1.161 2.975,-2.284 1.501,-1.125 3.03,-2.211 1.528,-1.087 3.083,-2.136 1.555,-1.048 3.135,-2.059 1.58,-1.01 3.185,-1.981 c -14.079,-9.155 -24.376,-20.894 -34.417,-34.117 q 16.887,-6.066 34.124,-11.047 z"
     id="path3139" />
  <path
     fill="#f6cb22"
     d="m 523.83438,586.53589 q 1.046,-0.095 2.095,-0.144 1.049,-0.048 2.1,-0.05 1.05,-0.001 2.099,0.044 1.049,0.045 2.096,0.137 1.046,0.092 2.087,0.23 1.041,0.139 2.075,0.324 1.034,0.185 2.058,0.416 1.025,0.231 2.038,0.507 1.014,0.276 2.013,0.597 1,0.322 1.985,0.687 0.985,0.366 1.952,0.775 0.967,0.409 1.915,0.861 0.948,0.452 1.875,0.945 0.927,0.494 1.832,1.029 0.904,0.534 1.783,1.109 0.879,0.574 1.732,1.187 0.968,0.691 1.9,1.429 0.933,0.738 1.828,1.521 0.895,0.783 1.75,1.609 0.855,0.827 1.669,1.694 0.813,0.868 1.583,1.774 0.769,0.907 1.493,1.851 0.724,0.943 1.4,1.922 0.676,0.978 1.303,1.988 0.627,1.011 1.203,2.051 0.577,1.04 1.101,2.108 0.524,1.067 0.995,2.159 0.471,1.092 0.888,2.206 0.416,1.114 0.777,2.247 0.36,1.133 0.665,2.283 0.304,1.149 0.551,2.313 0.248,1.163 0.437,2.337 0.21,1.254 0.357,2.517 0.146,1.263 0.229,2.531 0.083,1.269 0.102,2.54 0.019,1.271 -0.026,2.542 -0.045,1.271 -0.153,2.537 -0.109,1.267 -0.281,2.527 -0.173,1.259 -0.408,2.509 -0.236,1.249 -0.533,2.485 -0.298,1.236 -0.658,2.455 -0.36,1.22 -0.78,2.42 -0.421,1.199 -0.901,2.377 -0.48,1.177 -1.019,2.328 -0.539,1.152 -1.135,2.275 -0.596,1.123 -1.248,2.214 -0.652,1.092 -1.358,2.149 -0.706,1.057 -1.464,2.078 c -7.991,10.792 -18.776,16.654 -31.923,18.675 -0.224,0.035 -0.448,0.072 -0.673,0.104 -11.854,1.695 -24.876,-1.898 -34.303,-9.217 -10.516,-8.164 -16.691,-20.461 -18.252,-33.575 -1.578,-13.262 1.869,-26.446 10.28,-36.892 8.305,-10.316 19.797,-16.289 32.869,-17.725 z"
     id="path3141" />
  <path
     fill="#f6c592"
     d="m 369.84838,449.01589 c 30.306,17.045 63.85,22.308 97.513,12.912 6.603,-1.843 13.63,-3.937 19.658,-7.239 l 0.046,12.863 c 10.962,3.235 22.46,6.294 32.962,10.867 -13.251,23.273 -34.234,40.013 -60.135,47.229 -28.212,7.859 -59.896,3.265 -85.247,-11.101 q -2.304,-1.316 -4.564,-2.707 c -14.079,-9.155 -24.376,-20.894 -34.417,-34.117 q 16.887,-6.066 34.124,-11.047 z"
     id="path3143" />
</svg>
