<?xml version="1.0" encoding="UTF-8" standalone="no"?>
<svg
   width="1024"
   height="1024"
   viewBox="0 0 1024 1024"
   version="1.1"
   id="svg1938"
   sodipodi:docname="galactic-shopping-list-icon.svg"
   inkscape:version="1.2.2 (b0a8486541, 2022-12-01)"
   xmlns:inkscape="http://www.inkscape.org/namespaces/inkscape"
   xmlns:sodipodi="http://sodipodi.sourceforge.net/DTD/sodipodi-0.dtd"
   xmlns="http://www.w3.org/2000/svg"
   xmlns:svg="http://www.w3.org/2000/svg">
  <defs
     id="defs1942" />
  <sodipodi:namedview
     id="namedview1940"
     pagecolor="#ffffff"
     bordercolor="#666666"
     borderopacity="1.0"
     inkscape:showpageshadow="2"
     inkscape:pageopacity="0.0"
     inkscape:pagecheckerboard="0"
     inkscape:deskcolor="#d1d1d1"
     showgrid="false"
     inkscape:zoom="0.76464844"
     inkscape:cx="511.3461"
     inkscape:cy="512"
     inkscape:window-width="1920"
     inkscape:window-height="1003"
     inkscape:window-x="1920"
     inkscape:window-y="40"
     inkscape:window-maximized="1"
     inkscape:current-layer="svg1938" />
  <path
     fill="#2A1051"
     d="M430.326 123.744C449.343 92.5493 485.946 76.8735 521.746 81.1512C536.188 82.877 554.702 89.0333 565.98 98.514C570.26 101.732 573.627 104.559 577.46 108.337C584.041 114.391 591.72 124.383 595.07 132.669C596.17 135.004 598.869 141.651 600.381 143.007C603.456 142.25 616.231 142.532 620.12 142.543L658.73 142.62L710.439 142.621C732.632 142.599 760.241 138.465 767.462 167.411C769.755 176.604 768.009 187.129 768.521 196.554C768.754 212.799 768.116 229.234 768.605 245.464C812.741 227.985 854.908 234.103 888.794 267.888C890.108 269.198 893.659 272.613 894.533 274.121C914.574 297.125 926.419 334.704 924.295 365.181C922.412 392.194 911.067 410.599 890.846 427.93C865.697 449.401 833.037 459.981 800.076 457.334C789.172 456.408 779.683 453.38 769.515 449.57L769.543 480.686L769.556 655.075C744.151 650.73 722.303 654.615 701.023 669.751C682.25 682.834 669.599 702.985 665.976 725.579C664.499 734.698 664.119 746.423 666.108 755.493C666.64 759.924 668.299 764.859 669.741 769.128C673.078 777.167 676.79 785.344 681.379 792.763C682.347 793.977 683.131 795.014 684.246 796.112L682.177 796.78C686.446 804.162 689.922 806.095 697.618 809.178L699.479 808.508C717.761 823.206 744.201 827.511 767.001 827.536C767.319 845.815 771.456 868.693 752.112 878.435C745.504 881.763 742.327 882.097 735.054 882.138L539.861 882.038L459.131 882.025C447.137 881.996 432.615 882.343 420.767 881.881C404.425 882.52 384.235 881.924 367.524 881.939C348.483 907.641 329.397 925.389 298.617 936.648C262.319 949.642 222.341 947.646 187.518 931.1C150.605 913.948 125.374 882.745 111.587 845.075C106.729 831.513 103.478 813.694 103.028 799.277C102.089 762.535 115.811 726.93 141.166 700.323C161.346 679.063 190.912 663.835 219.781 658.626C230.388 656.712 242.479 656.42 253.218 656.167C253.021 646.36 252.997 636.551 253.147 626.743L252.964 317.706C249.283 319.024 246.156 320.059 242.347 320.985C221.286 326.065 199.069 322.514 180.64 311.123C163.315 300.504 149.465 280.506 144.756 260.855C142.348 254.628 142.562 235.542 143.508 228.996C150.306 181.969 194.852 153.034 240.769 162.9C245.359 163.887 253.268 167.793 256.679 168.113C258.416 160.431 260.09 155.663 265.724 149.858C274.979 140.324 286.434 141.791 298.491 141.851L321.809 141.872L415.368 141.703L421.486 141.576C421.982 140.853 422.751 138.911 423.142 138.016C424.946 132.867 427.588 128.412 430.326 123.744Z"
     id="path1804" />
  <path
     fill="#23AE9B"
     d="M253.147 626.743C253.426 630.189 253.422 632.588 253.372 636.05L253.537 656.119C304.274 658.869 355.442 689.63 376.472 736.796C386.464 754.192 391.534 777.381 392.211 797.356C393.234 827.541 383.927 856.087 367.993 881.422L403.564 881.468C407.028 881.474 417.984 881.323 420.767 881.881C404.425 882.52 384.235 881.924 367.524 881.939C348.483 907.641 329.397 925.389 298.617 936.648C262.319 949.642 222.341 947.646 187.518 931.1C150.605 913.948 125.374 882.745 111.587 845.075C106.729 831.513 103.478 813.694 103.028 799.277C102.089 762.535 115.811 726.93 141.166 700.323C161.346 679.063 190.912 663.835 219.781 658.626C230.388 656.712 242.479 656.42 253.218 656.167C253.021 646.36 252.997 636.551 253.147 626.743Z"
     id="path1806" />
  <path
     fill="#096660"
     d="M376.472 736.796C386.464 754.192 391.534 777.381 392.211 797.356C393.234 827.541 383.927 856.087 367.993 881.422L403.564 881.468C407.028 881.474 417.984 881.323 420.767 881.881C404.425 882.52 384.235 881.924 367.524 881.939C348.483 907.641 329.397 925.389 298.617 936.648C262.319 949.642 222.341 947.646 187.518 931.1C150.605 913.948 125.374 882.745 111.587 845.075C121.077 850.521 133.405 855.693 143.845 858.986C195.726 875.352 238.783 868.245 286.231 842.711C320.261 824.397 349.722 796.664 367.842 761.978C371.35 755.263 374.277 744.363 376.472 736.796Z"
     id="path1808" />
  <path
     fill="#064B49"
     d="M231.602 890.035C240.723 889.2 248.802 895.898 249.672 905.017C250.541 914.135 243.874 922.239 234.759 923.143C225.595 924.052 217.438 917.34 216.564 908.174C215.69 899.007 222.432 890.875 231.602 890.035Z"
     id="path1810" />
  <path
     fill="#064B49"
     d="M335.909 848.53C344.201 848.522 346.233 856.744 339.814 860.926C339.054 860.853 338.296 860.757 337.541 860.638C331.096 859.564 328.988 852.495 335.909 848.53Z"
     id="path1812" />
  <path
     fill="#04927F"
     d="M178.906 731.888C197.32 729.396 214.258 742.326 216.709 760.745C219.16 779.164 206.193 796.074 187.769 798.485C169.402 800.888 152.556 787.97 150.112 769.608C147.668 751.246 160.55 734.371 178.906 731.888Z"
     id="path1814" />
  <path
     fill="#04927F"
     d="M294.534 791.339C304.164 790.289 312.87 797.121 314.14 806.725C315.41 816.328 308.779 825.188 299.207 826.678C292.818 827.672 286.391 825.128 282.412 820.03C278.434 814.933 277.528 808.081 280.044 802.124C282.561 796.167 288.105 792.04 294.534 791.339Z"
     id="path1816" />
  <path
     fill="#04927F"
     d="M331.567 750.589C343.751 749.405 348.826 761.219 337.751 767.219C333.421 768.087 328.79 767.332 326.404 763.207C325.243 761.195 324.989 758.785 325.706 756.575C326.765 753.239 328.67 752.13 331.567 750.589Z"
     id="path1818" />
  <path
     fill="#04927F"
     d="M297.171 707.175C300.478 706.161 303.99 707.973 305.081 711.256C306.172 714.539 304.443 718.092 301.186 719.26C299.011 720.039 296.584 719.58 294.845 718.058C293.105 716.537 292.326 714.193 292.809 711.933C293.292 709.673 294.961 707.852 297.171 707.175Z"
     id="path1820" />
  <path
     fill="#064B49"
     d="M209.185 688.132C212.378 687.268 215.68 689.096 216.644 692.261C217.608 695.425 215.885 698.783 212.753 699.846C210.636 700.565 208.297 700.074 206.648 698.565C204.999 697.056 204.303 694.77 204.831 692.598C205.359 690.426 207.028 688.715 209.185 688.132Z"
     id="path1822" />
  <path
     fill="#096660"
     d="M181.88 822.603C184.86 822.275 187.551 824.399 187.925 827.373C188.299 830.347 186.218 833.071 183.25 833.492C181.289 833.77 179.329 832.97 178.124 831.397C176.919 829.825 176.654 827.725 177.433 825.903C178.211 824.081 179.911 822.819 181.88 822.603Z"
     id="path1824" />
  <path
     fill="#096660"
     d="M126.473 793.942C134.904 793.282 134.07 800.565 129.26 805.014C122.697 805.171 120.587 798.357 126.473 793.942Z"
     id="path1826" />
  <path
     fill="#4A1277"
     d="M768.605 245.464C812.741 227.985 854.908 234.103 888.794 267.888C890.108 269.198 893.659 272.613 894.533 274.121C914.574 297.125 926.419 334.704 924.295 365.181C922.412 392.194 911.067 410.599 890.846 427.93C865.697 449.401 833.037 459.981 800.076 457.334C789.172 456.408 779.683 453.38 769.515 449.57C764.969 446.667 759.482 444.138 755.132 440.879C737.168 427.418 729.21 416.893 719.156 397.428L716.262 392.363C703.552 359.363 701.258 332.228 715.779 298.91C727.373 272.307 744.421 259.664 768.605 245.464Z"
     id="path1828" />
  <path
     fill="#4A1277"
     d="M719.156 397.428C721.942 398.687 724.743 399.913 727.558 401.107C799.421 431.062 904.444 384.795 898.938 298.888C898.587 293.417 893.313 277.068 894.533 274.121C914.574 297.125 926.419 334.704 924.295 365.181C922.412 392.194 911.067 410.599 890.846 427.93C865.697 449.401 833.037 459.981 800.076 457.334C789.172 456.408 779.683 453.38 769.515 449.57C764.969 446.667 759.482 444.138 755.132 440.879C737.168 427.418 729.21 416.893 719.156 397.428Z"
     id="path1830" />
  <path
     fill="#FEFEFE"
     d="M860.892 416.322C862.246 418.12 864.584 419.93 864.22 422.005C862.289 423.696 861.905 424.159 860.912 426.525L860.361 426.302C859.52 423.237 860.088 422.287 857.276 421.118C857.998 420.478 857.646 420.875 858.311 419.885L857.949 420.618C858.915 419.175 859.896 417.743 860.892 416.322Z"
     id="path1832" />
  <path
     fill="#E981A7"
     d="M755.575 330.884C763.474 329.995 770.608 335.656 771.536 343.552C772.464 351.447 766.838 358.608 758.947 359.576C751.001 360.55 743.778 354.875 742.844 346.924C741.909 338.974 747.619 331.779 755.575 330.884Z"
     id="path1834" />
  <path
     fill="#FEFEFE"
     d="M826.635 266.846C827.682 267.818 828.966 273.849 829.952 275.715C832.633 280.789 840.486 283.268 845.498 284.838C832.925 288.364 831.598 288.464 827.138 301.095L826.764 301.161C822.29 289.772 821.679 288.514 809.554 284.921C821.216 281.085 823.431 278.367 826.635 266.846Z"
     id="path1836" />
  <path
     fill="#FEFEFE"
     d="M803.947 362.352C806.673 365.008 804.534 366.829 811.41 370.524L807.17 372.914C806.213 374.822 805.301 376.75 804.434 378.7L803.755 378.746C800.856 373.255 797.112 372.568 795.936 370.344C801.051 367.598 801.072 367.266 803.947 362.352Z"
     id="path1838" />
  <path
     fill="#FEFEFE"
     d="M752.181 284.353C752.897 285.065 753.375 287.328 755.066 288.042C755.524 288.236 755.332 287.764 755.836 289.37C755.871 289.336 754.377 290.816 754.403 290.795C753.016 291.899 753.123 292.565 752.775 294.156C752.746 294.329 752.716 294.502 752.687 294.675C751.367 293.539 748.899 290.526 749.203 288.759C750.928 287.071 751.267 286.587 752.181 284.353Z"
     id="path1840" />
  <path
     fill="#00012F"
     d="M253.372 636.05C288.087 634.918 331.281 653.674 356.197 677.503C388.359 708.263 407.45 751.173 408.807 795.507C408.935 800.735 408.97 805.965 408.911 811.195C426.886 811.186 444.855 810.492 462.778 809.117C506.685 805.313 549.712 795.743 592.296 784.813C606.308 781.217 619.058 776.567 632.47 771.363C636.392 769.841 652.339 763.191 654.903 763.072L666.108 755.493C666.64 759.924 668.299 764.859 669.741 769.128C673.078 777.167 676.79 785.344 681.379 792.763C682.347 793.977 683.131 795.014 684.246 796.112L682.177 796.78C686.446 804.162 689.922 806.095 697.618 809.178L699.479 808.508C717.761 823.206 744.201 827.511 767.001 827.536C767.319 845.815 771.456 868.693 752.112 878.435C745.504 881.763 742.327 882.097 735.054 882.138L539.861 882.038L459.131 882.025C447.137 881.996 432.615 882.343 420.767 881.881C417.984 881.323 407.028 881.474 403.564 881.468L367.993 881.422C383.927 856.087 393.234 827.541 392.211 797.356C391.534 777.381 386.464 754.192 376.472 736.796C355.442 689.63 304.274 658.869 253.537 656.119L253.372 636.05Z"
     id="path1842" />
  <path
     fill="#C37654"
     d="M654.903 763.072L666.108 755.493C666.64 759.924 668.299 764.859 669.741 769.128C673.078 777.167 676.79 785.344 681.379 792.763C682.347 793.977 683.131 795.014 684.246 796.112L682.177 796.78C686.446 804.162 689.922 806.095 697.618 809.178C680.546 816.851 635.994 830.091 618.202 828.831C614.695 828.582 610.31 828.007 607.961 825.083C606.582 823.367 606.317 821.099 606.588 818.977C608.927 800.689 640.64 774.272 654.903 763.072Z"
     id="path1844" />
  <path
     fill="#00012F"
     d="M682.177 796.78C673.274 799.372 651.746 806.799 644.781 802.44C636.095 797.003 666.767 772.255 669.228 769.672L669.741 769.128C673.078 777.167 676.79 785.344 681.379 792.763C682.347 793.977 683.131 795.014 684.246 796.112L682.177 796.78Z"
     id="path1846" />
  <path
     fill="#E6A17A"
     d="M144.756 260.855C142.348 254.628 142.562 235.542 143.508 228.996C150.306 181.969 194.852 153.034 240.769 162.9C245.359 163.887 253.268 167.793 256.679 168.113C259.019 169.944 261.54 171.053 264.032 172.714C269.936 176.652 276.192 181.631 281.021 186.855C295.746 202.22 303.31 221.166 302.949 242.515C302.689 265.092 293.4 286.625 277.155 302.307C270.654 308.548 261.557 314.802 252.964 317.706C249.283 319.024 246.156 320.059 242.347 320.985C221.286 326.065 199.069 322.514 180.64 311.123C163.315 300.504 149.465 280.506 144.756 260.855Z"
     id="path1848" />
  <path
     fill="#C37654"
     d="M281.021 186.855C295.746 202.22 303.31 221.166 302.949 242.515C302.689 265.092 293.4 286.625 277.155 302.307C270.654 308.548 261.557 314.802 252.964 317.706C249.283 319.024 246.156 320.059 242.347 320.985C221.286 326.065 199.069 322.514 180.64 311.123C163.315 300.504 149.465 280.506 144.756 260.855C148.252 262.757 152.454 265.871 156.039 268.132C186.656 287.446 231.066 279.005 256.877 255.19C273.525 239.829 280.511 209.051 281.021 186.855Z"
     id="path1850" />
  <path
     fill="#2A1051"
     d="M279.784 266.804C280.666 266.387 281.707 266.493 282.488 267.079C283.268 267.665 283.66 268.635 283.506 269.599C283.352 270.563 282.677 271.362 281.752 271.676C280.431 272.124 278.99 271.463 278.467 270.17C277.944 268.876 278.522 267.399 279.784 266.804Z"
     id="path1852" />
  <path
     fill="#2A1051"
     d="M213.293 302.39C214.518 301.764 216.018 302.232 216.671 303.443C217.324 304.653 216.891 306.164 215.696 306.844C214.898 307.299 213.916 307.285 213.131 306.809C212.346 306.333 211.88 305.47 211.914 304.552C211.947 303.635 212.475 302.807 213.293 302.39Z"
     id="path1854" />
  <path
     fill="#4A1277"
     d="M172.206 212.694C178.386 211.15 184.665 214.842 186.319 220.995C187.973 227.147 184.393 233.49 178.271 235.253C174.213 236.423 169.84 235.31 166.833 232.344C163.827 229.378 162.655 225.021 163.769 220.947C164.882 216.873 168.108 213.718 172.206 212.694Z"
     id="path1856" />
  <path
     fill="#2A1051"
     d="M182.575 192.062C183.996 191.885 185.317 192.823 185.618 194.223C185.92 195.623 185.101 197.022 183.733 197.445C182.734 197.754 181.646 197.473 180.922 196.718C180.198 195.964 179.962 194.865 180.311 193.88C180.661 192.895 181.537 192.191 182.575 192.062Z"
     id="path1858" />
  <path
     fill="#2A1051"
     d="M252.613 206.291C253.828 205.54 255.422 205.908 256.185 207.117C256.948 208.325 256.595 209.923 255.394 210.697C254.176 211.482 252.552 211.123 251.779 209.898C251.006 208.673 251.38 207.053 252.613 206.291Z"
     id="path1860" />
  <path
     fill="#2A1051"
     d="M203.531 252.327C204.301 251.888 205.249 251.903 206.004 252.369C206.759 252.834 207.199 253.674 207.152 254.559C207.105 255.445 206.579 256.234 205.779 256.616C204.603 257.18 203.192 256.711 202.586 255.556C201.981 254.401 202.398 252.974 203.531 252.327Z"
     id="path1862" />
  <path
     fill="#F4B767"
     d="M430.326 123.744C449.343 92.5493 485.946 76.8735 521.746 81.1512C536.188 82.877 554.702 89.0333 565.98 98.514C570.26 101.732 573.627 104.559 577.46 108.337C584.041 114.391 591.72 124.383 595.07 132.669C596.17 135.004 598.869 141.651 600.381 143.007L600.529 143.756C603.292 152.816 605.314 160.692 605.626 170.317C605.645 172.707 605.829 182.154 605.24 183.895L604.515 183.011C600.482 183.104 585.688 186.08 580.885 186.97C562.749 190.352 544.632 193.832 526.534 197.409C496.038 203.24 465.344 208 435.042 214.809C432.205 215.447 429.387 216.088 426.619 216.98C424.827 213.181 423.215 208.702 421.689 204.745C418.912 196.32 417.122 187.601 416.355 178.764C415.977 174.279 416.024 170.473 416.308 166.009C417.009 158.08 419.006 149.105 421.486 141.576C421.982 140.853 422.751 138.911 423.142 138.016C424.946 132.867 427.588 128.412 430.326 123.744Z"
     id="path1864" />
  <path
     fill="#F4B767"
     d="M430.326 123.744C449.343 92.5493 485.946 76.8735 521.746 81.1512C536.188 82.877 554.702 89.0333 565.98 98.514C570.26 101.732 573.627 104.559 577.46 108.337C584.041 114.391 591.72 124.383 595.07 132.669C585.742 134.996 575.264 136.711 565.722 138.48L518.271 147.182C484.069 153.401 450.682 160.175 416.308 166.009C417.009 158.08 419.006 149.105 421.486 141.576C421.982 140.853 422.751 138.911 423.142 138.016C424.946 132.867 427.588 128.412 430.326 123.744Z"
     id="path1866" />
  <path
     fill="#F4B767"
     d="M430.326 123.744C449.343 92.5493 485.946 76.8735 521.746 81.1512C536.188 82.877 554.702 89.0333 565.98 98.514C546.402 103.886 514.275 108.555 493.406 112.393L453.637 119.784C446.83 121.039 437.124 123.073 430.326 123.744Z"
     id="path1868" />
  <path
     fill="#D87918"
     d="M565.98 98.514C570.26 101.732 573.627 104.559 577.46 108.337C574.738 109.411 566.452 110.755 563.173 111.359L535.64 116.443L485.94 126.034C464.867 129.944 444.154 133.484 423.142 138.016C424.946 132.867 427.588 128.412 430.326 123.744C437.124 123.073 446.83 121.039 453.637 119.784L493.406 112.393C514.275 108.555 546.402 103.886 565.98 98.514Z"
     id="path1870" />
  <path
     fill="#D87918"
     d="M605.626 170.317C605.645 172.707 605.829 182.154 605.24 183.895L604.515 183.011C600.482 183.104 585.688 186.08 580.885 186.97C562.749 190.352 544.632 193.832 526.534 197.409C496.038 203.24 465.344 208 435.042 214.809C432.205 215.447 429.387 216.088 426.619 216.98C424.827 213.181 423.215 208.702 421.689 204.745C438.352 202.056 455.489 198.175 472.17 195.152C516.539 187.111 561.192 177.788 605.626 170.317Z"
     id="path1872" />
  <path
     fill="#D87918"
     d="M416.308 166.009C450.682 160.175 484.069 153.401 518.271 147.182L565.722 138.48C575.264 136.711 585.742 134.996 595.07 132.669C596.17 135.004 598.869 141.651 600.381 143.007L600.529 143.756L416.355 178.764C415.977 174.279 416.024 170.473 416.308 166.009Z"
     id="path1874" />
  <path
     fill="#00012F"
     d="M415.368 141.703L421.486 141.576C419.006 149.105 417.009 158.08 416.308 166.009C416.024 170.473 415.977 174.279 416.355 178.764C417.122 187.601 418.912 196.32 421.689 204.745C423.215 208.702 424.827 213.181 426.619 216.98C429.387 216.088 432.205 215.447 435.042 214.809C465.344 208 496.038 203.24 526.534 197.409C544.632 193.832 562.749 190.352 580.885 186.97C585.688 186.08 600.482 183.104 604.515 183.011L605.24 183.895C605.829 182.154 605.645 172.707 605.626 170.317C605.314 160.692 603.292 152.816 600.529 143.756L600.381 143.007C604.366 143.411 614.317 143.185 618.746 143.197C626.502 163.669 625.495 191.474 618.86 212.093C615.647 222.077 611.389 229.451 605.971 238.215C562.282 308.895 450.864 303.829 413.05 227.734C399.726 201.171 397.518 170.398 406.912 142.205C409.014 142.2 413.925 142.609 415.368 141.703Z"
     id="path1876" />
  <path
     fill="#F4B767"
     d="M426.619 216.98C429.387 216.088 432.205 215.447 435.042 214.809C465.344 208 496.038 203.24 526.534 197.409C544.632 193.832 562.749 190.352 580.885 186.97C585.688 186.08 600.482 183.104 604.515 183.011L605.24 183.895C604.455 191.607 602.863 202.505 599.53 209.605C597.247 215.449 595.722 219.267 592.411 224.554C590.095 223.986 585.97 224.65 583.574 225.064C543.383 232.003 503.463 240.435 463.333 247.744C460.417 248.275 457.175 249.027 454.367 249.927C449.454 246.273 446.535 243.727 442.413 239.22C436.489 233.284 430.51 224.379 426.619 216.98Z"
     id="path1878" />
  <path
     fill="#D87918"
     d="M442.413 239.22C449.385 238.349 458.661 236.395 465.644 235.077C481.332 232.118 497.001 229.065 512.653 225.92C541.579 220.375 570.701 215.895 599.53 209.605C597.247 215.449 595.722 219.267 592.411 224.554C590.095 223.986 585.97 224.65 583.574 225.064C543.383 232.003 503.463 240.435 463.333 247.744C460.417 248.275 457.175 249.027 454.367 249.927C449.454 246.273 446.535 243.727 442.413 239.22Z"
     id="path1880" />
  <path
     fill="#F4B767"
     d="M454.367 249.927C457.175 249.027 460.417 248.275 463.333 247.744C503.463 240.435 543.383 232.003 583.574 225.064C585.97 224.65 590.095 223.986 592.411 224.554C580.787 244.726 561.619 259.448 539.131 265.476C508.524 273.921 480.093 267.803 454.367 249.927Z"
     id="path1882" />
  <path
     fill="#00012F"
     d="M769.543 480.686C760.157 478.595 740.745 452.71 735.282 443.5C729.097 433.072 714.363 403.202 716.262 392.363L719.156 397.428C729.21 416.893 737.168 427.418 755.132 440.879C759.482 444.138 764.969 446.667 769.515 449.57L769.543 480.686Z"
     id="path1884" />
  <path
     fill="#99A5E0"
     d="M443.281 588.106C460.272 587.63 479.154 588.068 496.259 588.101L593.746 588.158L645.613 588.095C652.774 588.089 663.067 587.649 669.846 588.607C674.806 589.308 676.599 598.904 669.477 602.021L513.139 601.684L466.192 601.739C459.445 601.755 449.521 602.328 443.153 601.506C436.554 600.655 435.977 592.102 443.281 588.106Z"
     id="path1886" />
  <path
     fill="#99A5E0"
     d="M481.21 494.245C525.264 493.947 569.319 493.921 613.373 494.169L651.255 494.354C657.01 494.38 663.175 493.901 668.876 494.46C670.206 494.59 671.404 495.013 672.407 495.917C673.607 496.998 674.204 498.571 674.287 500.161C674.385 502.028 673.544 504.755 672.136 506.045C669.207 508.728 639.51 507.262 633.625 507.197L502.237 506.644L463.003 506.829C456.764 506.867 450.45 506.908 444.207 506.951C436.327 507.006 436.557 495.321 442.892 494.471C446.765 493.951 452.71 494.244 456.737 494.26L481.21 494.245Z"
     id="path1888" />
  <path
     fill="#99A5E0"
     d="M442.135 400.624L576.639 400.994C588.515 401.013 665.766 399.886 670.827 401.932C672.028 402.418 672.981 403.506 673.403 404.717C674.012 406.468 673.783 408.487 672.976 410.138C672.114 411.901 670.82 412.456 669.092 413.121C647.812 413.64 625.797 413.425 604.472 413.43L505.69 413.409L462.571 413.512C456.775 413.539 447.885 414.075 442.496 413.308C436.478 412.451 435.633 404.267 442.135 400.624Z"
     id="path1890" />
  <path
     fill="#99A5E0"
     d="M622.419 679.75C625.863 679.61 630.84 678.858 633.552 680.924C635.145 682.122 636.164 683.932 636.36 685.915C636.975 692.01 631.633 692.37 626.968 692.497C620.517 692.674 614.003 692.588 607.545 692.59L569.814 692.581L454.25 692.579C450.459 692.59 445.044 693.253 442.296 691.015C440.85 689.839 439.969 688.106 439.872 686.244C439.581 680.609 444.547 680.025 448.983 680.004C466.457 679.918 483.937 679.961 501.412 679.949L622.419 679.75Z"
     id="path1892" />
  <path
     fill="#43B1BE"
     d="M372.843 572.192C385.863 570.647 397.687 579.905 399.311 592.915C400.935 605.925 391.749 617.806 378.749 619.509C365.637 621.226 353.631 611.944 351.993 598.821C350.356 585.699 359.711 573.75 372.843 572.192Z"
     id="path1894" />
  <path
     fill="#43B1BE"
     d="M372.011 476.149C384.696 474.007 396.693 482.622 398.716 495.326C400.74 508.03 392.013 519.946 379.291 521.851C366.735 523.731 355.009 515.144 353.012 502.606C351.015 490.068 359.492 478.263 372.011 476.149Z"
     id="path1896" />
  <path
     fill="#43B1BE"
     d="M371.679 380.96C384.2 378.808 396.108 387.175 398.327 399.685C400.546 412.195 392.242 424.148 379.744 426.433C367.152 428.736 355.089 420.356 352.853 407.751C350.617 395.146 359.062 383.128 371.679 380.96Z"
     id="path1898" />
  <path
     fill="#F4B767"
     d="M813.543 676.224C836.36 662.87 882.621 646.538 910.125 650.123C916.031 650.892 918.915 656.649 916.329 662.318C905.86 685.261 882.605 702.139 863.164 717.39C856.381 722.639 846.167 728.505 840.417 733.464C840.465 736.131 840.509 738.799 840.527 741.467C840.823 785.521 811.105 821.736 767.001 827.536C744.201 827.511 717.761 823.206 699.479 808.508L697.618 809.178C689.922 806.095 686.446 804.162 682.177 796.78L684.246 796.112C683.131 795.014 682.347 793.977 681.379 792.763C676.79 785.344 673.078 777.167 669.741 769.128C668.299 764.859 666.64 759.924 666.108 755.493C664.119 746.423 664.499 734.698 665.976 725.579C669.599 702.985 682.25 682.834 701.023 669.751C722.303 654.615 744.151 650.73 769.556 655.075C785.763 658.314 800.892 665.588 813.543 676.224Z"
     id="path1900" />
  <path
     fill="#71CDD7"
     d="M666.108 755.493C664.119 746.423 664.499 734.698 665.976 725.579C669.599 702.985 682.25 682.834 701.023 669.751C722.303 654.615 744.151 650.73 769.556 655.075C785.763 658.314 800.892 665.588 813.543 676.224C817.532 679.942 820.622 682.809 824.252 686.926C826.329 689.749 827.155 691.383 828.785 694.477C824.792 701.024 819.274 708.138 813.318 713.034C780.804 739.757 743.695 761.629 706.766 781.661C699.675 785.508 689.107 791.126 681.379 792.763C676.79 785.344 673.078 777.167 669.741 769.128C668.299 764.859 666.64 759.924 666.108 755.493Z"
     id="path1902" />
  <path
     fill="#3281C1"
     d="M699.479 808.508C717.551 802.515 741.429 789.554 758.586 780.779C787.157 766.167 813.549 751.131 840.417 733.464C840.465 736.131 840.509 738.799 840.527 741.467C840.823 785.521 811.105 821.736 767.001 827.536C744.201 827.511 717.761 823.206 699.479 808.508Z"
     id="path1904" />
  <path
     fill="#43B1BE"
     d="M681.379 792.763C689.107 791.126 699.675 785.508 706.766 781.661C743.695 761.629 780.804 739.757 813.318 713.034C819.274 708.138 824.792 701.024 828.785 694.477C831.849 700.261 835.392 709.122 838.017 713.692C797.743 741.083 731.198 782.88 684.246 796.112C683.131 795.014 682.347 793.977 681.379 792.763Z"
     id="path1906" />
  <path
     fill="#FEFEFE"
     d="M824.252 686.926C834.07 682.204 857.697 672.447 867.457 676.369C883.073 682.645 842.28 711.33 838.017 713.692C835.392 709.122 831.849 700.261 828.785 694.477C827.155 691.383 826.329 689.749 824.252 686.926Z"
     id="path1908" />
  <path
     fill="#0D3852"
     d="M116.093 539.433C101.391 523.05 97.7895 499.514 106.919 479.484C116.048 459.454 136.174 446.733 158.184 447.081C180.194 447.429 199.907 460.781 208.397 481.091C218.818 506.016 209.731 534.824 186.893 549.258C164.056 563.693 134.137 559.541 116.093 539.433Z"
     id="path1910" />
  <path
     fill="#041929"
     d="M116.093 539.433C121.033 538.336 128.209 538.577 133.936 537.355C160.41 531.705 179.054 522.95 195.804 501.268C201.435 493.979 202.763 488.179 208.08 481.363C208.186 481.272 208.292 481.181 208.397 481.091C218.818 506.016 209.731 534.824 186.893 549.258C164.056 563.693 134.137 559.541 116.093 539.433Z"
     id="path1912" />
  <path
     fill="#CCF6F0"
     d="M174.581 529.751C175.793 529.036 177.355 529.422 178.094 530.621C178.833 531.819 178.476 533.389 177.292 534.15C176.505 534.656 175.507 534.698 174.681 534.259C173.855 533.82 173.331 532.969 173.31 532.034C173.289 531.1 173.775 530.226 174.581 529.751Z"
     id="path1914" />
  <path
     fill="#70FEF3"
     d="M127.073 489.956C130.896 488.475 135.2 490.333 136.744 494.131C138.287 497.929 136.5 502.263 132.728 503.869C130.232 504.931 127.357 504.565 125.208 502.911C123.058 501.257 121.967 498.573 122.353 495.888C122.74 493.204 124.544 490.936 127.073 489.956Z"
     id="path1916" />
  <path
     fill="#70FEF3"
     d="M164.568 481.283C165.785 480.711 167.236 481.208 167.846 482.406C168.456 483.604 168.004 485.071 166.825 485.717C166.029 486.153 165.059 486.122 164.294 485.635C163.528 485.149 163.088 484.284 163.145 483.378C163.202 482.473 163.747 481.67 164.568 481.283Z"
     id="path1918" />
  <path
     fill="#2A1051"
     d="M916.726 499.64C923.555 499.421 929.318 504.677 929.728 511.497C930.138 518.318 925.046 524.226 918.24 524.827C913.664 525.231 909.23 523.117 906.663 519.308C904.096 515.498 903.802 510.595 905.894 506.506C907.986 502.416 912.135 499.787 916.726 499.64Z"
     id="path1920" />
  <path
     fill="#2A1051"
     d="M167.709 80.2227C174.304 79.0178 180.65 83.3148 181.98 89.8861C183.311 96.4575 179.135 102.884 172.59 104.339C168.244 105.305 163.716 103.849 160.748 100.53C157.78 97.2117 156.836 92.549 158.28 88.3375C159.723 84.126 163.329 81.0227 167.709 80.2227Z"
     id="path1922" />
  <path
     fill="#00012F"
     d="M893.141 122.642C897.029 121.453 901.256 122.46 904.191 125.274C907.125 128.089 908.308 132.27 907.282 136.204C906.256 140.138 903.183 143.21 899.248 144.233C893.339 145.77 887.287 142.301 885.625 136.427C883.964 130.553 887.304 124.428 893.141 122.642Z"
     id="path1924" />
  <path
     fill="#2A1051"
     d="M357.988 86.365C362.465 85.8388 366.511 89.0636 366.997 93.5445C367.483 98.0253 364.222 102.043 359.737 102.488C355.309 102.928 351.353 99.7175 350.873 95.2932C350.393 90.869 353.569 86.8846 357.988 86.365Z"
     id="path1926" />
  <path
     fill="#00012F"
     d="M100.716 378.703C103.129 377.908 105.784 378.484 107.65 380.208C109.516 381.932 110.301 384.533 109.699 387.001C109.096 389.47 107.203 391.417 104.752 392.088C101.095 393.09 97.3054 390.994 96.2106 387.363C95.1158 383.732 97.1144 379.891 100.716 378.703Z"
     id="path1928" />
  <path
     fill="#2A1051"
     d="M872.706 885.606C874.881 884.597 877.434 884.854 879.363 886.278C881.293 887.701 882.292 890.064 881.97 892.44C881.648 894.816 880.056 896.827 877.817 897.686C874.514 898.952 870.802 897.373 869.424 894.115C868.046 890.858 869.498 887.094 872.706 885.606Z"
     id="path1930" />
  <path
     fill="#2A1051"
     d="M108.887 621.841C112.317 620.645 116.064 622.476 117.229 625.916C118.394 629.356 116.531 633.087 113.08 634.222C109.673 635.343 105.999 633.508 104.848 630.11C103.697 626.712 105.499 623.022 108.887 621.841Z"
     id="path1932" />
  <path
     fill="#2A1051"
     d="M579.487 931.72C582.936 930.823 586.458 932.893 587.354 936.342C588.25 939.791 586.18 943.313 582.731 944.209C579.282 945.103 575.762 943.034 574.866 939.586C573.97 936.138 576.039 932.617 579.487 931.72Z"
     id="path1934" />
  <path
     fill="#2A1051"
     d="M679.538 80.8336C682.748 79.3709 686.535 80.7996 687.979 84.018C689.423 87.2363 687.972 91.015 684.746 92.4402C681.545 93.8537 677.804 92.4174 676.372 89.2255C674.94 86.0335 676.355 82.2842 679.538 80.8336Z"
     id="path1936" />
</svg>
