<?xml version="1.0" encoding="UTF-8" standalone="no"?>
<svg
   width="1024"
   height="1024"
   version="1.1"
   id="svg880"
   sodipodi:docname="galactic-home-icon.svg"
   inkscape:version="1.1.2 (0a00cf5339, 2022-02-04)"
   xmlns:inkscape="http://www.inkscape.org/namespaces/inkscape"
   xmlns:sodipodi="http://sodipodi.sourceforge.net/DTD/sodipodi-0.dtd"
   xmlns="http://www.w3.org/2000/svg"
   xmlns:svg="http://www.w3.org/2000/svg">
  <defs
     id="defs884" />
  <sodipodi:namedview
     id="namedview882"
     pagecolor="#ffffff"
     bordercolor="#666666"
     borderopacity="1.0"
     inkscape:pageshadow="2"
     inkscape:pageopacity="0.0"
     inkscape:pagecheckerboard="0"
     showgrid="false"
     inkscape:zoom="0.76464844"
     inkscape:cx="512"
     inkscape:cy="512"
     inkscape:window-width="1920"
     inkscape:window-height="1009"
     inkscape:window-x="1920"
     inkscape:window-y="34"
     inkscape:window-maximized="1"
     inkscape:current-layer="svg880" />
  <path
     fill="#2B2050"
     d="M94.0881 455.55C96.1954 435.582 100.658 415.626 106.173 396.34Q107.252 392.546 108.404 388.773Q109.555 385.001 110.778 381.25Q112.001 377.5 113.295 373.774Q114.589 370.048 115.954 366.347Q117.319 362.646 118.754 358.972Q120.189 355.298 121.693 351.651Q123.198 348.005 124.772 344.388Q126.345 340.771 127.988 337.185Q129.63 333.598 131.34 330.044Q133.051 326.49 134.828 322.968Q136.606 319.447 138.45 315.96Q140.295 312.473 142.205 309.022Q144.115 305.571 146.091 302.157Q148.067 298.743 150.107 295.367Q152.147 291.992 154.251 288.655Q156.356 285.319 158.523 282.023Q160.69 278.727 162.92 275.473Q165.15 272.219 167.441 269.009Q169.732 265.798 172.084 262.631Q174.436 259.464 176.847 256.343Q179.259 253.222 181.73 250.147Q184.201 247.072 186.729 244.045Q189.258 241.017 191.844 238.039Q194.43 235.06 197.072 232.131Q199.714 229.202 202.412 226.324Q205.109 223.446 207.861 220.62Q210.613 217.794 213.418 215.021Q216.223 212.247 219.08 209.528Q221.937 206.808 224.846 204.144Q227.754 201.479 230.713 198.871Q233.672 196.262 236.679 193.71Q239.687 191.158 242.743 188.664Q246.835 185.314 251.01 182.068Q255.184 178.821 259.438 175.679Q263.691 172.537 268.022 169.501Q272.352 166.466 276.757 163.539Q281.162 160.612 285.638 157.796Q290.114 154.98 294.659 152.276Q299.203 149.572 303.814 146.981Q308.424 144.391 313.098 141.916Q317.771 139.441 322.505 137.083Q327.239 134.725 332.029 132.486Q336.82 130.246 341.665 128.127Q346.51 126.007 351.406 124.008Q356.302 122.01 361.247 120.134Q366.191 118.257 371.181 116.505Q376.17 114.752 381.202 113.124Q386.233 111.496 391.304 109.993Q396.374 108.491 401.48 107.115Q406.586 105.739 411.725 104.49Q416.864 103.241 422.032 102.121Q427.201 101 432.395 100.009Q437.59 99.0172 442.807 98.155Q448.025 97.2928 453.263 96.5607Q458.5 95.8285 463.754 95.2268Q469.008 94.625 474.275 94.1541Q479.543 93.6832 484.82 93.3434Q490.098 93.0036 495.382 92.7951Q500.666 92.5867 505.954 92.5096Q511.242 92.4326 516.53 92.487Q521.818 92.5415 527.103 92.7274Q532.388 92.9133 537.667 93.2305Q542.946 93.5478 548.215 93.9962Q553.484 94.4446 558.741 95.0239C670.887 106.933 771.214 165.861 841.576 253.043Q844.744 257.046 847.813 261.124Q850.883 265.202 853.853 269.354Q856.822 273.505 859.69 277.728Q862.558 281.951 865.323 286.242Q868.087 290.533 870.747 294.889Q873.406 299.246 875.959 303.666Q878.512 308.087 880.957 312.567Q883.402 317.048 885.737 321.587Q888.072 326.126 890.296 330.72Q892.521 335.315 894.633 339.962Q896.745 344.609 898.744 349.305Q900.742 354.002 902.626 358.746Q904.51 363.49 906.278 368.279Q908.046 373.067 909.698 377.897Q911.349 382.727 912.883 387.596Q914.416 392.464 915.831 397.369Q917.246 402.273 918.541 407.211Q919.837 412.148 921.012 417.115Q922.187 422.082 923.241 427.077Q924.295 432.071 925.227 437.09Q926.159 442.108 926.97 447.148Q927.78 452.188 928.468 457.246Q929.155 462.304 929.72 467.377Q930.284 472.45 930.726 477.535Q931.167 482.62 931.484 487.715Q931.802 492.81 931.996 497.91Q932.189 503.011 932.259 508.115Q932.329 513.219 932.275 518.323Q932.22 523.427 932.042 528.529Q931.864 533.63 931.562 538.725Q931.26 543.821 930.835 548.907Q930.409 553.994 929.86 559.069Q929.477 562.491 929.037 565.906Q928.597 569.322 928.101 572.729Q927.604 576.137 927.052 579.536Q926.499 582.935 925.89 586.324Q925.281 589.713 924.616 593.092Q923.951 596.471 923.229 599.838Q922.508 603.205 921.732 606.56Q920.955 609.915 920.123 613.256Q919.291 616.598 918.403 619.925Q917.516 623.252 916.573 626.564Q915.631 629.876 914.633 633.172Q913.636 636.468 912.584 639.747Q911.533 643.026 910.427 646.287Q909.321 649.548 908.161 652.791Q907.001 656.033 905.788 659.256Q904.574 662.478 903.308 665.68Q902.041 668.883 900.721 672.063Q899.402 675.244 898.03 678.402Q896.658 681.561 895.234 684.696Q893.809 687.831 892.333 690.942Q890.857 694.054 889.33 697.14Q887.803 700.226 886.224 703.287Q884.646 706.347 883.017 709.381Q881.388 712.415 879.71 715.422Q878.031 718.428 876.302 721.407Q874.574 724.385 872.796 727.334Q871.019 730.284 869.193 733.203Q867.366 736.122 865.492 739.011Q863.618 741.9 861.696 744.757Q859.774 747.615 857.805 750.44Q855.836 753.265 853.82 756.057Q851.805 758.849 849.743 761.607C842.155 771.749 834.169 782.16 825.41 791.318C778.247 843.421 723.391 881.216 657.589 905.974C641.266 912.115 623.933 918.087 606.831 921.514Q595.724 924.153 584.486 926.16Q573.248 928.167 561.914 929.536Q550.581 930.905 539.188 931.63Q527.795 932.356 516.379 932.436Q511.11 932.497 505.84 932.425Q500.571 932.354 495.305 932.15Q490.039 931.946 484.78 931.611Q479.521 931.275 474.272 930.808Q469.023 930.34 463.788 929.741Q458.552 929.142 453.333 928.413Q448.114 927.683 442.915 926.822Q437.716 925.961 432.54 924.971Q427.364 923.98 422.215 922.86Q417.066 921.74 411.946 920.491Q406.826 919.242 401.74 917.865Q396.653 916.488 391.602 914.984Q386.552 913.48 381.541 911.849Q376.529 910.219 371.56 908.464Q366.592 906.709 361.668 904.829Q356.745 902.95 351.871 900.948Q346.996 898.945 342.173 896.821Q337.35 894.698 332.582 892.453Q327.814 890.209 323.104 887.846Q318.394 885.483 313.744 883.003Q309.095 880.522 304.509 877.926Q299.923 875.33 295.404 872.62Q290.884 869.909 286.434 867.087Q281.984 864.264 277.606 861.33Q273.229 858.397 268.926 855.354Q264.623 852.312 260.398 849.163Q256.173 846.013 252.028 842.759Q247.883 839.505 243.821 836.147Q239.759 832.79 235.782 829.332Q231.806 825.874 227.917 822.318Q224.029 818.761 220.231 815.108Q216.432 811.455 212.727 807.708Q209.893 804.864 207.114 801.965Q204.335 799.066 201.613 796.115Q198.891 793.163 196.226 790.159Q193.561 787.156 190.954 784.101Q188.348 781.047 185.801 777.943Q183.253 774.839 180.766 771.686Q178.28 768.534 175.854 765.334Q173.428 762.134 171.065 758.887Q168.701 755.641 166.401 752.35Q164.101 749.059 161.864 745.724Q159.627 742.39 157.455 739.012Q155.284 735.635 153.177 732.216Q151.071 728.798 149.031 725.339Q146.991 721.88 145.018 718.383Q143.045 714.886 141.139 711.351Q139.234 707.817 137.398 704.246Q135.561 700.675 133.793 697.07Q132.026 693.464 130.328 689.826Q128.63 686.187 127.003 682.516Q125.376 678.845 123.82 675.143Q122.263 671.442 120.779 667.711Q119.294 663.98 117.882 660.221Q116.47 656.462 115.13 652.677Q113.791 648.891 112.524 645.081Q111.258 641.271 110.065 637.436Q108.872 633.602 107.754 629.746Q106.635 625.889 105.591 622.012Q104.547 618.135 103.578 614.238Q102.609 610.341 101.716 606.426Q100.822 602.512 100.004 598.58Q99.1857 594.649 98.4435 590.703Q97.7014 586.757 97.0354 582.797C92.9406 557.918 91.5179 532.896 91.465 507.713C89.7117 508.222 87.9139 508.6 86.1254 508.965C80.3729 510.137 70.7954 511.766 65.6955 508.089C63.8548 506.762 62.8358 504.474 62.5488 502.267C61.1779 491.722 75.3334 475.443 82.0611 468.297C85.9047 464.215 90.468 460.387 93.8251 455.91C93.9144 455.791 94.0004 455.67 94.0881 455.55Z"
     id="path830" />
  <path
     fill="#DCF7E3"
     d="M317.577 203.475C318.478 203.52 319.422 203.553 320.304 203.751C321.914 204.111 323.412 205.348 324.197 206.78C324.96 208.17 325.064 209.751 324.611 211.254C323.921 213.545 322.526 214.541 320.525 215.683C318.317 215.678 315.885 215.41 314.358 213.61C313.174 212.213 312.817 210.855 313.075 209.05C313.464 206.32 315.413 204.86 317.577 203.475Z"
     id="path832" />
  <path
     fill="#63C1B9"
     d="M186.609 613.975C187.654 614.045 188.671 614.219 189.652 614.596C191.265 615.216 192.526 616.635 193.108 618.247C193.639 619.714 193.495 621.349 192.824 622.744C191.742 624.995 190.116 625.739 187.845 626.492C187.68 626.46 187.514 626.432 187.349 626.398C185.045 625.916 183.025 625.051 181.799 622.925C181.02 621.574 180.889 620.009 181.379 618.533C182.226 615.977 184.266 614.915 186.609 613.975Z"
     id="path834" />
  <path
     fill="#FEFEFE"
     d="M828.619 392.498C829.425 392.522 830.233 392.549 831.031 392.669C832.782 392.933 834.318 393.995 835.29 395.466C836.246 396.912 836.474 398.645 836.102 400.323C835.529 402.909 834.083 404.049 831.935 405.417C830.984 405.482 830.013 405.453 829.074 405.272C827.44 404.956 825.901 403.897 825.007 402.495C824.087 401.052 823.888 399.335 824.249 397.679C824.841 394.969 826.337 393.867 828.619 392.498Z"
     id="path836" />
  <path
     fill="#FEFEFE"
     d="M598.032 147.021C599.045 147.029 600.099 147.025 601.086 147.277C602.961 147.755 604.503 149.009 605.416 150.707C606.299 152.353 606.387 154.248 605.76 156.003C604.885 158.45 603.207 159.403 600.966 160.476C600.049 160.457 599.115 160.461 598.216 160.255C596.287 159.814 594.62 158.497 593.632 156.798Q593.458 156.5 593.318 156.185Q593.179 155.87 593.074 155.542Q592.969 155.213 592.901 154.875Q592.833 154.537 592.802 154.194Q592.771 153.851 592.778 153.506Q592.785 153.161 592.83 152.82Q592.875 152.478 592.956 152.143Q593.038 151.808 593.156 151.484C594.033 149.014 595.782 148.096 598.032 147.021Z"
     id="path838" />
  <path
     fill="#F5AC5A"
     d="M220.625 667.224C223.674 669.103 225.175 674.659 228.322 677.199C230.149 678.673 232.777 679.666 234.903 680.667C228.44 684.359 225.678 687.384 221.858 693.768C221.492 693.824 221.095 693.777 220.755 693.631C220.316 693.443 216.064 686.866 214.742 685.465C212.886 683.498 210.054 682.118 207.737 680.74C215.74 676.4 215.944 674.836 220.625 667.224Z"
     id="path840" />
  <path
     fill="#FEFEFE"
     d="M601.591 225.813C602.634 228.066 603.497 230.488 604.757 232.629C608.384 238.791 612.687 240.693 619.28 242.494C617.738 243.076 616.183 243.642 614.662 244.279C607.719 247.187 604.171 252.337 601.447 259.029C600.382 256.728 599.356 254.248 597.963 252.13C594.384 246.684 589.136 244.279 583.022 242.865C584.94 242.258 586.925 241.744 588.795 241.004C596.077 238.123 598.695 232.542 601.591 225.813Z"
     id="path842" />
  <path
     fill="#F5AC5A"
     d="M424.095 145.287C426.424 147.567 428.163 153.517 429.602 156.656C433.483 159.11 437.656 160.817 441.862 162.622C437.725 164.414 433.635 166.153 429.817 168.575C427.83 172.675 425.877 176.727 424.29 181.003C422.758 177.028 420.973 173.13 419.29 169.216L418.844 168.916C414.95 166.255 410.619 164.422 406.348 162.457L408.359 161.647C418.539 157.521 419.941 155.093 424.095 145.287Z"
     id="path844" />
  <path
     fill="#F5AC5A"
     d="M820.795 690.092C822.996 690.02 825.298 690.361 827.286 691.337Q827.798 691.587 828.283 691.886Q828.768 692.185 829.221 692.531Q829.674 692.878 830.09 693.267Q830.506 693.657 830.881 694.086Q831.256 694.515 831.587 694.979Q831.917 695.443 832.2 695.938Q832.483 696.433 832.715 696.953Q832.947 697.474 833.126 698.015Q833.305 698.551 833.43 699.102Q833.555 699.653 833.625 700.214Q833.695 700.775 833.709 701.339Q833.724 701.904 833.683 702.468Q833.641 703.031 833.545 703.588Q833.448 704.145 833.297 704.689Q833.146 705.234 832.942 705.761Q832.738 706.288 832.483 706.792C830.611 710.476 827.536 712.273 823.714 713.458C821.692 713.476 819.812 713.251 817.931 712.452C814.81 711.125 812.413 708.63 811.328 705.403Q811.134 704.82 811.003 704.219Q810.872 703.619 810.804 703.008Q810.737 702.397 810.734 701.782Q810.732 701.167 810.793 700.556Q810.855 699.944 810.981 699.343Q811.107 698.741 811.296 698.156Q811.484 697.571 811.733 697.009Q811.982 696.447 812.289 695.914C814.202 692.581 817.175 690.963 820.795 690.092Z"
     id="path846" />
  <path
     fill="#FEFEFE"
     d="M853.252 469.383C854.752 471.081 855.462 474.147 856.34 476.266C861.034 487.583 869.047 490.158 879.485 494.405C876.426 495.483 873.356 496.702 870.391 498.023C860.65 502.362 857.441 510.111 853.806 519.344L853.489 519.612C853.261 519.481 852.982 519.412 852.806 519.217C851.216 517.46 850.14 508.933 844.617 503.539C840.32 499.343 834 496.799 828.689 494.108C845.327 486.678 846.45 486.431 853.252 469.383Z"
     id="path848" />
  <path
     fill="#7989C0"
     d="M251.339 441.112C258.235 436.811 266.03 433.297 273.214 429.438Q291.527 419.492 309.489 408.927C331.5 396.031 351.948 381.367 373.297 367.523C367.675 394 353.644 416.552 330.742 431.565C309.375 445.57 283.428 448.22 258.839 442.965C256.333 442.43 253.79 441.864 251.339 441.112Z"
     id="path850" />
  <path
     fill="#4A2F69"
     d="M676.969 235.229C696.035 223.411 720.447 220.246 742.176 225.285Q743.266 225.541 744.349 225.824Q745.432 226.107 746.508 226.417Q747.584 226.726 748.652 227.062Q749.721 227.398 750.78 227.76Q751.84 228.121 752.89 228.509Q753.94 228.896 754.981 229.309Q756.022 229.723 757.052 230.161Q758.082 230.6 759.101 231.063Q760.12 231.527 761.128 232.015Q762.135 232.503 763.13 233.016Q764.126 233.529 765.108 234.066Q766.09 234.603 767.059 235.164Q768.028 235.725 768.983 236.309Q769.938 236.894 770.878 237.502Q771.819 238.109 772.744 238.74Q773.669 239.37 774.579 240.023Q775.488 240.676 776.381 241.351Q777.275 242.026 778.151 242.723Q779.027 243.42 779.887 244.137Q780.746 244.855 781.587 245.594Q782.428 246.333 783.251 247.092Q784.074 247.851 784.878 248.63Q785.683 249.409 786.467 250.207Q787.252 251.006 788.017 251.823Q788.782 252.641 789.527 253.476Q790.272 254.312 790.996 255.166Q791.721 256.02 792.424 256.891Q793.127 257.763 793.808 258.651Q794.49 259.539 795.149 260.444Q795.809 261.349 796.446 262.269Q797.083 263.19 797.698 264.125Q798.312 265.061 798.904 266.012Q799.487 266.944 800.046 267.891Q800.605 268.838 801.141 269.798Q801.676 270.758 802.188 271.732Q802.699 272.705 803.186 273.691Q803.673 274.677 804.135 275.674Q804.597 276.672 805.035 277.681Q805.472 278.69 805.884 279.709Q806.296 280.729 806.682 281.758Q807.069 282.787 807.429 283.826Q807.79 284.865 808.125 285.912Q808.459 286.96 808.768 288.015Q809.076 289.07 809.358 290.133Q809.64 291.196 809.896 292.265Q810.151 293.335 810.38 294.41Q810.609 295.486 810.811 296.567Q811.012 297.647 811.187 298.733Q811.362 299.818 811.51 300.908Q811.658 301.998 811.778 303.09Q811.899 304.183 811.992 305.279Q812.086 306.375 812.151 307.472Q812.217 308.57 812.256 309.668Q812.295 310.767 812.306 311.867Q812.317 312.966 812.301 314.066Q812.285 315.165 812.241 316.264Q812.197 317.362 812.126 318.46Q812.055 319.557 811.957 320.652Q811.859 321.747 811.733 322.84Q811.608 323.932 811.455 325.021Q811.302 326.11 811.122 327.194Q810.942 328.279 810.736 329.359Q810.529 330.439 810.295 331.513Q810.061 332.588 809.801 333.656C807.199 344.66 802.643 355.803 795.786 364.861C787.998 375.985 776.718 384.933 764.744 391.179C743.603 402.207 718.021 403.349 695.479 396.106C671.37 388.359 653.495 372.292 642.086 349.777C631.893 329.663 630.536 305.247 637.536 283.913C644.149 263.761 657.793 245.011 676.969 235.229Z"
     id="path852" />
  <path
     fill="#63C1B9"
     d="M320.811 550.867Q312.954 558.671 305.208 566.586C300.81 571.133 296.392 576.626 291.116 580.17C288 582.263 284.553 583.521 280.801 583.779C275.856 584.119 271.281 582.667 267.659 579.238C263.693 575.483 261.465 570.735 261.418 565.246C261.386 561.571 262.308 557.614 264.527 554.635C269.246 548.301 275.546 542.861 281.057 537.187L322.949 494.812C378.799 437.644 436.235 381.944 491.516 324.242C497.183 318.326 503.097 314.37 511.627 314.354C516.863 314.344 522.375 315.989 526.555 319.187C534.59 325.334 542.794 335.4 550.088 342.731Q575.741 368.093 600.904 393.943C630.032 424.047 659.864 453.544 689.245 483.412C708.891 503.383 727.984 523.902 747.919 543.581C754.321 549.901 762.59 556.861 762.415 566.683Q762.406 567.168 762.372 567.651Q762.338 568.135 762.28 568.617Q762.222 569.098 762.14 569.576Q762.058 570.054 761.952 570.527Q761.847 571 761.717 571.468Q761.588 571.935 761.435 572.395Q761.282 572.856 761.107 573.308Q760.931 573.76 760.733 574.202Q760.535 574.645 760.316 575.077Q760.096 575.509 759.854 575.93Q759.613 576.351 759.351 576.759Q759.089 577.167 758.807 577.561Q758.525 577.956 758.223 578.335Q757.922 578.715 757.601 579.079Q757.281 579.443 756.943 579.791Q756.605 580.139 756.25 580.469C752.577 583.832 747.72 585.413 742.771 585.162C739.381 584.99 735.726 583.918 732.91 581.993C727.829 578.519 723.851 572.801 719.621 568.351C712.494 560.854 705.231 553.51 698.18 545.934C694.169 541.004 688.987 536.835 684.589 532.217C667.075 513.828 648.838 496.153 630.956 478.127Q592.309 438.694 553.064 399.855C539.228 385.964 525.732 371.623 511.448 358.192C494.659 375.684 477.283 392.555 460.145 409.698L352.829 517.546Q341.619 528.752 330.603 540.148C327.466 543.389 323.127 547.061 320.811 550.867Z"
     id="path854" />
  <path
     fill="#4A2F69"
     d="M606.831 921.514C607.83 920.693 608.046 920.836 608.279 919.496C604.201 916.954 566.099 912.899 557.364 911.559C520.549 905.912 429.977 885.833 402.442 863.483C398.479 860.266 393.065 855.791 392.72 850.336C392.467 846.358 394.46 842.712 397.121 839.897C405.451 831.084 422.737 826.251 434.33 823.516C454.039 818.864 474.181 816.084 494.251 813.59C506.069 812.122 517.901 810.558 529.772 809.579C546.15 808.227 562.589 807.506 578.978 806.209Q654.623 799.928 730.393 795.419C762.048 793.66 793.747 792.831 825.41 791.318C778.247 843.421 723.391 881.216 657.589 905.974C641.266 912.115 623.933 918.087 606.831 921.514Z"
     id="path856" />
  <path
     fill="#F5AC5A"
     d="M347.776 285.538C373.237 271.297 486.348 220.074 510.52 227.5C512.305 228.048 513.919 228.992 514.672 230.803C516.091 234.217 513.488 239.69 511.861 242.707C494.962 274.045 434.235 321.466 404.655 343.951Q394.288 351.806 383.798 359.496C380.442 361.974 376.152 364.531 373.297 367.523C351.948 381.367 331.5 396.031 309.489 408.927Q291.527 419.492 273.214 429.438C266.03 433.297 258.235 436.811 251.339 441.112C241.158 445.671 231.483 451.409 221.411 456.224Q198.271 467.552 174.557 477.624Q150.843 487.696 126.623 496.483C115.069 500.577 103.346 504.662 91.465 507.713C89.7117 508.222 87.9139 508.6 86.1254 508.965C80.3729 510.137 70.7954 511.766 65.6955 508.089C63.8548 506.762 62.8358 504.474 62.5488 502.267C61.1779 491.722 75.3334 475.443 82.0611 468.297C85.9047 464.215 90.468 460.387 93.8251 455.91C93.9144 455.791 94.0004 455.67 94.0881 455.55C100.12 450.681 105.834 445.259 111.695 440.173Q125.082 428.696 138.841 417.667C156.113 403.904 174.664 391.537 192.963 379.185C188.78 366.099 188.183 352.362 190.202 338.8Q190.369 337.647 190.565 336.499Q190.76 335.351 190.985 334.208Q191.209 333.065 191.461 331.928Q191.714 330.79 191.994 329.66Q192.275 328.53 192.584 327.406Q192.892 326.283 193.229 325.168Q193.565 324.053 193.929 322.947Q194.293 321.84 194.685 320.743Q195.076 319.646 195.495 318.559Q195.914 317.472 196.359 316.396Q196.804 315.32 197.277 314.255Q197.749 313.19 198.247 312.137Q198.745 311.084 199.27 310.044Q199.794 309.004 200.344 307.977Q200.894 306.951 201.47 305.938Q202.045 304.925 202.646 303.927Q203.246 302.929 203.871 301.946Q204.496 300.963 205.145 299.996Q205.794 299.029 206.467 298.078Q207.141 297.127 207.837 296.194Q208.533 295.26 209.253 294.344Q209.972 293.428 210.714 292.53Q211.456 291.632 212.221 290.753Q212.985 289.874 213.77 289.014Q214.556 288.154 215.363 287.314Q216.17 286.474 216.997 285.654Q217.824 284.834 218.672 284.035Q219.52 283.236 220.387 282.459Q221.254 281.681 222.14 280.925Q223.026 280.169 223.931 279.435Q224.836 278.702 225.758 277.991Q226.681 277.28 227.621 276.592C243.718 264.783 270.06 255.756 290.146 258.912C311.095 259.703 333.416 270.373 347.776 285.538Z"
     id="path858" />
  <path
     fill="#2B2050"
     d="M357.261 296.556C373.02 289.712 432.942 259.622 447.366 266.41C448.303 266.851 449.107 267.469 449.347 268.532C450.265 272.607 444.765 279.446 442.362 282.502C426.692 302.426 395.528 325.164 374.759 340.579C371.793 323.987 366.871 310.499 357.261 296.556Z"
     id="path860" />
  <path
     fill="#2B2050"
     d="M198.074 394.458C205.338 408.097 215.609 423.327 229.612 430.812C213.47 439.008 136.156 477.906 122.032 475.768C120.869 475.592 119.54 475.034 118.922 473.989C118.134 472.656 118.226 471.31 118.572 469.861C123.934 447.418 178.014 407.581 198.074 394.458Z"
     id="path862" />
  <path
     fill="#7989C0"
     d="M192.963 379.185C188.78 366.099 188.183 352.362 190.202 338.8Q190.369 337.647 190.565 336.499Q190.76 335.351 190.985 334.208Q191.209 333.065 191.461 331.928Q191.714 330.79 191.994 329.66Q192.275 328.53 192.584 327.406Q192.892 326.283 193.229 325.168Q193.565 324.053 193.929 322.947Q194.293 321.84 194.685 320.743Q195.076 319.646 195.495 318.559Q195.914 317.472 196.359 316.396Q196.804 315.32 197.277 314.255Q197.749 313.19 198.247 312.137Q198.745 311.084 199.27 310.044Q199.794 309.004 200.344 307.977Q200.894 306.951 201.47 305.938Q202.045 304.925 202.646 303.927Q203.246 302.929 203.871 301.946Q204.496 300.963 205.145 299.996Q205.794 299.029 206.467 298.078Q207.141 297.127 207.837 296.194Q208.533 295.26 209.253 294.344Q209.972 293.428 210.714 292.53Q211.456 291.632 212.221 290.753Q212.985 289.874 213.77 289.014Q214.556 288.154 215.363 287.314Q216.17 286.474 216.997 285.654Q217.824 284.834 218.672 284.035Q219.52 283.236 220.387 282.459Q221.254 281.681 222.14 280.925Q223.026 280.169 223.931 279.435Q224.836 278.702 225.758 277.991Q226.681 277.28 227.621 276.592C243.718 264.783 270.06 255.756 290.146 258.912C311.095 259.703 333.416 270.373 347.776 285.538C350.898 289.19 354.532 292.616 357.261 296.556C366.871 310.499 371.793 323.987 374.759 340.579C362.227 351.463 347.552 360.874 333.767 370.065C308.132 387.159 281.879 404.093 254.332 417.958Q242.026 424.489 229.612 430.812C215.609 423.327 205.338 408.097 198.074 394.458C196.139 389.421 194.523 384.347 192.963 379.185Z"
     id="path864" />
  <path
     fill="#6A55A4"
     d="M192.963 379.185C188.78 366.099 188.183 352.362 190.202 338.8Q190.369 337.647 190.565 336.499Q190.76 335.351 190.985 334.208Q191.209 333.065 191.461 331.928Q191.714 330.79 191.994 329.66Q192.275 328.53 192.584 327.406Q192.892 326.283 193.229 325.168Q193.565 324.053 193.929 322.947Q194.293 321.84 194.685 320.743Q195.076 319.646 195.495 318.559Q195.914 317.472 196.359 316.396Q196.804 315.32 197.277 314.255Q197.749 313.19 198.247 312.137Q198.745 311.084 199.27 310.044Q199.794 309.004 200.344 307.977Q200.894 306.951 201.47 305.938Q202.045 304.925 202.646 303.927Q203.246 302.929 203.871 301.946Q204.496 300.963 205.145 299.996Q205.794 299.029 206.467 298.078Q207.141 297.127 207.837 296.194Q208.533 295.26 209.253 294.344Q209.972 293.428 210.714 292.53Q211.456 291.632 212.221 290.753Q212.985 289.874 213.77 289.014Q214.556 288.154 215.363 287.314Q216.17 286.474 216.997 285.654Q217.824 284.834 218.672 284.035Q219.52 283.236 220.387 282.459Q221.254 281.681 222.14 280.925Q223.026 280.169 223.931 279.435Q224.836 278.702 225.758 277.991Q226.681 277.28 227.621 276.592C243.718 264.783 270.06 255.756 290.146 258.912L289.783 259.123C283.796 262.529 277.312 264.807 271.429 268.486C253.701 279.575 240.761 299.389 235.161 319.291C227.46 346.66 231.311 378.994 245.31 403.676C248.094 408.587 251.243 413.239 254.332 417.958Q242.026 424.489 229.612 430.812C215.609 423.327 205.338 408.097 198.074 394.458C196.139 389.421 194.523 384.347 192.963 379.185Z"
     id="path866" />
  <path
     fill="#18828B"
     d="M352.829 517.546L460.145 409.698C477.283 392.555 494.659 375.684 511.448 358.192C525.732 371.623 539.228 385.964 553.064 399.855Q592.309 438.694 630.956 478.127C648.838 496.153 667.075 513.828 684.589 532.217C688.987 536.835 694.169 541.004 698.18 545.934C697.834 563.976 698.43 582.105 698.473 600.16L698.512 711.891L698.516 751.019C698.521 758.619 699.137 766.89 697.906 774.393C697.147 779.015 694.226 783.732 690.944 787.006C688.253 789.69 684.247 792.534 680.469 793.329C675.395 794.398 669.576 793.954 664.395 793.966L638.673 793.963C612.698 793.933 586.594 794.484 560.632 793.924Q559.164 793.882 557.698 793.8C557.057 792.045 557.267 790.091 557.307 788.245L556.888 793.167C551.804 794.062 545.62 793.354 540.398 793.33L508.837 793.393C501.296 793.42 493.743 793.346 486.204 793.504C480.379 793.626 474.352 794.243 468.547 793.721C467.634 792.666 467.847 791.842 467.756 790.492C467.621 791.928 467.82 792.721 466.791 793.772C460.304 794.21 453.573 793.845 447.06 793.826L409.578 793.738L384.833 793.738C379.911 793.762 374.559 794.171 369.684 793.556C362.791 793.631 355.861 793.827 348.971 793.676C341.042 793.502 333.814 790.647 328.296 784.871C324.672 781.078 321.899 776.267 321.038 771.046C319.798 763.53 320.56 754.987 320.577 747.331L320.639 703.653C320.607 652.775 319.683 601.726 320.811 550.867C323.127 547.061 327.466 543.389 330.603 540.148Q341.619 528.752 352.829 517.546Z"
     id="path868" />
  <path
     fill="#F4D5B4"
     d="M371.46 622.164Q394.754 622.038 418.047 622.348C418.057 630.836 419.136 663.903 417.726 669.759Q394.569 669.552 371.411 669.685Q371.316 645.924 371.46 622.164Z"
     id="path870" />
  <path
     fill="#F4D5B4"
     d="M604.994 622.023C620.742 621.791 636.521 622.002 652.272 622.009L652.34 670.373L604.961 670.406L604.994 622.023Z"
     id="path872" />
  <path
     fill="#F5AC5A"
     d="M505.791 455.661C515.567 455.07 523.729 456.162 532.296 461.259Q533.132 461.749 533.942 462.28Q534.752 462.811 535.535 463.382Q536.318 463.953 537.071 464.562Q537.824 465.171 538.546 465.817Q539.268 466.463 539.957 467.144Q540.646 467.826 541.301 468.54Q541.955 469.255 542.572 470.001Q543.19 470.748 543.77 471.524Q544.349 472.3 544.89 473.104Q545.43 473.908 545.93 474.738Q546.429 475.568 546.887 476.422Q547.345 477.276 547.759 478.152Q548.173 479.028 548.544 479.923Q548.914 480.818 549.239 481.731Q549.565 482.643 549.844 483.571Q550.123 484.499 550.356 485.439Q550.596 486.399 550.787 487.369Q550.978 488.34 551.12 489.319Q551.263 490.297 551.356 491.282Q551.449 492.267 551.492 493.255Q551.536 494.243 551.53 495.233Q551.524 496.222 551.468 497.209Q551.412 498.197 551.307 499.181Q551.202 500.164 551.048 501.141Q550.893 502.118 550.69 503.086Q550.487 504.054 550.236 505.011Q549.985 505.968 549.686 506.911Q549.386 507.854 549.041 508.78Q548.695 509.707 548.303 510.615Q547.911 511.523 547.474 512.411Q547.037 513.298 546.556 514.162Q546.075 515.027 545.551 515.866C539.556 525.653 530.874 530.992 519.888 533.571Q519.034 533.726 518.173 533.841Q517.313 533.957 516.448 534.034Q515.583 534.111 514.716 534.149Q513.848 534.187 512.98 534.186Q512.112 534.185 511.245 534.145Q510.377 534.104 509.513 534.025Q508.648 533.945 507.788 533.827Q506.928 533.709 506.074 533.552Q505.22 533.395 504.374 533.2Q503.528 533.005 502.692 532.772Q501.856 532.538 501.031 532.268Q500.206 531.997 499.394 531.69Q498.582 531.382 497.785 531.038Q496.987 530.694 496.207 530.315Q495.426 529.936 494.663 529.521Q493.9 529.107 493.156 528.659Q492.29 528.128 491.452 527.555Q490.614 526.981 489.806 526.367Q488.998 525.752 488.221 525.098Q487.444 524.444 486.701 523.752Q485.958 523.06 485.25 522.332Q484.542 521.604 483.872 520.842Q483.201 520.079 482.57 519.284Q481.938 518.489 481.346 517.664Q480.755 516.839 480.206 515.985Q479.656 515.131 479.15 514.25Q478.644 513.37 478.182 512.466Q477.72 511.561 477.304 510.635Q476.888 509.709 476.519 508.763Q476.15 507.817 475.828 506.854Q475.506 505.891 475.233 504.913Q474.959 503.935 474.735 502.945Q474.51 501.975 474.334 500.995Q474.158 500.016 474.03 499.028Q473.902 498.041 473.824 497.048Q473.745 496.056 473.715 495.061Q473.685 494.066 473.705 493.071Q473.724 492.075 473.793 491.082Q473.861 490.089 473.979 489.1Q474.097 488.112 474.263 487.13Q474.429 486.149 474.644 485.177Q474.858 484.204 475.12 483.244Q475.383 482.284 475.692 481.337Q476.001 480.391 476.357 479.461Q476.713 478.532 477.114 477.62Q477.515 476.709 477.961 475.819Q478.406 474.929 478.896 474.062Q479.385 473.195 479.916 472.353C485.992 462.869 495.024 458.022 505.791 455.661Z"
     id="path874" />
  <path
     fill="#169798"
     d="M352.829 517.546C353.542 536.404 352.718 555.523 352.71 574.411Q352.963 637.831 352.446 701.25Q352.372 725.228 352.62 749.204C352.693 756.977 352.185 765.27 353.186 772.955C353.86 778.136 355.463 782.587 359.386 786.217C362.508 789.107 366.745 790.72 369.684 793.556C362.791 793.631 355.861 793.827 348.971 793.676C341.042 793.502 333.814 790.647 328.296 784.871C324.672 781.078 321.899 776.267 321.038 771.046C319.798 763.53 320.56 754.987 320.577 747.331L320.639 703.653C320.607 652.775 319.683 601.726 320.811 550.867C323.127 547.061 327.466 543.389 330.603 540.148Q341.619 528.752 352.829 517.546Z"
     id="path876" />
  <path
     fill="#081840"
     d="M467.756 790.492C467.327 783.093 467.58 775.542 467.584 768.127L467.621 728.679C467.637 716.599 466.463 691.231 468.634 680.631C469.655 675.643 472.423 670.768 475.836 667.015C481.506 660.78 489.024 658.343 497.236 658.169C503.175 658.044 509.128 658.141 515.07 658.081C527.516 657.955 539.35 657.107 548.839 666.672C552.564 670.427 555.341 675.377 556.421 680.565C558.387 690.002 557.356 707.047 557.373 717.191L557.307 788.245L556.888 793.167C551.804 794.062 545.62 793.354 540.398 793.33L508.837 793.393C501.296 793.42 493.743 793.346 486.204 793.504C480.379 793.626 474.352 794.243 468.547 793.721C467.634 792.666 467.847 791.842 467.756 790.492Z"
     id="path878" />
</svg>
