<?xml version="1.0" encoding="UTF-8" standalone="no"?>
<svg
   width="1024"
   height="1024"
   version="1.1"
   id="svg1582"
   sodipodi:docname="galactic-voting-icon.svg"
   inkscape:version="1.1.2 (0a00cf5339, 2022-02-04)"
   xmlns:inkscape="http://www.inkscape.org/namespaces/inkscape"
   xmlns:sodipodi="http://sodipodi.sourceforge.net/DTD/sodipodi-0.dtd"
   xmlns="http://www.w3.org/2000/svg"
   xmlns:svg="http://www.w3.org/2000/svg">
  <sodipodi:namedview
     id="namedview1584"
     pagecolor="#ffffff"
     bordercolor="#666666"
     borderopacity="1.0"
     inkscape:pageshadow="2"
     inkscape:pageopacity="0.0"
     inkscape:pagecheckerboard="0"
     showgrid="false"
     inkscape:zoom="0.80078125"
     inkscape:cx="511.37561"
     inkscape:cy="512.62439"
     inkscape:window-width="1920"
     inkscape:window-height="1009"
     inkscape:window-x="1920"
     inkscape:window-y="34"
     inkscape:window-maximized="1"
     inkscape:current-layer="svg1582" />
  <path
     fill="#4E1155"
     d="M493.733 85.25C493.922 85.236 494.112 85.2196 494.301 85.2081C508.782 84.3308 523.588 84.8908 538.058 85.7658Q542.484 86.0325 546.903 86.3913Q551.323 86.75 555.733 87.2007Q560.144 87.6513 564.545 88.1936Q568.945 88.7359 573.334 89.3696Q577.722 90.0033 582.096 90.7282Q586.47 91.4531 590.829 92.2688Q595.187 93.0845 599.527 93.9907Q603.867 94.8969 608.188 95.8933Q612.508 96.8896 616.807 97.9756Q621.106 99.0616 625.381 100.237Q629.656 101.412 633.906 102.676Q638.156 103.94 642.379 105.292Q646.601 106.644 650.795 108.083Q654.989 109.523 659.151 111.049Q663.314 112.576 667.444 114.189Q671.574 115.802 675.67 117.5Q679.766 119.198 683.825 120.981Q687.885 122.765 691.906 124.632Q695.928 126.499 699.909 128.45Q703.891 130.4 707.831 132.433Q711.772 134.466 715.669 136.581Q719.566 138.695 723.418 140.89Q727.271 143.085 731.077 145.36Q734.882 147.635 738.64 149.988Q742.398 152.342 746.106 154.773Q749.814 157.204 753.47 159.712Q757.127 162.22 760.73 164.803Q764.334 167.386 767.883 170.044Q771.432 172.702 774.925 175.433Q778.418 178.164 781.853 180.967Q785.289 183.77 788.665 186.644Q792.041 189.517 795.357 192.461C879.917 268.632 932.565 372.742 938.483 486.808C944.488 602.568 907.217 711.197 829.477 797.375Q825.903 801.337 822.232 805.21Q818.56 809.083 814.795 812.863Q811.029 816.644 807.17 820.33Q803.312 824.016 799.363 827.605Q795.415 831.195 791.379 834.686Q787.343 838.176 783.222 841.566Q779.1 844.956 774.896 848.242Q770.692 851.529 766.408 854.71Q762.124 857.892 757.763 860.966Q753.402 864.041 748.965 867.006Q744.529 869.972 740.021 872.827Q735.513 875.682 730.935 878.424Q726.357 881.166 721.713 883.794Q717.069 886.423 712.361 888.935Q707.654 891.447 702.885 893.842Q698.117 896.237 693.291 898.514Q688.464 900.79 683.583 902.946Q678.702 905.102 673.769 907.137Q668.836 909.172 663.854 911.083Q658.872 912.995 653.844 914.783Q648.817 916.571 643.746 918.234Q638.676 919.897 633.566 921.434Q628.456 922.971 623.309 924.381Q618.162 925.791 612.983 927.073Q607.803 928.355 602.593 929.508Q597.383 930.661 592.146 931.686Q586.909 932.71 581.648 933.604Q576.387 934.498 571.106 935.262Q565.825 936.025 560.526 936.658Q555.228 937.291 549.915 937.792Q544.603 938.293 539.279 938.663Q533.956 939.032 528.625 939.27L528.124 939.296C441.348 943.458 351.817 916.945 279.459 869.445Q263.682 858.865 248.779 847.086Q233.876 835.306 219.938 822.399C207.826 811.369 196.833 799.019 186.251 786.535Q183.394 783.188 180.607 779.783Q177.819 776.377 175.103 772.915Q172.387 769.453 169.742 765.936Q167.098 762.418 164.527 758.847Q161.956 755.275 159.46 751.651Q156.963 748.028 154.542 744.353Q152.121 740.679 149.776 736.955Q147.431 733.231 145.164 729.459Q142.896 725.688 140.708 721.87Q138.519 718.053 136.409 714.191Q134.299 710.329 132.27 706.424Q130.241 702.52 128.293 698.574Q126.344 694.628 124.478 690.643Q122.612 686.658 120.828 682.635Q119.045 678.612 117.345 674.553Q115.645 670.494 114.029 666.401Q112.413 662.308 110.882 658.182Q109.351 654.056 107.906 649.9Q106.461 645.744 105.101 641.558Q103.742 637.373 102.47 633.16Q101.198 628.948 100.013 624.71Q98.8275 620.472 97.7303 616.21Q96.633 611.948 95.6241 607.665Q94.6152 603.382 93.6949 599.079Q92.7747 594.775 91.9436 590.454Q91.1125 586.133 90.3708 581.795Q89.6292 577.457 88.9773 573.105Q88.3254 568.753 87.7636 564.389Q87.2018 560.024 86.7303 555.649Q86.2588 551.274 85.8778 546.89Q85.4968 542.506 85.2065 538.115Q84.9161 533.724 84.7166 529.328Q84.4855 524.175 84.3809 519.018Q84.2763 513.86 84.2982 508.702Q84.3201 503.544 84.4686 498.387Q84.6171 493.231 84.892 488.08Q85.1669 482.929 85.568 477.786Q85.9692 472.644 86.4964 467.512Q87.0236 462.381 87.6765 457.264Q88.3294 452.147 89.1077 447.048Q89.8859 441.949 90.789 436.87Q91.6921 431.791 92.7195 426.736Q93.7469 421.681 94.898 416.653Q96.0491 411.625 97.3232 406.626Q98.5973 401.628 99.9937 396.662Q101.39 391.696 102.908 386.766Q104.425 381.836 106.064 376.945Q107.702 372.054 109.46 367.204Q111.217 362.354 113.093 357.549Q114.969 352.744 116.963 347.987Q118.956 343.229 121.066 338.522Q123.175 333.814 125.4 329.16Q127.624 324.506 129.962 319.908Q132.3 315.31 134.75 310.771Q137.2 306.231 139.76 301.753Q142.321 297.275 144.991 292.861Q147.66 288.448 150.438 284.101Q153.215 279.754 156.098 275.476Q158.98 271.199 161.967 266.993Q164.954 262.788 168.044 258.657Q171.133 254.526 174.323 250.472Q177.512 246.418 180.8 242.443Q184.089 238.469 187.473 234.576Q190.858 230.683 194.337 226.875C273.203 140.807 376.803 90.2931 493.733 85.25Z"
     id="path1483" />
  <path
     fill="#FEFEFE"
     d="M267.963 203.2C266.95 202.608 265.8 201.945 265.113 200.961C264.423 199.972 264.151 198.634 264.504 197.472Q264.572 197.252 264.665 197.041Q264.757 196.83 264.872 196.63Q264.987 196.431 265.123 196.245Q265.26 196.059 265.416 195.89Q265.572 195.72 265.745 195.569Q265.919 195.418 266.109 195.286Q266.298 195.155 266.501 195.046Q266.703 194.936 266.917 194.85C268.072 194.371 269.34 194.44 270.462 194.968C271.93 195.658 272.408 197.018 273.003 198.406C271.698 201.141 270.817 202.093 267.963 203.2Z"
     id="path1485" />
  <path
     fill="#6A45BC"
     d="M156.882 676.742C169.471 678.906 181.938 681.547 194.575 683.522C225.281 688.321 256.993 691.348 288.1 691.566C287.553 738.533 288.212 785.528 287.988 832.499C230.979 790.352 187.936 740.636 156.882 676.742Z"
     id="path1487" />
  <path
     fill="#FEFEFE"
     d="M250.122 719.03C251.431 718.937 252.722 718.862 254.016 719.137C256.578 719.68 258.933 721.274 260.276 723.537C261.662 725.872 261.925 728.748 261.163 731.334C260.086 734.989 257.769 736.685 254.501 738.335C253.074 738.423 251.797 738.444 250.401 738.087C247.783 737.417 245.398 735.754 244.089 733.363Q243.846 732.917 243.652 732.448Q243.457 731.98 243.313 731.493Q243.169 731.006 243.078 730.507Q242.986 730.008 242.947 729.502Q242.909 728.996 242.924 728.488Q242.939 727.981 243.007 727.478Q243.075 726.975 243.197 726.482Q243.318 725.989 243.49 725.512C244.669 722.155 247.073 720.567 250.122 719.03Z"
     id="path1489" />
  <path
     fill="#483084"
     d="M119.151 484.893C119.296 485.916 119.418 490.465 119.909 490.813C121.419 491.882 124.768 491.832 126.582 492.459C155.877 502.591 194.808 502.631 225.405 499.986Q233.604 499.317 241.664 497.674C244.9 497.029 248.444 495.906 251.7 495.687C250.581 506.922 251.385 518.839 251.437 530.144C251.48 539.573 250.419 550.284 252.177 559.498C252.965 563.623 254.655 567.56 257.384 570.774C262.166 576.407 269.386 579.05 276.609 579.449C280.409 579.659 284.248 579.564 288.053 579.527Q288.263 615.748 288.093 651.97C288.09 665.139 288.457 678.408 288.1 691.566C256.993 691.348 225.281 688.321 194.575 683.522C181.938 681.547 169.471 678.906 156.882 676.742C153.289 670.382 150.493 663.161 147.632 656.439C129.528 613.907 120.841 568.78 118.975 522.735C118.463 510.097 118.196 497.514 119.151 484.893Z"
     id="path1491" />
  <path
     fill="#FEFEFE"
     d="M214.005 532.812C214.733 532.811 215.833 532.715 216.514 532.947C217.898 533.418 218.038 533.967 218.571 535.186C218.545 536.866 218.085 537.807 217.295 539.272C216.473 539.201 215.255 539.212 214.509 538.886C213.172 538.299 212.994 537.809 212.445 536.571C212.547 534.873 213.047 534.13 214.005 532.812Z"
     id="path1493" />
  <path
     fill="#FEFEFE"
     d="M213.344 600.387C214.431 600.279 215.727 600.214 216.771 600.585C218.017 601.026 218.243 601.653 218.765 602.738C218.748 604.45 218.224 605.303 217.329 606.735C216.457 606.818 215.313 606.861 214.487 606.568C213.217 606.117 212.921 605.41 212.342 604.319C212.241 602.656 212.574 601.848 213.344 600.387Z"
     id="path1495" />
  <path
     fill="#382471"
     d="M273.003 198.406L273.226 199.2C274.826 198.983 302.314 180.061 305.945 177.796Q326.636 164.601 348.921 154.324Q353.392 152.313 357.912 150.414Q362.432 148.515 366.998 146.729Q371.564 144.944 376.173 143.273Q380.782 141.602 385.431 140.047Q390.081 138.492 394.768 137.054Q399.455 135.615 404.176 134.294Q408.897 132.973 413.65 131.771Q418.403 130.568 423.184 129.485Q427.966 128.402 432.773 127.438Q437.58 126.474 442.409 125.631Q447.239 124.788 452.088 124.066Q456.937 123.343 461.803 122.743Q466.668 122.142 471.548 121.662Q476.427 121.183 481.316 120.826Q486.206 120.469 491.103 120.234Q496 120 500.901 119.887Q505.803 119.775 510.705 119.785Q515.608 119.795 520.509 119.928Q525.409 120.06 530.305 120.315Q535.201 120.57 540.089 120.948Q544.978 121.325 549.855 121.824Q554.732 122.324 559.595 122.945Q564.458 123.566 569.304 124.308Q574.15 125.05 578.976 125.913Q583.802 126.776 588.605 127.76Q593.408 128.743 598.185 129.847Q602.962 130.95 607.71 132.172Q612.458 133.394 617.174 134.734Q621.889 136.075 626.57 137.533Q631.251 138.99 635.894 140.565Q640.537 142.139 645.139 143.829Q649.741 145.519 654.3 147.323Q660.948 149.997 667.502 152.894Q674.055 155.791 680.507 158.909Q686.959 162.027 693.301 165.361Q699.643 168.696 705.869 172.244Q712.094 175.791 718.196 179.548Q724.298 183.305 730.269 187.266Q736.24 191.227 742.073 195.389Q747.906 199.55 753.595 203.907C761.147 209.643 768.078 216.155 775.063 222.556C802.793 247.969 823.869 273.601 844.502 305.011C852.807 317.655 861.483 331.56 867.089 345.64C866.883 345.489 866.671 345.346 866.47 345.189C862.704 342.244 855.753 320.742 851.083 318.009C841.894 320.777 832.956 324.849 824.077 328.493Q801.474 337.943 778.756 347.11C757.89 355.507 737.22 364.395 716.325 372.711Q661.067 394.93 604.527 413.651C602.026 408.988 599.385 404.462 596.337 400.131C580.461 377.577 555.549 361.07 528.229 356.402Q526.965 356.197 525.696 356.024Q524.427 355.85 523.154 355.708Q521.881 355.565 520.605 355.454Q519.329 355.343 518.051 355.263Q516.772 355.183 515.492 355.134Q514.212 355.086 512.932 355.069Q511.651 355.051 510.37 355.066Q509.089 355.08 507.809 355.126Q506.529 355.171 505.251 355.248Q503.972 355.325 502.696 355.434Q501.42 355.542 500.147 355.682Q498.873 355.821 497.604 355.992Q496.335 356.163 495.07 356.365Q493.805 356.567 492.545 356.799Q491.286 357.032 490.032 357.296Q488.779 357.559 487.532 357.854Q486.286 358.148 485.047 358.473Q483.808 358.797 482.577 359.153Q481.347 359.508 480.125 359.893Q478.903 360.278 477.692 360.693Q476.48 361.108 475.279 361.552Q474.077 361.997 472.888 362.47Q471.698 362.944 470.52 363.447Q469.341 363.95 468.176 364.482Q467.011 365.013 465.859 365.573Q464.707 366.133 463.569 366.721Q462.431 367.309 461.308 367.925Q460.185 368.541 459.077 369.184Q457.97 369.827 456.878 370.497Q455.787 371.167 454.712 371.864Q453.637 372.561 452.58 373.284Q451.522 374.006 450.483 374.755Q448.681 375.973 446.936 377.27Q445.19 378.567 443.504 379.94Q441.818 381.313 440.194 382.76Q438.57 384.206 437.013 385.724Q435.455 387.242 433.966 388.827Q432.478 390.412 431.061 392.062Q429.645 393.712 428.303 395.423Q426.961 397.134 425.696 398.904Q424.432 400.673 423.247 402.497Q422.063 404.32 420.96 406.195Q419.858 408.069 418.84 409.991Q417.822 411.913 416.891 413.878Q415.959 415.843 415.116 417.847Q414.273 419.852 413.52 421.892Q412.767 423.932 412.105 426.004Q411.443 428.075 410.874 430.174C397.456 429.393 383.755 429.951 370.309 429.943C362.741 429.938 354.178 428.809 346.772 430.329C343.603 430.979 341.199 432.264 338.792 434.43C331.388 441.094 317.774 466.358 311.517 476.122C303.941 476.715 296.258 476.488 288.664 476.431C276.819 476.341 265.705 475.364 257.178 485.44C254.597 488.489 252.979 491.935 251.7 495.687C248.444 495.906 244.9 497.029 241.664 497.674Q233.604 499.317 225.405 499.986C194.808 502.631 155.877 502.591 126.582 492.459C124.768 491.832 121.419 491.882 119.909 490.813C119.418 490.465 119.296 485.916 119.151 484.893C118.48 477.385 121.776 460.292 123.056 452.059Q123.614 448.65 124.232 445.251Q124.849 441.852 125.524 438.464Q126.2 435.076 126.934 431.7Q127.668 428.324 128.46 424.962Q129.252 421.599 130.102 418.251Q130.952 414.902 131.86 411.569Q132.768 408.236 133.733 404.919Q134.698 401.602 135.72 398.302Q136.742 395.002 137.82 391.72Q138.899 388.438 140.034 385.175Q141.17 381.912 142.361 378.67Q143.552 375.427 144.799 372.205Q146.046 368.984 147.349 365.784Q148.651 362.584 150.009 359.407Q151.366 356.231 152.778 353.078Q154.19 349.925 155.657 346.797Q157.123 343.669 158.643 340.567Q160.163 337.464 161.736 334.389Q163.309 331.313 164.935 328.265Q166.561 325.217 168.239 322.197Q169.918 319.178 171.648 316.188Q173.378 313.198 175.16 310.238Q176.941 307.278 178.773 304.349Q180.606 301.421 182.488 298.524Q184.371 295.627 186.303 292.763Q188.235 289.9 190.216 287.07Q192.197 284.24 194.227 281.444Q196.257 278.649 198.335 275.889Q200.412 273.129 202.537 270.405Q204.662 267.681 206.834 264.995Q209.006 262.308 211.223 259.659Q213.441 257.01 215.704 254.4C226.461 242.239 237.585 229.856 249.696 219.006C253.602 215.506 265.313 207.6 267.596 203.842C267.724 203.632 267.84 203.414 267.963 203.2C270.817 202.093 271.698 201.141 273.003 198.406Z"
     id="path1497" />
  <path
     fill="#FEFEFE"
     d="M529.535 146.91L529.62 146.954C530.166 148.259 531.387 148.497 532.108 149.618C532.467 150.177 532.278 150.081 532.079 150.921C531.19 151.561 530.559 152.057 529.942 152.976C529.774 153.227 529.611 153.483 529.446 153.736C529.426 153.725 529.401 153.72 529.388 153.702C528.624 152.628 529.116 153.133 528.374 152.421C527.663 151.738 528.032 152.138 527.313 151.327C526.69 150.623 526.863 151.028 526.925 149.982C527.937 149.024 528.718 148.027 529.535 146.91Z"
     id="path1499" />
  <path
     fill="#FEFEFE"
     d="M618.461 332.496C620.42 332.917 622.16 333.306 623.263 335.176C623.833 336.142 623.96 337.077 623.692 338.156C623.059 340.708 621.504 341.757 619.316 342.986C617.237 342.441 615.347 341.838 614.263 339.807C613.626 338.613 613.669 337.545 614.095 336.296C614.782 334.28 616.678 333.353 618.461 332.496Z"
     id="path1501" />
  <path
     fill="#B072DC"
     d="M392.034 293.384C400.54 288.257 408.582 282.472 417.017 277.247C415.808 282.729 414.269 287.44 411.707 292.453C405.173 292.736 398.565 293.296 392.034 293.384Z"
     id="path1503" />
  <path
     fill="#FEFEFE"
     d="M480.787 304.615C482.533 304.851 484.268 305.154 485.77 306.125Q486.177 306.385 486.555 306.686Q486.933 306.987 487.278 307.326Q487.622 307.665 487.93 308.037Q488.237 308.41 488.504 308.813Q488.771 309.216 488.994 309.644Q489.218 310.073 489.395 310.522Q489.573 310.972 489.703 311.437Q489.832 311.903 489.913 312.379Q489.994 312.859 490.026 313.344Q490.059 313.829 490.044 314.316Q490.029 314.802 489.965 315.284Q489.902 315.767 489.792 316.241Q489.682 316.714 489.525 317.175Q489.368 317.635 489.167 318.078Q488.966 318.521 488.722 318.942Q488.478 319.363 488.194 319.758C486.239 322.46 483.849 323.266 480.683 323.766C478.883 323.466 477.299 323.008 475.744 322.016C473.478 320.571 471.884 318.354 471.384 315.702C470.94 313.348 471.582 310.913 472.943 308.968C474.909 306.159 477.553 305.24 480.787 304.615Z"
     id="path1505" />
  <path
     fill="#FEFEFE"
     d="M583.843 178.568C585.496 178.676 587.081 178.797 588.619 179.465Q589.035 179.641 589.431 179.858Q589.827 180.075 590.199 180.33Q590.572 180.585 590.917 180.876Q591.262 181.167 591.577 181.491Q591.891 181.815 592.172 182.168Q592.453 182.522 592.698 182.902Q592.942 183.281 593.147 183.683Q593.353 184.085 593.517 184.506C594.576 187.211 594.341 190.24 593.03 192.816C591.426 195.966 589.163 197.101 585.917 198.13C584.26 197.987 582.539 197.882 581.003 197.194Q580.512 196.971 580.046 196.698Q579.58 196.426 579.145 196.107Q578.71 195.788 578.31 195.426Q577.91 195.064 577.549 194.663Q577.188 194.261 576.87 193.825Q576.553 193.389 576.281 192.923Q576.01 192.456 575.789 191.964Q575.567 191.472 575.397 190.96Q575.243 190.496 575.139 190.018Q575.035 189.539 574.983 189.053Q574.931 188.566 574.931 188.077Q574.932 187.588 574.984 187.101Q575.037 186.615 575.142 186.137Q575.246 185.659 575.401 185.195Q575.557 184.731 575.761 184.286Q575.965 183.841 576.215 183.421C577.966 180.464 580.671 179.405 583.843 178.568Z"
     id="path1507" />
  <path
     fill="#A65CC9"
     d="M392.034 293.384C398.565 293.296 405.173 292.736 411.707 292.453C410.369 294.867 409.103 297.33 407.343 299.471C395.339 303.819 370.919 314.166 358.883 312.313C370.263 306.656 381.098 299.842 392.034 293.384Z"
     id="path1509" />
  <path
     fill="#FEFEFE"
     d="M171.828 415.551C173.817 415.585 175.857 415.8 177.705 416.585Q178.221 416.807 178.712 417.082Q179.202 417.356 179.661 417.68Q180.121 418.004 180.544 418.374Q180.967 418.744 181.35 419.155Q181.733 419.567 182.071 420.016Q182.409 420.465 182.698 420.946Q182.988 421.428 183.226 421.937Q183.465 422.446 183.649 422.977Q183.85 423.556 183.99 424.152Q184.129 424.749 184.207 425.357Q184.284 425.965 184.298 426.577Q184.312 427.19 184.262 427.8Q184.213 428.411 184.1 429.013Q183.988 429.616 183.814 430.203Q183.639 430.791 183.405 431.357Q183.171 431.923 182.88 432.462C181.026 435.862 178.286 437.3 174.729 438.459Q173.95 438.499 173.171 438.448Q172.393 438.398 171.626 438.257Q170.858 438.117 170.112 437.888Q169.366 437.659 168.652 437.346C165.824 436.095 163.615 433.866 162.531 430.951Q162.337 430.422 162.197 429.876Q162.057 429.33 161.973 428.772Q161.889 428.215 161.862 427.652Q161.835 427.089 161.864 426.526Q161.894 425.963 161.98 425.406Q162.066 424.849 162.207 424.304Q162.349 423.758 162.545 423.23Q162.741 422.701 162.989 422.195C164.886 418.33 167.882 416.793 171.828 415.551Z"
     id="path1511" />
  <path
     fill="#6A45BC"
     d="M358.883 312.313C370.919 314.166 395.339 303.819 407.343 299.471C399.862 313.911 383.218 324.783 368.116 329.554C352.952 334.345 339.736 333.358 324.568 329.515Q336.654 323.774 348.507 317.567C351.774 315.893 355.44 313.505 358.883 312.313Z"
     id="path1513" />
  <path
     fill="#36C5AA"
     d="M702.628 239.815C706.893 244.465 713.7 260.929 717.587 267.569C726.81 273.194 736.863 277.397 746.092 283.048C737.01 288.439 727.182 292.565 717.855 297.505C712.644 306.67 708.843 316.674 703.62 325.892C698.51 322.168 693.237 302.855 687.121 297.35C681.052 291.887 668.325 287.63 660.825 283.083C667.104 279.273 683.442 271.994 687.482 268.437C689.913 266.296 699.784 244.868 702.628 239.815Z"
     id="path1515" />
  <path
     fill="#EBB567"
     d="M394.95 209.026C413.353 203.192 470.771 179.303 488.155 188.721C489.874 189.652 491.205 191.042 491.667 192.981C493.025 198.679 488.564 206.372 485.479 210.964C477.831 222.349 467.088 231.933 456.92 241.037C410.676 282.443 355.426 313.527 297.796 336.044C280.369 342.854 262.113 349.503 243.676 352.95C237.133 354.174 225.665 356.459 219.762 352.438C218.126 351.324 216.965 349.726 216.665 347.745C215.764 341.794 221.564 334.408 225.075 330.031C236.347 315.976 251.092 303.886 264.917 292.429C270.533 287.774 276.175 282.749 282.405 278.944C284.429 283.437 286.773 287.895 289.417 292.053C294.469 298.944 299.572 304.752 305.892 310.512C323.584 303.262 340.933 294.573 357.634 285.275C371.58 279.651 391.704 264.881 403.949 255.695Q409.588 251.623 415.074 247.349C413.591 237.705 409.59 229.23 404.792 220.857C401.812 216.6 398.664 212.668 394.95 209.026Z"
     id="path1517" />
  <path
     fill="#382471"
     d="M289.417 292.053C294.469 298.944 299.572 304.752 305.892 310.512C294.368 315.457 278.831 323.152 266.295 323.431C264.28 323.476 262.755 323.268 261.273 321.817C260.795 320.777 260.634 320.017 260.848 318.868C262.446 310.309 282.391 297.236 289.417 292.053Z"
     id="path1519" />
  <path
     fill="#161A60"
     d="M404.792 220.857C412.358 217.859 434.053 210.989 441.711 214.798C442.964 215.421 443.273 216.068 443.868 217.289C443.926 221.633 440.497 225.414 437.627 228.39C430.805 235.464 422.853 241.388 415.074 247.349C413.591 237.705 409.59 229.23 404.792 220.857Z"
     id="path1521" />
  <path
     fill="#A65CC9"
     d="M324.517 192.211C342.73 186.511 361.668 188.01 378.667 197.002C384.715 200.202 389.95 204.394 394.95 209.026C398.664 212.668 401.812 216.6 404.792 220.857C409.59 229.23 413.591 237.705 415.074 247.349Q409.588 251.623 403.949 255.695C391.704 264.881 371.58 279.651 357.634 285.275C340.933 294.573 323.584 303.262 305.892 310.512C299.572 304.752 294.469 298.944 289.417 292.053C286.773 287.895 284.429 283.437 282.405 278.944C277.6 263.39 276.172 248.618 282.001 232.99C286.694 220.404 297.025 205.52 309.563 199.717C314.272 196.463 319.165 194.193 324.517 192.211Z"
     id="path1523" />
  <path
     fill="#B072DC"
     d="M324.517 192.211C342.73 186.511 361.668 188.01 378.667 197.002C384.715 200.202 389.95 204.394 394.95 209.026C398.664 212.668 401.812 216.6 404.792 220.857C409.59 229.23 413.591 237.705 415.074 247.349Q409.588 251.623 403.949 255.695C398.387 253.154 392.801 250.684 387.476 247.664C366.319 235.665 336.645 213.442 324.517 192.211Z"
     id="path1525" />
  <path
     fill="#6A45BC"
     d="M282.405 278.944C277.6 263.39 276.172 248.618 282.001 232.99C286.694 220.404 297.025 205.52 309.563 199.717C302.637 211.861 300.306 225.698 303.996 239.352C308.21 254.941 319.422 268.604 333.439 276.45C338.545 279.309 343.975 281.336 349.59 282.938C352.164 283.672 355.228 284.153 357.634 285.275C340.933 294.573 323.584 303.262 305.892 310.512C299.572 304.752 294.469 298.944 289.417 292.053C286.773 287.895 284.429 283.437 282.405 278.944Z"
     id="path1527" />
  <path
     fill="#24908B"
     d="M604.527 413.651Q661.067 394.93 716.325 372.711C737.22 364.395 757.89 355.507 778.756 347.11Q801.474 337.943 824.077 328.493C832.956 324.849 841.894 320.777 851.083 318.009C855.753 320.742 862.704 342.244 866.47 345.189C866.671 345.346 866.883 345.489 867.089 345.64C894.326 400.983 904.242 462.242 903.577 523.467C903.472 542.775 901.158 562.422 897.701 581.406Q897.003 585.134 896.234 588.849Q895.464 592.563 894.624 596.261Q893.784 599.96 892.872 603.642Q891.961 607.324 890.979 610.988Q889.998 614.652 888.946 618.296Q887.894 621.941 886.772 625.564Q885.651 629.188 884.46 632.789Q883.269 636.39 882.009 639.968Q880.75 643.546 879.421 647.099Q878.093 650.651 876.697 654.178Q875.301 657.705 873.838 661.204Q872.374 664.704 870.844 668.174Q869.313 671.645 867.717 675.086Q866.12 678.526 864.458 681.936Q862.795 685.345 861.068 688.722Q859.34 692.099 857.548 695.442Q855.756 698.785 853.9 702.093Q852.044 705.401 850.126 708.673Q848.207 711.945 846.225 715.179Q844.244 718.414 842.201 721.609Q840.158 724.805 838.054 727.961Q835.95 731.117 833.786 734.232Q831.621 737.348 829.398 740.421Q827.174 743.494 824.892 746.523Q822.61 749.553 820.27 752.538Q817.931 755.524 815.534 758.464Q813.137 761.404 810.685 764.297Q808.232 767.191 805.724 770.037Q803.217 772.882 800.655 775.68Q798.093 778.477 795.478 781.224Q792.863 783.972 790.196 786.669Q787.528 789.366 784.81 792.011C770.959 805.717 752.832 822.421 735.988 832.257Q722.504 840.784 709.107 849.449C698.136 857.247 684.794 863.344 672.611 869.025Q669.41 870.516 666.182 871.946Q662.953 873.376 659.699 874.746Q656.445 876.116 653.165 877.424Q649.885 878.733 646.582 879.98Q643.279 881.227 639.952 882.412Q636.626 883.597 633.278 884.719Q629.931 885.842 626.562 886.902Q623.194 887.962 619.807 888.958Q616.419 889.955 613.014 890.888Q609.608 891.821 606.186 892.69Q602.764 893.559 599.326 894.364Q595.888 895.169 592.435 895.909Q588.983 896.65 585.517 897.325Q582.051 898.001 578.574 898.612Q575.096 899.223 571.607 899.768Q568.119 900.314 564.621 900.794Q561.122 901.274 557.616 901.689Q554.109 902.104 550.596 902.453Q547.082 902.802 543.562 903.085Q540.043 903.368 536.518 903.585Q532.994 903.803 529.466 903.954Q525.939 904.105 522.409 904.191Q518.879 904.276 515.348 904.295Q511.817 904.315 508.286 904.268Q504.756 904.221 501.227 904.108Q497.697 903.995 494.171 903.816Q490.644 903.638 487.122 903.393Q483.599 903.148 480.082 902.837Q476.565 902.527 473.054 902.15Q469.543 901.774 466.04 901.332Q462.537 900.89 459.042 900.382Q455.548 899.875 452.064 899.302C404.891 891.33 357.008 875.256 315.959 850.435C308.713 847.244 295.098 837.333 287.988 832.499C288.212 785.528 287.553 738.533 288.1 691.566C288.457 678.408 288.09 665.139 288.093 651.97Q288.263 615.748 288.053 579.527C284.248 579.564 280.409 579.659 276.609 579.449C269.386 579.05 262.166 576.407 257.384 570.774C254.655 567.56 252.965 563.623 252.177 559.498C250.419 550.284 251.48 539.573 251.437 530.144C251.385 518.839 250.581 506.922 251.7 495.687C252.979 491.935 254.597 488.489 257.178 485.44C265.705 475.364 276.819 476.341 288.664 476.431C296.258 476.488 303.941 476.715 311.517 476.122C317.774 466.358 331.388 441.094 338.792 434.43C341.199 432.264 343.603 430.979 346.772 430.329C354.178 428.809 362.741 429.938 370.309 429.943C383.755 429.951 397.456 429.393 410.874 430.174Q411.443 428.075 412.105 426.004Q412.767 423.932 413.52 421.892Q414.273 419.852 415.116 417.847Q415.959 415.843 416.891 413.878Q417.822 411.913 418.84 409.991Q419.858 408.069 420.96 406.195Q422.062 404.32 423.247 402.497Q424.432 400.673 425.696 398.904Q426.961 397.134 428.303 395.423Q429.645 393.712 431.061 392.062Q432.478 390.412 433.966 388.827Q435.455 387.242 437.013 385.724Q438.57 384.206 440.194 382.76Q441.818 381.313 443.504 379.94Q445.19 378.567 446.936 377.27Q448.681 375.973 450.483 374.755Q451.522 374.006 452.58 373.284Q453.637 372.561 454.712 371.864Q455.787 371.167 456.878 370.497Q457.97 369.827 459.078 369.184Q460.185 368.541 461.308 367.925Q462.431 367.309 463.569 366.721Q464.707 366.133 465.859 365.573Q467.011 365.013 468.176 364.482Q469.342 363.95 470.52 363.447Q471.698 362.944 472.888 362.47Q474.077 361.997 475.279 361.552Q476.48 361.108 477.692 360.693Q478.903 360.278 480.125 359.893Q481.347 359.508 482.577 359.153Q483.808 358.798 485.047 358.473Q486.286 358.148 487.532 357.854Q488.779 357.559 490.032 357.296Q491.286 357.032 492.545 356.799Q493.805 356.567 495.07 356.365Q496.335 356.163 497.604 355.992Q498.873 355.821 500.147 355.682Q501.42 355.542 502.696 355.434Q503.972 355.325 505.251 355.248Q506.529 355.171 507.809 355.126Q509.089 355.08 510.37 355.066Q511.651 355.051 512.932 355.069Q514.212 355.086 515.492 355.134Q516.772 355.183 518.051 355.263Q519.329 355.343 520.605 355.454Q521.881 355.565 523.154 355.708Q524.427 355.85 525.696 356.024Q526.965 356.197 528.229 356.402C555.549 361.07 580.461 377.577 596.337 400.131C599.385 404.462 602.026 408.988 604.527 413.651Z"
     id="path1529" />
  <path
     fill="#EBB567"
     d="M440.977 789.198L440.81 698.995C440.772 690.865 439.019 680.204 445.388 674.059C447.571 671.953 450.089 671.624 452.974 671.258C462.703 670.021 476.694 670.995 486.865 670.997L558.651 671.005C555.038 675.969 549.956 680.345 545.571 684.625Q537.124 692.796 528.937 701.227Q497.887 733.305 466.052 764.603L450.71 779.832C447.596 782.961 444.505 786.543 440.977 789.198Z"
     id="path1531" />
  <path
     fill="#EBB567"
     d="M558.651 671.005C565.232 670.906 574.014 669.819 579.176 674.737C581.908 677.34 582.654 680.854 582.689 684.5C582.701 685.753 582.599 687.023 582.513 688.272L582.631 758.637C582.658 769.878 583.619 782.958 582.414 794.02C582.102 796.89 581.405 800.886 579.317 803.006Q578.86 803.478 578.367 803.911Q577.874 804.345 577.348 804.738Q576.822 805.131 576.266 805.48Q575.71 805.829 575.128 806.133Q574.545 806.436 573.941 806.692Q573.336 806.948 572.712 807.154Q572.089 807.361 571.451 807.516Q570.813 807.672 570.165 807.776C561.419 809.124 547.792 808.104 538.589 808.075L475.493 807.872C471.308 807.834 467.096 807.876 462.915 807.708C456.896 807.764 449.419 808.482 444.757 803.828C440.773 799.851 440.87 794.41 440.977 789.198C444.505 786.543 447.596 782.961 450.71 779.832L466.052 764.603Q497.887 733.305 528.937 701.227Q537.124 692.796 545.571 684.625C549.956 680.345 555.038 675.969 558.651 671.005Z"
     id="path1533" />
  <path
     fill="#F6D7A6"
     d="M558.651 671.005C565.232 670.906 574.014 669.819 579.176 674.737C581.908 677.34 582.654 680.854 582.689 684.5C582.701 685.753 582.599 687.023 582.513 688.272C568.543 699.85 555.299 715.116 542.549 728.106L495.909 774.831C484.947 785.803 474.149 797.017 462.915 807.708C456.896 807.764 449.419 808.482 444.757 803.828C440.773 799.851 440.87 794.41 440.977 789.198C444.505 786.543 447.596 782.961 450.71 779.832L466.052 764.603Q497.887 733.305 528.937 701.227Q537.124 692.796 545.571 684.625C549.956 680.345 555.038 675.969 558.651 671.005Z"
     id="path1535" />
  <path
     fill="#1A7776"
     d="M315.855 553.517L709.27 553.448L709.389 635.593C709.377 649.06 710.26 665.369 709.102 678.572C708.412 668.889 708.911 658.919 708.921 649.199L708.969 595.485L315.909 595.888L315.855 553.517Z"
     id="path1537" />
  <path
     fill="#161A60"
     d="M311.517 476.122C317.774 466.358 331.388 441.094 338.792 434.43C341.199 432.264 343.603 430.979 346.772 430.329C354.178 428.809 362.741 429.938 370.309 429.943C383.755 429.951 397.456 429.393 410.874 430.174C409.2 436.921 408.234 443.717 407.509 450.624L407.474 455.638C408.712 473.02 411.122 486.292 416.396 502.88C407.27 503.458 330.621 503.902 326.529 502.514L325.683 502.61C319.333 503.27 282.052 501.008 279.478 504.017C278.297 505.398 277.801 507.403 277.54 509.163C276.68 514.97 277.256 521.511 277.277 527.386C277.304 534.723 276.967 542.237 277.522 549.541C278.714 550.913 279.869 552.323 281.24 553.521Q298.547 553.635 315.855 553.517L315.909 595.888L315.94 759.45C315.953 789.761 316.385 820.13 315.959 850.435C308.713 847.244 295.098 837.333 287.988 832.499C288.212 785.528 287.553 738.533 288.1 691.566C288.457 678.408 288.09 665.139 288.093 651.97Q288.263 615.748 288.053 579.527C284.248 579.564 280.409 579.659 276.609 579.449C269.386 579.05 262.166 576.407 257.384 570.774C254.655 567.56 252.965 563.623 252.177 559.498C250.419 550.284 251.48 539.573 251.437 530.144C251.385 518.839 250.581 506.922 251.7 495.687C252.979 491.935 254.597 488.489 257.178 485.44C265.705 475.364 276.819 476.341 288.664 476.431C296.258 476.488 303.941 476.715 311.517 476.122Z"
     id="path1539" />
  <path
     fill="#F6D7A6"
     d="M356.291 455.564L407.474 455.638C408.712 473.02 411.122 486.292 416.396 502.88C407.27 503.458 330.621 503.902 326.529 502.514C337.284 487.521 346.692 471.325 356.291 455.564Z"
     id="path1541" />
  <path
     fill="#EBB567"
     d="M326.529 502.514C330.621 503.902 407.27 503.458 416.396 502.88C443.568 501.998 470.868 502.783 498.059 502.545L590.091 502.546C595.331 502.539 600.768 502.229 605.973 502.828C618.178 503.902 631.026 503.117 643.31 503.133C660.797 503.155 678.657 503.782 696.093 502.83L696.566 502.865C707.16 503.572 718.147 502.975 728.783 502.98C732.751 502.982 737.073 502.639 740.983 503.226C742.81 503.501 745.133 504.043 746.469 505.427C747.356 506.346 747.39 507.286 747.51 508.496C748.284 516.29 747.532 524.753 747.456 532.605C747.409 537.348 747.901 542.345 747.602 547.044C747.5 548.631 747.296 549.867 746.616 551.305C741.771 555.102 716.488 553.359 709.27 553.448L315.855 553.517Q298.547 553.635 281.24 553.521C279.869 552.323 278.714 550.913 277.522 549.541C276.967 542.237 277.304 534.723 277.277 527.386C277.256 521.511 276.68 514.97 277.54 509.163C277.801 507.403 278.297 505.398 279.478 504.017C282.052 501.008 319.333 503.27 325.683 502.61L326.529 502.514Z"
     id="path1543" />
  <path
     fill="#36C5AA"
     d="M450.483 374.755Q451.522 374.006 452.58 373.284Q453.637 372.561 454.712 371.864Q455.787 371.167 456.878 370.497Q457.97 369.827 459.078 369.184Q460.185 368.541 461.308 367.925Q462.431 367.309 463.569 366.721Q464.707 366.133 465.859 365.573Q467.011 365.013 468.176 364.482Q469.342 363.95 470.52 363.447Q471.698 362.944 472.888 362.47Q474.077 361.997 475.279 361.552Q476.48 361.108 477.692 360.693Q478.903 360.278 480.125 359.893Q481.347 359.508 482.577 359.153Q483.808 358.798 485.047 358.473Q486.286 358.148 487.532 357.854Q488.779 357.559 490.032 357.296Q491.286 357.032 492.545 356.799Q493.805 356.567 495.07 356.365Q496.335 356.163 497.604 355.992Q498.873 355.821 500.147 355.682Q501.42 355.542 502.696 355.434Q503.972 355.325 505.251 355.248Q506.529 355.171 507.809 355.126Q509.089 355.08 510.37 355.066Q511.651 355.051 512.932 355.069Q514.212 355.086 515.492 355.134Q516.772 355.183 518.051 355.263Q519.329 355.343 520.605 355.454Q521.881 355.565 523.154 355.708Q524.427 355.85 525.696 356.024Q526.965 356.197 528.229 356.402C555.549 361.07 580.461 377.577 596.337 400.131C599.385 404.462 602.026 408.988 604.527 413.651L604.602 414.159C607.209 419.174 608.88 424.635 610.645 429.989C612.802 438.424 614.266 446.636 614.398 455.375C613.715 472.432 611.438 486.624 605.973 502.828C600.768 502.229 595.331 502.539 590.091 502.546L498.059 502.545C470.868 502.783 443.568 501.998 416.396 502.88C411.122 486.292 408.712 473.02 407.474 455.638L407.509 450.624C408.234 443.717 409.2 436.921 410.874 430.174Q411.443 428.075 412.105 426.004Q412.767 423.932 413.52 421.892Q414.273 419.852 415.116 417.847Q415.959 415.843 416.891 413.878Q417.822 411.913 418.84 409.991Q419.858 408.069 420.96 406.195Q422.062 404.32 423.247 402.497Q424.432 400.673 425.696 398.904Q426.961 397.134 428.303 395.423Q429.645 393.712 431.061 392.062Q432.478 390.412 433.966 388.827Q435.455 387.242 437.013 385.724Q438.57 384.206 440.194 382.76Q441.818 381.313 443.504 379.94Q445.19 378.567 446.936 377.27Q448.681 375.973 450.483 374.755Z"
     id="path1545" />
  <path
     fill="#2298BF"
     d="M553.508 385.076C554.612 385.259 555.687 385.465 556.709 385.945C558.368 386.723 559.718 388.223 560.275 389.975C560.741 391.441 560.58 392.879 559.796 394.193C558.656 396.101 556.965 396.831 554.917 397.424C553.844 397.29 552.734 397.139 551.719 396.742C550.171 396.136 548.842 394.717 548.241 393.177C547.577 391.472 547.74 389.841 548.608 388.227C549.624 386.337 551.58 385.637 553.508 385.076Z"
     id="path1547" />
  <path
     fill="#2298BF"
     d="M451.46 464.931C452.411 464.918 453.389 464.94 454.325 465.126C455.958 465.451 457.397 466.56 458.266 467.965C459.152 469.397 459.3 471.141 458.864 472.751C458.228 475.105 456.554 476.349 454.585 477.589C453.771 477.558 452.949 477.541 452.142 477.424C450.482 477.183 448.93 476.1 447.962 474.745C446.968 473.354 446.693 471.625 447.078 469.972C447.669 467.438 449.378 466.261 451.46 464.931Z"
     id="path1549" />
  <path
     fill="#2298BF"
     d="M481.361 402.595C484.951 402.275 488.203 402.358 491.531 403.941C495.584 405.869 498.53 409.394 499.924 413.637C501.288 417.786 501.023 422.487 499.029 426.393C496.635 431.084 492.881 433.255 488.066 434.781C484.459 435.149 480.784 434.948 477.411 433.506Q476.679 433.198 475.984 432.816Q475.288 432.434 474.635 431.983Q473.983 431.531 473.38 431.014Q472.778 430.497 472.233 429.92Q471.687 429.344 471.204 428.714Q470.721 428.084 470.306 427.408Q469.891 426.731 469.548 426.015Q469.205 425.299 468.938 424.552C467.463 420.464 467.635 415.712 469.499 411.775C471.937 406.626 476.204 404.29 481.361 402.595Z"
     id="path1551" />
  <path
     fill="#2298BF"
     d="M614.398 455.375C607.221 455.645 603.922 461.506 593.206 459.759C586.772 458.71 581.185 455.413 577.495 449.987Q577.158 449.494 576.847 448.985Q576.536 448.475 576.251 447.951Q575.966 447.426 575.707 446.888Q575.449 446.35 575.219 445.799Q574.988 445.249 574.785 444.687Q574.583 444.126 574.409 443.555Q574.235 442.984 574.09 442.405Q573.945 441.826 573.829 441.24Q573.714 440.654 573.628 440.063Q573.542 439.473 573.486 438.878Q573.431 438.284 573.405 437.688Q573.379 437.091 573.384 436.494Q573.388 435.897 573.423 435.301Q573.457 434.706 573.522 434.112Q573.587 433.519 573.681 432.929Q573.776 432.34 573.9 431.756Q574.184 430.435 574.611 429.153Q575.038 427.871 575.604 426.644Q576.17 425.417 576.867 424.26Q577.565 423.103 578.385 422.029C588.01 409.266 600.306 416.989 604.602 414.159C607.209 419.174 608.88 424.635 610.645 429.989C612.802 438.424 614.266 446.636 614.398 455.375Z"
     id="path1553" />
  <path
     fill="#2298BF"
     d="M410.874 430.174Q411.443 428.075 412.105 426.004Q412.767 423.932 413.52 421.892Q414.273 419.852 415.116 417.847Q415.959 415.843 416.891 413.878Q417.822 411.913 418.84 409.991Q419.858 408.069 420.96 406.195Q422.062 404.32 423.247 402.497Q424.432 400.673 425.696 398.904Q426.961 397.134 428.303 395.423Q429.645 393.712 431.061 392.062Q432.478 390.412 433.966 388.827Q435.455 387.242 437.013 385.724Q438.57 384.206 440.194 382.76Q441.818 381.313 443.504 379.94Q445.19 378.567 446.936 377.27Q448.681 375.973 450.483 374.755C457.151 385.612 458.625 400.167 455.694 412.425C452.562 425.521 444.832 436.735 433.253 443.742C425.145 448.649 416.923 450.717 407.509 450.624C408.234 443.717 409.2 436.921 410.874 430.174Z"
     id="path1555" />
  <path
     fill="#2298BF"
     d="M498.059 502.545C497.763 488.564 499.217 476.9 509.369 466.346C517.729 457.655 530.027 452.682 542.043 452.579Q543.229 452.576 544.413 452.63Q545.598 452.685 546.778 452.797Q547.959 452.909 549.133 453.077Q550.306 453.246 551.471 453.472Q552.635 453.697 553.787 453.979Q554.938 454.26 556.075 454.597Q557.212 454.934 558.332 455.326Q559.451 455.718 560.55 456.163Q561.649 456.608 562.725 457.107Q563.801 457.605 564.852 458.154Q565.902 458.704 566.925 459.304Q567.948 459.904 568.941 460.553Q569.933 461.201 570.893 461.897Q571.853 462.593 572.778 463.335Q573.704 464.077 574.592 464.863Q575.48 465.648 576.329 466.476C586.398 476.462 590.023 488.646 590.091 502.546L498.059 502.545Z"
     id="path1557" />
  <path
     fill="#483084"
     d="M604.527 413.651Q661.067 394.93 716.325 372.711C737.22 364.395 757.89 355.507 778.756 347.11Q801.474 337.943 824.077 328.493C832.956 324.849 841.894 320.777 851.083 318.009C855.753 320.742 862.704 342.244 866.47 345.189C866.671 345.346 866.883 345.489 867.089 345.64C894.326 400.983 904.242 462.242 903.577 523.467C903.472 542.775 901.158 562.422 897.701 581.406Q897.003 585.134 896.234 588.849Q895.464 592.563 894.624 596.261Q893.784 599.96 892.872 603.642Q891.961 607.324 890.979 610.988Q889.998 614.652 888.946 618.296Q887.894 621.941 886.772 625.564Q885.651 629.188 884.46 632.789Q883.269 636.39 882.009 639.968Q880.75 643.546 879.421 647.099Q878.093 650.651 876.697 654.178Q875.301 657.705 873.838 661.204Q872.374 664.704 870.844 668.174Q869.313 671.645 867.717 675.086Q866.12 678.526 864.458 681.936Q862.795 685.345 861.068 688.722Q859.34 692.099 857.548 695.442Q855.756 698.785 853.9 702.093Q852.044 705.401 850.126 708.673Q848.207 711.945 846.225 715.179Q844.244 718.414 842.201 721.609Q840.158 724.805 838.054 727.961Q835.95 731.117 833.786 734.232Q831.621 737.348 829.398 740.421Q827.174 743.494 824.892 746.523Q822.61 749.553 820.27 752.538Q817.931 755.524 815.534 758.464Q813.137 761.404 810.685 764.297Q808.232 767.191 805.724 770.037Q803.217 772.882 800.655 775.68Q798.093 778.477 795.478 781.224Q792.863 783.972 790.196 786.669Q787.528 789.366 784.81 792.011C770.959 805.717 752.832 822.421 735.988 832.257Q722.504 840.784 709.107 849.449C708.081 792.528 709.537 735.508 709.102 678.572C710.26 665.369 709.377 649.06 709.389 635.593L709.27 553.448C716.488 553.359 741.771 555.102 746.616 551.305C747.296 549.867 747.5 548.631 747.602 547.044C747.901 542.345 747.409 537.348 747.456 532.605C747.532 524.753 748.284 516.29 747.51 508.496C747.39 507.286 747.356 506.346 746.469 505.427C745.133 504.043 742.81 503.501 740.983 503.226C737.073 502.639 732.751 502.982 728.783 502.98C718.147 502.975 707.16 503.572 696.566 502.865L696.093 502.83C678.657 503.782 660.797 503.155 643.31 503.133C631.026 503.117 618.178 503.902 605.973 502.828C611.438 486.624 613.715 472.432 614.398 455.375C614.266 446.636 612.802 438.424 610.645 429.989C608.88 424.635 607.209 419.174 604.602 414.159L604.527 413.651Z"
     id="path1559" />
  <path
     fill="#FEFEFE"
     d="M822.343 498.476C823.43 500.345 824.649 501.193 826.385 502.39C825.2 503.098 823.999 503.755 823.078 504.806C822.891 505.019 822.712 505.239 822.53 505.456L822.273 505.767C821.541 504.468 820.705 503.913 819.501 503.107L819.025 502.794L819.192 502.012C820.307 501.23 821.295 500.568 821.933 499.323C822.076 499.044 822.207 498.758 822.343 498.476Z"
     id="path1561" />
  <path
     fill="#FEFEFE"
     d="M767.209 397.548C769.078 397.435 770.982 397.267 772.766 397.956C775.528 399.024 777.779 401.365 778.794 404.133Q778.971 404.603 779.101 405.088Q779.231 405.574 779.312 406.07Q779.393 406.565 779.424 407.067Q779.456 407.568 779.438 408.07Q779.419 408.572 779.351 409.07Q779.283 409.568 779.166 410.057Q779.048 410.545 778.883 411.02Q778.718 411.494 778.507 411.95C776.929 415.335 774.135 416.837 770.738 417.959C768.836 418.069 767.038 418.049 765.245 417.331C762.662 416.297 760.549 414.32 759.463 411.745Q759.263 411.273 759.111 410.782Q758.96 410.292 758.858 409.789Q758.757 409.286 758.707 408.775Q758.657 408.264 758.659 407.751Q758.661 407.238 758.715 406.727Q758.768 406.217 758.873 405.715Q758.978 405.212 759.133 404.723Q759.288 404.234 759.492 403.763C761.036 400.222 763.75 398.831 767.209 397.548Z"
     id="path1563" />
  <path
     fill="#161A60"
     d="M610.645 429.989Q629.02 429.722 647.396 429.877C655.696 429.904 665.014 428.96 673.077 431.093C677.765 432.334 682.174 435.07 685.672 438.403C692.298 444.715 707.517 468.679 712.243 477.307L732.077 477.27C744.779 477.208 755.952 477.09 765.524 486.741C775.764 497.065 774.625 511.145 774.675 524.5C774.702 531.768 774.822 539.055 774.652 546.321C774.428 555.89 772.128 564.554 764.941 571.342C756.405 579.404 746.7 580.467 735.518 580.822L735.509 627.155C735.894 646.674 735.542 666.233 735.575 685.757L735.988 832.257Q722.504 840.784 709.107 849.449C708.081 792.528 709.537 735.508 709.102 678.572C710.26 665.369 709.377 649.06 709.389 635.593L709.27 553.448C716.488 553.359 741.771 555.102 746.616 551.305C747.296 549.867 747.5 548.631 747.602 547.044C747.901 542.345 747.409 537.348 747.456 532.605C747.532 524.753 748.284 516.29 747.51 508.496C747.39 507.286 747.356 506.346 746.469 505.427C745.133 504.043 742.81 503.501 740.983 503.226C737.073 502.639 732.751 502.982 728.783 502.98C718.147 502.975 707.16 503.572 696.566 502.865L696.093 502.83C678.657 503.782 660.797 503.155 643.31 503.133C631.026 503.117 618.178 503.902 605.973 502.828C611.438 486.624 613.715 472.432 614.398 455.375C614.266 446.636 612.802 438.424 610.645 429.989Z"
     id="path1565" />
  <path
     fill="#F6D7A6"
     d="M614.398 455.375C631.203 456.055 648.085 455.234 664.903 455.609C670.094 460.491 674.088 468.474 677.943 474.523L696.093 502.83C678.657 503.782 660.797 503.155 643.31 503.133C631.026 503.117 618.178 503.902 605.973 502.828C611.438 486.624 613.715 472.432 614.398 455.375Z"
     id="path1567" />
  <defs
     id="defs1574">
    <linearGradient
       id="gradient_0"
       gradientUnits="userSpaceOnUse"
       x1="794.32355"
       y1="545.61084"
       x2="844.67645"
       y2="809.88916">
      <stop
         offset="0"
         stop-color="#A2266E"
         id="stop1569" />
      <stop
         offset="1"
         stop-color="#C15089"
         id="stop1571" />
    </linearGradient>
  </defs>
  <path
     fill="url(#gradient_0)"
     d="M903.577 523.467C903.472 542.775 901.158 562.422 897.701 581.406Q897.003 585.134 896.234 588.849Q895.464 592.563 894.624 596.261Q893.784 599.96 892.872 603.642Q891.961 607.324 890.979 610.988Q889.998 614.652 888.946 618.296Q887.894 621.941 886.772 625.564Q885.651 629.188 884.46 632.789Q883.269 636.39 882.009 639.968Q880.75 643.546 879.421 647.099Q878.093 650.651 876.697 654.178Q875.301 657.705 873.838 661.204Q872.374 664.704 870.844 668.174Q869.313 671.645 867.717 675.086Q866.12 678.526 864.458 681.936Q862.795 685.345 861.068 688.722Q859.34 692.099 857.548 695.442Q855.756 698.785 853.9 702.093Q852.044 705.401 850.126 708.673Q848.207 711.945 846.225 715.179Q844.244 718.414 842.201 721.609Q840.158 724.805 838.054 727.961Q835.95 731.117 833.786 734.232Q831.621 737.348 829.398 740.421Q827.174 743.494 824.892 746.523Q822.61 749.553 820.27 752.538Q817.931 755.524 815.534 758.464Q813.137 761.404 810.685 764.297Q808.232 767.191 805.724 770.037Q803.217 772.882 800.655 775.68Q798.093 778.477 795.478 781.224Q792.863 783.972 790.196 786.669Q787.528 789.366 784.81 792.011C770.959 805.717 752.832 822.421 735.988 832.257L735.575 685.757C735.542 666.233 735.894 646.674 735.509 627.155C735.939 626.152 736.3 625.772 737.24 625.174C752.451 615.51 768.686 607.2 784.2 597.996Q822.663 574.693 860.754 550.788C874.515 542.218 891.049 533.343 903.577 523.467Z"
     id="path1576" />
  <path
     fill="#FEFEFE"
     d="M780.12 743.583L780.991 744.461C781.958 744.711 782.544 744.922 783.332 745.54C783.723 746.925 783.149 748.248 782.536 749.491L780.763 749.413C779.902 750.063 779.87 750.036 778.784 750.018C778.543 749.414 778.38 749.074 778.249 748.401C777.832 746.252 778.974 745.213 780.12 743.583Z"
     id="path1578" />
  <path
     fill="#EBB567"
     d="M775.187 652.85C776.25 654.035 777.006 656.096 777.767 657.531C781.861 665.253 784.335 666.083 792.294 669.301C782.493 673.395 779.847 676 775.483 685.742C774.381 684.378 773.671 682.577 772.794 681.038C769.059 674.482 765.507 671.947 758.471 669.462C767.359 665.67 771.195 661.609 775.187 652.85Z"
     id="path1580" />
</svg>
